<svg width="500" height="500" viewBox="0 0 500 500" fill="none" xmlns="http://www.w3.org/2000/svg">
<g opacity="0.45">
<path d="M371.5 456C417.063 456 454 419.063 454 373.5C454 327.937 417.063 291 371.5 291C325.937 291 289 327.937 289 373.5C289 419.063 325.937 456 371.5 456Z" fill="#E2EFF3"/>
<path d="M189.5 350C267.096 350 330 287.096 330 209.5C330 131.904 267.096 69 189.5 69C111.904 69 49 131.904 49 209.5C49 287.096 111.904 350 189.5 350Z" fill="#CAE7EF"/>
</g>
<path d="M445.913 195.421L441.719 199.261C441.579 199.389 441.457 199.528 441.345 199.673C438.681 197.816 435.752 196.482 432.704 195.677C432.744 195.494 432.774 195.307 432.781 195.115L433.004 189.433C433.073 187.665 431.691 186.17 429.923 186.101L424.241 185.878C422.474 185.809 420.978 187.191 420.909 188.959L420.686 194.641C420.679 194.832 420.694 195.02 420.719 195.205C417.701 195.753 414.754 196.811 412.014 198.383C411.915 198.229 411.805 198.08 411.678 197.94L407.838 193.746C406.643 192.441 404.609 192.351 403.304 193.546L399.11 197.386C397.805 198.581 397.715 200.615 398.911 201.92L402.751 206.114C402.879 206.253 403.018 206.376 403.163 206.488C401.306 209.152 399.972 212.081 399.167 215.129C398.984 215.089 398.797 215.059 398.606 215.052L392.924 214.829C392.073 214.795 391.259 215.093 390.631 215.668C390.627 215.671 390.623 215.675 390.62 215.679C389.991 216.261 389.625 217.053 389.592 217.91L389.369 223.592C389.3 225.36 390.682 226.855 392.45 226.924L398.132 227.147C398.324 227.155 398.511 227.138 398.696 227.112C399.244 230.131 400.302 233.078 401.874 235.818C401.72 235.916 401.571 236.026 401.431 236.154L397.237 239.994C395.932 241.189 395.842 243.223 397.038 244.528L400.878 248.722C402.073 250.027 404.107 250.117 405.412 248.921L409.606 245.081C409.746 244.953 409.868 244.814 409.98 244.669C412.645 246.527 415.574 247.861 418.623 248.666C418.583 248.848 418.552 249.034 418.544 249.227L418.321 254.909C418.287 255.766 418.589 256.584 419.171 257.213C419.753 257.843 420.545 258.208 421.401 258.241L427.083 258.464C427.962 258.498 428.772 258.174 429.375 257.623C429.985 257.065 430.381 256.273 430.416 255.383L430.639 249.701C430.647 249.509 430.63 249.321 430.604 249.137C433.623 248.589 436.57 247.531 439.31 245.959C439.409 246.113 439.519 246.263 439.647 246.402L443.487 250.596C444.682 251.901 446.716 251.991 448.021 250.796L452.215 246.956C453.52 245.761 453.61 243.727 452.414 242.422L448.574 238.228C448.446 238.088 448.307 237.966 448.162 237.854C450.02 235.19 451.354 232.26 452.159 229.211C452.341 229.251 452.527 229.282 452.72 229.29L458.402 229.513C459.281 229.547 460.092 229.223 460.694 228.672C461.304 228.114 461.7 227.322 461.734 226.432L461.958 220.75C462.027 218.982 460.645 217.487 458.877 217.418L453.195 217.195C453.004 217.187 452.816 217.202 452.63 217.227C452.082 214.209 451.024 211.263 449.452 208.523C449.606 208.425 449.756 208.315 449.895 208.187L454.089 204.347C455.394 203.152 455.484 201.118 454.288 199.813L450.448 195.619C449.251 194.315 447.218 194.226 445.913 195.421ZM435.839 233.287C429.71 238.899 420.158 238.479 414.545 232.35C408.933 226.221 409.353 216.669 415.482 211.056C421.611 205.444 431.163 205.864 436.776 211.993C442.388 218.123 441.968 227.675 435.839 233.287Z" stroke="#0F1B63" stroke-miterlimit="10"/>
<path d="M114.387 415.756H112.177C111.769 415.756 111.438 415.425 111.438 415.017C111.438 414.609 111.769 414.278 112.177 414.278H114.387C114.795 414.278 115.126 414.609 115.126 415.017C115.126 415.425 114.795 415.756 114.387 415.756ZM107.253 415.756H102.328C101.92 415.756 101.589 415.425 101.589 415.017C101.589 414.609 101.92 414.278 102.328 414.278H107.253C107.661 414.278 107.992 414.609 107.992 415.017C107.992 415.425 107.661 415.756 107.253 415.756ZM97.403 415.756H92.478C92.07 415.756 91.739 415.425 91.739 415.017C91.739 414.609 92.07 414.278 92.478 414.278H97.403C97.811 414.278 98.142 414.609 98.142 415.017C98.142 415.425 97.811 415.756 97.403 415.756ZM87.553 415.756H82.628C82.22 415.756 81.889 415.425 81.889 415.017C81.889 414.609 82.22 414.278 82.628 414.278H87.553C87.961 414.278 88.292 414.609 88.292 415.017C88.292 415.425 87.961 415.756 87.553 415.756ZM77.703 415.756H72.778C72.37 415.756 72.039 415.425 72.039 415.017C72.039 414.609 72.37 414.278 72.778 414.278H77.703C78.111 414.278 78.442 414.609 78.442 415.017C78.442 415.425 78.111 415.756 77.703 415.756ZM67.853 415.756H62.928C62.52 415.756 62.189 415.425 62.189 415.017C62.189 414.609 62.52 414.278 62.928 414.278H67.853C68.261 414.278 68.592 414.609 68.592 415.017C68.592 415.425 68.261 415.756 67.853 415.756ZM58.003 415.749C57.996 415.749 57.99 415.749 57.983 415.748C56.266 415.7 54.57 415.42 52.942 414.914C52.552 414.793 52.335 414.379 52.456 413.989C52.577 413.6 52.987 413.382 53.38 413.503C54.88 413.969 56.442 414.227 58.024 414.272C58.431 414.283 58.753 414.623 58.742 415.031C58.731 415.431 58.403 415.749 58.003 415.749ZM48.717 412.862C48.579 412.862 48.44 412.823 48.316 412.743C46.884 411.814 45.581 410.692 44.446 409.407C44.177 409.101 44.206 408.634 44.511 408.364C44.815 408.094 45.282 408.122 45.554 408.428C46.6 409.612 47.799 410.646 49.12 411.502C49.462 411.724 49.56 412.182 49.337 412.524C49.196 412.743 48.96 412.862 48.717 412.862ZM42.28 405.57C42.005 405.57 41.741 405.417 41.613 405.153C40.869 403.609 40.339 401.973 40.039 400.291C39.968 399.889 40.235 399.506 40.637 399.434C41.036 399.367 41.422 399.63 41.493 400.032C41.769 401.582 42.257 403.088 42.944 404.51C43.121 404.877 42.967 405.319 42.6 405.496C42.497 405.547 42.388 405.57 42.28 405.57ZM40.488 395.993C40.08 395.993 39.749 395.662 39.749 395.254V390.329C39.749 389.921 40.08 389.59 40.488 389.59C40.896 389.59 41.227 389.921 41.227 390.329V395.254C41.227 395.662 40.896 395.993 40.488 395.993ZM40.488 386.143C40.08 386.143 39.749 385.812 39.749 385.404V380.479C39.749 380.071 40.08 379.74 40.488 379.74C40.896 379.74 41.227 380.071 41.227 380.479V385.404C41.227 385.812 40.896 386.143 40.488 386.143ZM40.488 376.293C40.08 376.293 39.749 375.962 39.749 375.554V370.629C39.749 370.221 40.08 369.89 40.488 369.89C40.896 369.89 41.227 370.221 41.227 370.629V375.554C41.227 375.962 40.896 376.293 40.488 376.293ZM40.488 366.443C40.08 366.443 39.749 366.112 39.749 365.704V360.779C39.749 360.371 40.08 360.04 40.488 360.04C40.896 360.04 41.227 360.371 41.227 360.779V365.704C41.227 366.112 40.896 366.443 40.488 366.443ZM40.488 356.593C40.08 356.593 39.749 356.262 39.749 355.854V350.929C39.749 350.521 40.08 350.19 40.488 350.19C40.896 350.19 41.227 350.521 41.227 350.929V355.854C41.227 356.262 40.896 356.593 40.488 356.593ZM40.488 346.743C40.08 346.743 39.749 346.412 39.749 346.004V341.079C39.749 340.671 40.08 340.34 40.488 340.34C40.896 340.34 41.227 340.671 41.227 341.079V346.004C41.227 346.413 40.896 346.743 40.488 346.743ZM40.488 336.893C40.08 336.893 39.749 336.562 39.749 336.154V331.229C39.749 330.821 40.08 330.49 40.488 330.49C40.896 330.49 41.227 330.821 41.227 331.229V336.154C41.227 336.563 40.896 336.893 40.488 336.893ZM40.488 327.044C40.08 327.044 39.749 326.713 39.749 326.305V321.38C39.749 320.972 40.08 320.641 40.488 320.641C40.896 320.641 41.227 320.972 41.227 321.38V326.305C41.227 326.713 40.896 327.044 40.488 327.044ZM40.488 317.194C40.08 317.194 39.749 316.863 39.749 316.455V311.53C39.749 311.122 40.08 310.791 40.488 310.791C40.896 310.791 41.227 311.122 41.227 311.53V316.455C41.227 316.863 40.896 317.194 40.488 317.194ZM40.488 307.344C40.08 307.344 39.749 307.013 39.749 306.605V301.68C39.749 301.272 40.08 300.941 40.488 300.941C40.896 300.941 41.227 301.272 41.227 301.68V306.605C41.227 307.013 40.896 307.344 40.488 307.344ZM40.488 297.494C40.08 297.494 39.749 297.163 39.749 296.755V291.83C39.749 291.422 40.08 291.091 40.488 291.091C40.896 291.091 41.227 291.422 41.227 291.83V296.755C41.227 297.163 40.896 297.494 40.488 297.494ZM40.488 287.644C40.08 287.644 39.749 287.313 39.749 286.905V281.98C39.749 281.572 40.08 281.241 40.488 281.241C40.896 281.241 41.227 281.572 41.227 281.98V286.905C41.227 287.313 40.896 287.644 40.488 287.644ZM40.488 277.794C40.08 277.794 39.749 277.463 39.749 277.055V276.557C39.749 275.014 39.937 273.479 40.307 271.997C40.406 271.601 40.815 271.361 41.203 271.459C41.599 271.558 41.84 271.959 41.741 272.354C41.401 273.719 41.227 275.133 41.227 276.556V277.054C41.227 277.463 40.896 277.794 40.488 277.794ZM42.854 268.361C42.73 268.361 42.604 268.33 42.488 268.264C42.134 268.062 42.011 267.61 42.213 267.256C43.06 265.773 44.108 264.41 45.327 263.205C45.618 262.919 46.085 262.921 46.372 263.211C46.659 263.501 46.657 263.969 46.366 264.256C45.243 265.366 44.277 266.622 43.497 267.988C43.36 268.227 43.111 268.361 42.854 268.361ZM49.773 261.524C49.513 261.524 49.261 261.387 49.127 261.144C48.929 260.787 49.057 260.338 49.414 260.139C50.912 259.307 52.515 258.686 54.18 258.291C54.581 258.199 54.974 258.442 55.069 258.84C55.163 259.237 54.918 259.635 54.521 259.729C52.988 260.092 51.511 260.664 50.132 261.431C50.018 261.494 49.895 261.524 49.773 261.524ZM172.51 259.265H167.585C167.177 259.265 166.846 258.934 166.846 258.526C166.846 258.118 167.177 257.787 167.585 257.787H172.51C172.918 257.787 173.249 258.118 173.249 258.526C173.249 258.934 172.918 259.265 172.51 259.265ZM162.661 259.265H157.736C157.328 259.265 156.997 258.934 156.997 258.526C156.997 258.118 157.328 257.787 157.736 257.787H162.661C163.069 257.787 163.4 258.118 163.4 258.526C163.399 258.934 163.068 259.265 162.661 259.265ZM152.811 259.265H147.886C147.478 259.265 147.147 258.934 147.147 258.526C147.147 258.118 147.478 257.787 147.886 257.787H152.811C153.219 257.787 153.55 258.118 153.55 258.526C153.549 258.934 153.219 259.265 152.811 259.265ZM142.961 259.265H138.036C137.628 259.265 137.297 258.934 137.297 258.526C137.297 258.118 137.628 257.787 138.036 257.787H142.961C143.369 257.787 143.7 258.118 143.7 258.526C143.7 258.934 143.369 259.265 142.961 259.265ZM133.111 259.265H128.186C127.778 259.265 127.447 258.934 127.447 258.526C127.447 258.118 127.778 257.787 128.186 257.787H133.111C133.519 257.787 133.85 258.118 133.85 258.526C133.85 258.934 133.519 259.265 133.111 259.265ZM123.261 259.265H118.336C117.928 259.265 117.597 258.934 117.597 258.526C117.597 258.118 117.928 257.787 118.336 257.787H123.261C123.669 257.787 124 258.118 124 258.526C124 258.934 123.669 259.265 123.261 259.265ZM113.411 259.265H108.486C108.078 259.265 107.747 258.934 107.747 258.526C107.747 258.118 108.078 257.787 108.486 257.787H113.411C113.819 257.787 114.15 258.118 114.15 258.526C114.15 258.934 113.819 259.265 113.411 259.265ZM103.561 259.265H98.636C98.228 259.265 97.897 258.934 97.897 258.526C97.897 258.118 98.228 257.787 98.636 257.787H103.561C103.969 257.787 104.3 258.118 104.3 258.526C104.3 258.934 103.969 259.265 103.561 259.265ZM93.711 259.265H88.786C88.378 259.265 88.047 258.934 88.047 258.526C88.047 258.118 88.378 257.787 88.786 257.787H93.711C94.119 257.787 94.45 258.118 94.45 258.526C94.45 258.934 94.119 259.265 93.711 259.265ZM83.861 259.265H78.936C78.528 259.265 78.197 258.934 78.197 258.526C78.197 258.118 78.528 257.787 78.936 257.787H83.861C84.269 257.787 84.6 258.118 84.6 258.526C84.6 258.934 84.269 259.265 83.861 259.265ZM74.011 259.265H69.086C68.678 259.265 68.347 258.934 68.347 258.526C68.347 258.118 68.678 257.787 69.086 257.787H74.011C74.419 257.787 74.75 258.118 74.75 258.526C74.75 258.934 74.419 259.265 74.011 259.265ZM64.161 259.265H59.236C58.828 259.265 58.497 258.934 58.497 258.526C58.497 258.118 58.828 257.787 59.236 257.787H64.161C64.569 257.787 64.9 258.118 64.9 258.526C64.9 258.934 64.569 259.265 64.161 259.265Z" fill="#01354B"/>
<path d="M40.488 340.209C42.2658 340.209 43.707 338.768 43.707 336.99C43.707 335.212 42.2658 333.771 40.488 333.771C38.7102 333.771 37.269 335.212 37.269 336.99C37.269 338.768 38.7102 340.209 40.488 340.209Z" fill="#01354B"/>
<path d="M40.4881 343.024C37.1621 343.024 34.4551 340.318 34.4551 336.991C34.4551 333.664 37.1621 330.958 40.4881 330.958C43.8141 330.958 46.5211 333.664 46.5211 336.991C46.5211 340.317 43.8141 343.024 40.4881 343.024ZM40.4881 331.696C37.5691 331.696 35.1941 334.071 35.1941 336.99C35.1941 339.909 37.5691 342.284 40.4881 342.284C43.4071 342.284 45.7821 339.909 45.7821 336.99C45.7821 334.071 43.4081 331.696 40.4881 331.696Z" fill="#01354B"/>
<path d="M206.296 236.753C205.8 236.753 205.397 236.35 205.397 235.854V229.862C205.397 229.366 205.8 228.963 206.296 228.963C206.792 228.963 207.195 229.366 207.195 229.862V235.854C207.195 236.35 206.792 236.753 206.296 236.753ZM206.296 224.769C205.8 224.769 205.397 224.366 205.397 223.87V217.878C205.397 217.382 205.8 216.979 206.296 216.979C206.792 216.979 207.195 217.382 207.195 217.878V223.87C207.195 224.366 206.792 224.769 206.296 224.769ZM206.296 212.784C205.8 212.784 205.397 212.381 205.397 211.885V205.893C205.397 205.397 205.8 204.994 206.296 204.994C206.792 204.994 207.195 205.397 207.195 205.893V211.885C207.195 212.382 206.792 212.784 206.296 212.784ZM206.296 200.8C205.8 200.8 205.397 200.397 205.397 199.901V193.909C205.397 193.413 205.8 193.01 206.296 193.01C206.792 193.01 207.195 193.413 207.195 193.909V199.901C207.195 200.398 206.792 200.8 206.296 200.8ZM206.296 188.816C205.8 188.816 205.397 188.413 205.397 187.917V181.925C205.397 181.429 205.8 181.026 206.296 181.026C206.792 181.026 207.195 181.429 207.195 181.925V187.917C207.195 188.413 206.792 188.816 206.296 188.816ZM206.296 176.832C205.8 176.832 205.397 176.429 205.397 175.933V169.941C205.397 169.445 205.8 169.042 206.296 169.042C206.792 169.042 207.195 169.445 207.195 169.941V175.933C207.195 176.429 206.792 176.832 206.296 176.832ZM301.458 166.037C300.962 166.037 300.559 165.634 300.559 165.138V161.812C300.559 161.316 300.962 160.913 301.458 160.913C301.954 160.913 302.357 161.316 302.357 161.812V165.138C302.357 165.634 301.954 166.037 301.458 166.037ZM206.296 164.848C205.8 164.848 205.397 164.446 205.397 163.949V157.957C205.397 157.461 205.8 157.058 206.296 157.058C206.792 157.058 207.195 157.461 207.195 157.957V163.949C207.195 164.445 206.792 164.848 206.296 164.848ZM301.458 156.719C300.962 156.719 300.559 156.317 300.559 155.82V149.828C300.559 149.332 300.962 148.929 301.458 148.929C301.954 148.929 302.357 149.332 302.357 149.828V155.82C302.357 156.316 301.954 156.719 301.458 156.719ZM206.296 152.864C205.8 152.864 205.397 152.461 205.397 151.965V145.973C205.397 145.477 205.8 145.074 206.296 145.074C206.792 145.074 207.195 145.477 207.195 145.973V151.965C207.195 152.461 206.792 152.864 206.296 152.864ZM301.458 144.734C300.962 144.734 300.559 144.331 300.559 143.835V137.843C300.559 137.347 300.962 136.944 301.458 136.944C301.954 136.944 302.357 137.347 302.357 137.843V143.835C302.357 144.332 301.954 144.734 301.458 144.734ZM206.296 140.879C205.8 140.879 205.397 140.476 205.397 139.98V133.988C205.397 133.492 205.8 133.089 206.296 133.089C206.792 133.089 207.195 133.492 207.195 133.988V139.98C207.195 140.477 206.792 140.879 206.296 140.879ZM301.458 132.75C300.962 132.75 300.559 132.347 300.559 131.851V125.859C300.559 125.363 300.962 124.96 301.458 124.96C301.954 124.96 302.357 125.363 302.357 125.859V131.851C302.357 132.348 301.954 132.75 301.458 132.75ZM206.296 128.895C205.8 128.895 205.397 128.492 205.397 127.996V122.004C205.397 121.508 205.8 121.105 206.296 121.105C206.792 121.105 207.195 121.508 207.195 122.004V127.996C207.195 128.493 206.792 128.895 206.296 128.895ZM301.458 120.766C300.962 120.766 300.559 120.363 300.559 119.867V113.875C300.559 113.379 300.962 112.976 301.458 112.976C301.954 112.976 302.357 113.379 302.357 113.875V119.867C302.357 120.364 301.954 120.766 301.458 120.766ZM206.296 116.911C205.8 116.911 205.397 116.508 205.397 116.012V110.02C205.397 109.524 205.8 109.121 206.296 109.121C206.792 109.121 207.195 109.524 207.195 110.02V116.012C207.195 116.508 206.792 116.911 206.296 116.911ZM301.458 108.782C300.962 108.782 300.559 108.379 300.559 107.883V101.891C300.559 101.395 300.962 100.992 301.458 100.992C301.954 100.992 302.357 101.395 302.357 101.891V107.883C302.357 108.379 301.954 108.782 301.458 108.782ZM206.296 104.927C205.8 104.927 205.397 104.524 205.397 104.028V98.0362C205.397 97.5402 205.8 97.1372 206.296 97.1372C206.792 97.1372 207.195 97.5402 207.195 98.0362V104.028C207.195 104.524 206.792 104.927 206.296 104.927ZM301.419 96.7992C300.946 96.7992 300.55 96.4292 300.523 95.9512C300.414 94.0302 300.044 92.1402 299.424 90.3312C299.264 89.8622 299.514 89.3502 299.983 89.1892C300.448 89.0292 300.965 89.2782 301.124 89.7482C301.798 91.7122 302.2 93.7652 302.318 95.8492C302.346 96.3452 301.967 96.7692 301.472 96.7982C301.454 96.7982 301.437 96.7992 301.419 96.7992ZM206.887 92.9902C206.818 92.9902 206.749 92.9822 206.679 92.9662C206.196 92.8512 205.897 92.3672 206.012 91.8842C206.492 89.8562 207.249 87.9052 208.261 86.0852C208.501 85.6512 209.05 85.4952 209.483 85.7372C209.917 85.9782 210.073 86.5262 209.832 86.9602C208.899 88.6352 208.203 90.4322 207.761 92.2992C207.663 92.7122 207.294 92.9902 206.887 92.9902ZM297.586 85.6102C297.3 85.6102 297.02 85.4752 296.845 85.2232C295.753 83.6432 294.453 82.2202 292.979 80.9932C292.599 80.6752 292.546 80.1082 292.864 79.7272C293.182 79.3442 293.748 79.2952 294.13 79.6122C295.728 80.9432 297.138 82.4872 298.323 84.2002C298.605 84.6092 298.503 85.1682 298.095 85.4512C297.941 85.5592 297.762 85.6102 297.586 85.6102ZM212.629 82.6432C212.401 82.6432 212.173 82.5562 211.997 82.3832C211.644 82.0342 211.641 81.4652 211.99 81.1122C213.456 79.6292 215.114 78.3542 216.917 77.3232C217.346 77.0772 217.897 77.2272 218.144 77.6582C218.39 78.0892 218.24 78.6382 217.809 78.8852C216.147 79.8342 214.62 81.0092 213.268 82.3772C213.092 82.5542 212.86 82.6432 212.629 82.6432ZM288.492 78.0352C288.369 78.0352 288.244 78.0102 288.125 77.9572C286.374 77.1722 284.524 76.6322 282.627 76.3512C282.135 76.2792 281.796 75.8212 281.869 75.3302C281.942 74.8392 282.394 74.4892 282.89 74.5732C284.951 74.8772 286.959 75.4642 288.861 76.3162C289.314 76.5192 289.516 77.0512 289.314 77.5042C289.163 77.8372 288.835 78.0352 288.492 78.0352ZM222.902 76.7762C222.499 76.7762 222.133 76.5032 222.031 76.0952C221.911 75.6132 222.203 75.1252 222.685 75.0052C224.488 74.5552 226.355 74.3262 228.233 74.3262H228.839C229.335 74.3262 229.738 74.7292 229.738 75.2252C229.738 75.7212 229.335 76.1242 228.839 76.1242H228.233C226.502 76.1242 224.782 76.3342 223.12 76.7492C223.048 76.7672 222.974 76.7762 222.902 76.7762ZM276.777 76.1242H270.785C270.289 76.1242 269.886 75.7212 269.886 75.2252C269.886 74.7292 270.289 74.3262 270.785 74.3262H276.777C277.273 74.3262 277.676 74.7292 277.676 75.2252C277.676 75.7212 277.273 76.1242 276.777 76.1242ZM264.793 76.1242H258.801C258.305 76.1242 257.902 75.7212 257.902 75.2252C257.902 74.7292 258.305 74.3262 258.801 74.3262H264.793C265.289 74.3262 265.692 74.7292 265.692 75.2252C265.691 75.7212 265.289 76.1242 264.793 76.1242ZM252.808 76.1242H246.816C246.32 76.1242 245.917 75.7212 245.917 75.2252C245.917 74.7292 246.32 74.3262 246.816 74.3262H252.808C253.304 74.3262 253.707 74.7292 253.707 75.2252C253.707 75.7212 253.305 76.1242 252.808 76.1242ZM240.824 76.1242H234.832C234.336 76.1242 233.933 75.7212 233.933 75.2252C233.933 74.7292 234.336 74.3262 234.832 74.3262H240.824C241.32 74.3262 241.723 74.7292 241.723 75.2252C241.723 75.7212 241.321 76.1242 240.824 76.1242Z" fill="#01354B"/>
<path d="M253.877 78.6021C255.742 78.6021 257.254 77.0902 257.254 75.2251C257.254 73.3601 255.742 71.8481 253.877 71.8481C252.012 71.8481 250.5 73.3601 250.5 75.2251C250.5 77.0902 252.012 78.6021 253.877 78.6021Z" fill="#01354B"/>
<path d="M253.877 81.554C250.387 81.554 247.548 78.715 247.548 75.225C247.548 71.735 250.388 68.896 253.877 68.896C257.367 68.896 260.206 71.735 260.206 75.225C260.206 78.715 257.367 81.554 253.877 81.554ZM253.877 69.671C250.814 69.671 248.323 72.163 248.323 75.225C248.323 78.288 250.815 80.779 253.877 80.779C256.94 80.779 259.431 78.287 259.431 75.225C259.431 72.163 256.94 69.671 253.877 69.671Z" fill="#01354B"/>
<path d="M257.912 123.914H199.958V133.822H257.912V123.914Z" fill="#C1C1C1"/>
<path d="M304.733 120.185H263.306C260.291 120.185 257.431 121.197 255.493 122.95L244.239 131.371H199.904C198.051 131.371 196.548 132.874 196.548 134.727V196.09C196.548 197.943 198.051 199.446 199.904 199.446H307.929C309.782 199.446 311.285 197.944 311.285 196.09V136.804V134.727V127.643C311.285 123.701 308.352 120.185 304.733 120.185Z" fill="#FFC655"/>
<path d="M133.516 305.616L127.372 311.572C127.168 311.77 126.989 311.985 126.827 312.208C122.74 309.528 118.277 307.647 113.658 306.567C113.71 306.289 113.747 306.007 113.75 305.719L113.842 297.162C113.87 294.5 111.728 292.31 109.065 292.282L100.508 292.19C97.8471 292.162 95.6561 294.304 95.6281 296.967L95.5361 305.524C95.5331 305.812 95.5641 306.094 95.6091 306.372C91.0921 307.326 86.7061 309.043 82.6521 311.525C82.4971 311.297 82.3251 311.077 82.1271 310.873L76.1711 304.729C74.3171 302.817 71.2541 302.769 69.3421 304.623L63.1981 310.579C61.2861 312.433 61.2391 315.496 63.0921 317.408L69.0481 323.552C69.2461 323.756 69.4611 323.935 69.6831 324.097C67.0031 328.184 65.1221 332.647 64.0421 337.266C63.7651 337.214 63.4831 337.177 63.1941 337.174L54.6371 337.082C53.3551 337.068 52.1441 337.551 51.2241 338.443C51.2181 338.448 51.2131 338.454 51.2081 338.46C50.2861 339.362 49.7711 340.57 49.7571 341.859L49.6651 350.416C49.6371 353.078 51.7791 355.268 54.4421 355.296L62.9991 355.388C63.2891 355.391 63.5691 355.358 63.8461 355.312C64.8001 359.83 66.5171 364.217 69.0001 368.271C68.7721 368.426 68.5521 368.598 68.3481 368.796L62.2041 374.752C60.2921 376.606 60.2451 379.669 62.0981 381.58L68.0541 387.724C69.9081 389.636 72.9711 389.683 74.8831 387.83L81.0271 381.874C81.2311 381.676 81.4101 381.461 81.5721 381.239C85.6601 383.919 90.1241 385.8 94.7441 386.88C94.6921 387.156 94.6521 387.437 94.6491 387.727L94.5571 396.284C94.5431 397.574 95.0321 398.792 95.9351 399.714C96.8371 400.636 98.0451 401.151 99.3341 401.165L107.891 401.257C109.214 401.271 110.42 400.749 111.302 399.894C112.195 399.028 112.757 397.82 112.771 396.481L112.863 387.924C112.866 387.634 112.833 387.354 112.787 387.077C117.305 386.123 121.692 384.406 125.747 381.923C125.902 382.151 126.074 382.371 126.272 382.575L132.228 388.719C134.082 390.631 137.145 390.678 139.057 388.825L145.201 382.869C147.113 381.015 147.16 377.952 145.307 376.04L139.351 369.896C139.153 369.692 138.938 369.513 138.715 369.351C141.395 365.263 143.276 360.8 144.356 356.179C144.632 356.231 144.913 356.271 145.203 356.274L153.76 356.366C155.083 356.38 156.289 355.858 157.172 355.003C158.065 354.137 158.627 352.929 158.641 351.59L158.734 343.033C158.762 340.37 156.619 338.181 153.957 338.152L145.4 338.06C145.112 338.057 144.83 338.087 144.552 338.133C143.598 333.616 141.881 329.23 139.399 325.176C139.627 325.021 139.847 324.849 140.051 324.651L146.195 318.695C148.107 316.841 148.154 313.778 146.301 311.867L140.345 305.723C138.49 303.81 135.427 303.762 133.516 305.616ZM119.986 363.006C111.007 371.711 96.6211 371.488 87.9161 362.51C79.2111 353.531 79.4341 339.145 88.4131 330.44C97.3921 321.735 111.778 321.958 120.483 330.937C129.187 339.915 128.964 354.301 119.986 363.006Z" stroke="#01354B" stroke-miterlimit="10"/>
<path d="M296.483 375.757H204.512V419.845H296.483V375.757Z" fill="#01354B"/>
<path d="M403.278 167.604V368.446C403.278 374.897 398.049 380.126 391.589 380.126H109.405C102.954 380.126 97.7161 374.897 97.7161 368.446V167.604C97.7161 161.153 102.954 155.915 109.405 155.915H391.589C398.049 155.915 403.278 161.153 403.278 167.604Z" fill="#01354B"/>
<path opacity="0.5" d="M256 366C256 369.314 253.314 372 250 372C246.686 372 244 369.314 244 366C244 362.686 246.686 360 250 360C253.314 360 256 362.686 256 366Z" fill="white"/>
<path d="M399.608 352.765V169.854C399.608 164.31 395.268 159.816 389.915 159.816H111.08C105.727 159.816 101.387 164.31 101.387 169.854V352.765H399.608Z" fill="#CAE7EF"/>
<path d="M314.579 424.595H186.416V424.288C186.416 419.21 190.533 415.094 195.61 415.094H305.384C310.462 415.094 314.578 419.21 314.578 424.288V424.595H314.579Z" fill="#01354B"/>
<path d="M125.432 157.939C125.432 149.086 118.758 141.801 110.169 140.817C110.235 140.238 110.277 139.652 110.277 139.056C110.277 130.568 103.396 123.688 94.909 123.688C92.635 123.688 90.484 124.195 88.542 125.081C84.45 118.702 77.302 114.472 69.16 114.472C56.448 114.472 46.143 124.777 46.143 137.489C46.143 138.608 46.227 139.708 46.382 140.784C37.683 141.664 30.894 149.009 30.894 157.94C30.894 167.464 38.615 175.185 48.139 175.185H109.042V175.142C118.166 174.692 125.432 167.174 125.432 157.939Z" fill="#4E94A6"/>
<path d="M89.2081 188.343V161.549H67.1181V188.343H60.2131L78.1631 205.16L96.1141 188.343H89.2081Z" fill="#FFC655"/>
<path d="M333.235 170.609H278.998C273.983 170.609 269.917 166.543 269.917 161.528V143.49C269.917 138.475 273.983 134.409 278.998 134.409H333.235C338.25 134.409 342.316 138.475 342.316 143.49V161.527C342.316 166.543 338.25 170.609 333.235 170.609Z" fill="#01354B"/>
<path d="M130.776 431.104H76.54C71.525 431.104 67.459 427.038 67.459 422.023V403.986C67.459 398.971 71.525 394.905 76.54 394.905H130.777C135.792 394.905 139.858 398.971 139.858 403.986V422.023C139.858 427.038 135.792 431.104 130.776 431.104Z" fill="#01354B"/>
<path d="M156.857 277.965H102.62C97.6051 277.965 93.5391 273.899 93.5391 268.884V250.847C93.5391 245.832 97.6051 241.766 102.62 241.766H156.857C161.872 241.766 165.938 245.832 165.938 250.847V268.884C165.938 273.899 161.872 277.965 156.857 277.965Z" fill="#01354B"/>
<path d="M347.967 393.867H345.384C344.956 393.867 344.609 393.52 344.609 393.092C344.609 392.664 344.956 392.317 345.384 392.317H347.967C348.395 392.317 348.742 392.664 348.742 393.092C348.742 393.52 348.395 393.867 347.967 393.867Z" fill="#01354B"/>
<path d="M409.98 393.867H404.812C404.384 393.867 404.037 393.52 404.037 393.092C404.037 392.664 404.384 392.317 404.812 392.317H409.98C410.408 392.317 410.755 392.664 410.755 393.092C410.755 393.52 410.408 393.867 409.98 393.867ZM399.644 393.867H394.477C394.049 393.867 393.702 393.52 393.702 393.092C393.702 392.664 394.049 392.317 394.477 392.317H399.644C400.072 392.317 400.419 392.664 400.419 393.092C400.419 393.52 400.072 393.867 399.644 393.867ZM389.309 393.867H384.141C383.713 393.867 383.366 393.52 383.366 393.092C383.366 392.664 383.713 392.317 384.141 392.317H389.309C389.737 392.317 390.084 392.664 390.084 393.092C390.084 393.52 389.737 393.867 389.309 393.867ZM378.973 393.867H373.805C373.377 393.867 373.03 393.52 373.03 393.092C373.03 392.664 373.377 392.317 373.805 392.317H378.973C379.401 392.317 379.748 392.664 379.748 393.092C379.749 393.52 379.401 393.867 378.973 393.867ZM368.638 393.867H363.471C363.043 393.867 362.696 393.52 362.696 393.092C362.696 392.664 363.043 392.317 363.471 392.317H368.638C369.066 392.317 369.413 392.664 369.413 393.092C369.413 393.52 369.066 393.867 368.638 393.867ZM358.303 393.867H353.135C352.707 393.867 352.36 393.52 352.36 393.092C352.36 392.664 352.707 392.317 353.135 392.317H358.303C358.731 392.317 359.078 392.664 359.078 393.092C359.078 393.52 358.731 393.867 358.303 393.867ZM415.097 393.266C414.748 393.266 414.431 393.028 414.345 392.673C414.244 392.257 414.499 391.838 414.915 391.737C416.529 391.346 418.094 390.759 419.565 389.991C419.945 389.793 420.413 389.94 420.61 390.32C420.808 390.699 420.661 391.167 420.281 391.365C418.698 392.191 417.015 392.823 415.28 393.243C415.219 393.259 415.158 393.266 415.097 393.266ZM424.175 388.54C423.96 388.54 423.746 388.451 423.593 388.277C423.31 387.956 423.342 387.466 423.664 387.183C424.912 386.086 426.027 384.84 426.978 383.48C427.222 383.129 427.705 383.043 428.057 383.289C428.408 383.534 428.493 384.018 428.248 384.368C427.227 385.829 426.029 387.168 424.688 388.347C424.54 388.476 424.357 388.54 424.175 388.54ZM430.034 380.152C429.941 380.152 429.846 380.135 429.755 380.1C429.356 379.946 429.157 379.497 429.312 379.098C429.91 377.55 430.318 375.93 430.525 374.283C430.578 373.858 430.952 373.556 431.391 373.611C431.816 373.664 432.117 374.052 432.063 374.477C431.84 376.249 431.401 377.991 430.757 379.657C430.639 379.964 430.345 380.152 430.034 380.152ZM431.464 369.996C431.036 369.996 430.689 369.649 430.689 369.221V364.053C430.689 363.625 431.036 363.278 431.464 363.278C431.892 363.278 432.239 363.625 432.239 364.053V369.221C432.24 369.649 431.892 369.996 431.464 369.996ZM431.464 359.66C431.036 359.66 430.689 359.313 430.689 358.885V353.718C430.689 353.29 431.036 352.943 431.464 352.943C431.892 352.943 432.239 353.29 432.239 353.718V358.885C432.24 359.313 431.892 359.66 431.464 359.66ZM431.464 349.325C431.036 349.325 430.689 348.978 430.689 348.55V343.383C430.689 342.955 431.036 342.608 431.464 342.608C431.892 342.608 432.239 342.955 432.239 343.383V348.55C432.24 348.978 431.892 349.325 431.464 349.325ZM431.464 338.99C431.036 338.99 430.689 338.643 430.689 338.215V333.047C430.689 332.619 431.036 332.272 431.464 332.272C431.892 332.272 432.239 332.619 432.239 333.047V338.215C432.24 338.642 431.892 338.99 431.464 338.99ZM431.464 328.655C431.036 328.655 430.689 328.308 430.689 327.88V322.712C430.689 322.284 431.036 321.937 431.464 321.937C431.892 321.937 432.239 322.284 432.239 322.712V327.88C432.24 328.307 431.892 328.655 431.464 328.655ZM431.464 318.319C431.036 318.319 430.689 317.972 430.689 317.544V312.377C430.689 311.949 431.036 311.602 431.464 311.602C431.892 311.602 432.239 311.949 432.239 312.377V317.544C432.24 317.972 431.892 318.319 431.464 318.319ZM431.464 307.983C431.036 307.983 430.689 307.636 430.689 307.208V302.04C430.689 301.612 431.036 301.265 431.464 301.265C431.892 301.265 432.239 301.612 432.239 302.04V307.208C432.24 307.636 431.892 307.983 431.464 307.983Z" fill="#01354B"/>
<path d="M431.464 297.625C431.036 297.625 430.689 297.278 430.689 296.85V295.042H430.039C429.611 295.042 429.264 294.695 429.264 294.267C429.264 293.839 429.611 293.492 430.039 293.492H431.464C431.892 293.492 432.239 293.839 432.239 294.267V296.85C432.24 297.278 431.892 297.625 431.464 297.625Z" fill="#01354B"/>
<path d="M407.411 215.995H339.606C335.53 215.995 332.226 219.299 332.226 223.375V364.284C332.226 368.36 335.53 371.664 339.606 371.664H407.411C411.487 371.664 414.791 368.36 414.791 364.284V223.375C414.791 219.299 411.487 215.995 407.411 215.995Z" fill="#4E94A6"/>
<path d="M388.67 224.115H351.373C350.726 224.115 350.201 223.59 350.201 222.943V222.792C350.201 222.145 350.726 221.62 351.373 221.62H388.67C389.317 221.62 389.842 222.145 389.842 222.792V222.943C389.842 223.59 389.317 224.115 388.67 224.115Z" fill="#0F1B63"/>
<path d="M396.816 222.867C396.816 223.556 396.257 224.115 395.568 224.115C394.879 224.115 394.32 223.556 394.32 222.867C394.32 222.178 394.879 221.619 395.568 221.619C396.257 221.619 396.816 222.178 396.816 222.867Z" fill="#0F1B63"/>
<path d="M410.246 230.131H336.771V275.28H410.246V230.131Z" fill="white"/>
<path d="M387.448 248.997L382.061 255.441L368.122 238.766L344.816 266.645H372.695H391.426H402.201L387.448 248.997Z" fill="#01354B"/>
<path d="M371.46 335.083H336.771V355.429H371.46V335.083Z" fill="white"/>
<path d="M360.697 342.99L358.153 346.032L351.572 338.159L340.569 351.322H353.731H362.575H367.662L360.697 342.99Z" fill="#01354B"/>
<path d="M371.46 286.893H336.771V288.842H371.46V286.893Z" fill="#215468"/>
<path d="M371.46 282.809H336.771V284.758H371.46V282.809Z" fill="#215468"/>
<path d="M358.705 290.883H336.771V292.832H358.705V290.883Z" fill="#215468"/>
<path d="M371.459 290.883H360.264V292.832H371.459V290.883Z" fill="#215468"/>
<path d="M367.461 294.868H336.771V296.817H367.461V294.868Z" fill="#215468"/>
<path d="M347.43 298.962H336.771V300.911H347.43V298.962Z" fill="#215468"/>
<path d="M356.946 298.962H349.269V300.911H356.946V298.962Z" fill="#215468"/>
<path d="M410.246 314.188H375.557V316.137H410.246V314.188Z" fill="#215468"/>
<path d="M410.246 310.103H375.557V312.052H410.246V310.103Z" fill="#215468"/>
<path d="M397.491 318.177H375.557V320.126H397.491V318.177Z" fill="#215468"/>
<path d="M410.245 318.177H399.05V320.126H410.245V318.177Z" fill="#215468"/>
<path d="M406.247 322.162H375.557V324.111H406.247V322.162Z" fill="#215468"/>
<path d="M386.216 326.256H375.557V328.205H386.216V326.256Z" fill="#215468"/>
<path d="M395.732 326.256H388.055V328.205H395.732V326.256Z" fill="#215468"/>
<path d="M410.246 286.893H375.557V288.842H410.246V286.893Z" fill="#215468"/>
<path d="M410.246 282.809H375.557V284.758H410.246V282.809Z" fill="#215468"/>
<path d="M397.491 290.883H375.557V292.832H397.491V290.883Z" fill="#215468"/>
<path d="M410.245 290.883H399.05V292.832H410.245V290.883Z" fill="#215468"/>
<path d="M410.246 294.868H375.557V296.817H410.246V294.868Z" fill="#215468"/>
<path d="M386.216 298.962H375.557V300.911H386.216V298.962Z" fill="#215468"/>
<path d="M410.246 298.962H388.055V300.911H410.246V298.962Z" fill="#215468"/>
<path d="M371.46 314.188H336.771V316.137H371.46V314.188Z" fill="#215468"/>
<path d="M371.46 310.103H336.771V312.052H371.46V310.103Z" fill="#215468"/>
<path d="M371.46 318.177H336.771V320.126H371.46V318.177Z" fill="#215468"/>
<path d="M371.46 322.162H336.771V324.111H371.46V322.162Z" fill="#215468"/>
<path d="M371.46 326.256H336.771V328.205H371.46V326.256Z" fill="#215468"/>
<path d="M410.246 339.833H375.557V341.782H410.246V339.833Z" fill="#215468"/>
<path d="M410.246 335.749H375.557V337.698H410.246V335.749Z" fill="#215468"/>
<path d="M410.245 343.822H388.311V345.771H410.245V343.822Z" fill="#215468"/>
<path d="M386.752 343.822H375.557V345.771H386.752V343.822Z" fill="#215468"/>
<path d="M402.193 347.807H375.557V349.756H402.193V347.807Z" fill="#215468"/>
<path d="M410.245 347.807H404.043V349.756H410.245V347.807Z" fill="#215468"/>
<path d="M410.246 351.901H384.658V353.85H410.246V351.901Z" fill="#215468"/>
<path d="M383.234 351.901H375.557V353.85H383.234V351.901Z" fill="#215468"/>
<path d="M348.653 407.864H294.416C289.401 407.864 285.335 403.798 285.335 398.783V380.746C285.335 375.731 289.401 371.665 294.416 371.665H348.653C353.668 371.665 357.734 375.731 357.734 380.746V398.783C357.734 403.798 353.668 407.864 348.653 407.864Z" fill="#4E94A6"/>
<path d="M434.258 347.825C434.258 349.69 432.746 351.202 430.881 351.202C429.016 351.202 427.504 349.69 427.504 347.825C427.504 345.96 429.016 344.448 430.881 344.448C432.746 344.448 434.258 345.96 434.258 347.825Z" fill="#01354B"/>
<path d="M430.88 354.154C427.39 354.154 424.551 351.315 424.551 347.825C424.551 344.335 427.391 341.496 430.88 341.496C434.37 341.496 437.209 344.335 437.209 347.825C437.21 351.315 434.37 354.154 430.88 354.154ZM430.88 342.27C427.817 342.27 425.326 344.762 425.326 347.824C425.326 350.886 427.818 353.378 430.88 353.378C433.943 353.378 436.434 350.886 436.434 347.824C436.434 344.762 433.943 342.27 430.88 342.27Z" fill="#01354B"/>
<path d="M460.024 298.274H405.787C400.772 298.274 396.706 294.208 396.706 289.193V271.156C396.706 266.141 400.772 262.075 405.787 262.075H460.024C465.039 262.075 469.105 266.141 469.105 271.156V289.193C469.105 294.208 465.039 298.274 460.024 298.274Z" fill="#01354B"/>
<path d="M265.307 304.901H242.526V306.968H265.307V304.901Z" fill="#0F1B63"/>
<path d="M323.908 304.901H271.151V306.968H323.908V304.901Z" fill="#0F1B63"/>
<path d="M296.869 322.686C287.813 322.686 278.737 322.675 269.703 322.653L269.707 320.586C287.773 320.629 306.007 320.629 323.905 320.586L323.91 322.653C314.96 322.675 305.925 322.686 296.869 322.686Z" fill="#0F1B63"/>
<path d="M323.908 312.744H261.403V314.811H323.908V312.744Z" fill="#0F1B63"/>
<path d="M323.909 328.462H258.003V330.529H323.909V328.462Z" fill="#0F1B63"/>
<path d="M323.909 336.305H248.862V338.372H323.909V336.305Z" fill="#0F1B63"/>
<path d="M154.688 186.717H119.403V188.784H154.688V186.717Z" fill="#01354B"/>
<path d="M236.697 186.717H200.285V188.784H236.697V186.717Z" fill="#01354B"/>
<path d="M236.697 194.56H211.439V196.627H236.697V194.56Z" fill="#FFC655"/>
<path d="M236.697 210.279H201.049V212.346H236.697V210.279Z" fill="#FFC655"/>
<path d="M236.697 218.121H194.067V220.188H236.697V218.121Z" fill="#FFC655"/>
<path d="M236.697 227.291H181.862V229.358H236.697V227.291Z" fill="#FFC655"/>
<path d="M195.692 186.717H160.407V188.784H195.692V186.717Z" fill="#FFC655"/>
<path d="M208.212 204.502C202.822 204.502 197.413 204.494 186.595 204.479L179.562 204.469L179.564 202.402L186.598 202.412C208.23 202.442 208.232 202.442 229.711 202.412L236.697 202.402V204.469L229.714 204.479C218.973 204.495 213.602 204.502 208.212 204.502Z" fill="#FFC655"/>
<path d="M146.442 204.502C137.386 204.502 128.351 204.491 119.401 204.47L119.405 202.403C137.303 202.446 155.539 202.446 173.605 202.403L173.609 204.47C164.574 204.492 155.497 204.502 146.442 204.502Z" fill="#01354B"/>
<path d="M206.428 194.56H119.403V196.627H206.428V194.56Z" fill="#01354B"/>
<path d="M177.031 227.291H119.403V229.358H177.031V227.291Z" fill="#01354B"/>
<path d="M196.549 210.279H119.403V212.346H196.549V210.279Z" fill="#01354B"/>
<path d="M189.32 218.121H119.403V220.188H189.32V218.121Z" fill="#01354B"/>
<path d="M112.017 189.176C112.804 189.176 113.442 188.538 113.442 187.751C113.442 186.964 112.804 186.326 112.017 186.326C111.23 186.326 110.592 186.964 110.592 187.751C110.592 188.538 111.23 189.176 112.017 189.176Z" fill="#D42190"/>
<path d="M113.442 195.593C113.442 196.38 112.804 197.018 112.017 197.018C111.23 197.018 110.592 196.38 110.592 195.593C110.592 194.806 111.23 194.168 112.017 194.168C112.804 194.167 113.442 194.805 113.442 195.593Z" fill="#D42190"/>
<path d="M112.017 204.861C112.804 204.861 113.442 204.223 113.442 203.436C113.442 202.649 112.804 202.011 112.017 202.011C111.23 202.011 110.592 202.649 110.592 203.436C110.592 204.223 111.23 204.861 112.017 204.861Z" fill="#D42190"/>
<path d="M113.442 211.279C113.442 212.066 112.804 212.704 112.017 212.704C111.23 212.704 110.592 212.066 110.592 211.279C110.592 210.492 111.23 209.854 112.017 209.854C112.804 209.854 113.442 210.492 113.442 211.279Z" fill="#D42190"/>
<path d="M112.017 220.579C112.804 220.579 113.442 219.942 113.442 219.154C113.442 218.367 112.804 217.729 112.017 217.729C111.23 217.729 110.592 218.367 110.592 219.154C110.592 219.942 111.23 220.579 112.017 220.579Z" fill="#D42190"/>
<path d="M113.442 228.323C113.442 229.11 112.804 229.748 112.017 229.748C111.23 229.748 110.592 229.11 110.592 228.323C110.592 227.536 111.23 226.898 112.017 226.898C112.804 226.898 113.442 227.536 113.442 228.323Z" fill="#D42190"/>
<path d="M246.103 232.997C245.817 232.997 245.586 232.766 245.586 232.48V186.59C245.586 186.304 245.817 186.073 246.103 186.073C246.389 186.073 246.62 186.304 246.62 186.59V232.481C246.619 232.766 246.388 232.997 246.103 232.997Z" fill="#D42190"/>
<path d="M158.137 331.986H154.96C154.667 331.986 154.431 331.749 154.431 331.457C154.431 331.164 154.668 330.928 154.96 330.928H158.137C158.43 330.928 158.666 331.165 158.666 331.457C158.667 331.749 158.43 331.986 158.137 331.986ZM151.784 331.986H148.608C148.315 331.986 148.079 331.749 148.079 331.457C148.079 331.164 148.316 330.928 148.608 330.928H151.784C152.077 330.928 152.313 331.165 152.313 331.457C152.314 331.749 152.077 331.986 151.784 331.986ZM145.431 331.986H144.145C143.422 331.986 142.707 331.801 142.078 331.452C141.821 331.31 141.73 330.988 141.871 330.732C142.014 330.475 142.339 330.385 142.591 330.526C143.064 330.788 143.601 330.927 144.145 330.927H145.431C145.724 330.927 145.96 331.164 145.96 331.456C145.961 331.749 145.724 331.986 145.431 331.986ZM140.493 329.048C140.25 329.048 140.031 328.879 139.977 328.631C139.912 328.332 139.879 328.025 139.879 327.72V325.349C139.879 325.056 140.116 324.82 140.408 324.82C140.7 324.82 140.937 325.057 140.937 325.349V327.72C140.937 327.949 140.962 328.181 141.011 328.407C141.073 328.693 140.892 328.975 140.607 329.037C140.568 329.044 140.53 329.048 140.493 329.048ZM140.408 322.702C140.115 322.702 139.879 322.465 139.879 322.173V318.996C139.879 318.703 140.116 318.467 140.408 318.467C140.7 318.467 140.937 318.704 140.937 318.996V322.173C140.937 322.465 140.701 322.702 140.408 322.702ZM140.408 316.349C140.115 316.349 139.879 316.112 139.879 315.819V312.642C139.879 312.349 140.116 312.113 140.408 312.113C140.7 312.113 140.937 312.35 140.937 312.642V315.819C140.937 316.112 140.701 316.349 140.408 316.349ZM140.408 309.995C140.115 309.995 139.879 309.758 139.879 309.466V306.289C139.879 305.996 140.116 305.76 140.408 305.76C140.7 305.76 140.937 305.997 140.937 306.289V309.466C140.937 309.759 140.701 309.995 140.408 309.995ZM140.408 303.642C140.115 303.642 139.879 303.405 139.879 303.113V302.726C139.879 301.649 140.281 300.62 141.012 299.83C141.211 299.616 141.545 299.602 141.761 299.801C141.975 299.999 141.989 300.335 141.79 300.549C141.241 301.143 140.938 301.916 140.938 302.727V303.114C140.937 303.406 140.701 303.642 140.408 303.642ZM160.121 299.519H156.945C156.652 299.519 156.416 299.282 156.416 298.99C156.416 298.698 156.653 298.461 156.945 298.461H160.121C160.414 298.461 160.651 298.698 160.651 298.99C160.651 299.282 160.414 299.519 160.121 299.519ZM153.768 299.519H150.592C150.299 299.519 150.063 299.282 150.063 298.99C150.063 298.698 150.3 298.461 150.592 298.461H153.768C154.061 298.461 154.297 298.698 154.297 298.99C154.297 299.282 154.061 299.519 153.768 299.519ZM147.415 299.519H144.239C143.946 299.519 143.71 299.282 143.71 298.99C143.71 298.698 143.947 298.461 144.239 298.461H147.415C147.708 298.461 147.944 298.698 147.944 298.99C147.944 299.282 147.708 299.519 147.415 299.519Z" fill="#0F1B63"/>
<path d="M169.66 318.238H152.655V320.356H169.66V318.238Z" fill="#0F1B63"/>
<path d="M201.583 318.238H174.111V320.356H201.583V318.238Z" fill="#0F1B63"/>
<path d="M201.582 336.254H184.578V338.372H201.582V336.254Z" fill="#0F1B63"/>
<path d="M180.128 336.254H152.655V338.372H180.128V336.254Z" fill="#0F1B63"/>
<path d="M182.564 324.374H152.655V326.492H182.564V324.374Z" fill="#0F1B63"/>
<path d="M201.582 324.374H187.014V326.492H201.582V324.374Z" fill="#0F1B63"/>
<path d="M177.268 330.398H152.655V332.516H177.268V330.398Z" fill="#0F1B63"/>
<path d="M201.582 330.398H184.881V332.516H201.582V330.398Z" fill="#0F1B63"/>
<path d="M161.557 292.654H152.655V309.23H161.557V292.654Z" fill="#FFC655"/>
<path d="M175.523 286.361H166.621V309.229H175.523V286.361Z" fill="#4E94A6"/>
<path d="M189.029 273.315H180.127V309.229H189.029V273.315Z" fill="#01354B"/>
<path d="M182.815 330.398H179.62V332.516H182.815V330.398Z" fill="#0F1B63"/>
<path d="M323.107 217.052H256.468V291.402H323.107V217.052Z" fill="#4E94A6"/>
<path d="M308.314 230.266H261.848V231.816H308.314V230.266Z" fill="white"/>
<path d="M285.032 243.097C277.052 243.097 269.087 243.089 261.847 243.071L261.851 241.521C276.329 241.557 293.7 241.557 308.313 241.521L308.317 243.071C301.008 243.089 293.012 243.097 285.032 243.097Z" fill="white"/>
<path d="M308.314 235.894H261.848V237.444H308.314V235.894Z" fill="white"/>
<path d="M295.722 247.176H261.848V248.726H295.722V247.176Z" fill="white"/>
<path d="M308.314 285.061H261.848V286.611H308.314V285.061Z" fill="white"/>
<path d="M308.313 275.356C293.698 275.321 276.328 275.321 261.851 275.356L261.847 273.806C276.328 273.772 293.701 273.772 308.317 273.806L308.313 275.356Z" fill="white"/>
<path d="M308.314 279.434H261.848V280.984H308.314V279.434Z" fill="white"/>
<path d="M295.722 268.152H261.848V269.702H295.722V268.152Z" fill="white"/>
<path d="M324.14 292.435H255.434V215.995H324.14V292.435ZM256.468 291.402H323.107V217.028H256.468V291.402Z" fill="#542FD0"/>
<path d="M323.624 216.511H255.951V225.417H323.624V216.511Z" fill="#01354B"/>
<path d="M304.298 264.192C304.115 264.192 303.933 264.128 303.784 263.998L298.577 259.397C298.41 259.25 298.316 259.038 298.316 258.816C298.316 258.594 298.411 258.382 298.577 258.235L303.784 253.634C304.105 253.351 304.594 253.379 304.879 253.702C305.162 254.023 305.131 254.512 304.811 254.796L300.261 258.816L304.811 262.836C305.131 263.12 305.161 263.609 304.879 263.93C304.726 264.104 304.512 264.192 304.298 264.192Z" fill="white"/>
<path d="M312.331 264.192C312.117 264.192 311.903 264.104 311.75 263.93C311.467 263.609 311.498 263.12 311.818 262.836L316.368 258.816L311.818 254.796C311.498 254.512 311.468 254.023 311.75 253.702C312.034 253.381 312.523 253.352 312.845 253.634L318.052 258.235C318.219 258.382 318.313 258.594 318.313 258.816C318.313 259.038 318.218 259.249 318.052 259.397L312.845 263.998C312.697 264.128 312.514 264.192 312.331 264.192Z" fill="white"/>
<path d="M262.36 220.965L264.165 219.16C264.336 218.989 264.336 218.713 264.165 218.542C263.994 218.371 263.718 218.371 263.547 218.542L261.742 220.347L259.937 218.542C259.766 218.371 259.49 218.371 259.319 218.542C259.148 218.713 259.148 218.989 259.319 219.16L261.124 220.965L259.319 222.77C259.148 222.941 259.148 223.217 259.319 223.388C259.404 223.473 259.516 223.516 259.628 223.516C259.74 223.516 259.852 223.473 259.937 223.388L261.742 221.583L263.547 223.388C263.632 223.473 263.744 223.516 263.856 223.516C263.968 223.516 264.08 223.473 264.165 223.388C264.336 223.217 264.336 222.941 264.165 222.77L262.36 220.965Z" fill="white"/>
<path d="M270.103 223.516C268.696 223.516 267.551 222.371 267.551 220.965C267.551 219.558 268.696 218.414 270.103 218.414C271.51 218.414 272.654 219.559 272.654 220.965C272.654 222.372 271.51 223.516 270.103 223.516ZM270.103 219.23C269.147 219.23 268.369 220.008 268.369 220.964C268.369 221.92 269.147 222.698 270.103 222.698C271.059 222.698 271.837 221.92 271.837 220.964C271.837 220.008 271.059 219.23 270.103 219.23Z" fill="white"/>
<path d="M279.974 223.516H275.816C275.574 223.516 275.379 223.32 275.379 223.079C275.379 222.838 275.574 222.642 275.816 222.642H279.974C280.216 222.642 280.411 222.838 280.411 223.079C280.411 223.32 280.215 223.516 279.974 223.516Z" fill="white"/>
<path d="M235.172 116.956L229.154 118.86C228.954 118.923 228.765 119.006 228.585 119.1C226.772 115.984 224.448 113.271 221.757 111.035C221.883 110.869 222 110.695 222.097 110.506L224.98 104.891C225.877 103.144 225.185 100.993 223.438 100.095L217.823 97.2122C216.076 96.3162 213.924 97.0072 213.027 98.7542L210.144 104.369C210.047 104.558 209.974 104.754 209.913 104.952C206.618 104.091 203.158 103.778 199.664 104.079C199.637 103.878 199.596 103.676 199.533 103.476L197.629 97.4582C197.037 95.5852 195.031 94.5432 193.158 95.1362L187.14 97.0402C185.267 97.6322 184.226 99.6382 184.818 101.511L186.722 107.529C186.785 107.729 186.868 107.918 186.962 108.098C183.846 109.911 181.133 112.235 178.897 114.926C178.731 114.8 178.557 114.683 178.368 114.586L172.753 111.703C171.912 111.271 170.953 111.19 170.052 111.475C170.047 111.477 170.041 111.478 170.036 111.481C169.13 111.772 168.392 112.399 167.957 113.245L165.074 118.86C164.177 120.607 164.869 122.758 166.616 123.656L172.231 126.539C172.421 126.637 172.617 126.707 172.815 126.768C171.954 130.063 171.64 133.524 171.941 137.018C171.74 137.045 171.538 137.086 171.338 137.149L165.32 139.053C163.447 139.645 162.406 141.651 162.998 143.524L164.902 149.542C165.494 151.415 167.5 152.456 169.373 151.864L175.391 149.96C175.591 149.897 175.78 149.814 175.96 149.72C177.773 152.837 180.098 155.55 182.79 157.787C182.665 157.952 182.546 158.124 182.448 158.314L179.565 163.929C179.13 164.775 179.051 165.741 179.342 166.646C179.633 167.552 180.26 168.29 181.106 168.724L186.721 171.607C187.589 172.053 188.557 172.106 189.421 171.832C190.296 171.555 191.065 170.943 191.516 170.064L194.399 164.449C194.497 164.259 194.567 164.063 194.628 163.865C197.923 164.726 201.384 165.039 204.879 164.739C204.906 164.94 204.947 165.142 205.01 165.343L206.914 171.361C207.506 173.234 209.512 174.275 211.385 173.683L217.403 171.779C219.276 171.187 220.317 169.181 219.725 167.308L217.821 161.29C217.758 161.09 217.675 160.901 217.581 160.721C220.698 158.908 223.411 156.583 225.648 153.891C225.813 154.017 225.985 154.135 226.176 154.233L231.791 157.116C232.659 157.562 233.627 157.615 234.492 157.342C235.367 157.065 236.136 156.453 236.587 155.574L239.471 149.959C240.368 148.212 239.676 146.06 237.929 145.163L232.314 142.28C232.125 142.183 231.929 142.11 231.73 142.048C232.59 138.753 232.904 135.293 232.603 131.8C232.804 131.773 233.006 131.732 233.207 131.669L239.225 129.765C241.098 129.173 242.139 127.167 241.547 125.295L239.643 119.277C239.05 117.406 237.045 116.364 235.172 116.956ZM207.317 150.359C198.522 153.141 189.103 148.249 186.321 139.454C183.539 130.659 188.431 121.24 197.226 118.458C206.021 115.676 215.439 120.568 218.221 129.363C221.003 138.159 216.111 147.577 207.317 150.359Z" fill="#01354B"/>
<path d="M227.573 256.675L226.11 260.257C226.061 260.376 226.026 260.497 226 260.619C223.821 260.251 221.631 260.283 219.522 260.674C219.493 260.55 219.457 260.426 219.406 260.306L217.89 256.746C217.418 255.638 216.134 255.121 215.026 255.592L211.466 257.107C210.359 257.578 209.841 258.864 210.312 259.971L211.828 263.531C211.879 263.651 211.943 263.762 212.012 263.869C210.315 265.084 208.81 266.592 207.582 268.356C207.477 268.29 207.366 268.23 207.246 268.181L203.664 266.718C202.549 266.263 201.272 266.799 200.817 267.914L199.354 271.496C198.899 272.611 199.435 273.888 200.55 274.343L204.132 275.806C204.251 275.855 204.372 275.89 204.494 275.916C204.126 278.095 204.158 280.285 204.549 282.394C204.425 282.423 204.301 282.459 204.181 282.51L200.621 284.026C200.087 284.253 199.674 284.673 199.455 285.209C199.454 285.212 199.452 285.216 199.451 285.219C199.233 285.76 199.239 286.354 199.467 286.89L200.983 290.45C201.455 291.557 202.74 292.075 203.847 291.604L207.407 290.088C207.527 290.037 207.638 289.972 207.744 289.903C208.959 291.601 210.467 293.106 212.232 294.334C212.166 294.439 212.106 294.551 212.057 294.67L210.594 298.252C210.139 299.367 210.675 300.644 211.79 301.099L215.372 302.562C216.487 303.017 217.764 302.481 218.219 301.366L219.682 297.784C219.731 297.665 219.766 297.544 219.792 297.422C221.971 297.79 224.162 297.758 226.271 297.366C226.3 297.49 226.334 297.613 226.386 297.734L227.902 301.294C228.13 301.831 228.554 302.246 229.095 302.464C229.636 302.682 230.23 302.676 230.766 302.448L234.326 300.932C234.876 300.698 235.281 300.263 235.491 299.748C235.704 299.227 235.717 298.625 235.48 298.068L233.965 294.508C233.914 294.387 233.849 294.277 233.779 294.171C235.477 292.956 236.982 291.448 238.21 289.683C238.316 289.749 238.427 289.809 238.546 289.858L242.128 291.321C243.243 291.776 244.52 291.24 244.975 290.125L246.438 286.543C246.893 285.428 246.357 284.151 245.242 283.696L241.66 282.233C241.541 282.184 241.42 282.149 241.298 282.123C241.666 279.944 241.634 277.753 241.242 275.644C241.366 275.615 241.489 275.581 241.61 275.529L245.17 274.013C245.72 273.779 246.125 273.343 246.335 272.829C246.548 272.308 246.561 271.706 246.323 271.149L244.808 267.588C244.336 266.48 243.051 265.963 241.944 266.434L238.384 267.95C238.264 268.001 238.153 268.065 238.046 268.134C236.831 266.437 235.323 264.932 233.559 263.704C233.625 263.599 233.685 263.487 233.734 263.368L235.197 259.786C235.652 258.671 235.116 257.394 234.001 256.939L230.419 255.476C229.305 255.023 228.028 255.56 227.573 256.675ZM232.391 282.898C230.253 288.133 224.255 290.653 219.02 288.516C213.785 286.378 211.265 280.38 213.402 275.145C215.54 269.91 221.538 267.39 226.773 269.528C232.008 271.665 234.528 277.663 232.391 282.898Z" fill="#01354B"/>
<path d="M203.848 238.489L201.944 240.418C201.881 240.482 201.826 240.551 201.776 240.623C200.463 239.803 199.037 239.238 197.566 238.929C197.581 238.841 197.59 238.751 197.589 238.66L197.559 235.95C197.549 235.107 196.855 234.428 196.012 234.438L193.301 234.469C192.458 234.479 191.779 235.172 191.789 236.016L191.82 238.726C191.821 238.817 191.833 238.906 191.849 238.994C190.425 239.328 189.048 239.902 187.782 240.717C187.731 240.646 187.676 240.578 187.611 240.514L185.682 238.61C185.082 238.018 184.111 238.024 183.519 238.624L181.615 240.553C181.023 241.153 181.029 242.124 181.629 242.716L183.558 244.62C183.622 244.683 183.691 244.738 183.763 244.788C182.943 246.101 182.378 247.528 182.069 248.998C181.981 248.983 181.891 248.974 181.8 248.975L179.09 249.006C178.684 249.011 178.304 249.172 178.019 249.461C178.017 249.463 178.015 249.464 178.014 249.466C177.728 249.758 177.574 250.144 177.578 250.553L177.609 253.263C177.619 254.106 178.313 254.785 179.156 254.775L181.867 254.744C181.959 254.743 182.047 254.731 182.135 254.714C182.469 256.138 183.043 257.515 183.858 258.782C183.787 258.833 183.719 258.889 183.655 258.953L181.751 260.882C181.159 261.482 181.165 262.453 181.765 263.045L183.694 264.949C184.294 265.541 185.265 265.535 185.857 264.935L187.761 263.006C187.824 262.942 187.879 262.873 187.929 262.801C189.242 263.621 190.669 264.186 192.14 264.495C192.125 264.583 192.115 264.672 192.116 264.764L192.147 267.474C192.152 267.883 192.315 268.265 192.607 268.551C192.899 268.837 193.285 268.991 193.694 268.987L196.405 268.957C196.824 268.952 197.202 268.778 197.476 268.501C197.753 268.221 197.922 267.834 197.917 267.41L197.886 264.7C197.885 264.608 197.872 264.52 197.856 264.432C199.28 264.098 200.657 263.524 201.924 262.709C201.975 262.78 202.031 262.849 202.095 262.912L204.024 264.816C204.624 265.409 205.595 265.402 206.187 264.802L208.091 262.873C208.683 262.273 208.677 261.302 208.077 260.71L206.148 258.806C206.084 258.743 206.015 258.688 205.943 258.638C206.763 257.325 207.328 255.898 207.638 254.427C207.726 254.442 207.815 254.452 207.907 254.451L210.617 254.42C211.036 254.415 211.415 254.242 211.688 253.964C211.965 253.683 212.134 253.297 212.129 252.873L212.099 250.162C212.089 249.319 211.395 248.64 210.552 248.65L207.842 248.681C207.751 248.682 207.662 248.694 207.574 248.71C207.24 247.286 206.666 245.909 205.851 244.643C205.922 244.592 205.991 244.536 206.054 244.472L207.958 242.543C208.55 241.943 208.544 240.972 207.944 240.38L206.015 238.476C205.411 237.883 204.441 237.889 203.848 238.489ZM199.965 256.758C197.182 259.578 192.625 259.608 189.805 256.825C186.985 254.042 186.955 249.485 189.738 246.665C192.52 243.846 197.078 243.816 199.898 246.598C202.717 249.382 202.747 253.939 199.965 256.758Z" stroke="#01354B" stroke-width="0.5" stroke-miterlimit="10"/>
<path d="M51.604 213.29H39.249V215.357H51.604V213.29Z" fill="#0F1B63"/>
<path d="M88.224 213.29H56.71V215.357H88.224V213.29Z" fill="#0F1B63"/>
<path d="M88.224 235.479H68.717V237.546H88.224V235.479Z" fill="#0F1B63"/>
<path d="M63.612 235.479H39.249V237.546H63.612V235.479Z" fill="#0F1B63"/>
<path d="M66.407 220.846H39.249V222.913H66.407V220.846Z" fill="#0F1B63"/>
<path d="M88.224 220.846H71.512V222.913H88.224V220.846Z" fill="#0F1B63"/>
<path d="M60.331 228.266H39.249V230.333H60.331V228.266Z" fill="#0F1B63"/>
<path d="M88.2239 228.266H69.0649V230.333H88.2239V228.266Z" fill="#0F1B63"/>
<path d="M66.6941 228.266H63.0291V230.333H66.6941V228.266Z" fill="#0F1B63"/>
<path d="M377.232 406.848H364.877V408.915H377.232V406.848Z" fill="#0F1B63"/>
<path d="M413.851 406.848H382.337V408.915H413.851V406.848Z" fill="#0F1B63"/>
<path d="M413.851 429.037H394.344V431.104H413.851V429.037Z" fill="#0F1B63"/>
<path d="M389.239 429.037H364.877V431.104H389.239V429.037Z" fill="#0F1B63"/>
<path d="M392.034 414.405H364.877V416.472H392.034V414.405Z" fill="#0F1B63"/>
<path d="M413.851 414.405H397.139V416.472H413.851V414.405Z" fill="#0F1B63"/>
<path d="M385.959 421.824H364.877V423.891H385.959V421.824Z" fill="#0F1B63"/>
<path d="M413.851 421.824H394.692V423.891H413.851V421.824Z" fill="#0F1B63"/>
<path d="M392.321 421.824H388.656V423.891H392.321V421.824Z" fill="#0F1B63"/>
<path d="M405.94 151.791L401.088 152.83C400.927 152.865 400.773 152.915 400.625 152.975C399.44 150.401 397.824 148.104 395.885 146.152C395.996 146.032 396.101 145.904 396.191 145.763L398.868 141.585C399.701 140.285 399.321 138.55 398.021 137.717L393.843 135.04C392.543 134.208 390.808 134.587 389.975 135.888L387.298 140.066C387.208 140.206 387.136 140.354 387.073 140.505C384.559 139.585 381.875 139.08 379.118 139.054C379.112 138.894 379.095 138.734 379.061 138.572L378.022 133.72C377.699 132.21 376.208 131.245 374.698 131.568L369.846 132.607C368.336 132.93 367.371 134.422 367.694 135.932L368.733 140.784C368.768 140.945 368.818 141.099 368.878 141.247C366.304 142.432 364.007 144.048 362.055 145.986C361.935 145.875 361.807 145.77 361.667 145.68L357.489 143.003C356.863 142.602 356.119 142.467 355.393 142.622C355.389 142.623 355.384 142.624 355.38 142.625C354.649 142.785 354.025 143.22 353.621 143.85L350.944 148.028C350.112 149.328 350.491 151.063 351.792 151.896L355.97 154.573C356.112 154.664 356.26 154.734 356.41 154.796C355.49 157.31 354.985 159.995 354.958 162.752C354.799 162.758 354.638 162.775 354.476 162.809L349.624 163.848C348.114 164.171 347.149 165.662 347.472 167.173L348.511 172.025C348.834 173.535 350.325 174.5 351.835 174.177L356.687 173.138C356.848 173.103 357.002 173.053 357.15 172.993C358.335 175.568 359.951 177.865 361.891 179.817C361.78 179.937 361.675 180.062 361.584 180.204L358.907 184.382C358.503 185.012 358.369 185.761 358.529 186.492C358.689 187.223 359.124 187.847 359.754 188.25L363.932 190.927C364.578 191.341 365.331 191.455 366.028 191.306C366.733 191.155 367.381 190.734 367.8 190.08L370.477 185.902C370.568 185.761 370.638 185.612 370.7 185.462C373.214 186.382 375.899 186.887 378.656 186.914C378.662 187.074 378.679 187.235 378.714 187.396L379.753 192.248C380.076 193.758 381.567 194.723 383.077 194.4L387.929 193.361C389.439 193.038 390.404 191.547 390.081 190.037L389.042 185.185C389.007 185.024 388.957 184.87 388.897 184.722C391.472 183.537 393.769 181.921 395.721 179.981C395.841 180.092 395.967 180.197 396.108 180.288L400.286 182.965C400.932 183.379 401.686 183.493 402.383 183.344C403.088 183.193 403.736 182.772 404.155 182.118L406.832 177.94C407.665 176.64 407.284 174.905 405.985 174.072L401.807 171.395C401.667 171.305 401.518 171.233 401.368 171.17C402.288 168.656 402.793 165.972 402.819 163.216C402.979 163.21 403.14 163.193 403.301 163.159L408.153 162.12C409.663 161.797 410.628 160.306 410.305 158.796L409.266 153.944C408.941 152.433 407.45 151.468 405.94 151.791ZM381.641 175.844C374.55 177.362 367.546 172.829 366.028 165.738C364.51 158.647 369.043 151.643 376.134 150.125C383.225 148.607 390.229 153.14 391.747 160.231C393.265 167.322 388.731 174.326 381.641 175.844Z" fill="#01354B"/>
<path d="M298.68 156.965L286.78 152.44V149.19L298.68 144.665V147.79L287.955 151.69V149.94L298.68 153.84V156.965ZM299.371 162.065L307.621 138.515H311.096L302.846 162.065H299.371ZM311.536 156.965V153.84L322.261 149.94V151.69L311.536 147.79V144.665L323.436 149.19V152.44L311.536 156.965Z" fill="white"/>
<path d="M84.3138 407.411C85.0818 407.411 85.7658 407.567 86.3658 407.879C86.9778 408.179 87.4578 408.647 87.8058 409.283C88.1538 409.907 88.3278 410.711 88.3278 411.695V417.239H85.5198V412.127C85.5198 411.347 85.3458 410.771 84.9978 410.399C84.6618 410.027 84.1818 409.841 83.5578 409.841C83.1138 409.841 82.7118 409.937 82.3518 410.129C82.0038 410.309 81.7278 410.591 81.5238 410.975C81.3318 411.359 81.2358 411.851 81.2358 412.451V417.239H78.4278V403.883H81.2358V410.237L80.6058 409.427C80.9538 408.779 81.4518 408.281 82.0998 407.933C82.7478 407.585 83.4858 407.411 84.3138 407.411ZM94.8331 417.383C93.6931 417.383 92.8051 417.095 92.1691 416.519C91.5331 415.931 91.2151 415.061 91.2151 413.909V405.413H94.0231V413.873C94.0231 414.281 94.1311 414.599 94.3471 414.827C94.5631 415.043 94.8571 415.151 95.2291 415.151C95.6731 415.151 96.0511 415.031 96.3631 414.791L97.1191 416.771C96.8311 416.975 96.4831 417.131 96.0751 417.239C95.6791 417.335 95.2651 417.383 94.8331 417.383ZM89.7211 409.931V407.771H96.4351V409.931H89.7211ZM111.097 407.411C111.865 407.411 112.543 407.567 113.131 407.879C113.731 408.179 114.199 408.647 114.535 409.283C114.883 409.907 115.057 410.711 115.057 411.695V417.239H112.249V412.127C112.249 411.347 112.087 410.771 111.763 410.399C111.439 410.027 110.983 409.841 110.395 409.841C109.987 409.841 109.621 409.937 109.297 410.129C108.973 410.309 108.721 410.585 108.541 410.957C108.361 411.329 108.271 411.803 108.271 412.379V417.239H105.463V412.127C105.463 411.347 105.301 410.771 104.977 410.399C104.665 410.027 104.215 409.841 103.627 409.841C103.219 409.841 102.853 409.937 102.529 410.129C102.205 410.309 101.953 410.585 101.773 410.957C101.593 411.329 101.503 411.803 101.503 412.379V417.239H98.6954V407.555H101.377V410.201L100.873 409.427C101.209 408.767 101.683 408.269 102.295 407.933C102.919 407.585 103.627 407.411 104.419 407.411C105.307 407.411 106.081 407.639 106.741 408.095C107.413 408.539 107.857 409.223 108.073 410.147L107.083 409.877C107.407 409.121 107.923 408.521 108.631 408.077C109.351 407.633 110.173 407.411 111.097 407.411ZM117.574 417.239V403.883H120.382V417.239H117.574Z" fill="white"/>
<path d="M120.032 269.54C119.569 269.54 119.126 269.488 118.701 269.385C118.277 269.295 117.916 269.154 117.621 268.961L118.431 266.78C118.778 267.025 119.203 267.147 119.704 267.147C120.077 267.147 120.373 267.018 120.592 266.761C120.824 266.517 120.939 266.144 120.939 265.642V255.262H123.949V265.623C123.949 266.819 123.608 267.771 122.927 268.478C122.245 269.186 121.28 269.54 120.032 269.54ZM122.444 253.814C121.891 253.814 121.441 253.654 121.094 253.332C120.746 253.011 120.573 252.612 120.573 252.136C120.573 251.66 120.746 251.261 121.094 250.94C121.441 250.618 121.891 250.457 122.444 250.457C122.997 250.457 123.448 250.612 123.795 250.92C124.142 251.216 124.316 251.602 124.316 252.078C124.316 252.58 124.142 252.998 123.795 253.332C123.46 253.654 123.01 253.814 122.444 253.814ZM130.213 265.796C129.326 265.796 128.47 265.694 127.647 265.488C126.837 265.269 126.193 264.999 125.717 264.677L126.721 262.516C127.197 262.812 127.756 263.057 128.399 263.25C129.055 263.43 129.699 263.52 130.329 263.52C131.023 263.52 131.512 263.436 131.795 263.269C132.091 263.102 132.239 262.87 132.239 262.574C132.239 262.33 132.123 262.15 131.892 262.034C131.673 261.905 131.377 261.809 131.004 261.745C130.631 261.68 130.22 261.616 129.769 261.552C129.332 261.487 128.888 261.404 128.438 261.301C127.988 261.185 127.576 261.018 127.203 260.799C126.83 260.58 126.528 260.285 126.296 259.912C126.078 259.539 125.968 259.056 125.968 258.464C125.968 257.808 126.155 257.23 126.528 256.728C126.914 256.226 127.467 255.834 128.187 255.551C128.907 255.255 129.769 255.107 130.773 255.107C131.48 255.107 132.2 255.184 132.934 255.339C133.667 255.493 134.278 255.718 134.767 256.014L133.763 258.156C133.262 257.86 132.754 257.661 132.239 257.558C131.737 257.442 131.249 257.384 130.773 257.384C130.104 257.384 129.615 257.474 129.306 257.654C128.998 257.834 128.843 258.066 128.843 258.349C128.843 258.606 128.953 258.799 129.171 258.928C129.403 259.056 129.705 259.159 130.078 259.236C130.451 259.313 130.856 259.384 131.294 259.449C131.744 259.5 132.194 259.584 132.644 259.699C133.094 259.815 133.5 259.982 133.86 260.201C134.233 260.407 134.535 260.696 134.767 261.069C134.998 261.429 135.114 261.905 135.114 262.497C135.114 263.14 134.921 263.713 134.535 264.214C134.149 264.703 133.59 265.089 132.856 265.372C132.136 265.655 131.255 265.796 130.213 265.796Z" fill="white"/>
<path d="M308.317 396.669C306.905 396.669 305.647 396.385 304.544 395.817C303.44 395.232 302.572 394.429 301.939 393.406C301.322 392.384 301.013 391.223 301.013 389.925C301.013 388.61 301.322 387.45 301.939 386.443C302.572 385.421 303.44 384.626 304.544 384.057C305.647 383.473 306.905 383.181 308.317 383.181C309.697 383.181 310.898 383.473 311.921 384.057C312.943 384.626 313.698 385.445 314.185 386.516L311.239 388.099C310.898 387.482 310.468 387.028 309.949 386.736C309.445 386.443 308.894 386.297 308.293 386.297C307.644 386.297 307.059 386.443 306.54 386.736C306.021 387.028 305.607 387.442 305.298 387.977C305.006 388.513 304.86 389.162 304.86 389.925C304.86 390.688 305.006 391.337 305.298 391.873C305.607 392.408 306.021 392.822 306.54 393.114C307.059 393.406 307.644 393.553 308.293 393.553C308.894 393.553 309.445 393.415 309.949 393.139C310.468 392.847 310.898 392.384 311.239 391.751L314.185 393.358C313.698 394.413 312.943 395.232 311.921 395.817C310.898 396.385 309.697 396.669 308.317 396.669ZM319.865 393.577V382.329H323.005V393.577H319.865ZM315.653 389.438V386.468H327.242V389.438H315.653ZM334.534 393.577V382.329H337.675V393.577H334.534ZM330.322 389.438V386.468H341.911V389.438H330.322Z" fill="white"/>
<path d="M409.139 289.675C408.701 289.675 408.281 289.626 407.879 289.529C407.477 289.444 407.137 289.31 406.857 289.127L407.623 287.064C407.952 287.295 408.354 287.411 408.829 287.411C409.182 287.411 409.462 287.289 409.669 287.045C409.888 286.814 409.997 286.461 409.997 285.986V276.163H412.846V285.968C412.846 287.1 412.523 288.001 411.878 288.671C411.233 289.34 410.32 289.675 409.139 289.675ZM411.421 274.793C410.898 274.793 410.472 274.641 410.143 274.337C409.815 274.032 409.65 273.655 409.65 273.204C409.65 272.754 409.815 272.377 410.143 272.072C410.472 271.768 410.898 271.616 411.421 271.616C411.945 271.616 412.371 271.762 412.7 272.054C413.028 272.334 413.193 272.699 413.193 273.15C413.193 273.624 413.028 274.02 412.7 274.337C412.383 274.641 411.957 274.793 411.421 274.793ZM421.494 285.986V284.069L421.312 283.649V280.216C421.312 279.608 421.123 279.133 420.746 278.792C420.38 278.451 419.814 278.281 419.048 278.281C418.524 278.281 418.007 278.366 417.495 278.536C416.996 278.695 416.57 278.914 416.217 279.194L415.195 277.203C415.73 276.826 416.375 276.534 417.13 276.327C417.885 276.12 418.652 276.016 419.431 276.016C420.928 276.016 422.091 276.369 422.919 277.076C423.746 277.782 424.16 278.883 424.16 280.381V285.986H421.494ZM418.5 286.132C417.733 286.132 417.075 286.005 416.528 285.749C415.98 285.481 415.56 285.122 415.268 284.672C414.976 284.221 414.829 283.716 414.829 283.156C414.829 282.572 414.969 282.06 415.249 281.622C415.542 281.184 415.998 280.843 416.619 280.6C417.24 280.344 418.049 280.216 419.048 280.216H421.659V281.878H419.358C418.688 281.878 418.226 281.987 417.97 282.207C417.727 282.426 417.605 282.7 417.605 283.028C417.605 283.393 417.745 283.686 418.025 283.905C418.317 284.112 418.713 284.215 419.212 284.215C419.687 284.215 420.113 284.106 420.49 283.886C420.867 283.655 421.141 283.32 421.312 282.882L421.75 284.197C421.543 284.83 421.166 285.311 420.618 285.639C420.07 285.968 419.364 286.132 418.5 286.132ZM429.226 285.986L425.099 276.163H428.039L431.472 284.617H430.011L433.572 276.163H436.311L432.166 285.986H429.226ZM443.178 285.986V284.069L442.995 283.649V280.216C442.995 279.608 442.807 279.133 442.429 278.792C442.064 278.451 441.498 278.281 440.731 278.281C440.208 278.281 439.69 278.366 439.179 278.536C438.68 278.695 438.254 278.914 437.901 279.194L436.878 277.203C437.414 276.826 438.059 276.534 438.814 276.327C439.568 276.12 440.335 276.016 441.114 276.016C442.612 276.016 443.774 276.369 444.602 277.076C445.43 277.782 445.844 278.883 445.844 280.381V285.986H443.178ZM440.183 286.132C439.416 286.132 438.759 286.005 438.211 285.749C437.663 285.481 437.243 285.122 436.951 284.672C436.659 284.221 436.513 283.716 436.513 283.156C436.513 282.572 436.653 282.06 436.933 281.622C437.225 281.184 437.682 280.843 438.302 280.6C438.923 280.344 439.733 280.216 440.731 280.216H443.342V281.878H441.041C440.372 281.878 439.909 281.987 439.654 282.207C439.41 282.426 439.288 282.7 439.288 283.028C439.288 283.393 439.428 283.686 439.708 283.905C440.001 284.112 440.396 284.215 440.895 284.215C441.37 284.215 441.796 284.106 442.174 283.886C442.551 283.655 442.825 283.32 442.995 282.882L443.433 284.197C443.227 284.83 442.849 285.311 442.301 285.639C441.754 285.968 441.048 286.132 440.183 286.132Z" fill="white"/>
</svg>
