<svg width="440" height="388" viewBox="0 0 440 388" fill="none" xmlns="http://www.w3.org/2000/svg">
<g opacity="0.45">
<path d="M341.5 388C387.063 388 424 351.063 424 305.5C424 259.937 387.063 223 341.5 223C295.937 223 259 259.937 259 305.5C259 351.063 295.937 388 341.5 388Z" fill="#E2EFF3"/>
<path d="M159.5 282C237.096 282 300 219.096 300 141.5C300 63.904 237.096 1 159.5 1C81.904 1 19 63.904 19 141.5C19 219.096 81.904 282 159.5 282Z" fill="#CAE7EF"/>
</g>
<path d="M415.913 127.421L411.719 131.261C411.579 131.389 411.457 131.528 411.345 131.673C408.681 129.816 405.752 128.482 402.704 127.677C402.744 127.494 402.774 127.307 402.781 127.115L403.004 121.433C403.073 119.665 401.691 118.17 399.923 118.101L394.241 117.878C392.474 117.809 390.978 119.191 390.909 120.959L390.686 126.641C390.679 126.832 390.694 127.02 390.719 127.205C387.701 127.753 384.754 128.811 382.014 130.383C381.915 130.229 381.805 130.08 381.678 129.94L377.838 125.746C376.643 124.441 374.609 124.351 373.304 125.546L369.11 129.386C367.805 130.581 367.715 132.615 368.911 133.92L372.751 138.114C372.879 138.253 373.018 138.376 373.163 138.488C371.306 141.152 369.972 144.081 369.167 147.129C368.984 147.089 368.797 147.059 368.606 147.052L362.924 146.829C362.073 146.795 361.259 147.093 360.631 147.668C360.627 147.671 360.623 147.675 360.62 147.679C359.991 148.261 359.625 149.053 359.592 149.91L359.369 155.592C359.3 157.36 360.682 158.855 362.45 158.924L368.132 159.147C368.324 159.155 368.511 159.138 368.696 159.112C369.244 162.131 370.302 165.078 371.874 167.818C371.72 167.916 371.571 168.026 371.431 168.154L367.237 171.994C365.932 173.189 365.842 175.223 367.038 176.528L370.878 180.722C372.073 182.027 374.107 182.117 375.412 180.921L379.606 177.081C379.746 176.953 379.868 176.814 379.98 176.669C382.645 178.527 385.574 179.861 388.623 180.666C388.583 180.848 388.552 181.034 388.544 181.227L388.321 186.909C388.287 187.766 388.589 188.584 389.171 189.213C389.753 189.843 390.545 190.208 391.401 190.241L397.083 190.464C397.962 190.498 398.772 190.174 399.375 189.623C399.985 189.065 400.381 188.273 400.416 187.383L400.639 181.701C400.647 181.509 400.63 181.321 400.604 181.137C403.623 180.589 406.57 179.531 409.31 177.959C409.409 178.113 409.519 178.263 409.647 178.402L413.487 182.596C414.682 183.901 416.716 183.991 418.021 182.796L422.215 178.956C423.52 177.761 423.61 175.727 422.414 174.422L418.574 170.228C418.446 170.088 418.307 169.966 418.162 169.854C420.02 167.19 421.354 164.26 422.159 161.211C422.341 161.251 422.527 161.282 422.72 161.29L428.402 161.513C429.281 161.547 430.092 161.223 430.694 160.672C431.304 160.114 431.7 159.322 431.734 158.432L431.958 152.75C432.027 150.982 430.645 149.487 428.877 149.418L423.195 149.195C423.004 149.187 422.816 149.202 422.63 149.227C422.082 146.209 421.024 143.263 419.452 140.523C419.606 140.425 419.756 140.315 419.895 140.187L424.089 136.347C425.394 135.152 425.484 133.118 424.288 131.813L420.448 127.619C419.251 126.315 417.218 126.226 415.913 127.421ZM405.839 165.287C399.71 170.899 390.158 170.479 384.545 164.35C378.933 158.221 379.353 148.669 385.482 143.056C391.611 137.444 401.163 137.864 406.776 143.993C412.388 150.123 411.968 159.675 405.839 165.287Z" stroke="#0F1B63" stroke-miterlimit="10"/>
<path d="M84.387 347.756H82.177C81.769 347.756 81.438 347.425 81.438 347.017C81.438 346.609 81.769 346.278 82.177 346.278H84.387C84.795 346.278 85.126 346.609 85.126 347.017C85.126 347.425 84.795 347.756 84.387 347.756ZM77.253 347.756H72.328C71.92 347.756 71.589 347.425 71.589 347.017C71.589 346.609 71.92 346.278 72.328 346.278H77.253C77.661 346.278 77.992 346.609 77.992 347.017C77.992 347.425 77.661 347.756 77.253 347.756ZM67.403 347.756H62.478C62.07 347.756 61.739 347.425 61.739 347.017C61.739 346.609 62.07 346.278 62.478 346.278H67.403C67.811 346.278 68.142 346.609 68.142 347.017C68.142 347.425 67.811 347.756 67.403 347.756ZM57.553 347.756H52.628C52.22 347.756 51.889 347.425 51.889 347.017C51.889 346.609 52.22 346.278 52.628 346.278H57.553C57.961 346.278 58.292 346.609 58.292 347.017C58.292 347.425 57.961 347.756 57.553 347.756ZM47.703 347.756H42.778C42.37 347.756 42.039 347.425 42.039 347.017C42.039 346.609 42.37 346.278 42.778 346.278H47.703C48.111 346.278 48.442 346.609 48.442 347.017C48.442 347.425 48.111 347.756 47.703 347.756ZM37.853 347.756H32.928C32.52 347.756 32.189 347.425 32.189 347.017C32.189 346.609 32.52 346.278 32.928 346.278H37.853C38.261 346.278 38.592 346.609 38.592 347.017C38.592 347.425 38.261 347.756 37.853 347.756ZM28.003 347.749C27.996 347.749 27.99 347.749 27.983 347.748C26.266 347.7 24.57 347.42 22.942 346.914C22.552 346.793 22.335 346.379 22.456 345.989C22.577 345.6 22.987 345.382 23.38 345.503C24.88 345.969 26.442 346.227 28.024 346.272C28.431 346.283 28.753 346.623 28.742 347.031C28.731 347.431 28.403 347.749 28.003 347.749ZM18.717 344.862C18.579 344.862 18.44 344.823 18.316 344.743C16.884 343.814 15.581 342.692 14.446 341.407C14.177 341.101 14.206 340.634 14.511 340.364C14.815 340.094 15.282 340.122 15.554 340.428C16.6 341.612 17.799 342.646 19.12 343.502C19.462 343.724 19.56 344.182 19.337 344.524C19.196 344.743 18.96 344.862 18.717 344.862ZM12.28 337.57C12.005 337.57 11.741 337.417 11.613 337.153C10.869 335.609 10.339 333.973 10.039 332.291C9.96802 331.889 10.235 331.506 10.637 331.434C11.036 331.367 11.422 331.63 11.493 332.032C11.769 333.582 12.257 335.088 12.944 336.51C13.121 336.877 12.967 337.319 12.6 337.496C12.497 337.547 12.388 337.57 12.28 337.57ZM10.488 327.993C10.08 327.993 9.74902 327.662 9.74902 327.254V322.329C9.74902 321.921 10.08 321.59 10.488 321.59C10.896 321.59 11.227 321.921 11.227 322.329V327.254C11.227 327.662 10.896 327.993 10.488 327.993ZM10.488 318.143C10.08 318.143 9.74902 317.812 9.74902 317.404V312.479C9.74902 312.071 10.08 311.74 10.488 311.74C10.896 311.74 11.227 312.071 11.227 312.479V317.404C11.227 317.812 10.896 318.143 10.488 318.143ZM10.488 308.293C10.08 308.293 9.74902 307.962 9.74902 307.554V302.629C9.74902 302.221 10.08 301.89 10.488 301.89C10.896 301.89 11.227 302.221 11.227 302.629V307.554C11.227 307.962 10.896 308.293 10.488 308.293ZM10.488 298.443C10.08 298.443 9.74902 298.112 9.74902 297.704V292.779C9.74902 292.371 10.08 292.04 10.488 292.04C10.896 292.04 11.227 292.371 11.227 292.779V297.704C11.227 298.112 10.896 298.443 10.488 298.443ZM10.488 288.593C10.08 288.593 9.74902 288.262 9.74902 287.854V282.929C9.74902 282.521 10.08 282.19 10.488 282.19C10.896 282.19 11.227 282.521 11.227 282.929V287.854C11.227 288.262 10.896 288.593 10.488 288.593ZM10.488 278.743C10.08 278.743 9.74902 278.412 9.74902 278.004V273.079C9.74902 272.671 10.08 272.34 10.488 272.34C10.896 272.34 11.227 272.671 11.227 273.079V278.004C11.227 278.413 10.896 278.743 10.488 278.743ZM10.488 268.893C10.08 268.893 9.74902 268.562 9.74902 268.154V263.229C9.74902 262.821 10.08 262.49 10.488 262.49C10.896 262.49 11.227 262.821 11.227 263.229V268.154C11.227 268.563 10.896 268.893 10.488 268.893ZM10.488 259.044C10.08 259.044 9.74902 258.713 9.74902 258.305V253.38C9.74902 252.972 10.08 252.641 10.488 252.641C10.896 252.641 11.227 252.972 11.227 253.38V258.305C11.227 258.713 10.896 259.044 10.488 259.044ZM10.488 249.194C10.08 249.194 9.74902 248.863 9.74902 248.455V243.53C9.74902 243.122 10.08 242.791 10.488 242.791C10.896 242.791 11.227 243.122 11.227 243.53V248.455C11.227 248.863 10.896 249.194 10.488 249.194ZM10.488 239.344C10.08 239.344 9.74902 239.013 9.74902 238.605V233.68C9.74902 233.272 10.08 232.941 10.488 232.941C10.896 232.941 11.227 233.272 11.227 233.68V238.605C11.227 239.013 10.896 239.344 10.488 239.344ZM10.488 229.494C10.08 229.494 9.74902 229.163 9.74902 228.755V223.83C9.74902 223.422 10.08 223.091 10.488 223.091C10.896 223.091 11.227 223.422 11.227 223.83V228.755C11.227 229.163 10.896 229.494 10.488 229.494ZM10.488 219.644C10.08 219.644 9.74902 219.313 9.74902 218.905V213.98C9.74902 213.572 10.08 213.241 10.488 213.241C10.896 213.241 11.227 213.572 11.227 213.98V218.905C11.227 219.313 10.896 219.644 10.488 219.644ZM10.488 209.794C10.08 209.794 9.74902 209.463 9.74902 209.055V208.557C9.74902 207.014 9.93702 205.479 10.307 203.997C10.406 203.601 10.815 203.361 11.203 203.459C11.599 203.558 11.84 203.959 11.741 204.354C11.401 205.719 11.227 207.133 11.227 208.556V209.054C11.227 209.463 10.896 209.794 10.488 209.794ZM12.854 200.361C12.73 200.361 12.604 200.33 12.488 200.264C12.134 200.062 12.011 199.61 12.213 199.256C13.06 197.773 14.108 196.41 15.327 195.205C15.618 194.919 16.085 194.921 16.372 195.211C16.659 195.501 16.657 195.969 16.366 196.256C15.243 197.366 14.277 198.622 13.497 199.988C13.36 200.227 13.111 200.361 12.854 200.361ZM19.773 193.524C19.513 193.524 19.261 193.387 19.127 193.144C18.929 192.787 19.057 192.338 19.414 192.139C20.912 191.307 22.515 190.686 24.18 190.291C24.581 190.199 24.974 190.442 25.069 190.84C25.163 191.237 24.918 191.635 24.521 191.729C22.988 192.092 21.511 192.664 20.132 193.431C20.018 193.494 19.895 193.524 19.773 193.524ZM142.51 191.265H137.585C137.177 191.265 136.846 190.934 136.846 190.526C136.846 190.118 137.177 189.787 137.585 189.787H142.51C142.918 189.787 143.249 190.118 143.249 190.526C143.249 190.934 142.918 191.265 142.51 191.265ZM132.661 191.265H127.736C127.328 191.265 126.997 190.934 126.997 190.526C126.997 190.118 127.328 189.787 127.736 189.787H132.661C133.069 189.787 133.4 190.118 133.4 190.526C133.399 190.934 133.068 191.265 132.661 191.265ZM122.811 191.265H117.886C117.478 191.265 117.147 190.934 117.147 190.526C117.147 190.118 117.478 189.787 117.886 189.787H122.811C123.219 189.787 123.55 190.118 123.55 190.526C123.549 190.934 123.219 191.265 122.811 191.265ZM112.961 191.265H108.036C107.628 191.265 107.297 190.934 107.297 190.526C107.297 190.118 107.628 189.787 108.036 189.787H112.961C113.369 189.787 113.7 190.118 113.7 190.526C113.7 190.934 113.369 191.265 112.961 191.265ZM103.111 191.265H98.186C97.778 191.265 97.447 190.934 97.447 190.526C97.447 190.118 97.778 189.787 98.186 189.787H103.111C103.519 189.787 103.85 190.118 103.85 190.526C103.85 190.934 103.519 191.265 103.111 191.265ZM93.261 191.265H88.336C87.928 191.265 87.597 190.934 87.597 190.526C87.597 190.118 87.928 189.787 88.336 189.787H93.261C93.669 189.787 94 190.118 94 190.526C94 190.934 93.669 191.265 93.261 191.265ZM83.411 191.265H78.486C78.078 191.265 77.747 190.934 77.747 190.526C77.747 190.118 78.078 189.787 78.486 189.787H83.411C83.819 189.787 84.15 190.118 84.15 190.526C84.15 190.934 83.819 191.265 83.411 191.265ZM73.561 191.265H68.636C68.228 191.265 67.897 190.934 67.897 190.526C67.897 190.118 68.228 189.787 68.636 189.787H73.561C73.969 189.787 74.3 190.118 74.3 190.526C74.3 190.934 73.969 191.265 73.561 191.265ZM63.711 191.265H58.786C58.378 191.265 58.047 190.934 58.047 190.526C58.047 190.118 58.378 189.787 58.786 189.787H63.711C64.119 189.787 64.45 190.118 64.45 190.526C64.45 190.934 64.119 191.265 63.711 191.265ZM53.861 191.265H48.936C48.528 191.265 48.197 190.934 48.197 190.526C48.197 190.118 48.528 189.787 48.936 189.787H53.861C54.269 189.787 54.6 190.118 54.6 190.526C54.6 190.934 54.269 191.265 53.861 191.265ZM44.011 191.265H39.086C38.678 191.265 38.347 190.934 38.347 190.526C38.347 190.118 38.678 189.787 39.086 189.787H44.011C44.419 189.787 44.75 190.118 44.75 190.526C44.75 190.934 44.419 191.265 44.011 191.265ZM34.161 191.265H29.236C28.828 191.265 28.497 190.934 28.497 190.526C28.497 190.118 28.828 189.787 29.236 189.787H34.161C34.569 189.787 34.9 190.118 34.9 190.526C34.9 190.934 34.569 191.265 34.161 191.265Z" fill="#01354B"/>
<path d="M10.488 272.209C12.2658 272.209 13.707 270.768 13.707 268.99C13.707 267.212 12.2658 265.771 10.488 265.771C8.71024 265.771 7.26904 267.212 7.26904 268.99C7.26904 270.768 8.71024 272.209 10.488 272.209Z" fill="#01354B"/>
<path d="M10.4881 275.024C7.16208 275.024 4.45508 272.318 4.45508 268.991C4.45508 265.664 7.16208 262.958 10.4881 262.958C13.8141 262.958 16.5211 265.664 16.5211 268.991C16.5211 272.317 13.8141 275.024 10.4881 275.024ZM10.4881 263.696C7.56908 263.696 5.19408 266.071 5.19408 268.99C5.19408 271.909 7.56908 274.284 10.4881 274.284C13.4071 274.284 15.7821 271.909 15.7821 268.99C15.7821 266.071 13.4081 263.696 10.4881 263.696Z" fill="#01354B"/>
<path d="M176.296 168.753C175.8 168.753 175.397 168.35 175.397 167.854V161.862C175.397 161.366 175.8 160.963 176.296 160.963C176.792 160.963 177.195 161.366 177.195 161.862V167.854C177.195 168.35 176.792 168.753 176.296 168.753ZM176.296 156.769C175.8 156.769 175.397 156.366 175.397 155.87V149.878C175.397 149.382 175.8 148.979 176.296 148.979C176.792 148.979 177.195 149.382 177.195 149.878V155.87C177.195 156.366 176.792 156.769 176.296 156.769ZM176.296 144.784C175.8 144.784 175.397 144.381 175.397 143.885V137.893C175.397 137.397 175.8 136.994 176.296 136.994C176.792 136.994 177.195 137.397 177.195 137.893V143.885C177.195 144.382 176.792 144.784 176.296 144.784ZM176.296 132.8C175.8 132.8 175.397 132.397 175.397 131.901V125.909C175.397 125.413 175.8 125.01 176.296 125.01C176.792 125.01 177.195 125.413 177.195 125.909V131.901C177.195 132.398 176.792 132.8 176.296 132.8ZM176.296 120.816C175.8 120.816 175.397 120.413 175.397 119.917V113.925C175.397 113.429 175.8 113.026 176.296 113.026C176.792 113.026 177.195 113.429 177.195 113.925V119.917C177.195 120.413 176.792 120.816 176.296 120.816ZM176.296 108.832C175.8 108.832 175.397 108.429 175.397 107.933V101.941C175.397 101.445 175.8 101.042 176.296 101.042C176.792 101.042 177.195 101.445 177.195 101.941V107.933C177.195 108.429 176.792 108.832 176.296 108.832ZM271.458 98.0372C270.962 98.0372 270.559 97.6342 270.559 97.1382V93.8122C270.559 93.3162 270.962 92.9132 271.458 92.9132C271.954 92.9132 272.357 93.3162 272.357 93.8122V97.1382C272.357 97.6342 271.954 98.0372 271.458 98.0372ZM176.296 96.8482C175.8 96.8482 175.397 96.4462 175.397 95.9492V89.9572C175.397 89.4612 175.8 89.0582 176.296 89.0582C176.792 89.0582 177.195 89.4612 177.195 89.9572V95.9492C177.195 96.4452 176.792 96.8482 176.296 96.8482ZM271.458 88.7192C270.962 88.7192 270.559 88.3172 270.559 87.8202V81.8282C270.559 81.3322 270.962 80.9292 271.458 80.9292C271.954 80.9292 272.357 81.3322 272.357 81.8282V87.8202C272.357 88.3162 271.954 88.7192 271.458 88.7192ZM176.296 84.8642C175.8 84.8642 175.397 84.4612 175.397 83.9652V77.9732C175.397 77.4772 175.8 77.0742 176.296 77.0742C176.792 77.0742 177.195 77.4772 177.195 77.9732V83.9652C177.195 84.4612 176.792 84.8642 176.296 84.8642ZM271.458 76.7342C270.962 76.7342 270.559 76.3312 270.559 75.8352V69.8432C270.559 69.3472 270.962 68.9442 271.458 68.9442C271.954 68.9442 272.357 69.3472 272.357 69.8432V75.8352C272.357 76.3322 271.954 76.7342 271.458 76.7342ZM176.296 72.8792C175.8 72.8792 175.397 72.4762 175.397 71.9802V65.9882C175.397 65.4922 175.8 65.0892 176.296 65.0892C176.792 65.0892 177.195 65.4922 177.195 65.9882V71.9802C177.195 72.4772 176.792 72.8792 176.296 72.8792ZM271.458 64.7502C270.962 64.7502 270.559 64.3472 270.559 63.8512V57.8592C270.559 57.3632 270.962 56.9602 271.458 56.9602C271.954 56.9602 272.357 57.3632 272.357 57.8592V63.8512C272.357 64.3482 271.954 64.7502 271.458 64.7502ZM176.296 60.8952C175.8 60.8952 175.397 60.4922 175.397 59.9962V54.0042C175.397 53.5082 175.8 53.1052 176.296 53.1052C176.792 53.1052 177.195 53.5082 177.195 54.0042V59.9962C177.195 60.4932 176.792 60.8952 176.296 60.8952ZM271.458 52.7662C270.962 52.7662 270.559 52.3632 270.559 51.8672V45.8752C270.559 45.3792 270.962 44.9762 271.458 44.9762C271.954 44.9762 272.357 45.3792 272.357 45.8752V51.8672C272.357 52.3642 271.954 52.7662 271.458 52.7662ZM176.296 48.9112C175.8 48.9112 175.397 48.5082 175.397 48.0122V42.0202C175.397 41.5242 175.8 41.1212 176.296 41.1212C176.792 41.1212 177.195 41.5242 177.195 42.0202V48.0122C177.195 48.5082 176.792 48.9112 176.296 48.9112ZM271.458 40.7822C270.962 40.7822 270.559 40.3792 270.559 39.8832V33.8912C270.559 33.3952 270.962 32.9922 271.458 32.9922C271.954 32.9922 272.357 33.3952 272.357 33.8912V39.8832C272.357 40.3792 271.954 40.7822 271.458 40.7822ZM176.296 36.9272C175.8 36.9272 175.397 36.5242 175.397 36.0282V30.0362C175.397 29.5402 175.8 29.1372 176.296 29.1372C176.792 29.1372 177.195 29.5402 177.195 30.0362V36.0282C177.195 36.5242 176.792 36.9272 176.296 36.9272ZM271.419 28.7992C270.946 28.7992 270.55 28.4292 270.523 27.9512C270.414 26.0302 270.044 24.1402 269.424 22.3312C269.264 21.8622 269.514 21.3502 269.983 21.1892C270.448 21.0292 270.965 21.2782 271.124 21.7482C271.798 23.7122 272.2 25.7652 272.318 27.8492C272.346 28.3452 271.967 28.7692 271.472 28.7982C271.454 28.7982 271.437 28.7992 271.419 28.7992ZM176.887 24.9902C176.818 24.9902 176.749 24.9822 176.679 24.9662C176.196 24.8512 175.897 24.3672 176.012 23.8842C176.492 21.8562 177.249 19.9052 178.261 18.0852C178.501 17.6512 179.05 17.4952 179.483 17.7372C179.917 17.9782 180.073 18.5262 179.832 18.9602C178.899 20.6352 178.203 22.4322 177.761 24.2992C177.663 24.7122 177.294 24.9902 176.887 24.9902ZM267.586 17.6102C267.3 17.6102 267.02 17.4752 266.845 17.2232C265.753 15.6432 264.453 14.2202 262.979 12.9932C262.599 12.6752 262.546 12.1082 262.864 11.7272C263.182 11.3442 263.748 11.2952 264.13 11.6122C265.728 12.9432 267.138 14.4872 268.323 16.2002C268.605 16.6092 268.503 17.1682 268.095 17.4512C267.941 17.5592 267.762 17.6102 267.586 17.6102ZM182.629 14.6432C182.401 14.6432 182.173 14.5562 181.997 14.3832C181.644 14.0342 181.641 13.4652 181.99 13.1122C183.456 11.6292 185.114 10.3542 186.917 9.32317C187.346 9.07717 187.897 9.22717 188.144 9.65817C188.39 10.0892 188.24 10.6382 187.809 10.8852C186.147 11.8342 184.62 13.0092 183.268 14.3772C183.092 14.5542 182.86 14.6432 182.629 14.6432ZM258.492 10.0352C258.369 10.0352 258.244 10.0102 258.125 9.95718C256.374 9.17218 254.524 8.63217 252.627 8.35117C252.135 8.27917 251.796 7.82118 251.869 7.33018C251.942 6.83918 252.394 6.48917 252.89 6.57317C254.951 6.87717 256.959 7.46418 258.861 8.31618C259.314 8.51918 259.516 9.05117 259.314 9.50417C259.163 9.83717 258.835 10.0352 258.492 10.0352ZM192.902 8.77618C192.499 8.77618 192.133 8.50318 192.031 8.09518C191.911 7.61318 192.203 7.12517 192.685 7.00517C194.488 6.55517 196.355 6.32617 198.233 6.32617H198.839C199.335 6.32617 199.738 6.72917 199.738 7.22517C199.738 7.72117 199.335 8.12418 198.839 8.12418H198.233C196.502 8.12418 194.782 8.33418 193.12 8.74918C193.048 8.76718 192.974 8.77618 192.902 8.77618ZM246.777 8.12418H240.785C240.289 8.12418 239.886 7.72117 239.886 7.22517C239.886 6.72917 240.289 6.32617 240.785 6.32617H246.777C247.273 6.32617 247.676 6.72917 247.676 7.22517C247.676 7.72117 247.273 8.12418 246.777 8.12418ZM234.793 8.12418H228.801C228.305 8.12418 227.902 7.72117 227.902 7.22517C227.902 6.72917 228.305 6.32617 228.801 6.32617H234.793C235.289 6.32617 235.692 6.72917 235.692 7.22517C235.691 7.72117 235.289 8.12418 234.793 8.12418ZM222.808 8.12418H216.816C216.32 8.12418 215.917 7.72117 215.917 7.22517C215.917 6.72917 216.32 6.32617 216.816 6.32617H222.808C223.304 6.32617 223.707 6.72917 223.707 7.22517C223.707 7.72117 223.305 8.12418 222.808 8.12418ZM210.824 8.12418H204.832C204.336 8.12418 203.933 7.72117 203.933 7.22517C203.933 6.72917 204.336 6.32617 204.832 6.32617H210.824C211.32 6.32617 211.723 6.72917 211.723 7.22517C211.723 7.72117 211.321 8.12418 210.824 8.12418Z" fill="#01354B"/>
<path d="M223.877 10.6021C225.742 10.6021 227.254 9.09021 227.254 7.22514C227.254 5.36008 225.742 3.84814 223.877 3.84814C222.012 3.84814 220.5 5.36008 220.5 7.22514C220.5 9.09021 222.012 10.6021 223.877 10.6021Z" fill="#01354B"/>
<path d="M223.877 13.554C220.387 13.554 217.548 10.715 217.548 7.22499C217.548 3.73499 220.388 0.895996 223.877 0.895996C227.367 0.895996 230.206 3.73499 230.206 7.22499C230.206 10.715 227.367 13.554 223.877 13.554ZM223.877 1.67099C220.814 1.67099 218.323 4.16299 218.323 7.22499C218.323 10.288 220.815 12.779 223.877 12.779C226.94 12.779 229.431 10.287 229.431 7.22499C229.431 4.16299 226.94 1.67099 223.877 1.67099Z" fill="#01354B"/>
<path d="M227.912 55.9141H169.958V65.8221H227.912V55.9141Z" fill="#C1C1C1"/>
<path d="M274.733 52.1851H233.306C230.291 52.1851 227.431 53.1971 225.493 54.9501L214.239 63.3711H169.904C168.051 63.3711 166.548 64.8741 166.548 66.7271V128.09C166.548 129.943 168.051 131.446 169.904 131.446H277.929C279.782 131.446 281.285 129.944 281.285 128.09V68.8041V66.7271V59.6431C281.285 55.7011 278.352 52.1851 274.733 52.1851Z" fill="#FFC655"/>
<path d="M103.516 237.616L97.3721 243.572C97.1681 243.77 96.9891 243.985 96.8271 244.208C92.7401 241.528 88.2771 239.647 83.6581 238.567C83.7101 238.289 83.7471 238.007 83.7501 237.719L83.8421 229.162C83.8701 226.5 81.7281 224.31 79.0651 224.282L70.5081 224.19C67.8471 224.162 65.6561 226.304 65.6281 228.967L65.5361 237.524C65.5331 237.812 65.5641 238.094 65.6091 238.372C61.0921 239.326 56.7061 241.043 52.6521 243.525C52.4971 243.297 52.3251 243.077 52.1271 242.873L46.1711 236.729C44.3171 234.817 41.2541 234.769 39.3421 236.623L33.1981 242.579C31.2861 244.433 31.2391 247.496 33.0921 249.408L39.0481 255.552C39.2461 255.756 39.4611 255.935 39.6831 256.097C37.0031 260.184 35.1221 264.647 34.0421 269.266C33.7651 269.214 33.4831 269.177 33.1941 269.174L24.6371 269.082C23.3551 269.068 22.1441 269.551 21.2241 270.443C21.2181 270.448 21.2131 270.454 21.2081 270.46C20.2861 271.362 19.7711 272.57 19.7571 273.859L19.6651 282.416C19.6371 285.078 21.7791 287.268 24.4421 287.296L32.9991 287.388C33.2891 287.391 33.5691 287.358 33.8461 287.312C34.8001 291.83 36.5171 296.217 39.0001 300.271C38.7721 300.426 38.5521 300.598 38.3481 300.796L32.2041 306.752C30.2921 308.606 30.2451 311.669 32.0981 313.58L38.0541 319.724C39.9081 321.636 42.9711 321.683 44.8831 319.83L51.0271 313.874C51.2311 313.676 51.4101 313.461 51.5721 313.239C55.6601 315.919 60.1241 317.8 64.7441 318.88C64.6921 319.156 64.6521 319.437 64.6491 319.727L64.5571 328.284C64.5431 329.574 65.0321 330.792 65.9351 331.714C66.8371 332.636 68.0451 333.151 69.3341 333.165L77.8911 333.257C79.2141 333.271 80.4201 332.749 81.3021 331.894C82.1951 331.028 82.7571 329.82 82.7711 328.481L82.8631 319.924C82.8661 319.634 82.8331 319.354 82.7871 319.077C87.3051 318.123 91.6921 316.406 95.7471 313.923C95.9021 314.151 96.0741 314.371 96.2721 314.575L102.228 320.719C104.082 322.631 107.145 322.678 109.057 320.825L115.201 314.869C117.113 313.015 117.16 309.952 115.307 308.04L109.351 301.896C109.153 301.692 108.938 301.513 108.715 301.351C111.395 297.263 113.276 292.8 114.356 288.179C114.632 288.231 114.913 288.271 115.203 288.274L123.76 288.366C125.083 288.38 126.289 287.858 127.172 287.003C128.065 286.137 128.627 284.929 128.641 283.59L128.734 275.033C128.762 272.37 126.619 270.181 123.957 270.152L115.4 270.06C115.112 270.057 114.83 270.087 114.552 270.133C113.598 265.616 111.881 261.23 109.399 257.176C109.627 257.021 109.847 256.849 110.051 256.651L116.195 250.695C118.107 248.841 118.154 245.778 116.301 243.867L110.345 237.723C108.49 235.81 105.427 235.762 103.516 237.616ZM89.9861 295.006C81.0071 303.711 66.6211 303.488 57.9161 294.51C49.2111 285.531 49.4341 271.145 58.4131 262.44C67.3921 253.735 81.7781 253.958 90.4831 262.937C99.1871 271.915 98.9641 286.301 89.9861 295.006Z" stroke="#01354B" stroke-miterlimit="10"/>
<path d="M266.483 307.757H174.512V351.845H266.483V307.757Z" fill="#01354B"/>
<path d="M373.278 99.604V300.446C373.278 306.897 368.049 312.126 361.589 312.126H79.4051C72.9541 312.126 67.7161 306.897 67.7161 300.446V99.604C67.7161 93.153 72.9541 87.915 79.4051 87.915H361.589C368.049 87.915 373.278 93.153 373.278 99.604Z" fill="#01354B"/>
<path opacity="0.5" d="M226 298C226 301.314 223.314 304 220 304C216.686 304 214 301.314 214 298C214 294.686 216.686 292 220 292C223.314 292 226 294.686 226 298Z" fill="white"/>
<path d="M369.608 284.765V101.854C369.608 96.3099 365.268 91.8159 359.915 91.8159H81.08C75.727 91.8159 71.387 96.3099 71.387 101.854V284.765H369.608Z" fill="#CAE7EF"/>
<path d="M284.579 356.595H156.416V356.288C156.416 351.21 160.533 347.094 165.61 347.094H275.384C280.462 347.094 284.578 351.21 284.578 356.288V356.595H284.579Z" fill="#01354B"/>
<path d="M95.432 89.9392C95.432 81.0862 88.758 73.8012 80.169 72.8172C80.235 72.2382 80.277 71.6522 80.277 71.0562C80.277 62.5682 73.396 55.6882 64.909 55.6882C62.635 55.6882 60.484 56.1952 58.542 57.0812C54.45 50.7022 47.302 46.4722 39.16 46.4722C26.448 46.4722 16.143 56.7772 16.143 69.4892C16.143 70.6082 16.227 71.7082 16.382 72.7842C7.68304 73.6642 0.894043 81.0092 0.894043 89.9402C0.894043 99.4642 8.61504 107.185 18.139 107.185H79.042V107.142C88.166 106.692 95.432 99.1742 95.432 89.9392Z" fill="#4E94A6"/>
<path d="M59.2081 120.343V93.5493H37.1181V120.343H30.2131L48.1631 137.16L66.1141 120.343H59.2081Z" fill="#FFC655"/>
<path d="M303.235 102.609H248.998C243.983 102.609 239.917 98.5432 239.917 93.5282V75.4902C239.917 70.4752 243.983 66.4092 248.998 66.4092H303.235C308.25 66.4092 312.316 70.4752 312.316 75.4902V93.5272C312.316 98.5432 308.25 102.609 303.235 102.609Z" fill="#01354B"/>
<path d="M100.776 363.104H46.54C41.525 363.104 37.459 359.038 37.459 354.023V335.986C37.459 330.971 41.525 326.905 46.54 326.905H100.777C105.792 326.905 109.858 330.971 109.858 335.986V354.023C109.858 359.038 105.792 363.104 100.776 363.104Z" fill="#01354B"/>
<path d="M126.857 209.965H72.6201C67.6051 209.965 63.5391 205.899 63.5391 200.884V182.847C63.5391 177.832 67.6051 173.766 72.6201 173.766H126.857C131.872 173.766 135.938 177.832 135.938 182.847V200.884C135.938 205.899 131.872 209.965 126.857 209.965Z" fill="#01354B"/>
<path d="M317.967 325.867H315.384C314.956 325.867 314.609 325.52 314.609 325.092C314.609 324.664 314.956 324.317 315.384 324.317H317.967C318.395 324.317 318.742 324.664 318.742 325.092C318.742 325.52 318.395 325.867 317.967 325.867Z" fill="#01354B"/>
<path d="M379.98 325.867H374.812C374.384 325.867 374.037 325.52 374.037 325.092C374.037 324.664 374.384 324.317 374.812 324.317H379.98C380.408 324.317 380.755 324.664 380.755 325.092C380.755 325.52 380.408 325.867 379.98 325.867ZM369.644 325.867H364.477C364.049 325.867 363.702 325.52 363.702 325.092C363.702 324.664 364.049 324.317 364.477 324.317H369.644C370.072 324.317 370.419 324.664 370.419 325.092C370.419 325.52 370.072 325.867 369.644 325.867ZM359.309 325.867H354.141C353.713 325.867 353.366 325.52 353.366 325.092C353.366 324.664 353.713 324.317 354.141 324.317H359.309C359.737 324.317 360.084 324.664 360.084 325.092C360.084 325.52 359.737 325.867 359.309 325.867ZM348.973 325.867H343.805C343.377 325.867 343.03 325.52 343.03 325.092C343.03 324.664 343.377 324.317 343.805 324.317H348.973C349.401 324.317 349.748 324.664 349.748 325.092C349.749 325.52 349.401 325.867 348.973 325.867ZM338.638 325.867H333.471C333.043 325.867 332.696 325.52 332.696 325.092C332.696 324.664 333.043 324.317 333.471 324.317H338.638C339.066 324.317 339.413 324.664 339.413 325.092C339.413 325.52 339.066 325.867 338.638 325.867ZM328.303 325.867H323.135C322.707 325.867 322.36 325.52 322.36 325.092C322.36 324.664 322.707 324.317 323.135 324.317H328.303C328.731 324.317 329.078 324.664 329.078 325.092C329.078 325.52 328.731 325.867 328.303 325.867ZM385.097 325.266C384.748 325.266 384.431 325.028 384.345 324.673C384.244 324.257 384.499 323.838 384.915 323.737C386.529 323.346 388.094 322.759 389.565 321.991C389.945 321.793 390.413 321.94 390.61 322.32C390.808 322.699 390.661 323.167 390.281 323.365C388.698 324.191 387.015 324.823 385.28 325.243C385.219 325.259 385.158 325.266 385.097 325.266ZM394.175 320.54C393.96 320.54 393.746 320.451 393.593 320.277C393.31 319.956 393.342 319.466 393.664 319.183C394.912 318.086 396.027 316.84 396.978 315.48C397.222 315.129 397.705 315.043 398.057 315.289C398.408 315.534 398.493 316.018 398.248 316.368C397.227 317.829 396.029 319.168 394.688 320.347C394.54 320.476 394.357 320.54 394.175 320.54ZM400.034 312.152C399.941 312.152 399.846 312.135 399.755 312.1C399.356 311.946 399.157 311.497 399.312 311.098C399.91 309.55 400.318 307.93 400.525 306.283C400.578 305.858 400.952 305.556 401.391 305.611C401.816 305.664 402.117 306.052 402.063 306.477C401.84 308.249 401.401 309.991 400.757 311.657C400.639 311.964 400.345 312.152 400.034 312.152ZM401.464 301.996C401.036 301.996 400.689 301.649 400.689 301.221V296.053C400.689 295.625 401.036 295.278 401.464 295.278C401.892 295.278 402.239 295.625 402.239 296.053V301.221C402.24 301.649 401.892 301.996 401.464 301.996ZM401.464 291.66C401.036 291.66 400.689 291.313 400.689 290.885V285.718C400.689 285.29 401.036 284.943 401.464 284.943C401.892 284.943 402.239 285.29 402.239 285.718V290.885C402.24 291.313 401.892 291.66 401.464 291.66ZM401.464 281.325C401.036 281.325 400.689 280.978 400.689 280.55V275.383C400.689 274.955 401.036 274.608 401.464 274.608C401.892 274.608 402.239 274.955 402.239 275.383V280.55C402.24 280.978 401.892 281.325 401.464 281.325ZM401.464 270.99C401.036 270.99 400.689 270.643 400.689 270.215V265.047C400.689 264.619 401.036 264.272 401.464 264.272C401.892 264.272 402.239 264.619 402.239 265.047V270.215C402.24 270.642 401.892 270.99 401.464 270.99ZM401.464 260.655C401.036 260.655 400.689 260.308 400.689 259.88V254.712C400.689 254.284 401.036 253.937 401.464 253.937C401.892 253.937 402.239 254.284 402.239 254.712V259.88C402.24 260.307 401.892 260.655 401.464 260.655ZM401.464 250.319C401.036 250.319 400.689 249.972 400.689 249.544V244.377C400.689 243.949 401.036 243.602 401.464 243.602C401.892 243.602 402.239 243.949 402.239 244.377V249.544C402.24 249.972 401.892 250.319 401.464 250.319ZM401.464 239.983C401.036 239.983 400.689 239.636 400.689 239.208V234.04C400.689 233.612 401.036 233.265 401.464 233.265C401.892 233.265 402.239 233.612 402.239 234.04V239.208C402.24 239.636 401.892 239.983 401.464 239.983Z" fill="#01354B"/>
<path d="M401.464 229.625C401.036 229.625 400.689 229.278 400.689 228.85V227.042H400.039C399.611 227.042 399.264 226.695 399.264 226.267C399.264 225.839 399.611 225.492 400.039 225.492H401.464C401.892 225.492 402.239 225.839 402.239 226.267V228.85C402.24 229.278 401.892 229.625 401.464 229.625Z" fill="#01354B"/>
<path d="M377.411 147.995H309.606C305.53 147.995 302.226 151.299 302.226 155.375V296.284C302.226 300.36 305.53 303.664 309.606 303.664H377.411C381.487 303.664 384.791 300.36 384.791 296.284V155.375C384.791 151.299 381.487 147.995 377.411 147.995Z" fill="#4E94A6"/>
<path d="M358.67 156.115H321.373C320.726 156.115 320.201 155.59 320.201 154.943V154.792C320.201 154.145 320.726 153.62 321.373 153.62H358.67C359.317 153.62 359.842 154.145 359.842 154.792V154.943C359.842 155.59 359.317 156.115 358.67 156.115Z" fill="#0F1B63"/>
<path d="M366.816 154.867C366.816 155.556 366.257 156.115 365.568 156.115C364.879 156.115 364.32 155.556 364.32 154.867C364.32 154.178 364.879 153.619 365.568 153.619C366.257 153.619 366.816 154.178 366.816 154.867Z" fill="#0F1B63"/>
<path d="M380.246 162.131H306.771V207.28H380.246V162.131Z" fill="white"/>
<path d="M357.448 180.997L352.061 187.441L338.122 170.766L314.816 198.645H342.695H361.426H372.201L357.448 180.997Z" fill="#01354B"/>
<path d="M341.46 267.083H306.771V287.429H341.46V267.083Z" fill="white"/>
<path d="M330.697 274.99L328.153 278.032L321.572 270.159L310.569 283.322H323.731H332.575H337.662L330.697 274.99Z" fill="#01354B"/>
<path d="M341.46 218.893H306.771V220.842H341.46V218.893Z" fill="#215468"/>
<path d="M341.46 214.809H306.771V216.758H341.46V214.809Z" fill="#215468"/>
<path d="M328.705 222.883H306.771V224.832H328.705V222.883Z" fill="#215468"/>
<path d="M341.459 222.883H330.264V224.832H341.459V222.883Z" fill="#215468"/>
<path d="M337.461 226.868H306.771V228.817H337.461V226.868Z" fill="#215468"/>
<path d="M317.43 230.962H306.771V232.911H317.43V230.962Z" fill="#215468"/>
<path d="M326.946 230.962H319.269V232.911H326.946V230.962Z" fill="#215468"/>
<path d="M380.246 246.188H345.557V248.137H380.246V246.188Z" fill="#215468"/>
<path d="M380.246 242.103H345.557V244.052H380.246V242.103Z" fill="#215468"/>
<path d="M367.491 250.177H345.557V252.126H367.491V250.177Z" fill="#215468"/>
<path d="M380.245 250.177H369.05V252.126H380.245V250.177Z" fill="#215468"/>
<path d="M376.247 254.162H345.557V256.111H376.247V254.162Z" fill="#215468"/>
<path d="M356.216 258.256H345.557V260.205H356.216V258.256Z" fill="#215468"/>
<path d="M365.732 258.256H358.055V260.205H365.732V258.256Z" fill="#215468"/>
<path d="M380.246 218.893H345.557V220.842H380.246V218.893Z" fill="#215468"/>
<path d="M380.246 214.809H345.557V216.758H380.246V214.809Z" fill="#215468"/>
<path d="M367.491 222.883H345.557V224.832H367.491V222.883Z" fill="#215468"/>
<path d="M380.245 222.883H369.05V224.832H380.245V222.883Z" fill="#215468"/>
<path d="M380.246 226.868H345.557V228.817H380.246V226.868Z" fill="#215468"/>
<path d="M356.216 230.962H345.557V232.911H356.216V230.962Z" fill="#215468"/>
<path d="M380.246 230.962H358.055V232.911H380.246V230.962Z" fill="#215468"/>
<path d="M341.46 246.188H306.771V248.137H341.46V246.188Z" fill="#215468"/>
<path d="M341.46 242.103H306.771V244.052H341.46V242.103Z" fill="#215468"/>
<path d="M341.46 250.177H306.771V252.126H341.46V250.177Z" fill="#215468"/>
<path d="M341.46 254.162H306.771V256.111H341.46V254.162Z" fill="#215468"/>
<path d="M341.46 258.256H306.771V260.205H341.46V258.256Z" fill="#215468"/>
<path d="M380.246 271.833H345.557V273.782H380.246V271.833Z" fill="#215468"/>
<path d="M380.246 267.749H345.557V269.698H380.246V267.749Z" fill="#215468"/>
<path d="M380.245 275.822H358.311V277.771H380.245V275.822Z" fill="#215468"/>
<path d="M356.752 275.822H345.557V277.771H356.752V275.822Z" fill="#215468"/>
<path d="M372.193 279.807H345.557V281.756H372.193V279.807Z" fill="#215468"/>
<path d="M380.245 279.807H374.043V281.756H380.245V279.807Z" fill="#215468"/>
<path d="M380.246 283.901H354.658V285.85H380.246V283.901Z" fill="#215468"/>
<path d="M353.234 283.901H345.557V285.85H353.234V283.901Z" fill="#215468"/>
<path d="M318.653 339.864H264.416C259.401 339.864 255.335 335.798 255.335 330.783V312.746C255.335 307.731 259.401 303.665 264.416 303.665H318.653C323.668 303.665 327.734 307.731 327.734 312.746V330.783C327.734 335.798 323.668 339.864 318.653 339.864Z" fill="#4E94A6"/>
<path d="M404.258 279.825C404.258 281.69 402.746 283.202 400.881 283.202C399.016 283.202 397.504 281.69 397.504 279.825C397.504 277.96 399.016 276.448 400.881 276.448C402.746 276.448 404.258 277.96 404.258 279.825Z" fill="#01354B"/>
<path d="M400.88 286.154C397.39 286.154 394.551 283.315 394.551 279.825C394.551 276.335 397.391 273.496 400.88 273.496C404.37 273.496 407.209 276.335 407.209 279.825C407.21 283.315 404.37 286.154 400.88 286.154ZM400.88 274.27C397.817 274.27 395.326 276.762 395.326 279.824C395.326 282.886 397.818 285.378 400.88 285.378C403.943 285.378 406.434 282.886 406.434 279.824C406.434 276.762 403.943 274.27 400.88 274.27Z" fill="#01354B"/>
<path d="M430.024 230.274H375.787C370.772 230.274 366.706 226.208 366.706 221.193V203.156C366.706 198.141 370.772 194.075 375.787 194.075H430.024C435.039 194.075 439.105 198.141 439.105 203.156V221.193C439.105 226.208 435.039 230.274 430.024 230.274Z" fill="#01354B"/>
<path d="M235.307 236.901H212.526V238.968H235.307V236.901Z" fill="#0F1B63"/>
<path d="M293.908 236.901H241.151V238.968H293.908V236.901Z" fill="#0F1B63"/>
<path d="M266.869 254.686C257.813 254.686 248.737 254.675 239.703 254.653L239.707 252.586C257.773 252.629 276.007 252.629 293.905 252.586L293.91 254.653C284.96 254.675 275.925 254.686 266.869 254.686Z" fill="#0F1B63"/>
<path d="M293.908 244.744H231.403V246.811H293.908V244.744Z" fill="#0F1B63"/>
<path d="M293.909 260.462H228.003V262.529H293.909V260.462Z" fill="#0F1B63"/>
<path d="M293.909 268.305H218.862V270.372H293.909V268.305Z" fill="#0F1B63"/>
<path d="M124.688 118.717H89.4031V120.784H124.688V118.717Z" fill="#01354B"/>
<path d="M206.697 118.717H170.285V120.784H206.697V118.717Z" fill="#01354B"/>
<path d="M206.697 126.56H181.439V128.627H206.697V126.56Z" fill="#FFC655"/>
<path d="M206.697 142.279H171.049V144.346H206.697V142.279Z" fill="#FFC655"/>
<path d="M206.697 150.121H164.067V152.188H206.697V150.121Z" fill="#FFC655"/>
<path d="M206.697 159.291H151.862V161.358H206.697V159.291Z" fill="#FFC655"/>
<path d="M165.692 118.717H130.407V120.784H165.692V118.717Z" fill="#FFC655"/>
<path d="M178.212 136.502C172.822 136.502 167.413 136.494 156.595 136.479L149.562 136.469L149.564 134.402L156.598 134.412C178.23 134.442 178.232 134.442 199.711 134.412L206.697 134.402V136.469L199.714 136.479C188.973 136.495 183.602 136.502 178.212 136.502Z" fill="#FFC655"/>
<path d="M116.442 136.502C107.386 136.502 98.3511 136.491 89.4011 136.47L89.4051 134.403C107.303 134.446 125.539 134.446 143.605 134.403L143.609 136.47C134.574 136.492 125.497 136.502 116.442 136.502Z" fill="#01354B"/>
<path d="M176.428 126.56H89.4031V128.627H176.428V126.56Z" fill="#01354B"/>
<path d="M147.031 159.291H89.4031V161.358H147.031V159.291Z" fill="#01354B"/>
<path d="M166.549 142.279H89.4031V144.346H166.549V142.279Z" fill="#01354B"/>
<path d="M159.32 150.121H89.4031V152.188H159.32V150.121Z" fill="#01354B"/>
<path d="M82.017 121.176C82.804 121.176 83.442 120.538 83.442 119.751C83.442 118.964 82.804 118.326 82.017 118.326C81.23 118.326 80.592 118.964 80.592 119.751C80.592 120.538 81.23 121.176 82.017 121.176Z" fill="#D42190"/>
<path d="M83.442 127.593C83.442 128.38 82.804 129.018 82.017 129.018C81.23 129.018 80.592 128.38 80.592 127.593C80.592 126.806 81.23 126.168 82.017 126.168C82.804 126.167 83.442 126.805 83.442 127.593Z" fill="#D42190"/>
<path d="M82.017 136.861C82.804 136.861 83.442 136.223 83.442 135.436C83.442 134.649 82.804 134.011 82.017 134.011C81.23 134.011 80.592 134.649 80.592 135.436C80.592 136.223 81.23 136.861 82.017 136.861Z" fill="#D42190"/>
<path d="M83.442 143.279C83.442 144.066 82.804 144.704 82.017 144.704C81.23 144.704 80.592 144.066 80.592 143.279C80.592 142.492 81.23 141.854 82.017 141.854C82.804 141.854 83.442 142.492 83.442 143.279Z" fill="#D42190"/>
<path d="M82.017 152.579C82.804 152.579 83.442 151.942 83.442 151.154C83.442 150.367 82.804 149.729 82.017 149.729C81.23 149.729 80.592 150.367 80.592 151.154C80.592 151.942 81.23 152.579 82.017 152.579Z" fill="#D42190"/>
<path d="M83.442 160.323C83.442 161.11 82.804 161.748 82.017 161.748C81.23 161.748 80.592 161.11 80.592 160.323C80.592 159.536 81.23 158.898 82.017 158.898C82.804 158.898 83.442 159.536 83.442 160.323Z" fill="#D42190"/>
<path d="M216.103 164.997C215.817 164.997 215.586 164.766 215.586 164.48V118.59C215.586 118.304 215.817 118.073 216.103 118.073C216.389 118.073 216.62 118.304 216.62 118.59V164.481C216.619 164.766 216.388 164.997 216.103 164.997Z" fill="#D42190"/>
<path d="M128.137 263.986H124.96C124.667 263.986 124.431 263.749 124.431 263.457C124.431 263.164 124.668 262.928 124.96 262.928H128.137C128.43 262.928 128.666 263.165 128.666 263.457C128.667 263.749 128.43 263.986 128.137 263.986ZM121.784 263.986H118.608C118.315 263.986 118.079 263.749 118.079 263.457C118.079 263.164 118.316 262.928 118.608 262.928H121.784C122.077 262.928 122.313 263.165 122.313 263.457C122.314 263.749 122.077 263.986 121.784 263.986ZM115.431 263.986H114.145C113.422 263.986 112.707 263.801 112.078 263.452C111.821 263.31 111.73 262.988 111.871 262.732C112.014 262.475 112.339 262.385 112.591 262.526C113.064 262.788 113.601 262.927 114.145 262.927H115.431C115.724 262.927 115.96 263.164 115.96 263.456C115.961 263.749 115.724 263.986 115.431 263.986ZM110.493 261.048C110.25 261.048 110.031 260.879 109.977 260.631C109.912 260.332 109.879 260.025 109.879 259.72V257.349C109.879 257.056 110.116 256.82 110.408 256.82C110.7 256.82 110.937 257.057 110.937 257.349V259.72C110.937 259.949 110.962 260.181 111.011 260.407C111.073 260.693 110.892 260.975 110.607 261.037C110.568 261.044 110.53 261.048 110.493 261.048ZM110.408 254.702C110.115 254.702 109.879 254.465 109.879 254.173V250.996C109.879 250.703 110.116 250.467 110.408 250.467C110.7 250.467 110.937 250.704 110.937 250.996V254.173C110.937 254.465 110.701 254.702 110.408 254.702ZM110.408 248.349C110.115 248.349 109.879 248.112 109.879 247.819V244.642C109.879 244.349 110.116 244.113 110.408 244.113C110.7 244.113 110.937 244.35 110.937 244.642V247.819C110.937 248.112 110.701 248.349 110.408 248.349ZM110.408 241.995C110.115 241.995 109.879 241.758 109.879 241.466V238.289C109.879 237.996 110.116 237.76 110.408 237.76C110.7 237.76 110.937 237.997 110.937 238.289V241.466C110.937 241.759 110.701 241.995 110.408 241.995ZM110.408 235.642C110.115 235.642 109.879 235.405 109.879 235.113V234.726C109.879 233.649 110.281 232.62 111.012 231.83C111.211 231.616 111.545 231.602 111.761 231.801C111.975 231.999 111.989 232.335 111.79 232.549C111.241 233.143 110.938 233.916 110.938 234.727V235.114C110.937 235.406 110.701 235.642 110.408 235.642ZM130.121 231.519H126.945C126.652 231.519 126.416 231.282 126.416 230.99C126.416 230.698 126.653 230.461 126.945 230.461H130.121C130.414 230.461 130.651 230.698 130.651 230.99C130.651 231.282 130.414 231.519 130.121 231.519ZM123.768 231.519H120.592C120.299 231.519 120.063 231.282 120.063 230.99C120.063 230.698 120.3 230.461 120.592 230.461H123.768C124.061 230.461 124.297 230.698 124.297 230.99C124.297 231.282 124.061 231.519 123.768 231.519ZM117.415 231.519H114.239C113.946 231.519 113.71 231.282 113.71 230.99C113.71 230.698 113.947 230.461 114.239 230.461H117.415C117.708 230.461 117.944 230.698 117.944 230.99C117.944 231.282 117.708 231.519 117.415 231.519Z" fill="#0F1B63"/>
<path d="M139.66 250.238H122.655V252.356H139.66V250.238Z" fill="#0F1B63"/>
<path d="M171.583 250.238H144.111V252.356H171.583V250.238Z" fill="#0F1B63"/>
<path d="M171.582 268.254H154.578V270.372H171.582V268.254Z" fill="#0F1B63"/>
<path d="M150.128 268.254H122.655V270.372H150.128V268.254Z" fill="#0F1B63"/>
<path d="M152.564 256.374H122.655V258.492H152.564V256.374Z" fill="#0F1B63"/>
<path d="M171.582 256.374H157.014V258.492H171.582V256.374Z" fill="#0F1B63"/>
<path d="M147.268 262.398H122.655V264.516H147.268V262.398Z" fill="#0F1B63"/>
<path d="M171.582 262.398H154.881V264.516H171.582V262.398Z" fill="#0F1B63"/>
<path d="M131.557 224.654H122.655V241.23H131.557V224.654Z" fill="#FFC655"/>
<path d="M145.523 218.361H136.621V241.229H145.523V218.361Z" fill="#4E94A6"/>
<path d="M159.029 205.315H150.127V241.229H159.029V205.315Z" fill="#01354B"/>
<path d="M152.815 262.398H149.62V264.516H152.815V262.398Z" fill="#0F1B63"/>
<path d="M293.107 149.052H226.468V223.402H293.107V149.052Z" fill="#4E94A6"/>
<path d="M278.314 162.266H231.848V163.816H278.314V162.266Z" fill="white"/>
<path d="M255.032 175.097C247.052 175.097 239.087 175.089 231.847 175.071L231.851 173.521C246.329 173.557 263.7 173.557 278.313 173.521L278.317 175.071C271.008 175.089 263.012 175.097 255.032 175.097Z" fill="white"/>
<path d="M278.314 167.894H231.848V169.444H278.314V167.894Z" fill="white"/>
<path d="M265.722 179.176H231.848V180.726H265.722V179.176Z" fill="white"/>
<path d="M278.314 217.061H231.848V218.611H278.314V217.061Z" fill="white"/>
<path d="M278.313 207.356C263.698 207.321 246.328 207.321 231.851 207.356L231.847 205.806C246.328 205.772 263.701 205.772 278.317 205.806L278.313 207.356Z" fill="white"/>
<path d="M278.314 211.434H231.848V212.984H278.314V211.434Z" fill="white"/>
<path d="M265.722 200.152H231.848V201.702H265.722V200.152Z" fill="white"/>
<path d="M294.14 224.435H225.434V147.995H294.14V224.435ZM226.468 223.402H293.107V149.028H226.468V223.402Z" fill="#542FD0"/>
<path d="M293.624 148.511H225.951V157.417H293.624V148.511Z" fill="#01354B"/>
<path d="M274.298 196.192C274.115 196.192 273.933 196.128 273.784 195.998L268.577 191.397C268.41 191.25 268.316 191.038 268.316 190.816C268.316 190.594 268.411 190.382 268.577 190.235L273.784 185.634C274.105 185.351 274.594 185.379 274.879 185.702C275.162 186.023 275.131 186.512 274.811 186.796L270.261 190.816L274.811 194.836C275.131 195.12 275.161 195.609 274.879 195.93C274.726 196.104 274.512 196.192 274.298 196.192Z" fill="white"/>
<path d="M282.331 196.192C282.117 196.192 281.903 196.104 281.75 195.93C281.467 195.609 281.498 195.12 281.818 194.836L286.368 190.816L281.818 186.796C281.498 186.512 281.468 186.023 281.75 185.702C282.034 185.381 282.523 185.352 282.845 185.634L288.052 190.235C288.219 190.382 288.313 190.594 288.313 190.816C288.313 191.038 288.218 191.249 288.052 191.397L282.845 195.998C282.697 196.128 282.514 196.192 282.331 196.192Z" fill="white"/>
<path d="M232.36 152.965L234.165 151.16C234.336 150.989 234.336 150.713 234.165 150.542C233.994 150.371 233.718 150.371 233.547 150.542L231.742 152.347L229.937 150.542C229.766 150.371 229.49 150.371 229.319 150.542C229.148 150.713 229.148 150.989 229.319 151.16L231.124 152.965L229.319 154.77C229.148 154.941 229.148 155.217 229.319 155.388C229.404 155.473 229.516 155.516 229.628 155.516C229.74 155.516 229.852 155.473 229.937 155.388L231.742 153.583L233.547 155.388C233.632 155.473 233.744 155.516 233.856 155.516C233.968 155.516 234.08 155.473 234.165 155.388C234.336 155.217 234.336 154.941 234.165 154.77L232.36 152.965Z" fill="white"/>
<path d="M240.103 155.516C238.696 155.516 237.551 154.371 237.551 152.965C237.551 151.558 238.696 150.414 240.103 150.414C241.51 150.414 242.654 151.559 242.654 152.965C242.654 154.372 241.51 155.516 240.103 155.516ZM240.103 151.23C239.147 151.23 238.369 152.008 238.369 152.964C238.369 153.92 239.147 154.698 240.103 154.698C241.059 154.698 241.837 153.92 241.837 152.964C241.837 152.008 241.059 151.23 240.103 151.23Z" fill="white"/>
<path d="M249.974 155.516H245.816C245.574 155.516 245.379 155.32 245.379 155.079C245.379 154.838 245.574 154.642 245.816 154.642H249.974C250.216 154.642 250.411 154.838 250.411 155.079C250.411 155.32 250.215 155.516 249.974 155.516Z" fill="white"/>
<path d="M205.172 48.9562L199.154 50.8602C198.954 50.9232 198.765 51.0062 198.585 51.1002C196.772 47.9842 194.448 45.2712 191.757 43.0352C191.883 42.8692 192 42.6952 192.097 42.5062L194.98 36.8912C195.877 35.1442 195.185 32.9932 193.438 32.0952L187.823 29.2122C186.076 28.3162 183.924 29.0072 183.027 30.7542L180.144 36.3692C180.047 36.5582 179.974 36.7542 179.913 36.9522C176.618 36.0912 173.158 35.7782 169.664 36.0792C169.637 35.8782 169.596 35.6762 169.533 35.4762L167.629 29.4582C167.037 27.5852 165.031 26.5432 163.158 27.1362L157.14 29.0402C155.267 29.6322 154.226 31.6382 154.818 33.5112L156.722 39.5292C156.785 39.7292 156.868 39.9182 156.962 40.0982C153.846 41.9112 151.133 44.2352 148.897 46.9262C148.731 46.8002 148.557 46.6832 148.368 46.5862L142.753 43.7032C141.912 43.2712 140.953 43.1902 140.052 43.4752C140.047 43.4772 140.041 43.4782 140.036 43.4812C139.13 43.7722 138.392 44.3992 137.957 45.2452L135.074 50.8602C134.177 52.6072 134.869 54.7582 136.616 55.6562L142.231 58.5392C142.421 58.6372 142.617 58.7072 142.815 58.7682C141.954 62.0632 141.64 65.5242 141.941 69.0182C141.74 69.0452 141.538 69.0862 141.338 69.1492L135.32 71.0532C133.447 71.6452 132.406 73.6512 132.998 75.5242L134.902 81.5422C135.494 83.4152 137.5 84.4562 139.373 83.8642L145.391 81.9602C145.591 81.8972 145.78 81.8142 145.96 81.7202C147.773 84.8372 150.098 87.5502 152.79 89.7872C152.665 89.9522 152.546 90.1242 152.448 90.3142L149.565 95.9292C149.13 96.7752 149.051 97.7412 149.342 98.6462C149.633 99.5522 150.26 100.29 151.106 100.724L156.721 103.607C157.589 104.053 158.557 104.106 159.421 103.832C160.296 103.555 161.065 102.943 161.516 102.064L164.399 96.4492C164.497 96.2592 164.567 96.0632 164.628 95.8652C167.923 96.7262 171.384 97.0392 174.879 96.7392C174.906 96.9402 174.947 97.1422 175.01 97.3432L176.914 103.361C177.506 105.234 179.512 106.275 181.385 105.683L187.403 103.779C189.276 103.187 190.317 101.181 189.725 99.3082L187.821 93.2902C187.758 93.0902 187.675 92.9012 187.581 92.7212C190.698 90.9082 193.411 88.5832 195.648 85.8912C195.813 86.0172 195.985 86.1352 196.176 86.2332L201.791 89.1162C202.659 89.5622 203.627 89.6152 204.492 89.3422C205.367 89.0652 206.136 88.4532 206.587 87.5742L209.471 81.9592C210.368 80.2122 209.676 78.0602 207.929 77.1632L202.314 74.2802C202.125 74.1832 201.929 74.1102 201.73 74.0482C202.59 70.7532 202.904 67.2932 202.603 63.8002C202.804 63.7732 203.006 63.7322 203.207 63.6692L209.225 61.7652C211.098 61.1732 212.139 59.1672 211.547 57.2952L209.643 51.2772C209.05 49.4062 207.045 48.3642 205.172 48.9562ZM177.317 82.3592C168.522 85.1412 159.103 80.2492 156.321 71.4542C153.539 62.6592 158.431 53.2402 167.226 50.4582C176.021 47.6762 185.439 52.5682 188.221 61.3632C191.003 70.1592 186.111 79.5772 177.317 82.3592Z" fill="#01354B"/>
<path d="M197.573 188.675L196.11 192.257C196.061 192.376 196.026 192.497 196 192.619C193.821 192.251 191.631 192.283 189.522 192.674C189.493 192.55 189.457 192.426 189.406 192.306L187.89 188.746C187.418 187.638 186.134 187.121 185.026 187.592L181.466 189.107C180.359 189.578 179.841 190.864 180.312 191.971L181.828 195.531C181.879 195.651 181.943 195.762 182.012 195.869C180.315 197.084 178.81 198.592 177.582 200.356C177.477 200.29 177.366 200.23 177.246 200.181L173.664 198.718C172.549 198.263 171.272 198.799 170.817 199.914L169.354 203.496C168.899 204.611 169.435 205.888 170.55 206.343L174.132 207.806C174.251 207.855 174.372 207.89 174.494 207.916C174.126 210.095 174.158 212.285 174.549 214.394C174.425 214.423 174.301 214.459 174.181 214.51L170.621 216.026C170.087 216.253 169.674 216.673 169.455 217.209C169.454 217.212 169.452 217.216 169.451 217.219C169.233 217.76 169.239 218.354 169.467 218.89L170.983 222.45C171.455 223.557 172.74 224.075 173.847 223.604L177.407 222.088C177.527 222.037 177.638 221.972 177.744 221.903C178.959 223.601 180.467 225.106 182.232 226.334C182.166 226.439 182.106 226.551 182.057 226.67L180.594 230.252C180.139 231.367 180.675 232.644 181.79 233.099L185.372 234.562C186.487 235.017 187.764 234.481 188.219 233.366L189.682 229.784C189.731 229.665 189.766 229.544 189.792 229.422C191.971 229.79 194.162 229.758 196.271 229.366C196.3 229.49 196.334 229.613 196.386 229.734L197.902 233.294C198.13 233.831 198.554 234.246 199.095 234.464C199.636 234.682 200.23 234.676 200.766 234.448L204.326 232.932C204.876 232.698 205.281 232.263 205.491 231.748C205.704 231.227 205.717 230.625 205.48 230.068L203.965 226.508C203.914 226.387 203.849 226.277 203.779 226.171C205.477 224.956 206.982 223.448 208.21 221.683C208.316 221.749 208.427 221.809 208.546 221.858L212.128 223.321C213.243 223.776 214.52 223.24 214.975 222.125L216.438 218.543C216.893 217.428 216.357 216.151 215.242 215.696L211.66 214.233C211.541 214.184 211.42 214.149 211.298 214.123C211.666 211.944 211.634 209.753 211.242 207.644C211.366 207.615 211.489 207.581 211.61 207.529L215.17 206.013C215.72 205.779 216.125 205.343 216.335 204.829C216.548 204.308 216.561 203.706 216.323 203.149L214.808 199.588C214.336 198.48 213.051 197.963 211.944 198.434L208.384 199.95C208.264 200.001 208.153 200.065 208.046 200.134C206.831 198.437 205.323 196.932 203.559 195.704C203.625 195.599 203.685 195.487 203.734 195.368L205.197 191.786C205.652 190.671 205.116 189.394 204.001 188.939L200.419 187.476C199.305 187.023 198.028 187.56 197.573 188.675ZM202.391 214.898C200.253 220.133 194.255 222.653 189.02 220.516C183.785 218.378 181.265 212.38 183.402 207.145C185.54 201.91 191.538 199.39 196.773 201.528C202.008 203.665 204.528 209.663 202.391 214.898Z" fill="#01354B"/>
<path d="M173.848 170.489L171.944 172.418C171.881 172.482 171.826 172.551 171.776 172.623C170.463 171.803 169.037 171.238 167.566 170.929C167.581 170.841 167.59 170.751 167.589 170.66L167.559 167.95C167.549 167.107 166.855 166.428 166.012 166.438L163.301 166.469C162.458 166.479 161.779 167.172 161.789 168.016L161.82 170.726C161.821 170.817 161.833 170.906 161.849 170.994C160.425 171.328 159.048 171.902 157.782 172.717C157.731 172.646 157.676 172.578 157.611 172.514L155.682 170.61C155.082 170.018 154.111 170.024 153.519 170.624L151.615 172.553C151.023 173.153 151.029 174.124 151.629 174.716L153.558 176.62C153.622 176.683 153.691 176.738 153.763 176.788C152.943 178.101 152.378 179.528 152.069 180.998C151.981 180.983 151.891 180.974 151.8 180.975L149.09 181.006C148.684 181.011 148.304 181.172 148.019 181.461C148.017 181.463 148.015 181.464 148.014 181.466C147.728 181.758 147.574 182.144 147.578 182.553L147.609 185.263C147.619 186.106 148.313 186.785 149.156 186.775L151.867 186.744C151.959 186.743 152.047 186.731 152.135 186.714C152.469 188.138 153.043 189.515 153.858 190.782C153.787 190.833 153.719 190.889 153.655 190.953L151.751 192.882C151.159 193.482 151.165 194.453 151.765 195.045L153.694 196.949C154.294 197.541 155.265 197.535 155.857 196.935L157.761 195.006C157.824 194.942 157.879 194.873 157.929 194.801C159.242 195.621 160.669 196.186 162.14 196.495C162.125 196.583 162.115 196.672 162.116 196.764L162.147 199.474C162.152 199.883 162.315 200.265 162.607 200.551C162.899 200.837 163.285 200.991 163.694 200.987L166.405 200.957C166.824 200.952 167.202 200.778 167.476 200.501C167.753 200.221 167.922 199.834 167.917 199.41L167.886 196.7C167.885 196.608 167.872 196.52 167.856 196.432C169.28 196.098 170.657 195.524 171.924 194.709C171.975 194.78 172.031 194.849 172.095 194.912L174.024 196.816C174.624 197.409 175.595 197.402 176.187 196.802L178.091 194.873C178.683 194.273 178.677 193.302 178.077 192.71L176.148 190.806C176.084 190.743 176.015 190.688 175.943 190.638C176.763 189.325 177.328 187.898 177.638 186.427C177.726 186.442 177.815 186.452 177.907 186.451L180.617 186.42C181.036 186.415 181.415 186.242 181.688 185.964C181.965 185.683 182.134 185.297 182.129 184.873L182.099 182.162C182.089 181.319 181.395 180.64 180.552 180.65L177.842 180.681C177.751 180.682 177.662 180.694 177.574 180.71C177.24 179.286 176.666 177.909 175.851 176.643C175.922 176.592 175.991 176.536 176.054 176.472L177.958 174.543C178.55 173.943 178.544 172.972 177.944 172.38L176.015 170.476C175.411 169.883 174.441 169.889 173.848 170.489ZM169.965 188.758C167.182 191.578 162.625 191.608 159.805 188.825C156.985 186.042 156.955 181.485 159.738 178.665C162.52 175.846 167.078 175.816 169.898 178.598C172.717 181.382 172.747 185.939 169.965 188.758Z" stroke="#01354B" stroke-width="0.5" stroke-miterlimit="10"/>
<path d="M21.604 145.29H9.24902V147.357H21.604V145.29Z" fill="#0F1B63"/>
<path d="M58.224 145.29H26.71V147.357H58.224V145.29Z" fill="#0F1B63"/>
<path d="M58.224 167.479H38.717V169.546H58.224V167.479Z" fill="#0F1B63"/>
<path d="M33.612 167.479H9.24902V169.546H33.612V167.479Z" fill="#0F1B63"/>
<path d="M36.407 152.846H9.24902V154.913H36.407V152.846Z" fill="#0F1B63"/>
<path d="M58.224 152.846H41.512V154.913H58.224V152.846Z" fill="#0F1B63"/>
<path d="M30.331 160.266H9.24902V162.333H30.331V160.266Z" fill="#0F1B63"/>
<path d="M58.2239 160.266H39.0649V162.333H58.2239V160.266Z" fill="#0F1B63"/>
<path d="M36.6941 160.266H33.0291V162.333H36.6941V160.266Z" fill="#0F1B63"/>
<path d="M347.232 338.848H334.877V340.915H347.232V338.848Z" fill="#0F1B63"/>
<path d="M383.851 338.848H352.337V340.915H383.851V338.848Z" fill="#0F1B63"/>
<path d="M383.851 361.037H364.344V363.104H383.851V361.037Z" fill="#0F1B63"/>
<path d="M359.239 361.037H334.877V363.104H359.239V361.037Z" fill="#0F1B63"/>
<path d="M362.034 346.405H334.877V348.472H362.034V346.405Z" fill="#0F1B63"/>
<path d="M383.851 346.405H367.139V348.472H383.851V346.405Z" fill="#0F1B63"/>
<path d="M355.959 353.824H334.877V355.891H355.959V353.824Z" fill="#0F1B63"/>
<path d="M383.851 353.824H364.692V355.891H383.851V353.824Z" fill="#0F1B63"/>
<path d="M362.321 353.824H358.656V355.891H362.321V353.824Z" fill="#0F1B63"/>
<path d="M375.94 83.7912L371.088 84.8302C370.927 84.8652 370.773 84.9152 370.625 84.9752C369.44 82.4012 367.824 80.1042 365.885 78.1522C365.996 78.0322 366.101 77.9042 366.191 77.7632L368.868 73.5852C369.701 72.2852 369.321 70.5502 368.021 69.7172L363.843 67.0402C362.543 66.2082 360.808 66.5872 359.975 67.8882L357.298 72.0662C357.208 72.2062 357.136 72.3542 357.073 72.5052C354.559 71.5852 351.875 71.0802 349.118 71.0542C349.112 70.8942 349.095 70.7342 349.061 70.5722L348.022 65.7202C347.699 64.2102 346.208 63.2452 344.698 63.5682L339.846 64.6072C338.336 64.9302 337.371 66.4222 337.694 67.9322L338.733 72.7842C338.768 72.9452 338.818 73.0992 338.878 73.2472C336.304 74.4322 334.007 76.0482 332.055 77.9862C331.935 77.8752 331.807 77.7702 331.667 77.6802L327.489 75.0032C326.863 74.6022 326.119 74.4672 325.393 74.6222C325.389 74.6232 325.384 74.6242 325.38 74.6252C324.649 74.7852 324.025 75.2202 323.621 75.8502L320.944 80.0282C320.112 81.3282 320.491 83.0632 321.792 83.8962L325.97 86.5732C326.112 86.6642 326.26 86.7342 326.41 86.7962C325.49 89.3102 324.985 91.9952 324.958 94.7522C324.799 94.7582 324.638 94.7752 324.476 94.8092L319.624 95.8482C318.114 96.1712 317.149 97.6622 317.472 99.1732L318.511 104.025C318.834 105.535 320.325 106.5 321.835 106.177L326.687 105.138C326.848 105.103 327.002 105.053 327.15 104.993C328.335 107.568 329.951 109.865 331.891 111.817C331.78 111.937 331.675 112.062 331.584 112.204L328.907 116.382C328.503 117.012 328.369 117.761 328.529 118.492C328.689 119.223 329.124 119.847 329.754 120.25L333.932 122.927C334.578 123.341 335.331 123.455 336.028 123.306C336.733 123.155 337.381 122.734 337.8 122.08L340.477 117.902C340.568 117.761 340.638 117.612 340.7 117.462C343.214 118.382 345.899 118.887 348.656 118.914C348.662 119.074 348.679 119.235 348.714 119.396L349.753 124.248C350.076 125.758 351.567 126.723 353.077 126.4L357.929 125.361C359.439 125.038 360.404 123.547 360.081 122.037L359.042 117.185C359.007 117.024 358.957 116.87 358.897 116.722C361.472 115.537 363.769 113.921 365.721 111.981C365.841 112.092 365.967 112.197 366.108 112.288L370.286 114.965C370.932 115.379 371.686 115.493 372.383 115.344C373.088 115.193 373.736 114.772 374.155 114.118L376.832 109.94C377.665 108.64 377.284 106.905 375.985 106.072L371.807 103.395C371.667 103.305 371.518 103.233 371.368 103.17C372.288 100.656 372.793 97.9722 372.819 95.2162C372.979 95.2102 373.14 95.1932 373.301 95.1592L378.153 94.1202C379.663 93.7972 380.628 92.3062 380.305 90.7962L379.266 85.9442C378.941 84.4332 377.45 83.4682 375.94 83.7912ZM351.641 107.844C344.55 109.362 337.546 104.829 336.028 97.7382C334.51 90.6472 339.043 83.6432 346.134 82.1252C353.225 80.6072 360.229 85.1402 361.747 92.2312C363.265 99.3222 358.731 106.326 351.641 107.844Z" fill="#01354B"/>
</svg>
