<?xml version="1.0" encoding="utf-8"?>
<!-- Generator: Adobe Illustrator 27.5.0, SVG Export Plug-In . SVG Version: 6.00 Build 0)  -->
<svg version="1.1" xmlns="http://www.w3.org/2000/svg" xmlns:xlink="http://www.w3.org/1999/xlink" x="0px" y="0px"
	 viewBox="0 0 500 500" style="enable-background:new 0 0 500 500;" xml:space="preserve">
<g id="BACKGROUND">
</g>
<g id="OBJECTS">
	<g>
		
			<ellipse transform="matrix(0.2937 -0.9559 0.9559 0.2937 184.8394 430.3715)" style="fill:#E6EDFF;" cx="383.648" cy="90.106" rx="11.274" ry="11.274"/>
		<path style="fill:#BFD2FF;" d="M482.754,354.445c-0.703-2.832-1.637-5.453-2.768-7.895c-9.09-19.627-30.664-25.264-46.492-36.783
			c-6.755-4.915-12.185-12.331-12.683-20.671c-0.592-9.901,5.583-18.731,10.598-27.289c6.409-10.935,11.353-23.024,12.079-35.678
			c0.726-12.654-3.199-25.949-12.354-34.714c-10.556-10.105-26.255-12.829-40.855-12.21c-37.15,1.577-71.411,17.2-100.841-15.031
			c-20.856-22.84-29.643-61.248-51.2-83.939c-34.214-36.014-93.377-29.904-130.52,3.116
			c-33.558,29.833-44.438,77.293-32.477,119.874c7.723,27.494,17.01,55.427-2.136,81.355c-16.384,22.188-42.307,36.982-51.88,63.993
			c-9.281,26.188-5.936,58.576,16.303,77.325c11.475,9.674,26.176,14.656,40.832,17.89c0.109,0.024,0.216,0.044,0.325,0.068h297.64
			C423.247,436.788,497.633,414.372,482.754,354.445z"/>
		
			<ellipse transform="matrix(0.3801 -0.9249 0.9249 0.3801 100.4545 396.0345)" style="fill:#BFD2FF;" cx="345.688" cy="123.073" rx="22.211" ry="22.211"/>
		<path style="fill:#BFD2FF;" d="M69.055,254.471c0,7.45-6.04,13.49-13.49,13.49s-13.49-6.04-13.49-13.49
			c0-7.45,6.04-13.49,13.49-13.49S69.055,247.021,69.055,254.471z"/>
	</g>
	<path style="fill:#BFD2FF;" d="M132.143,441.182c4.492,0.904,8.995,1.752,13.506,2.558h4.717L132.143,441.182z"/>
	<path style="fill:#E6EDFF;" d="M465.992,285.94c-0.493-1.756-1.381-3.281-2.666-4.574c-0.699-0.54-1.399-1.081-2.098-1.621
		c-1.617-0.938-3.361-1.41-5.232-1.415h-0.513c-1.427-0.054-2.759,0.244-3.994,0.893c-1.285,0.418-2.397,1.133-3.336,2.143
		c-1.011,0.939-1.725,2.051-2.143,3.336c-0.649,1.235-0.947,2.567-0.893,3.994c0.123,0.919,0.247,1.837,0.37,2.756
		c0.492,1.756,1.381,3.281,2.666,4.574c0.699,0.54,1.399,1.081,2.098,1.621c1.617,0.938,3.361,1.409,5.232,1.415h0.513
		c1.427,0.054,2.758-0.244,3.994-0.893c1.285-0.418,2.397-1.133,3.336-2.143c1.011-0.939,1.725-2.051,2.143-3.336
		c0.649-1.235,0.947-2.567,0.893-3.994C466.239,287.778,466.115,286.859,465.992,285.94z"/>
	<g>
		<path style="fill:#63738F;" d="M343.179,439.752l-236.182-1.127c-5.405-0.026-9.765-4.428-9.739-9.832l0.632-132.517
			c0.026-5.404,4.428-9.765,9.832-9.739l236.182,1.127c5.405,0.026,9.765,4.428,9.739,9.832l-0.632,132.517
			C352.985,435.417,348.583,439.777,343.179,439.752z"/>
		<path style="fill:#333842;" d="M226.969,290.164c-0.003,0.646-0.529,1.168-1.176,1.165c-0.646-0.003-1.168-0.529-1.165-1.176
			s0.529-1.168,1.176-1.165C226.451,288.991,226.972,289.518,226.969,290.164z"/>
		<path style="fill:#3E4D66;" d="M371.896,440.082L371.896,440.082l-293.618-1.401l0,0c-0.032,6.742,5.407,12.234,12.149,12.266
			l269.203,1.284C366.372,452.264,371.864,446.824,371.896,440.082z"/>
		<path style="fill:#FEFEFF;" d="M339.203,434.958l-228.185-1.089c-4.223-0.02-7.63-3.46-7.61-7.683l0.601-126.048
			c0.02-4.223,3.46-7.63,7.683-7.61l228.185,1.089c4.223,0.02,7.63,3.46,7.61,7.683l-0.601,126.048
			C346.866,431.572,343.426,434.979,339.203,434.958z"/>
	</g>
	<g>
		<g>
			
				<rect x="403.401" y="155.032" transform="matrix(6.123234e-17 -1 1 6.123234e-17 236.0388 579.1423)" style="fill:#FFB861;" width="8.379" height="33.04"/>
			
				<rect x="411.486" y="133.993" transform="matrix(6.123234e-17 -1 1 6.123234e-17 257.0773 574.2729)" style="fill:#96B3FF;" width="8.379" height="49.209"/>
			
				<rect x="422.643" y="109.882" transform="matrix(6.123234e-17 -1 1 6.123234e-17 281.1884 572.4761)" style="fill:#FF6EA1;" width="8.379" height="71.523"/>
			
				<rect x="407.002" y="112.569" transform="matrix(6.123234e-17 -1 1 6.123234e-17 278.5014 543.8812)" style="fill:#3FD4C7;" width="8.379" height="40.242"/>
			<polyline style="fill:none;stroke:#333842;stroke-width:0.6764;stroke-linecap:round;stroke-miterlimit:10;" points="
				389.983,121.035 389.983,181.656 467.85,181.656 			"/>
		</g>
		<g>
			<rect x="416.253" y="193.776" style="fill:#E0E9FF;" width="50.778" height="4.777"/>
			<rect x="416.253" y="202.759" style="fill:#E0E9FF;" width="50.778" height="4.776"/>
			<rect x="416.253" y="211.742" style="fill:#E0E9FF;" width="50.778" height="4.796"/>
			<rect x="389.983" y="193.776" style="fill:#E0E9FF;" width="21.968" height="22.761"/>
			<rect x="389.983" y="220.724" style="fill:#E0E9FF;" width="77.049" height="4.777"/>
			<rect x="389.983" y="229.707" style="fill:#E0E9FF;" width="77.049" height="4.777"/>
		</g>
		<g>
			<g>
				<g>
					<path style="fill:#BFD2FF;" d="M290.04,68.859c-1.572,0.31-3.089,0.768-4.535,1.362c0.088,0.112,0.184,0.213,0.261,0.336
						c1.185,1.894,0.61,4.391-1.285,5.576c-1.895,1.185-4.391,0.61-5.576-1.284c-0.084-0.134-0.139-0.276-0.205-0.415
						c-1.196,1.044-2.289,2.202-3.262,3.456c0.14,0.056,0.283,0.099,0.419,0.171c1.974,1.048,2.724,3.498,1.676,5.471
						c-1.048,1.974-3.498,2.724-5.471,1.676c-0.155-0.082-0.288-0.187-0.427-0.285c-0.516,1.495-0.889,3.053-1.107,4.66
						c0.166-0.027,0.329-0.063,0.501-0.069c2.233-0.079,4.108,1.667,4.187,3.9c0.079,2.233-1.667,4.108-3.9,4.187
						c-0.196,0.007-0.385-0.017-0.574-0.037c0.309,1.608,0.773,3.158,1.378,4.635c0.146-0.123,0.288-0.248,0.454-0.352
						c1.895-1.185,4.391-0.61,5.576,1.285c1.185,1.895,0.61,4.391-1.284,5.576c-0.18,0.113-0.37,0.195-0.559,0.276
						c1.067,1.228,2.251,2.349,3.538,3.342c0.067-0.193,0.135-0.385,0.233-0.571c1.048-1.974,3.498-2.724,5.471-1.676
						c1.973,1.048,2.724,3.498,1.676,5.471c-0.106,0.2-0.236,0.378-0.368,0.551c1.526,0.524,3.119,0.902,4.761,1.116
						c-0.041-0.208-0.079-0.416-0.087-0.635c-0.079-2.233,1.668-4.107,3.901-4.187c2.233-0.079,4.108,1.667,4.187,3.9
						c0.008,0.228-0.015,0.449-0.044,0.668c1.626-0.319,3.191-0.799,4.681-1.42c-0.139-0.159-0.276-0.321-0.392-0.505
						c-1.185-1.895-0.61-4.391,1.284-5.576c1.894-1.185,4.391-0.61,5.576,1.285c0.116,0.186,0.202,0.381,0.285,0.577
						c1.221-1.075,2.333-2.268,3.319-3.562c-0.188-0.066-0.376-0.131-0.556-0.227c-1.974-1.048-2.724-3.498-1.676-5.471
						c1.048-1.974,3.497-2.724,5.471-1.676c0.18,0.096,0.338,0.215,0.497,0.332c0.509-1.512,0.872-3.088,1.077-4.712
						c-0.179,0.031-0.355,0.067-0.542,0.074c-2.233,0.079-4.108-1.667-4.187-3.9c-0.079-2.233,1.667-4.108,3.901-4.187
						c0.182-0.007,0.357,0.018,0.533,0.035c-0.321-1.59-0.793-3.122-1.404-4.581c-0.127,0.102-0.246,0.212-0.388,0.3
						c-1.894,1.185-4.391,0.61-5.576-1.285c-1.185-1.894-0.61-4.391,1.284-5.576c0.139-0.087,0.287-0.145,0.432-0.213
						c-1.052-1.19-2.217-2.276-3.478-3.242c-0.054,0.136-0.096,0.275-0.166,0.407c-1.048,1.974-3.498,2.724-5.471,1.676
						c-1.973-1.048-2.724-3.498-1.675-5.471c0.072-0.135,0.165-0.25,0.249-0.374c-1.481-0.5-3.023-0.859-4.611-1.068
						c0.019,0.136,0.051,0.268,0.056,0.409c0.079,2.233-1.667,4.108-3.9,4.187c-2.233,0.079-4.108-1.667-4.187-3.9
						C290.007,69.149,290.03,69.006,290.04,68.859z M294.221,76.434c9.101-0.322,16.74,6.794,17.062,15.895
						c0.322,9.101-6.794,16.74-15.895,17.062c-9.101,0.322-16.74-6.794-17.062-15.895C278.004,84.395,285.12,76.756,294.221,76.434z
						"/>
				</g>
			</g>
		</g>
		<g>
			
				<rect x="34.671" y="88.528" transform="matrix(-1.836970e-16 1 -1 -1.836970e-16 227.0363 44.2172)" style="fill:#E0E9FF;" width="113.477" height="94.197"/>
			<g>
				<rect x="63.439" y="123.675" style="fill:#3FD4C7;" width="10.509" height="24.865"/>
				<rect x="79.686" y="111.506" style="fill:#FEFEFF;" width="10.509" height="37.033"/>
				<rect x="95.933" y="94.713" style="fill:#96B3FF;" width="10.509" height="53.826"/>
				<rect x="112.179" y="118.255" style="fill:#628AEC;" width="10.509" height="30.285"/>
				<polyline style="fill:none;stroke:#333842;stroke-width:0.75;stroke-linecap:round;stroke-miterlimit:10;" points="
					57.255,95.717 57.255,148.809 126.343,148.809 				"/>
			</g>
			<rect x="55.893" y="158.93" style="fill:#FEFEFF;" width="70.732" height="6.773"/>
			<rect x="55.893" y="171.348" style="fill:#FEFEFF;" width="70.732" height="6.774"/>
		</g>
		<g>
			<g>
				<g>
					<polygon style="fill:#FFFFFF;" points="188.891,222.612 175.845,249.252 152.139,219.716 130.795,247.066 115.055,230.059 
						112.657,232.279 131.007,252.107 152.175,224.982 176.517,255.309 191.334,225.055 					"/>
				</g>
				<g>
					<path style="fill:#FF6EA1;" d="M180.551,252.281c0-2.317-1.878-4.195-4.195-4.195c-2.317,0-4.196,1.878-4.196,4.195
						c0,2.317,1.878,4.195,4.196,4.195C178.673,256.476,180.551,254.598,180.551,252.281z"/>
				</g>
				<g>
					<path style="fill:#3FD4C7;" d="M194.414,222.622c0-2.317-1.878-4.196-4.195-4.196c-2.317,0-4.196,1.878-4.196,4.196
						c0,2.317,1.879,4.195,4.196,4.195C192.535,226.817,194.414,224.939,194.414,222.622z"/>
				</g>
				<g>
					<circle style="fill:#333842;" cx="151.997" cy="222.622" r="4.195"/>
				</g>
				<g>
					<circle style="fill:#FFB861;" cx="131.401" cy="249.086" r="4.196"/>
				</g>
				<g>
					<path style="fill:#628AEC;" d="M118.961,231.965c0-2.317-1.878-4.195-4.196-4.195s-4.195,1.878-4.195,4.195
						c0,2.317,1.878,4.195,4.195,4.195S118.961,234.282,118.961,231.965z"/>
				</g>
			</g>
			<polyline style="fill:none;stroke:#333842;stroke-width:0.75;stroke-linecap:round;stroke-miterlimit:10;" points="
				102.502,212.39 102.502,268.415 196.81,268.415 			"/>
		</g>
		<g>
			<g>
				
					<ellipse transform="matrix(0.9873 -0.1586 0.1586 0.9873 -59.5161 29.305)" style="fill:#BFC5D4;" cx="153.866" cy="387.579" rx="32.387" ry="32.387"/>
				<path style="fill:#628AEC;" d="M153.098,388.078l-25.259-8.81c-0.988,2.832-1.492,5.811-1.492,8.81
					c0,14.675,12.076,26.751,26.751,26.751c4.849,0,9.607-1.318,13.765-3.813L153.098,388.078z"/>
				<path style="fill:#E0E9FF;" d="M154.484,387.579l13.941,22.831c3.912-2.389,7.146-5.744,9.389-9.742
					c2.243-3.998,3.421-8.506,3.421-13.09H154.484z"/>
				<path style="fill:#FEFEFF;" d="M154.637,386.29l26.749-0.37c-0.05-3.64-0.843-7.231-2.33-10.554s-3.636-6.308-6.316-8.771
					L154.637,386.29z"/>
			</g>
			<g>
				<rect x="116.377" y="334.515" style="fill:#333842;" width="74.979" height="4.151"/>
				<rect x="116.377" y="326.315" style="fill:#333842;" width="74.979" height="4.151"/>
				<rect x="116.377" y="318.116" style="fill:#333842;" width="74.979" height="4.151"/>
				<rect x="116.377" y="309.916" style="fill:#333842;" width="74.979" height="4.151"/>
				<rect x="116.377" y="342.125" style="fill:#333842;" width="74.979" height="4.151"/>
			</g>
			<g>
				<rect x="207.935" y="422.199" style="fill:#333842;" width="129.993" height="4.151"/>
				<rect x="207.935" y="414" style="fill:#333842;" width="129.993" height="4.151"/>
				<rect x="207.935" y="405.8" style="fill:#333842;" width="129.993" height="4.151"/>
			</g>
		</g>
		<g>
			
				<ellipse transform="matrix(0.9822 -0.188 0.188 0.9822 -16.8542 38.6828)" style="fill:#E0E9FF;" cx="195.452" cy="108.172" rx="31.316" ry="31.316"/>
			<path style="fill:#FF6EA1;" d="M194.709,108.655l-24.424-8.519c-0.955,2.739-1.443,5.618-1.443,8.519
				c0,14.19,11.677,25.866,25.867,25.866c4.688,0,9.29-1.275,13.31-3.687L194.709,108.655z"/>
			<path style="fill:#3FD4C7;" d="M196.049,108.172l13.48,22.076c3.783-2.31,6.909-5.554,9.078-9.42
				c2.169-3.866,3.308-8.224,3.308-12.657H196.049z"/>
			<path style="fill:#FEFEFF;" d="M196.198,106.927l25.864-0.358c-0.049-3.519-0.815-6.992-2.253-10.205
				c-1.437-3.213-3.516-6.099-6.107-8.481L196.198,106.927z"/>
		</g>
		<g>
			<rect x="207.706" y="145.202" style="fill:#E0E9FF;" width="165.986" height="250.509"/>
			<g>
				<g>
					<rect x="259.855" y="265.876" style="fill:#FFB861;" width="11.805" height="49.712"/>
					<rect x="310.581" y="241.549" style="fill:#FF6EA1;" width="11.805" height="74.04"/>
					<rect x="335.945" y="207.975" style="fill:#3FD4C7;" width="11.805" height="107.614"/>
					<g>
						<g>
							<path style="fill:none;stroke:#333842;stroke-width:0.75;stroke-linecap:round;stroke-miterlimit:10;" d="M232.689,261.901
								c25.412-6.643,71.845-31.13,92.87-54.571"/>
							<g>
								<polygon style="fill:#333842;" points="327.259,205.371 325.913,209.085 325.387,207.439 323.698,207.079 								"/>
							</g>
						</g>
					</g>
					<rect x="285.218" y="255.041" style="fill:#FEFEFF;" width="11.805" height="60.547"/>
					<rect x="234.491" y="271.628" style="fill:#628AEC;" width="11.805" height="43.96"/>
					<polyline style="fill:none;stroke:#333842;stroke-width:0.75;stroke-linecap:round;stroke-miterlimit:10;" points="
						358.354,315.598 224.693,315.598 224.693,202.612 					"/>
				</g>
				<g>
					<g>
						<rect x="224.711" y="162.814" style="fill:#FEFEFF;" width="135.284" height="8.15"/>
						<rect x="253.313" y="175.983" style="fill:#FEFEFF;" width="78.079" height="8.15"/>
					</g>
					<rect x="224.693" y="326.044" style="fill:#FEFEFF;" width="135.319" height="7.491"/>
					<rect x="224.693" y="339.778" style="fill:#FEFEFF;" width="135.319" height="7.491"/>
					<rect x="224.693" y="353.512" style="fill:#FEFEFF;" width="135.319" height="7.491"/>
					<rect x="224.693" y="368.353" style="fill:#FEFEFF;" width="60.088" height="7.491"/>
				</g>
			</g>
		</g>
	</g>
	<g>
		<g>
			<g>
				<path style="fill:#333842;" d="M374.039,451.727c2.141-0.215,4.261-0.631,6.4-0.849c1.807-0.185,3.621-0.288,5.42-0.554
					c1.275-0.189,2.596-0.445,3.817-0.954c0.772-0.322,0.276-2.346,0.165-2.911c-0.266-1.345-0.255-2.817-0.204-4.187
					c-2.055-0.038-4.113-0.077-6.163-0.164c-0.381-0.016-0.773-0.031-1.132,0.109c-0.478,0.185-0.836,0.615-1.206,0.996
					c-1.612,1.656-3.721,2.557-5.703,3.616c-1.982,1.059-3.98,2.421-4.983,4.585c-0.079,0.171-0.149,0.37-0.135,0.553
					C371.558,451.931,372.8,451.851,374.039,451.727z"/>
				<g id="XMLID_169_">
					<g id="XMLID_171_">
						<path style="fill:#4F5D7A;" d="M410.996,334.999c-0.021-0.026-0.043-0.052-0.064-0.078c-2.495-2.978-6.529-4.265-10.078-3.215
							c-9.331,2.76-9.345,17.095-10.312,25.501c-1.024,8.892-2.087,17.778-3.191,26.658c-2.097,16.874-3.516,41.497-5.902,58.324
							c1.427,0.796,2.817,0.878,4.44,1.081c2.82,0.352,3.759,0.095,4.681-0.615c2.748-15.301,9.014-37.942,12.144-53.153
							c1.645-7.996,2.854-11.861,4.604-19.83c1.307-5.951,1.798-12.092,3.389-17.976c0.724-2.677,2.536-5.189,2.84-7.861
							C413.902,340.702,412.912,337.333,410.996,334.999z"/>
					</g>
				</g>
				
					<line style="fill:none;stroke:#333842;stroke-width:0.75;stroke-linecap:round;stroke-linejoin:round;stroke-miterlimit:10;" x1="399.987" y1="401.429" x2="396.43" y2="400.633"/>
				
					<line style="fill:none;stroke:#333842;stroke-width:0.75;stroke-linecap:round;stroke-linejoin:round;stroke-miterlimit:10;" x1="399.951" y1="401.419" x2="395.672" y2="403.403"/>
			</g>
			<g>
				<path style="fill:#333842;" d="M410.797,450.893c0.048,0.015,0.101,0.025,0.154,0.035c0.411,0.006,0.822,0.02,1.232,0.038
					c0.105,0.001,0.209,0.006,0.31,0.015c0.491,0.025,0.981,0.055,1.471,0.094c3.822,0.302,7.731,0.987,11.502,1.068
					c1.318,0.028,2.704-0.01,3.899-0.476c3.085-1.204-0.675-2.783-1.898-3.481c-1.285-0.733-2.399-1.423-3.771-2.037
					c-1.74-0.778-3.412-1.738-4.988-2.864c-2.2,0.538-4.465,0.757-6.717,0.648C410.836,443.877,409.118,450.353,410.797,450.893z"/>
				<g id="XMLID_562_">
					<g id="XMLID_572_">
						<path style="fill:#616E87;" d="M422.207,351.87c-0.542-3.763-3.36-16.743-7.636-17.45c-2.804-0.463-6.402,0.563-8.349,2.929
							c-1.511,1.836-2.333,4.261-2.694,6.709c-0.607,4.113-0.319,8.486-0.16,12.63c0.253,6.572,1.582,18.986,1.582,18.986
							s6.484,54.553,6.006,68.018c2.481,3.445,9.88,0.232,9.912-0.16c0.866-10.602,0.849-34.58,1.055-42.786
							C422.146,391.913,423.472,360.648,422.207,351.87z"/>
					</g>
				</g>
				<path style="fill:none;stroke:#333842;stroke-width:0.75;stroke-miterlimit:10;" d="M404.541,372.341
					c-0.462-6.66-0.923-13.32-1.385-19.981"/>
			</g>
			<path style="fill:#3C4966;" d="M422.093,351.148c-0.751-4.466-3.487-16.061-7.522-16.728c-1.213-0.2-2.575-0.121-3.888,0.225
				c-2.509-2.777-6.393-3.955-9.829-2.939c-6.473,1.914-8.461,9.398-9.395,16.609c3.446,2.415,7.592,3.697,11.753,4.29
				c0,0.001,0,0.002,0,0.003c0.084,0.012,0.167,0.018,0.251,0.03c0.445,0.06,0.89,0.113,1.335,0.159
				c0.153,0.016,0.306,0.031,0.459,0.045c0.525,0.048,1.048,0.089,1.568,0.118c0.083,0.005,0.164,0.007,0.247,0.011
				c0.46,0.023,0.917,0.039,1.371,0.049c0.149,0.003,0.297,0.007,0.445,0.008c0.501,0.006,0.999,0.008,1.49,0c0,0,0-0.001,0-0.001
				c0.021,0,0.043,0,0.065,0C414.418,352.958,418.316,352.297,422.093,351.148z"/>
		</g>
		<g>
			<path id="XMLID_622_" style="fill:#F7B699;" d="M412.261,283.285c0.042,0.378,0.068,0.753,0.087,1.112
				c0.077,1.439,0.154,2.877,0.231,4.316c0.077,1.443,0.321,2.99,0.232,4.431c-0.128,2.067-0.571,4.049-2.498,5.059
				c-1.201,0.592-2.622,0.541-3.837,0.017c-0.938-0.405-2.127-1.042-2.498-2.092c-0.243-0.687-0.242-1.439-0.238-2.172
				c0.012-2.402-0.041-4.805,0.056-7.206c0.063-1.544-0.051-3.212,0.614-4.64c0.911-1.958,3.251-3.88,5.425-3.025
				C411.545,279.759,412.069,281.559,412.261,283.285z"/>
			<path style="fill:#C46E58;" d="M409.701,289.042c1.348-1.446,2.232-3.261,2.605-5.192c-0.014-0.189-0.023-0.373-0.044-0.565
				c-0.192-1.726-0.716-3.526-2.426-4.199c-2.173-0.855-4.513,1.066-5.425,3.025c-0.665,1.427-0.551,3.095-0.614,4.64
				c-0.053,1.299-0.061,2.6-0.059,3.9C405.727,291.364,408.304,290.541,409.701,289.042z"/>
		</g>
		<g>
			<path style="fill:#FFFFFF;" d="M421.953,345.161l-2.925-14.844l1.002-33.348c-0.267,0.003,0.144-2.953-0.76-3.528
				c-1.399-0.89-5.884-1.52-6.452-1.668c0.006,0.629,0,1.211-0.144,1.748c-0.167,0.625-1.254,1.804-2.036,2.388
				c-2.369,1.767-5.357,1.601-6.632-2.067c-0.17-0.488-0.25-1.372-0.271-1.939c-1.235,0.16-3.227,0.684-4.648,1.164
				c-1.727,0.584-2.932,2.147-3.06,3.966l-1.538,33.199l-3.926,12.512C400.046,350.354,410.985,350.285,421.953,345.161z"/>
			<path style="fill:none;stroke:#333842;stroke-width:0.2994;stroke-linecap:round;stroke-miterlimit:10;" d="M405.797,332.795
				c5.912-3.046,10.937-7.792,14.316-13.52"/>
			<path style="fill:none;stroke:#333842;stroke-width:0.2994;stroke-linecap:round;stroke-miterlimit:10;" d="M403.341,345.472
				c6.384-4.421,11.565-10.562,14.849-17.599"/>
			<path style="fill:none;stroke:#333842;stroke-width:0.2994;stroke-linecap:round;stroke-miterlimit:10;" d="M405.782,298.551
				c1.691,0.899,3.848,0.853,5.499-0.117"/>
		</g>
		<g>
			<g id="XMLID_73_">
				<path id="XMLID_121_" style="fill:#6C7995;" d="M393.089,297.695c-4.76,5.534-9.09,17.623-9.541,24.832
					c-0.112,1.789,0.219,3.663,1.269,5.116c1.05,1.453,2.908,2.389,4.664,2.029c1.857-0.382,3.169-2.029,4.109-3.675
					c1.525-2.669,3.746-9.417,4.347-12.328c0.674-3.263,2.144-6.335,2.729-9.666c0.364-2.073,2.309-11.799-2.435-10.523
					c-0.804,0.216-1.494,0.728-2.135,1.26C395.003,295.643,394.002,296.634,393.089,297.695z"/>
			</g>
			<g>
				<path style="fill:#6C7995;" d="M393.641,351.745c0.632,0.321,1.279,0.604,1.931,0.87c2.103-15.954,7.844-60.57,7.841-60.692
					c-1.238,0.154-2.925,0.633-4.364,1.097c-1.755,0.566-3.03,2.092-3.233,3.888l-1.389,19.217l-1.909,17.985l-4.503,13.582
					C389.659,349.306,391.539,350.677,393.641,351.745z"/>
				<polygon style="fill:#ABC0D4;" points="403.414,291.922 397.992,296.504 401.047,297.175 397.694,304.553 400.258,316.691 				
					"/>
				<path style="fill:none;stroke:#333842;stroke-width:0.2994;stroke-miterlimit:10;" d="M397.916,299.346
					c0,0-2.987,8.038-3.042,11.849c-0.031,2.199-2.07,21.207-2.07,21.207"/>
			</g>
			<g>
				<path style="fill:#6C7995;" d="M396.115,324.883c0,3.519-2.853,6.372-6.372,6.372s-6.372-2.853-6.372-6.372
					s2.853-6.372,6.372-6.372S396.115,321.364,396.115,324.883z"/>
				<path style="fill:none;stroke:#333842;stroke-width:0.2994;stroke-miterlimit:10;" d="M387.809,319.272
					c1.971-0.59,4.232-0.09,5.771,1.275s2.305,3.55,1.954,5.577"/>
				<path style="fill:none;stroke:#333842;stroke-width:0.2994;stroke-miterlimit:10;" d="M391.096,317.769
					c1.359,0.713,2.455,1.913,3.043,3.331"/>
			</g>
		</g>
		<g>
			<path style="fill:#6C7995;" d="M418.145,353.576c3.326-0.746,3.983-1.229,7.167-2.564l-3.142-16.578l-1.924-37.59
				c-0.272,0.003,0.021-2.904-0.912-3.462c-1.322-0.792-4.928-1.354-5.94-1.55v62.587
				C415.002,354.21,416.592,353.925,418.145,353.576z"/>
			<g>
				<g id="XMLID_24_">
					<path id="XMLID_25_" style="fill:#6C7995;" d="M424.022,298.275c2.391,3.522,3.815,8.149,5.278,12.129
						c1.448,3.941,3.926,9.098,3.831,13.363c-0.035,1.593-0.667,3.234-1.944,4.186c-1.331,0.991-3.152,1.094-4.766,0.71
						c-4.785-1.139-6.111-5.227-7.608-9.278c-1.822-4.93-3.085-10.45-3.387-15.696c-0.124-2.156-0.953-12.302,3.795-10.378
						c0.805,0.326,1.455,0.938,2.054,1.563C422.293,295.937,423.208,297.076,424.022,298.275z"/>
				</g>
				<path style="fill:none;stroke:#333842;stroke-width:0.2994;stroke-miterlimit:10;" d="M419.251,320.749
					c-0.769-2.654-1.538-5.308-2.307-7.962"/>
				<path style="fill:none;stroke:#333842;stroke-width:0.2994;stroke-miterlimit:10;" d="M417.857,316.231
					c-0.541-0.86-1.082-1.72-1.623-2.58"/>
			</g>
			<polygon style="fill:#ABC0D4;" points="413.392,291.824 418.203,297.044 415.088,297.33 417.499,305.067 413.447,316.793 			"/>
			<g>
				<path style="fill:#6C7995;" d="M428.826,329.797l-7.361,2.233c-3.084,0.936-6.343-0.806-7.278-3.89l0,0
					c-0.936-3.084,0.806-6.343,3.89-7.278l7.361-2.233c3.084-0.936,6.343,0.806,7.278,3.89v0
					C433.652,325.603,431.911,328.862,428.826,329.797z"/>
				<path style="fill:none;stroke:#333842;stroke-width:0.2994;stroke-linecap:round;stroke-miterlimit:10;" d="M414.568,322.276
					c2.704-0.982,5.409-1.964,8.113-2.946c2.321-0.843,4.829-1.415,7.206-0.367"/>
			</g>
		</g>
		<g>
			<rect x="395.105" y="313.65" style="fill:#78C2F4;" width="20.511" height="27.93"/>
			<circle style="fill:#F7B699;" cx="393.109" cy="326.449" r="5.109"/>
			<path style="fill:#F7B699;" d="M411.886,328.134c-0.135,2.819,2.04,5.213,4.859,5.349c2.819,0.135,5.213-2.04,5.349-4.859
				c0.135-2.819-2.04-5.213-4.859-5.349C414.416,323.14,412.022,325.316,411.886,328.134z"/>
		</g>
		<g>
			<path id="XMLID_608_" style="fill:#C46E58;" d="M398.588,278.086c0.008,0.385,0.107,0.768,0.294,1.104
				c0.731,1.315,2.497,0.87,2.973-0.416c0.199-0.537,0.177-1.156,0.003-1.697c-0.288-0.892-1.042-1.62-2-1.124
				c-0.558,0.289-0.991,0.811-1.172,1.412C398.616,277.599,398.584,277.843,398.588,278.086z"/>
			<path id="XMLID_620_" style="fill:#F7B699;" d="M403.367,269.763c1.331-0.711,4.235-1.649,6.979-1.257
				c3.005,0.305,4.39,1.781,4.703,3.615c0.538,3.149,0.414,6.934-0.977,9.746c-0.233,0.471-0.717,1.671-0.996,2.116
				c-2.231,3.549-6.365,3.864-8.439,3.363c-2.479-0.599-3.824-2.667-4.244-5.562c-0.075-0.52-0.094-2.216-0.102-2.741
				C400.241,275.816,401.966,270.511,403.367,269.763z"/>
			<g>
				<path id="XMLID_611_" style="fill:#333842;" d="M402.775,266.642c1.584-1.003,3.671-1.448,5.622-1.707
					c4.979-0.659,8.672,2.721,8.713,7.522c0.014,1.642-0.804,5.35-2.668,6.088c-2.267,0.897-2.044-1.712-1.753-3.334
					c0.109-0.604,0.305-1.195,0.317-1.809c0.012-0.614-0.204-1.282-0.743-1.635c-0.378-0.247-0.852-0.304-1.306-0.348
					c-1.557-0.152-10.339,0.567-10.227-2.374c0.008-0.214,0.109-0.413,0.221-0.597C401.406,267.699,402.036,267.109,402.775,266.642
					z"/>
				
					<path style="fill:none;stroke:#333842;stroke-width:0.75;stroke-linecap:round;stroke-linejoin:round;stroke-miterlimit:10;" d="
					M403.861,271.893c2.159,0.462,4.666,0.276,6.574-0.884"/>
				
					<path style="fill:none;stroke:#333842;stroke-width:0.75;stroke-linecap:round;stroke-linejoin:round;stroke-miterlimit:10;" d="
					M414.825,267.159c-0.383-1.385-1.663-2.477-3.091-2.637"/>
				
					<path style="fill:none;stroke:#333842;stroke-width:0.75;stroke-linecap:round;stroke-linejoin:round;stroke-miterlimit:10;" d="
					M416.113,267.15c-0.338-0.232-0.849-0.162-1.112,0.154"/>
				<path id="XMLID_610_" style="fill:#333842;" d="M400.125,277.489c0.021,0.113,0.047,0.223,0.077,0.329
					c0.069-0.022,0.21-0.074,0.247-0.142c0.991-1.82,0.425-4.523,1.948-6.03c0.519-0.513,1.316-0.889,1.392-1.615
					c0.033-0.316-0.089-0.626-0.221-0.915c-0.07-0.154-0.149-0.313-0.285-0.415c-0.183-0.137-0.431-0.142-0.657-0.116
					c-2.984,0.351-2.787,3.776-2.653,5.963C400.03,275.462,399.952,276.577,400.125,277.489z"/>
			</g>
			<path id="XMLID_1_" style="fill:#F7B699;" d="M413.35,280.201c0.612,0.882,1.774,1.184,2.571,0.352
				c0.364-0.38,0.533-0.906,0.623-1.424c0.08-0.461,0.106-0.943-0.028-1.392c-0.182-0.612-0.685-1.024-1.276-1.224
				C413.242,275.837,412.444,278.894,413.35,280.201z"/>
			<g>
				<path style="fill:none;stroke:#333842;stroke-width:0.4761;stroke-linecap:round;stroke-miterlimit:10;" d="M402.178,274.586
					c0.501-0.14,1.035-0.16,1.544-0.056"/>
				<path style="fill:none;stroke:#333842;stroke-width:0.4761;stroke-linecap:round;stroke-miterlimit:10;" d="M404.374,282.628
					c0.786,0.456,1.764,0.567,2.632,0.299"/>
				<path style="fill:none;stroke:#333842;stroke-width:0.4761;stroke-linecap:round;stroke-miterlimit:10;" d="M408.537,274.428
					c0.733-0.085,1.492,0.057,2.144,0.403"/>
				<path style="fill:#333842;" d="M409.238,277.323c0,0.363-0.294,0.656-0.657,0.656c-0.363,0-0.656-0.294-0.656-0.656
					c0-0.363,0.294-0.657,0.656-0.657C408.944,276.666,409.238,276.96,409.238,277.323z"/>
				<path style="fill:#333842;" d="M403.46,277.016c0,0.363-0.294,0.656-0.657,0.656c-0.363,0-0.657-0.294-0.657-0.656
					c0-0.363,0.294-0.657,0.657-0.657C403.166,276.36,403.46,276.654,403.46,277.016z"/>
				<path style="fill:none;stroke:#333842;stroke-width:0.4761;stroke-linecap:round;stroke-miterlimit:10;" d="M405.083,280.89
					c-0.605-0.096-1.466-0.53-1.14-1.255c0.086-0.192,0.229-0.352,0.356-0.52c0.394-0.521,0.651-1.144,0.74-1.791"/>
			</g>
		</g>
	</g>
	<g>
		<g>
			<rect x="78.734" y="325.371" style="fill:#FFB861;" width="20.511" height="27.93"/>
			<circle style="fill:#F7B699;" cx="76.737" cy="338.17" r="5.109"/>
			<path style="fill:#F7B699;" d="M95.515,339.856c-0.135,2.819,2.04,5.213,4.859,5.349c2.819,0.135,5.213-2.04,5.349-4.859
				c0.135-2.819-2.04-5.213-4.859-5.349C98.045,334.862,95.65,337.037,95.515,339.856z"/>
		</g>
		<g>
			<g>
				<path style="fill:#333842;" d="M58.51,467.345c-0.329-1.629-0.784-3.21-1.407-4.654c-0.949-0.658-1.85-1.406-2.62-2.385
					c-0.356-0.452-0.697-0.964-1.166-1.176c-0.353-0.16-0.744-0.133-1.124-0.104c-2.045,0.156-4.096,0.255-6.145,0.352
					c0.002,1.657-0.039,3.439-0.351,5.074c-0.111,0.583-0.532,2.441-0.195,3.218L58.51,467.345z"/>
				<g id="XMLID_44_">
					<g id="XMLID_45_">
						<path style="fill:#4F5D7A;" d="M72.176,351.568c-0.022-0.026-0.044-0.051-0.066-0.076c-2.568-2.915-6.633-4.101-10.155-2.963
							c-9.26,2.991-8.916,17.323-9.674,25.75c-0.802,8.915-1.644,17.825-2.527,26.73c-1.677,16.921-2.482,41.572-4.448,58.453
							c1.446,0.76,2.838,0.808,4.466,0.97c2.828,0.282,3.76,0.001,4.664-0.731c2.366-15.364,8.067-38.155,10.817-53.439
							c1.446-8.035,2.557-11.929,4.109-19.939c1.159-5.982,1.497-12.133,2.94-18.055c0.657-2.694,2.406-5.251,2.643-7.929
							C75.223,357.197,74.15,353.854,72.176,351.568z"/>
					</g>
				</g>
				
					<line style="fill:none;stroke:#333842;stroke-width:0.75;stroke-linecap:round;stroke-linejoin:round;stroke-miterlimit:10;" x1="62.824" y1="418.252" x2="59.249" y2="417.545"/>
				
					<line style="fill:none;stroke:#333842;stroke-width:0.75;stroke-linecap:round;stroke-linejoin:round;stroke-miterlimit:10;" x1="62.787" y1="418.243" x2="58.56" y2="420.332"/>
			</g>
			<g>
				<path style="fill:#333842;" d="M74.862,467.431c0.049,0.014,0.102,0.022,0.155,0.031c0.411-0.004,0.822-0.001,1.233,0.007
					c0.105-0.001,0.209,0.001,0.31,0.007c0.491,0.013,0.982,0.03,1.473,0.057c3.828,0.207,7.753,0.795,11.525,0.781
					c1.318-0.005,2.703-0.077,3.886-0.573c3.054-1.281-0.744-2.765-1.984-3.433c-1.303-0.701-2.434-1.363-3.821-1.943
					c-1.758-0.735-3.455-1.653-5.058-2.739c-2.186,0.593-4.445,0.868-6.699,0.815C74.727,460.416,73.171,466.933,74.862,467.431z"/>
				<g id="XMLID_42_">
					<g id="XMLID_43_">
						<path style="fill:#6C7995;" d="M83.803,368.155c-0.636-3.749-3.776-16.655-8.068-17.254c-2.814-0.393-6.386,0.723-8.273,3.136
							c-1.465,1.873-2.226,4.317-2.526,6.774c-0.504,4.127-0.108,8.492,0.155,12.63c0.417,6.564,2.054,18.941,2.054,18.941
							s7.84,54.375,7.698,67.848c2.566,3.382,9.883-0.014,9.905-0.407c0.602-10.621-0.012-34.59-0.01-42.799
							C84.739,408.187,85.286,376.899,83.803,368.155z"/>
					</g>
				</g>
				<path style="fill:none;stroke:#333842;stroke-width:0.75;stroke-miterlimit:10;" d="M66.652,389.06
					c-0.627-6.647-1.254-13.293-1.882-19.94"/>
			</g>
			<path style="fill:#3C4966;" d="M58.089,373.518c2.94,0.802,6.037,1.411,9.067,1.729c5.922,0.621,11.65-0.324,17.154-2.239
				c-0.135-1.972-0.301-3.636-0.507-4.853c-0.636-3.749-3.776-16.655-8.068-17.254c-1.218-0.17-2.577-0.056-3.881,0.322
				c-2.577-2.714-6.49-3.795-9.9-2.693c-8.196,2.648-8.869,14.177-9.441,22.635C54.19,372.272,56.132,372.985,58.089,373.518z"/>
		</g>
		<g>
			<path id="XMLID_41_" style="fill:#F7B699;" d="M74.307,299.166c0.042,0.378,0.068,0.753,0.087,1.112
				c0.077,1.438,0.154,2.877,0.231,4.316c0.077,1.443,0.321,2.99,0.232,4.431c-0.128,2.067-0.571,4.049-2.498,5.059
				c-1.201,0.592-2.622,0.541-3.837,0.017c-0.938-0.405-2.127-1.042-2.498-2.091c-0.243-0.688-0.242-1.439-0.238-2.172
				c0.012-2.402-0.041-4.805,0.056-7.206c0.063-1.544-0.051-3.212,0.614-4.64c0.911-1.958,3.251-3.88,5.425-3.025
				C73.591,295.64,74.115,297.44,74.307,299.166z"/>
		</g>
		<g>
			<path style="fill:#F7B699;" d="M79.542,296.693l0.018-0.027c-0.064-0.085-0.122-0.158-0.173-0.22
				c-0.365-0.609-0.639-1.309-0.951-1.94c0.018,0.037-0.283,0.404-0.314,0.477c-0.105,0.248-0.13,0.556-0.168,0.821
				c-0.083,0.576-0.108,1.159-0.074,1.74c0.013,0.219,0.039,0.451,0.171,0.626c0.308,0.409,1.383,0.033,1.804-0.027
				c0.139-0.02,0.304-0.06,0.352-0.192C80.351,297.551,79.781,297.01,79.542,296.693z"/>
			<path id="XMLID_35_" style="fill:#F7B699;" d="M65.34,288.355c1.153-0.833,3.796-2.061,6.559-1.992
				c3-0.044,4.662,1.22,5.35,2.947c1.054,2.646,1.482,5.512,1.491,8.35c0.004,1.423-0.097,2.846-0.29,4.256
				c-0.179,1.307-0.767,2.232-2.169,2.471c-1.299,0.222-2.616,0.322-3.932,0.341c-1.173,0.017-2.582,0.133-3.707-0.21
				c-1.93-0.589-3.046-2.495-3.704-4.275c-0.182-0.491-0.554-2.12-0.671-2.624C63.545,294.525,64.126,289.231,65.34,288.355z"/>
			<g>
				
					<path style="fill:none;stroke:#333842;stroke-width:0.75;stroke-linecap:round;stroke-linejoin:round;stroke-miterlimit:10;" d="
					M76.185,284.5c-0.544-1.331-1.942-2.264-3.38-2.255"/>
				
					<path style="fill:none;stroke:#333842;stroke-width:0.75;stroke-linecap:round;stroke-linejoin:round;stroke-miterlimit:10;" d="
					M77.464,284.339c-0.364-0.191-0.862-0.061-1.086,0.284"/>
				<path style="fill:#333842;" d="M72.059,301.831c0.121-0.028,0.223-0.076,0.285-0.155c0.188-0.243,0.141-1.097,0.182-1.412
					c0.117-0.909,0.234-1.819,0.352-2.728c0.074-0.572,0.012-1.058,0.483-1.417c0.425-0.324,0.975-0.45,1.501-0.452
					c1.875-0.006,2.356,0.214,2.082-1.812c-0.13-0.962-0.361-1.947-0.176-2.92c0.118-0.622,0.268-0.74,0.634-1.161
					c0.585-0.675,1.225-0.901,1.381-1.66c-1.147-3.927-4.866-6.183-9.243-5.067c-1.907,0.486-3.927,1.175-5.382,2.357
					c-0.679,0.552-1.235,1.211-1.598,2.007c-0.09,0.196-0.167,0.405-0.15,0.619c0.014,0.171,0.058,0.324,0.126,0.464
					c-1.152,1.765-0.444,4.119-0.097,6.025c0.243,1.335,0.654,2.637,1.184,3.885c0.265,0.624,0.561,1.236,0.883,1.833
					c0.13,0.241,0.764,1.695,0.955,1.704c1.918,0.087,3.841,0.066,5.757-0.062C71.444,301.864,71.797,301.892,72.059,301.831z"/>
			</g>
			<path id="XMLID_32_" style="fill:#F7B699;" d="M73.679,297.558c0.711,0.804,1.901,0.967,2.595,0.047
				c0.316-0.42,0.422-0.962,0.451-1.487c0.026-0.468-0.006-0.949-0.191-1.379c-0.253-0.586-0.801-0.936-1.411-1.065
				C73.058,293.237,72.625,296.367,73.679,297.558z"/>
			<path style="fill:none;stroke:#333842;stroke-width:0.4761;stroke-linecap:round;stroke-miterlimit:10;" d="M74.546,294.981
				c0.042-0.272,0.404-0.393,0.657-0.283c0.252,0.11,0.405,0.368,0.515,0.62c0.183,0.42,0.294,0.872,0.325,1.33
				c-0.233-0.082-0.519,0.057-0.598,0.29c-0.08,0.233,0.061,0.518,0.295,0.596"/>
			<g>
				<path style="fill:none;stroke:#333842;stroke-width:0.4761;stroke-linecap:round;stroke-miterlimit:10;" d="M77.367,292.234
					c0.481-0.198,1.009-0.28,1.527-0.237"/>
				<path style="fill:#333842;" d="M78.926,294.496c0.043,0.36-0.215,0.687-0.575,0.729c-0.36,0.043-0.686-0.215-0.729-0.575
					c-0.043-0.36,0.215-0.687,0.575-0.729C78.557,293.879,78.883,294.137,78.926,294.496z"/>
				<path style="fill:none;stroke:#333842;stroke-width:0.4761;stroke-linecap:round;stroke-miterlimit:10;" d="M77.402,300.1
					c0.237-0.005,0.765-0.067,0.99-0.097"/>
			</g>
		</g>
		<path style="fill:#3D434F;" d="M59.334,347.228h-6.298c-3.573,0-6.469-2.896-6.469-6.469l0,0c0-3.573,2.896-6.469,6.469-6.469
			h6.298c3.573,0,6.469,2.896,6.469,6.469l0,0C65.803,344.331,62.906,347.228,59.334,347.228z"/>
		<g id="XMLID_39_">
			<path id="XMLID_40_" style="fill:#4F5D7A;" d="M55.808,313.576c-4.76,5.534-9.09,17.623-9.541,24.832
				c-0.112,1.789,0.219,3.663,1.269,5.116c1.05,1.453,2.908,2.389,4.664,2.029c1.857-0.382,3.169-2.029,4.11-3.675
				c1.525-2.669,3.746-9.417,4.347-12.328c0.674-3.263,2.144-6.335,2.729-9.666c0.364-2.073,2.309-11.799-2.435-10.523
				c-0.804,0.216-1.493,0.728-2.135,1.26C57.721,311.524,56.72,312.515,55.808,313.576z"/>
		</g>
		<polygon style="fill:#FFFFFF;" points="63.743,308.612 65.509,305.816 75.002,305.522 77.283,308.759 		"/>
		<path style="fill:#6C7995;" d="M84.215,350.315l-1.924-37.59c-0.272,0.003,0.021-2.904-0.912-3.462
			c-1.322-0.792-4.928-1.354-5.94-1.55l-9.98,0.09c-1.238,0.154-2.925,0.633-4.364,1.097c-1.755,0.566-3.03,2.092-3.233,3.888
			l-1.389,19.217l-1.909,17.985l-4.503,13.582c1.644,1.613,3.524,2.984,5.626,4.052c0.632,0.321,1.279,0.604,1.931,0.87
			c0,0,9.224,3.711,17.821,1.805c1.608-0.21,3.199-0.495,4.751-0.843c3.326-0.746,3.983-1.23,7.167-2.564L84.215,350.315z"/>
		<g>
			<path style="fill:#6C7995;" d="M96.054,347.228h-6.299c-3.572,0-6.469-2.896-6.469-6.469l0,0c0-3.573,2.896-6.469,6.469-6.469
				h6.299c3.572,0,6.469,2.896,6.469,6.469l0,0C102.523,344.331,99.626,347.228,96.054,347.228z"/>
			<g id="XMLID_37_">
				<path id="XMLID_38_" style="fill:#6C7995;" d="M86.068,314.156c2.392,3.522,3.816,8.149,5.278,12.129
					c1.448,3.941,3.926,9.098,3.831,13.363c-0.035,1.593-0.667,3.234-1.945,4.186c-1.331,0.991-3.152,1.094-4.766,0.71
					c-4.785-1.139-6.111-5.227-7.608-9.278c-1.822-4.93-3.085-10.45-3.387-15.696c-0.124-2.156-0.953-12.302,3.795-10.378
					c0.805,0.326,1.455,0.938,2.054,1.563C84.339,311.818,85.254,312.957,86.068,314.156z"/>
			</g>
			<path style="fill:none;stroke:#333842;stroke-width:0.2994;stroke-miterlimit:10;" d="M83.889,341.565
				c-3.679-7.517-4.13-10.243-4.899-12.897"/>
			<path style="fill:none;stroke:#333842;stroke-width:0.2994;stroke-miterlimit:10;" d="M79.902,332.112
				c-0.541-0.86-1.082-1.72-1.623-2.581"/>
		</g>
	</g>
	<g>
		<g>
			<g>
				<path style="fill:#4F5D7A;" d="M338.496,367.372c-8.73,1.725-8.968,11.757-8.209,18.938c1.602,15.166,6.01,51.072,6.01,51.072
					l8.393,44.049l5.867,0.327l-3.115-44.572c0,0,1.488-32.472,2.98-43.784C352.841,377.561,350.097,365.079,338.496,367.372z"/>
			</g>
			<g>
				<path style="fill:#628AEC;" d="M350.919,480.273c-2.335,0.264-4.001,0.249-6.331-0.056c-0.003,0-0.006-0.001-0.009-0.001
					c-0.505-0.066-1.003,0.171-1.28,0.598c-0.169,0.26-0.331,0.503-0.493,0.707c-0.867,1.091-2.013,1.711-3.352,2.019
					c-0.047,0.018-0.088,0.044-0.137,0.059c-1.592,0.199-3.044,1.014-3.225,2.536h14.672
					C351.277,484.154,351.521,482.072,350.919,480.273z"/>
				<rect x="336.087" y="485.905" style="fill:#333842;" width="14.945" height="1.928"/>
			</g>
		</g>
		<g>
			<g>
				<path style="fill:#616E87;" d="M340.035,367.631c-8.884-0.51-11.621,9.144-12.68,16.287
					c-2.237,15.086-5.896,51.104-5.896,51.104l3.236,46.461l6.121-0.241l3.419-45.974c0,0,6.574-28.872,10.846-39.453
					C351.38,381.08,351.84,368.309,340.035,367.631z"/>
			</g>
			<g>
				<path style="fill:#628AEC;" d="M331.333,480.273c-2.335,0.264-4.001,0.249-6.331-0.056c-0.306-0.04-0.62-0.085-0.921-0.015
					c-0.272,0.063-0.513,0.216-0.752,0.361c-2.243,1.367-5.439,2.32-8.023,2.797c-1.487,0.274-3.088,0.428-4.268,1.373
					c-0.424,0.34-0.773,0.902-0.723,1.402h20.863C331.691,484.154,331.935,482.072,331.333,480.273z"/>
				<rect x="309.825" y="485.905" style="fill:#333842;" width="21.309" height="1.928"/>
			</g>
		</g>
		<g>
			<g id="XMLID_10_">
				<g id="XMLID_11_">
					<path style="fill:#F7B699;" d="M341.144,319.133c0.05-1.006-0.017-2.008-0.212-2.983c1.486,0.501,3.038,0.54,4.556,0.131
						c0.746-0.201,1.462-0.499,2.161-0.826c0.249-0.117,0.697-0.482,1.111-0.711c-0.908,3.351-0.836,6.846,1.237,9.725
						c-1.567,1.357-3.608,2.054-5.647,2.402c-1.752,0.299-5.942,0.576-4.935-2.372c0.33-0.965,1.037-1.706,1.317-2.706
						C340.972,320.93,341.1,320.025,341.144,319.133z"/>
				</g>
			</g>
			<g id="XMLID_6_">
				<g id="XMLID_9_">
					<path style="fill:#C46E58;" d="M345.201,316.348c-1.426,0.33-2.876,0.272-4.27-0.198c0.195,0.975,0.262,1.977,0.212,2.983
						c-0.044,0.893-0.172,1.797-0.413,2.659c-0.025,0.09-0.057,0.176-0.089,0.262c0.173-0.021,0.346-0.051,0.518-0.084
						C343.142,320.635,344.501,318.604,345.201,316.348z"/>
				</g>
			</g>
			<g>
				<path style="fill:#F7B699;" d="M336.911,312.838c0.121,0.027,0.241,0.045,0.357,0.05c0.367,0.015,0.325-0.446,0.304-0.712
					c-0.055-0.704-0.056-1.44-0.173-2.135c-0.254,0.265-0.358,0.586-0.568,0.879c-0.274,0.383-0.552,0.763-0.828,1.144
					c-0.038,0.053-0.077,0.108-0.086,0.172c-0.021,0.152,0.13,0.268,0.267,0.336C336.402,312.681,336.657,312.78,336.911,312.838z"
					/>
				<path style="fill:#F7B699;" d="M350.108,312.558c0.622-1.456,0.947-3.035,0.901-4.613c-0.051-1.709-0.61-3.424-1.703-4.739
					c-1.593-1.919-4.308-2.828-6.736-2.256c-0.623,0.147-1.222,0.391-1.775,0.712c-1.35,0.785-2.919,2.365-3.141,3.995
					c-0.05,0.366,0.025,0.716-0.045,1.086c-0.104,0.549-0.22,1.095-0.305,1.647c-0.169,1.101-0.266,2.218-0.214,3.332
					c0.061,1.303,0.221,2.623,0.733,3.823c0.513,1.202,1.326,2.013,2.317,2.528c1.858,0.966,4.103,0.664,5.846-0.498
					C347.803,316.366,349.243,314.582,350.108,312.558z"/>
				<path style="fill:none;stroke:#333842;stroke-width:0.4827;stroke-linecap:round;stroke-miterlimit:10;" d="M337.617,314.252
					c0.255,0.113,0.511,0.227,0.766,0.34"/>
			</g>
		</g>
		<g>
			<path style="fill:#F7B699;" d="M315.108,336.295c0.122-0.652,0.613-1.222,1.239-1.441c0.647-0.225,1.742-0.227,1.958-0.878
				c0.108-0.326,0.215-0.447-0.046-0.669c-0.261-0.222-0.612-0.313-0.954-0.334c-1.051-0.065-2.116,0.527-2.616,1.453
				c-0.154,0.285-0.376,0.658-0.687,0.567c-0.147-0.043-0.243-0.184-0.303-0.325c-0.366-0.857,0.14-1.816,0.63-2.609
				c0.385-0.624,0.797-1.273,1.435-1.635c0.715-0.406,1.588-0.379,2.409-0.323c1.657,0.114,3.393,0.24,4.793,1.226
				c0.367,0.258,0.702,0.559,1.068,0.819c0.939,0.666,2.049,1.04,3.142,1.404c-0.341,1.184-0.682,2.367-1.023,3.551
				c-0.018,0.061-0.039,0.128-0.094,0.161c-0.057,0.035-0.131,0.02-0.196,0.004c-2.011-0.491-4.332-0.902-6.348-1.218
				C318.069,335.864,316.537,336.048,315.108,336.295z"/>
			<path style="fill:#628AEC;" d="M339.493,336.699c-1.051-0.5-2.176-0.939-3.336-1.336c-1.992-0.683-4.088-1.242-6.09-1.771
				c-0.759-0.2-3.663-0.929-4.443-1.054c-2.178,1.773-2.793,2.959-2.793,5.58c2.297,1.536,7.876,4.68,10.409,5.888
				c1.418,0.676,2.826,1.385,4.383,1.851c1.557,0.466,3.303,0.676,4.909,0.322c0.84-0.185,1.667-0.558,2.035-1.163
				c0.229-0.377,0.259-0.806,0.245-1.221C344.717,340.957,342.651,338.2,339.493,336.699z"/>
			<path style="fill:#F7B699;" d="M301.644,348.681c-0.863-1.532-1.063-3.447-0.429-5.086c0.235-0.607,0.63-1.215,1.25-1.412
				c0.745-0.237,1.56,0.215,2.031,0.838c0.471,0.624,0.693,1.394,0.994,2.115c0.325,0.78,0.751,1.517,1.264,2.188
				c0.532,0.697,1.181,1.37,1.335,2.233c0.122,0.685-0.113,1.424-0.609,1.913C305.637,353.285,302.537,350.266,301.644,348.681z"/>
			<g>
				<polygon style="fill:#F4AE2D;" points="322.41,347.564 311.271,352.964 296.535,339.588 307.675,334.188 				"/>
				<polygon style="fill:#FFFFFF;" points="320.59,347.007 311.023,351.644 298.291,340.087 307.858,335.449 				"/>
				<polygon style="fill:#C8DDF7;" points="309.312,337.895 301.361,341.748 300.586,341.044 308.536,337.19 				"/>
				<polygon style="fill:#C8DDF7;" points="313.373,341.581 305.423,345.435 304.647,344.731 312.598,340.877 				"/>
				<polygon style="fill:#C8DDF7;" points="314.719,342.803 306.768,346.656 305.993,345.952 313.943,342.099 				"/>
				<polygon style="fill:#C8DDF7;" points="316.065,344.024 308.114,347.878 307.338,347.174 315.289,343.32 				"/>
				<polygon style="fill:#C8DDF7;" points="317.41,345.246 309.46,349.099 308.684,348.395 316.635,344.542 				"/>
				<polygon style="fill:#C8DDF7;" points="318.756,346.467 310.805,350.321 310.03,349.617 317.98,345.763 				"/>
				<polygon style="fill:#333842;" points="307.383,336.538 300.699,339.777 297.856,337.196 304.539,333.956 				"/>
			</g>
			<path style="fill:#F7B699;" d="M302.798,347.458c-0.112,0.13-0.214,0.268-0.304,0.413c-0.842,1.353,0.788,2.61,1.825,3.34
				c2.356,1.658,5.233,2.451,7.965,3.247c1.542,0.449,6.008-0.651,4.775-3.074c-0.842-1.654-3.333-2.607-4.972-3.048
				c-1.701-0.319-3.154-1.027-3.792-2.751c-0.283-0.766-0.398-1.584-0.647-2.362c-0.061-0.191-0.136-0.388-0.284-0.523
				c-0.149-0.135-0.393-0.185-0.551-0.061c-0.089,0.07-0.135,0.181-0.174,0.288c-0.477,1.33,0.379,2.315-1.259,3.095
				c-0.544,0.259-1.141,0.402-1.668,0.694C303.366,346.906,303.055,347.16,302.798,347.458z"/>
			<g>
				<path style="fill:#628AEC;" d="M352.125,380.168c0,0,0.379-0.154,0.668-0.294c1.591-0.818,2.128-2.889,2.286-4.715
					c0.362-4.192-0.97-8.138-0.808-12.57c0.171-4.69,1.266-9.512,1.927-14.559c0.576-4.401,0.8-9.159-0.188-13.694
					c-0.738-3.387-1.751-7.151-3.819-9.796c-1-1.279-2.813-1.787-4.21-2.125c-1.745-0.423-3.57-0.383-5.314,0.143
					c-2.259,0.681-4.345,2.163-5.964,4.194c-1.231,1.545-1.842,4.167-2.471,6.132c-1.418,4.431-2.399,9.007-2.922,13.427
					c-0.548,4.637,0.119,3.152-0.118,7.711c-0.237,4.564,1.078,8.193-1.266,11.993c-1.233,2-2.803,3.741-3.585,5.914
					c-0.767,2.132-0.52,4.925,1.285,6.307c-0.103,0.811-0.227,1.617-0.301,2.42c3.629,1.765,8.434,2.147,12.313,2.498
					c3.545,0.321,7.115,0.334,10.674,0.048c1.031,0,1.826-0.215,1.826-0.215L352.125,380.168z"/>
				<path style="fill:none;stroke:#333842;stroke-width:0.2918;stroke-linecap:round;stroke-miterlimit:10;" d="M351.918,380.23
					c-5.108,0.583-10.274,0.352-15.307-0.684"/>
			</g>
			<g>
				<path style="fill:#628AEC;" d="M341.42,337.282c-0.251-0.486-0.558-0.964-1.014-1.266c-0.486-0.322-1.094-0.411-1.676-0.385
					c-2.548,0.114-4.565,2.194-5.926,4.351c-1.361,2.157-2.41,4.594-4.351,6.25c-3.387,2.89-14.794,2.065-18.582,1.222
					c-1.976,0.176-4.235,2.788-3.07,5.506c5.079,2.231,20.394,10.375,25.94,7.735c1.933-0.92,3.372-2.52,4.559-4.333
					c0.686-1.048,1.288-2.167,1.852-3.268c1.264-2.465,2.477-4.993,3.057-7.702C342.789,342.683,342.69,339.745,341.42,337.282z"/>
				<path style="fill:#628AEC;" d="M343.674,328.11c-1.692-1.8-4.594-1.994-6.636-0.712c-1.194,0.749-1.801,2.297-2.418,3.524
					c-0.755,1.503-1.4,3.062-1.925,4.66c-0.543,1.653-0.96,3.345-1.469,5.009c-0.835,2.727-1.923,5.38-2.548,8.162
					c-0.625,2.782-0.763,5.769,0.284,8.422c1.495,3.788,6.48,1.776,8.702-0.332c1.913-1.815,2.83-4.414,3.682-6.91
					c0.856-2.507,1.712-5.014,2.568-7.521c0.722-2.116,1.55-4.916,1.7-7.626C345.752,332.281,345.311,329.852,343.674,328.11z"/>
				<path style="fill:none;stroke:#333842;stroke-width:0.2918;stroke-miterlimit:10;" d="M330.079,345.034
					c0.934-5.602,3.609-12.171,6.265-17.191"/>
				<path style="fill:none;stroke:#333842;stroke-width:0.2918;stroke-linecap:round;stroke-miterlimit:10;" d="M345.398,339.091
					c-1.094,2.944-2.188,5.887-3.282,8.831c-0.786,2.115-1.532,4.817-3.022,6.561c-1.484,1.737-2.867,3.636-4.686,5.064
					c-1.77,1.389-3.274,1.805-5.513,1.586"/>
				<path style="fill:none;stroke:#333842;stroke-width:0.2918;stroke-miterlimit:10;" d="M346.588,339.873
					c-0.984,0.562-1.808,1.401-2.35,2.396"/>
			</g>
			<path style="fill:#333842;" d="M312.294,338.586l-1.313,0.713l0.666-1.337l7.919-8.201c0.172-0.178,0.457-0.184,0.636-0.011l0,0
				c0.179,0.173,0.183,0.457,0.011,0.636L312.294,338.586z"/>
		</g>
		<path style="fill:#333842;" d="M337.933,310.868c-0.431-0.348-0.835-0.723-1.181-1.158c-2.197-2.759-0.774-5.812,0.985-8.267
			c1.96-2.735,5.694-4.233,8.986-4.049c1.879,0.105,3.664,0.712,4.997,2.07c0.617,0.629,1.073,1.298,1.267,2.173
			c0.058,0.261,0.244,2.313-0.18,2.355c3.245-0.321,3.081,6.738,3.051,8.671c-0.079,4.936-0.157,9.873-0.236,14.809
			c-0.028,1.778-0.105,3.698-1.207,5.094c-1.088,1.378-3.029,1.921-4.751,1.576c-1.722-0.345-3.216-1.475-4.276-2.874
			c-0.901-1.189-1.989-2.965-2.017-4.501c-0.032-1.723,0.202-3.502,0.197-5.243c-0.009-3.016-0.599-6.248-2.733-8.38
			C339.965,312.277,338.884,311.637,337.933,310.868z"/>
	</g>
</g>
</svg>
