<svg width="469" height="414" viewBox="0 0 469 414" fill="none" xmlns="http://www.w3.org/2000/svg">
<path d="M378.426 38.4173C380.255 32.4654 376.912 26.158 370.96 24.3293C365.008 22.5006 358.701 25.8431 356.872 31.7949C355.044 37.7468 358.386 44.0542 364.338 45.883C370.29 47.7117 376.597 44.3692 378.426 38.4173Z" fill="#215468"/>
<path d="M466.754 299.445C466.051 296.613 465.117 293.992 463.986 291.55C454.896 271.923 433.322 266.286 417.494 254.767C410.739 249.852 405.309 242.436 404.811 234.096C404.219 224.195 410.394 215.365 415.409 206.807C421.818 195.872 426.762 183.783 427.488 171.129C428.214 158.475 424.289 145.18 415.134 136.415C404.578 126.31 388.879 123.586 374.279 124.205C337.129 125.782 302.868 141.405 273.438 109.174C252.582 86.3338 243.795 47.9258 222.238 25.2348C188.024 -10.7792 128.861 -4.66918 91.7179 28.3508C58.1599 58.1838 47.2799 105.644 59.2409 148.225C66.9639 175.719 76.2509 203.652 57.1049 229.58C40.7209 251.768 14.7979 266.562 5.22491 293.573C-4.05609 319.761 -0.71109 352.149 21.5279 370.898C33.0029 380.572 47.7039 385.554 62.3599 388.788C62.4689 388.812 62.5759 388.832 62.6849 388.856H360.325C407.247 381.788 481.633 359.372 466.754 299.445Z" fill="#CAE7EF"/>
<path d="M350.224 76.5298C354.886 65.1843 349.469 52.2071 338.123 47.5445C326.778 42.8819 313.8 48.2995 309.138 59.645C304.475 70.9906 309.893 83.9678 321.238 88.6304C332.584 93.293 345.561 87.8754 350.224 76.5298Z" fill="#CAE7EF"/>
<path d="M53.055 199.471C53.055 206.921 47.0149 212.961 39.5649 212.961C32.1149 212.961 26.075 206.921 26.075 199.471C26.075 192.021 32.1149 185.981 39.5649 185.981C47.0149 185.981 53.055 192.021 53.055 199.471Z" fill="#CAE7EF"/>
<path d="M116.143 386.182C120.635 387.086 125.138 387.934 129.649 388.74H134.366L116.143 386.182Z" fill="#BFD2FF"/>
<path d="M449.992 230.94C449.499 229.184 448.611 227.659 447.326 226.366C446.627 225.826 445.927 225.285 445.228 224.745C443.611 223.807 441.867 223.335 439.996 223.33H439.483C438.056 223.276 436.724 223.574 435.489 224.223C434.204 224.641 433.092 225.356 432.153 226.366C431.142 227.305 430.428 228.417 430.01 229.702C429.361 230.937 429.063 232.269 429.117 233.696C429.24 234.615 429.364 235.533 429.487 236.452C429.979 238.208 430.868 239.733 432.153 241.026C432.852 241.566 433.552 242.107 434.251 242.647C435.868 243.585 437.612 244.056 439.483 244.062H439.996C441.423 244.116 442.754 243.818 443.99 243.169C445.275 242.751 446.387 242.036 447.326 241.026C448.337 240.087 449.051 238.975 449.469 237.69C450.118 236.455 450.416 235.123 450.362 233.696C450.239 232.778 450.115 231.859 449.992 230.94Z" fill="#215468"/>
<path d="M327.179 384.752L90.9969 383.625C85.5919 383.599 81.2319 379.197 81.2579 373.793L81.8899 241.276C81.9159 235.872 86.3179 231.511 91.7219 231.537L327.904 232.664C333.309 232.69 337.669 237.092 337.643 242.496L337.011 375.013C336.985 380.417 332.583 384.777 327.179 384.752Z" fill="#63738F"/>
<path d="M210.969 235.164C210.966 235.81 210.44 236.332 209.793 236.329C209.147 236.326 208.625 235.8 208.628 235.153C208.631 234.506 209.157 233.985 209.804 233.988C210.451 233.991 210.972 234.518 210.969 235.164Z" fill="#333842"/>
<path d="M355.896 385.082L62.278 383.681C62.246 390.423 67.685 395.915 74.427 395.947L343.63 397.231C350.372 397.264 355.864 391.824 355.896 385.082Z" fill="#3E4D66"/>
<path d="M323.203 379.958L95.018 378.869C90.795 378.849 87.388 375.409 87.408 371.186L88.0091 245.138C88.0291 240.915 91.4691 237.508 95.6921 237.528L323.877 238.617C328.1 238.637 331.507 242.077 331.487 246.3L330.886 372.348C330.866 376.572 327.426 379.979 323.203 379.958Z" fill="#FEFEFF"/>
<path d="M375.071 112.362V120.741H408.111V112.362H375.071Z" fill="#033141"/>
<path d="M375.07 99.4081V107.787H424.279V99.4081H375.07Z" fill="#4E94A6"/>
<path d="M375.07 86.454V94.833H446.593V86.454H375.07Z" fill="#CAE7EF"/>
<path d="M375.07 73.5004V81.8794H415.312V73.5004H375.07Z" fill="#4E94A6" fill-opacity="0.7"/>
<path d="M373.983 66.0352V126.656H451.85" stroke="#333842" stroke-width="0.6764" stroke-miterlimit="10" stroke-linecap="round"/>
<path d="M451.031 138.776H400.253V143.553H451.031V138.776Z" fill="#215468"/>
<path d="M451.031 147.759H400.253V152.535H451.031V147.759Z" fill="#215468"/>
<path d="M451.031 156.742H400.253V161.538H451.031V156.742Z" fill="#215468"/>
<path d="M395.951 138.776H373.983V161.537H395.951V138.776Z" fill="#215468"/>
<path d="M451.032 165.724H373.983V170.501H451.032V165.724Z" fill="#215468"/>
<path d="M451.032 174.707H373.983V179.484H451.032V174.707Z" fill="#215468"/>
<path d="M274.04 13.859C272.468 14.169 270.951 14.627 269.505 15.221C269.593 15.333 269.689 15.434 269.766 15.557C270.951 17.451 270.376 19.948 268.481 21.133C266.586 22.318 264.09 21.743 262.905 19.849C262.821 19.715 262.766 19.573 262.7 19.434C261.504 20.478 260.411 21.636 259.438 22.89C259.578 22.946 259.721 22.989 259.857 23.061C261.831 24.109 262.581 26.559 261.533 28.532C260.485 30.506 258.035 31.256 256.062 30.208C255.907 30.126 255.774 30.021 255.635 29.923C255.119 31.418 254.746 32.976 254.528 34.583C254.694 34.556 254.857 34.52 255.029 34.514C257.262 34.435 259.137 36.181 259.216 38.414C259.295 40.647 257.549 42.522 255.316 42.601C255.12 42.608 254.931 42.584 254.742 42.564C255.051 44.172 255.515 45.722 256.12 47.199C256.266 47.076 256.408 46.951 256.574 46.847C258.469 45.662 260.965 46.237 262.15 48.132C263.335 50.027 262.76 52.523 260.866 53.708C260.686 53.821 260.496 53.903 260.307 53.984C261.374 55.212 262.558 56.333 263.845 57.326C263.912 57.133 263.98 56.941 264.078 56.755C265.126 54.781 267.576 54.031 269.549 55.079C271.522 56.127 272.273 58.577 271.225 60.55C271.119 60.75 270.989 60.928 270.857 61.101C272.383 61.625 273.976 62.003 275.618 62.217C275.577 62.009 275.539 61.801 275.531 61.582C275.452 59.349 277.199 57.475 279.432 57.395C281.665 57.316 283.54 59.062 283.619 61.295C283.627 61.523 283.604 61.744 283.575 61.963C285.201 61.644 286.766 61.164 288.256 60.543C288.117 60.384 287.98 60.222 287.864 60.038C286.679 58.143 287.254 55.647 289.148 54.462C291.042 53.277 293.539 53.852 294.724 55.747C294.84 55.933 294.926 56.128 295.009 56.324C296.23 55.249 297.342 54.056 298.328 52.762C298.14 52.696 297.952 52.631 297.772 52.535C295.798 51.487 295.048 49.037 296.096 47.064C297.144 45.09 299.593 44.34 301.567 45.388C301.747 45.484 301.905 45.603 302.064 45.72C302.573 44.208 302.936 42.632 303.141 41.008C302.962 41.039 302.786 41.075 302.599 41.082C300.366 41.161 298.491 39.415 298.412 37.182C298.333 34.949 300.079 33.074 302.313 32.995C302.495 32.988 302.67 33.013 302.846 33.03C302.525 31.44 302.053 29.908 301.442 28.449C301.315 28.551 301.196 28.661 301.054 28.749C299.16 29.934 296.663 29.359 295.478 27.464C294.293 25.57 294.868 23.073 296.762 21.888C296.901 21.801 297.049 21.743 297.194 21.675C296.142 20.485 294.977 19.399 293.716 18.433C293.662 18.569 293.62 18.708 293.55 18.84C292.502 20.814 290.052 21.564 288.079 20.516C286.106 19.468 285.355 17.018 286.404 15.045C286.476 14.91 286.569 14.795 286.653 14.671C285.172 14.171 283.63 13.812 282.042 13.603C282.061 13.739 282.093 13.871 282.098 14.012C282.177 16.245 280.431 18.12 278.198 18.199C275.965 18.278 274.09 16.532 274.011 14.299C274.007 14.149 274.03 14.006 274.04 13.859ZM278.221 21.434C287.322 21.112 294.961 28.228 295.283 37.329C295.605 46.43 288.489 54.069 279.388 54.391C270.287 54.713 262.648 47.597 262.326 38.496C262.004 29.395 269.12 21.756 278.221 21.434Z" fill="#215468"/>
<path d="M122.508 137.365L122.508 23.8882L28.3113 23.8882L28.3113 137.365H122.508Z" fill="#215468"/>
<path d="M57.948 68.6748H47.439V93.5398H57.948V68.6748Z" fill="#4E94A6" fill-opacity="0.7"/>
<path d="M74.1948 56.5059H63.6858V93.5389H74.1948V56.5059Z" fill="#FEFEFF"/>
<path d="M90.4419 39.7129H79.9329V93.5389H90.4419V39.7129Z" fill="#4E94A6"/>
<path d="M106.688 63.2549H96.179V93.5399H106.688V63.2549Z" fill="#4E94A6"/>
<path d="M41.2549 40.7168V93.8088H110.343" stroke="#333842" stroke-width="0.75" stroke-miterlimit="10" stroke-linecap="round"/>
<path d="M110.625 103.93H39.8931V110.703H110.625V103.93Z" fill="#FEFEFF"/>
<path d="M110.625 116.348H39.8931V123.122H110.625V116.348Z" fill="#FEFEFF"/>
<path d="M172.891 167.612L159.845 194.252L136.139 164.716L114.795 192.066L99.055 175.059L96.657 177.279L115.007 197.107L136.175 169.982L160.517 200.309L175.334 170.055L172.891 167.612Z" fill="white"/>
<path d="M164.551 197.281C164.551 194.964 162.673 193.086 160.356 193.086C158.039 193.086 156.16 194.964 156.16 197.281C156.16 199.598 158.038 201.476 160.356 201.476C162.673 201.476 164.551 199.598 164.551 197.281Z" fill="#215468"/>
<path d="M178.414 167.622C178.414 165.305 176.536 163.426 174.219 163.426C171.902 163.426 170.023 165.304 170.023 167.622C170.023 169.939 171.902 171.817 174.219 171.817C176.535 171.817 178.414 169.939 178.414 167.622Z" fill="#4E94A6" fill-opacity="0.7"/>
<path d="M135.997 171.817C138.314 171.817 140.192 169.939 140.192 167.622C140.192 165.305 138.314 163.427 135.997 163.427C133.68 163.427 131.802 165.305 131.802 167.622C131.802 169.939 133.68 171.817 135.997 171.817Z" fill="#333842"/>
<path d="M115.401 198.282C117.718 198.282 119.597 196.404 119.597 194.086C119.597 191.769 117.718 189.89 115.401 189.89C113.084 189.89 111.205 191.769 111.205 194.086C111.205 196.404 113.084 198.282 115.401 198.282Z" fill="#033141"/>
<path d="M102.961 176.965C102.961 174.648 101.083 172.771 98.7651 172.771C96.4471 172.771 94.5701 174.648 94.5701 176.965C94.5701 179.282 96.4481 181.161 98.7651 181.161C101.082 181.161 102.961 179.282 102.961 176.965Z" fill="#4E94A6"/>
<path d="M86.502 157.39V213.415H180.81" stroke="#333842" stroke-width="0.75" stroke-miterlimit="10" stroke-linecap="round"/>
<path d="M143.002 364.534C160.662 361.697 172.678 345.081 169.841 327.422C167.005 309.762 150.389 297.746 132.729 300.583C115.069 303.42 103.053 320.035 105.89 337.695C108.727 355.355 125.343 367.371 143.002 364.534Z" fill="#BFC5D4"/>
<path d="M137.098 333.078L111.839 324.268C110.851 327.1 110.347 330.079 110.347 333.078C110.347 347.753 122.423 359.829 137.098 359.829C141.947 359.829 146.705 358.511 150.863 356.016L137.098 333.078Z" fill="#215468"/>
<path d="M138.484 332.579L152.425 355.41C156.337 353.021 159.571 349.666 161.814 345.668C164.057 341.67 165.235 337.162 165.235 332.578H138.484V332.579Z" fill="#CAE7EF"/>
<path d="M138.637 331.29L165.386 330.92C165.336 327.28 164.543 323.689 163.056 320.366C161.569 317.043 159.42 314.058 156.74 311.595L138.637 331.29Z" fill="#FEFEFF"/>
<path d="M175.356 279.515H100.377V283.666H175.356V279.515Z" fill="#333842"/>
<path d="M175.356 271.315H100.377V275.466H175.356V271.315Z" fill="#333842"/>
<path d="M175.356 263.116H100.377V267.267H175.356V263.116Z" fill="#333842"/>
<path d="M175.356 254.916H100.377V259.067H175.356V254.916Z" fill="#333842"/>
<path d="M175.356 287.125H100.377V291.276H175.356V287.125Z" fill="#333842"/>
<path d="M321.928 367.199H191.935V371.35H321.928V367.199Z" fill="#333842"/>
<path d="M321.928 359H191.935V363.151H321.928V359Z" fill="#333842"/>
<path d="M321.928 350.8H191.935V354.951H321.928V350.8Z" fill="#333842"/>
<path d="M185.342 83.9432C202.33 80.6917 213.465 64.2847 210.214 47.2972C206.962 30.3097 190.555 19.1745 173.568 22.4261C156.58 25.6776 145.445 42.0846 148.696 59.072C151.948 76.0595 168.355 87.1948 185.342 83.9432Z" fill="#215468"/>
<path d="M178.709 53.6552L154.285 45.1362C153.33 47.8752 152.842 50.7542 152.842 53.6552C152.842 67.8452 164.519 79.5212 178.709 79.5212C183.397 79.5212 187.999 78.2462 192.019 75.8342L178.709 53.6552Z" fill="#CAE7EF"/>
<path d="M180.049 53.1724L193.529 75.2484C197.312 72.9384 200.438 69.6944 202.607 65.8284C204.776 61.9624 205.915 57.6044 205.915 53.1714L180.049 53.1724Z" fill="#4E94A6" fill-opacity="0.7"/>
<path d="M180.198 51.9273L206.062 51.5693C206.013 48.0503 205.247 44.5773 203.809 41.3643C202.372 38.1513 200.293 35.2653 197.702 32.8833L180.198 51.9273Z" fill="#FEFEFF"/>
<path d="M357.692 90.2021H191.706V340.711H357.692V90.2021Z" fill="#215468"/>
<path d="M255.66 210.876H243.855V260.588H255.66V210.876Z" fill="#215468"/>
<path d="M306.386 186.549H294.581V260.589H306.386V186.549Z" fill="#215468"/>
<path d="M331.75 152.975H319.945V260.589H331.75V152.975Z" fill="#215468"/>
<path d="M216.689 206.901C242.101 200.258 288.534 175.771 309.559 152.33" stroke="#215468" stroke-width="0.75" stroke-miterlimit="10" stroke-linecap="round"/>
<path d="M311.259 150.371L309.913 154.085L309.387 152.439L307.698 152.079L311.259 150.371Z" fill="#215468"/>
<path d="M281.023 200.041H269.218V260.588H281.023V200.041Z" fill="#215468"/>
<path d="M230.296 216.628H218.491V260.588H230.296V216.628Z" fill="#215468"/>
<path d="M342.354 260.598H208.693V147.612" stroke="#215468" stroke-width="0.75" stroke-miterlimit="10" stroke-linecap="round"/>
<path d="M343.995 107.814H208.711V115.964H343.995V107.814Z" fill="#215468"/>
<path d="M315.392 120.983H237.313V129.133H315.392V120.983Z" fill="#215468"/>
<path d="M344.012 271.044H208.693V278.535H344.012V271.044Z" fill="#215468"/>
<path d="M344.012 284.778H208.693V292.269H344.012V284.778Z" fill="#215468"/>
<path d="M344.012 298.512H208.693V306.003H344.012V298.512Z" fill="#215468"/>
<path d="M268.781 313.353H208.693V320.844H268.781V313.353Z" fill="#215468"/>
<path d="M358.039 396.727C360.18 396.512 362.3 396.096 364.439 395.878C366.246 395.693 368.06 395.59 369.859 395.324C371.134 395.135 372.455 394.879 373.676 394.37C374.448 394.048 373.952 392.024 373.841 391.459C373.575 390.114 373.586 388.642 373.637 387.272C371.582 387.234 369.524 387.195 367.474 387.108C367.093 387.092 366.701 387.077 366.342 387.217C365.864 387.402 365.506 387.832 365.136 388.213C363.524 389.869 361.415 390.77 359.433 391.829C357.451 392.888 355.453 394.25 354.45 396.414C354.371 396.585 354.301 396.784 354.315 396.967C355.558 396.931 356.8 396.851 358.039 396.727Z" fill="#333842"/>
<path d="M394.996 279.999C394.975 279.973 394.953 279.947 394.932 279.921C392.437 276.943 388.403 275.656 384.854 276.706C375.523 279.466 375.509 293.801 374.542 302.207C373.518 311.099 372.455 319.985 371.351 328.865C369.254 345.739 367.835 370.362 365.449 387.189C366.876 387.985 368.266 388.067 369.889 388.27C372.709 388.622 373.648 388.365 374.57 387.655C377.318 372.354 383.584 349.713 386.714 334.502C388.359 326.506 389.568 322.641 391.318 314.672C392.625 308.721 393.116 302.58 394.707 296.696C395.431 294.019 397.243 291.507 397.547 288.835C397.902 285.702 396.912 282.333 394.996 279.999Z" fill="#4F5D7A"/>
<path d="M383.987 346.429L380.43 345.633" stroke="#333842" stroke-width="0.75" stroke-miterlimit="10" stroke-linecap="round" stroke-linejoin="round"/>
<path d="M383.951 346.419L379.672 348.403" stroke="#333842" stroke-width="0.75" stroke-miterlimit="10" stroke-linecap="round" stroke-linejoin="round"/>
<path d="M394.797 395.893C394.845 395.908 394.898 395.918 394.951 395.928C395.362 395.934 395.773 395.948 396.183 395.966C396.288 395.967 396.392 395.972 396.493 395.981C396.984 396.006 397.474 396.036 397.964 396.075C401.786 396.377 405.695 397.062 409.466 397.143C410.784 397.171 412.17 397.133 413.365 396.667C416.45 395.463 412.69 393.884 411.467 393.186C410.182 392.453 409.068 391.763 407.696 391.149C405.956 390.371 404.284 389.411 402.708 388.285C400.508 388.823 398.243 389.042 395.991 388.933C394.836 388.877 393.118 395.353 394.797 395.893Z" fill="#333842"/>
<path d="M406.207 296.87C405.665 293.107 402.847 280.127 398.571 279.42C395.767 278.957 392.169 279.983 390.222 282.349C388.711 284.185 387.889 286.61 387.528 289.058C386.921 293.171 387.209 297.544 387.368 301.688C387.621 308.26 388.95 320.674 388.95 320.674C388.95 320.674 395.434 375.227 394.956 388.692C397.437 392.137 404.836 388.924 404.868 388.532C405.734 377.93 405.717 353.952 405.923 345.746C406.146 336.913 407.472 305.648 406.207 296.87Z" fill="#616E87"/>
<path d="M388.541 317.34C388.079 310.68 387.618 304.02 387.156 297.359" stroke="#333842" stroke-width="0.75" stroke-miterlimit="10"/>
<path d="M406.093 296.148C405.342 291.682 402.606 280.087 398.571 279.42C397.358 279.22 395.996 279.299 394.683 279.645C392.174 276.868 388.29 275.69 384.854 276.706C378.381 278.62 376.393 286.104 375.459 293.315C378.905 295.73 383.051 297.012 387.212 297.605V297.608C387.296 297.62 387.379 297.626 387.463 297.638C387.908 297.698 388.353 297.751 388.798 297.797C388.951 297.813 389.104 297.828 389.257 297.842C389.782 297.89 390.305 297.931 390.825 297.96C390.908 297.965 390.989 297.967 391.072 297.971C391.532 297.994 391.989 298.01 392.443 298.02C392.592 298.023 392.74 298.027 392.888 298.028C393.389 298.034 393.887 298.036 394.378 298.028V298.027C394.399 298.027 394.421 298.027 394.443 298.027C398.418 297.958 402.316 297.297 406.093 296.148Z" fill="#3C4966"/>
<path d="M396.261 228.285C396.303 228.663 396.329 229.038 396.348 229.397C396.425 230.836 396.502 232.274 396.579 233.713C396.656 235.156 396.9 236.703 396.811 238.144C396.683 240.211 396.24 242.193 394.313 243.203C393.112 243.795 391.691 243.744 390.476 243.22C389.538 242.815 388.349 242.178 387.978 241.128C387.735 240.441 387.736 239.689 387.74 238.956C387.752 236.554 387.699 234.151 387.796 231.75C387.859 230.206 387.745 228.538 388.41 227.11C389.321 225.152 391.661 223.23 393.835 224.085C395.545 224.759 396.069 226.559 396.261 228.285Z" fill="#F7B699"/>
<path d="M393.701 234.042C395.049 232.596 395.933 230.781 396.306 228.85C396.292 228.661 396.283 228.477 396.262 228.285C396.07 226.559 395.546 224.759 393.836 224.086C391.663 223.231 389.323 225.152 388.411 227.111C387.746 228.538 387.86 230.206 387.797 231.751C387.744 233.05 387.736 234.351 387.738 235.651C389.727 236.364 392.304 235.541 393.701 234.042Z" fill="#C46E58"/>
<path d="M405.953 290.161L403.028 275.317L404.03 241.969C403.763 241.972 404.174 239.016 403.27 238.441C401.871 237.551 397.386 236.921 396.818 236.773C396.824 237.402 396.818 237.984 396.674 238.521C396.507 239.146 395.42 240.325 394.638 240.909C392.269 242.676 389.281 242.51 388.006 238.842C387.836 238.354 387.756 237.47 387.735 236.903C386.5 237.063 384.508 237.587 383.087 238.067C381.36 238.651 380.155 240.214 380.027 242.033L378.489 275.232L374.563 287.744C384.046 295.354 394.985 295.285 405.953 290.161Z" fill="white"/>
<path d="M389.797 277.795C395.709 274.749 400.734 270.003 404.113 264.275" stroke="#333842" stroke-width="0.2994" stroke-miterlimit="10" stroke-linecap="round"/>
<path d="M387.341 290.472C393.725 286.051 398.906 279.91 402.19 272.873" stroke="#333842" stroke-width="0.2994" stroke-miterlimit="10" stroke-linecap="round"/>
<path d="M389.782 243.551C391.473 244.45 393.63 244.404 395.281 243.434" stroke="#333842" stroke-width="0.2994" stroke-miterlimit="10" stroke-linecap="round"/>
<path d="M377.089 242.695C372.329 248.229 367.999 260.318 367.548 267.527C367.436 269.316 367.767 271.19 368.817 272.643C369.867 274.096 371.725 275.032 373.481 274.672C375.338 274.29 376.65 272.643 377.59 270.997C379.115 268.328 381.336 261.58 381.937 258.669C382.611 255.406 384.081 252.334 384.666 249.003C385.03 246.93 386.975 237.204 382.231 238.48C381.427 238.696 380.737 239.208 380.096 239.74C379.003 240.643 378.002 241.634 377.089 242.695Z" fill="#6C7995"/>
<path d="M377.641 296.745C378.273 297.066 378.92 297.349 379.572 297.615C381.675 281.661 387.416 237.045 387.413 236.923C386.175 237.077 384.488 237.556 383.049 238.02C381.294 238.586 380.019 240.112 379.816 241.908L378.427 261.125L376.518 279.11L372.015 292.692C373.659 294.306 375.539 295.677 377.641 296.745Z" fill="#6C7995"/>
<path d="M387.414 236.922L381.992 241.504L385.047 242.175L381.694 249.553L384.258 261.691L387.414 236.922Z" fill="#ABC0D4"/>
<path d="M381.916 244.346C381.916 244.346 378.929 252.384 378.874 256.195C378.843 258.394 376.804 277.402 376.804 277.402" stroke="#333842" stroke-width="0.2994" stroke-miterlimit="10"/>
<path d="M380.115 269.883C380.115 273.402 377.262 276.255 373.743 276.255C370.224 276.255 367.371 273.402 367.371 269.883C367.371 266.364 370.224 263.511 373.743 263.511C377.262 263.511 380.115 266.364 380.115 269.883Z" fill="#6C7995"/>
<path d="M371.809 264.272C373.78 263.682 376.041 264.182 377.58 265.547C379.119 266.912 379.885 269.097 379.534 271.124" stroke="#333842" stroke-width="0.2994" stroke-miterlimit="10"/>
<path d="M375.096 262.769C376.455 263.482 377.551 264.682 378.139 266.1" stroke="#333842" stroke-width="0.2994" stroke-miterlimit="10"/>
<path d="M402.145 298.576C405.471 297.83 406.128 297.347 409.312 296.012L406.17 279.434L404.246 241.844C403.974 241.847 404.267 238.94 403.334 238.382C402.012 237.59 398.406 237.028 397.394 236.832V299.419C399.002 299.21 400.592 298.925 402.145 298.576Z" fill="#6C7995"/>
<path d="M408.022 243.275C410.413 246.797 411.837 251.424 413.3 255.404C414.748 259.345 417.226 264.502 417.131 268.767C417.096 270.36 416.464 272.001 415.187 272.953C413.856 273.944 412.035 274.047 410.421 273.663C405.636 272.524 404.31 268.436 402.813 264.385C400.991 259.455 399.728 253.935 399.426 248.689C399.302 246.533 398.473 236.387 403.221 238.311C404.026 238.637 404.676 239.249 405.275 239.874C406.293 240.937 407.208 242.076 408.022 243.275Z" fill="#6C7995"/>
<path d="M403.251 265.749C402.482 263.095 401.713 260.441 400.944 257.787" stroke="#333842" stroke-width="0.2994" stroke-miterlimit="10"/>
<path d="M401.857 261.231C401.316 260.371 400.775 259.511 400.234 258.651" stroke="#333842" stroke-width="0.2994" stroke-miterlimit="10"/>
<path d="M397.392 236.824L402.203 242.044L399.088 242.33L401.499 250.067L397.447 261.793L397.392 236.824Z" fill="#ABC0D4"/>
<path d="M412.826 274.797L405.465 277.03C402.381 277.966 399.122 276.224 398.187 273.14C397.251 270.056 398.993 266.797 402.077 265.862L409.438 263.629C412.522 262.693 415.781 264.435 416.716 267.519C417.652 270.603 415.911 273.862 412.826 274.797Z" fill="#6C7995"/>
<path d="M398.568 267.276C401.272 266.294 403.977 265.312 406.681 264.33C409.002 263.487 411.51 262.915 413.887 263.963" stroke="#333842" stroke-width="0.2994" stroke-miterlimit="10" stroke-linecap="round"/>
<path d="M399.616 258.65H379.105V286.58H399.616V258.65Z" fill="#215468"/>
<path d="M377.109 276.558C379.93 276.558 382.218 274.27 382.218 271.449C382.218 268.627 379.93 266.34 377.109 266.34C374.287 266.34 372 268.627 372 271.449C372 274.27 374.287 276.558 377.109 276.558Z" fill="#F7B699"/>
<path d="M395.886 273.134C395.751 275.953 397.926 278.347 400.745 278.483C403.564 278.618 405.958 276.443 406.094 273.624C406.229 270.805 404.054 268.411 401.235 268.275C398.416 268.14 396.022 270.316 395.886 273.134Z" fill="#F7B699"/>
<path d="M382.588 223.086C382.596 223.471 382.695 223.854 382.882 224.19C383.613 225.505 385.379 225.06 385.855 223.774C386.054 223.237 386.032 222.618 385.858 222.077C385.57 221.185 384.816 220.457 383.858 220.953C383.3 221.242 382.867 221.764 382.686 222.365C382.616 222.599 382.584 222.843 382.588 223.086Z" fill="#C46E58"/>
<path d="M387.367 214.763C388.698 214.052 391.602 213.114 394.346 213.506C397.351 213.811 398.736 215.287 399.049 217.121C399.587 220.27 399.463 224.055 398.072 226.867C397.839 227.338 397.355 228.538 397.076 228.983C394.845 232.532 390.711 232.847 388.637 232.346C386.158 231.747 384.813 229.679 384.393 226.784C384.318 226.264 384.299 224.568 384.291 224.043C384.241 220.816 385.966 215.511 387.367 214.763Z" fill="#F7B699"/>
<path d="M386.775 211.642C388.359 210.639 390.446 210.194 392.397 209.935C397.376 209.276 401.069 212.656 401.11 217.457C401.124 219.099 400.306 222.807 398.442 223.545C396.175 224.442 396.398 221.833 396.689 220.211C396.798 219.607 396.994 219.016 397.006 218.402C397.018 217.788 396.802 217.12 396.263 216.767C395.885 216.52 395.411 216.463 394.957 216.419C393.4 216.267 384.618 216.986 384.73 214.045C384.738 213.831 384.839 213.632 384.951 213.448C385.406 212.699 386.036 212.109 386.775 211.642Z" fill="#333842"/>
<path d="M387.861 216.893C390.02 217.355 392.527 217.169 394.435 216.009" stroke="#333842" stroke-width="0.75" stroke-miterlimit="10" stroke-linecap="round" stroke-linejoin="round"/>
<path d="M398.825 212.159C398.442 210.774 397.162 209.682 395.734 209.522" stroke="#333842" stroke-width="0.75" stroke-miterlimit="10" stroke-linecap="round" stroke-linejoin="round"/>
<path d="M400.113 212.15C399.775 211.918 399.264 211.988 399.001 212.304" stroke="#333842" stroke-width="0.75" stroke-miterlimit="10" stroke-linecap="round" stroke-linejoin="round"/>
<path d="M384.125 222.489C384.146 222.602 384.172 222.712 384.202 222.818C384.271 222.796 384.412 222.744 384.449 222.676C385.44 220.856 384.874 218.153 386.397 216.646C386.916 216.133 387.713 215.757 387.789 215.031C387.822 214.715 387.7 214.405 387.568 214.116C387.498 213.962 387.419 213.803 387.283 213.701C387.1 213.564 386.852 213.559 386.626 213.585C383.642 213.936 383.839 217.361 383.973 219.548C384.03 220.462 383.952 221.577 384.125 222.489Z" fill="#333842"/>
<path d="M397.35 225.201C397.962 226.083 399.124 226.385 399.921 225.553C400.285 225.173 400.454 224.647 400.544 224.129C400.624 223.668 400.65 223.186 400.516 222.737C400.334 222.125 399.831 221.713 399.24 221.513C397.242 220.837 396.444 223.894 397.35 225.201Z" fill="#F7B699"/>
<path d="M386.178 219.586C386.679 219.446 387.213 219.426 387.722 219.53" stroke="#333842" stroke-width="0.4761" stroke-miterlimit="10" stroke-linecap="round"/>
<path d="M388.374 227.628C389.16 228.084 390.138 228.195 391.006 227.927" stroke="#333842" stroke-width="0.4761" stroke-miterlimit="10" stroke-linecap="round"/>
<path d="M392.537 219.428C393.27 219.343 394.029 219.485 394.681 219.831" stroke="#333842" stroke-width="0.4761" stroke-miterlimit="10" stroke-linecap="round"/>
<path d="M393.238 222.323C393.238 222.686 392.944 222.979 392.581 222.979C392.218 222.979 391.925 222.685 391.925 222.323C391.925 221.96 392.219 221.666 392.581 221.666C392.944 221.666 393.238 221.96 393.238 222.323Z" fill="#333842"/>
<path d="M387.46 222.016C387.46 222.379 387.166 222.672 386.803 222.672C386.44 222.672 386.146 222.378 386.146 222.016C386.146 221.653 386.44 221.359 386.803 221.359C387.166 221.36 387.46 221.654 387.46 222.016Z" fill="#333842"/>
<path d="M389.083 225.89C388.478 225.794 387.617 225.36 387.943 224.635C388.029 224.443 388.172 224.283 388.299 224.115C388.693 223.594 388.95 222.971 389.039 222.324" stroke="#333842" stroke-width="0.4761" stroke-miterlimit="10" stroke-linecap="round"/>
<path d="M83.2449 270.371H62.7339V298.301H83.2449V270.371Z" fill="#FFB861"/>
<path d="M60.7369 288.279C63.5586 288.279 65.8459 285.991 65.8459 283.17C65.8459 280.348 63.5586 278.061 60.7369 278.061C57.9153 278.061 55.6279 280.348 55.6279 283.17C55.6279 285.991 57.9153 288.279 60.7369 288.279Z" fill="#F7B699"/>
<path d="M79.515 284.856C79.38 287.675 81.555 290.069 84.374 290.205C87.193 290.34 89.587 288.165 89.723 285.346C89.858 282.527 87.683 280.133 84.864 279.997C82.045 279.862 79.65 282.037 79.515 284.856Z" fill="#F7B699"/>
<path d="M42.5098 412.344C42.1808 410.715 41.7258 409.134 41.1028 407.69C40.1538 407.032 39.2528 406.284 38.4828 405.305C38.1268 404.853 37.7858 404.341 37.3168 404.129C36.9638 403.969 36.5728 403.996 36.1928 404.025C34.1478 404.181 32.0968 404.28 30.0478 404.377C30.0498 406.034 30.0088 407.816 29.6968 409.451C29.5858 410.034 29.1648 411.892 29.5018 412.669L42.5098 412.344Z" fill="#333842"/>
<path d="M56.1759 296.568C56.1539 296.542 56.1319 296.517 56.1099 296.492C53.5419 293.577 49.4769 292.391 45.9549 293.529C36.6949 296.52 37.0389 310.852 36.2809 319.279C35.4789 328.194 34.6369 337.104 33.7539 346.009C32.0769 362.93 31.2719 387.581 29.3059 404.462C30.7519 405.222 32.1439 405.27 33.7719 405.432C36.5999 405.714 37.5319 405.433 38.4359 404.701C40.8019 389.337 46.5029 366.546 49.2529 351.262C50.6989 343.227 51.8099 339.333 53.3619 331.323C54.5209 325.341 54.8589 319.19 56.3019 313.268C56.9589 310.574 58.7079 308.017 58.9449 305.339C59.2229 302.197 58.1499 298.854 56.1759 296.568Z" fill="#4F5D7A"/>
<path d="M46.824 363.252L43.249 362.545" stroke="#333842" stroke-width="0.75" stroke-miterlimit="10" stroke-linecap="round" stroke-linejoin="round"/>
<path d="M46.7868 363.243L42.5598 365.332" stroke="#333842" stroke-width="0.75" stroke-miterlimit="10" stroke-linecap="round" stroke-linejoin="round"/>
<path d="M58.8619 412.43C58.9109 412.444 58.9639 412.452 59.0169 412.461C59.4279 412.457 59.8389 412.46 60.2499 412.468C60.3549 412.467 60.4589 412.469 60.5599 412.475C61.0509 412.488 61.5419 412.505 62.0329 412.532C65.8609 412.739 69.7859 413.327 73.5579 413.313C74.8759 413.308 76.2609 413.236 77.4439 412.74C80.4979 411.459 76.6999 409.975 75.4599 409.307C74.1569 408.606 73.0259 407.944 71.6389 407.364C69.8809 406.629 68.1839 405.711 66.5809 404.625C64.3949 405.218 62.1359 405.493 59.8819 405.44C58.7269 405.415 57.1709 411.932 58.8619 412.43Z" fill="#333842"/>
<path d="M67.8029 313.154C67.1669 309.405 64.0269 296.499 59.7349 295.9C56.9209 295.507 53.3489 296.623 51.4619 299.036C49.9969 300.909 49.2359 303.353 48.9359 305.81C48.4319 309.937 48.8279 314.302 49.0909 318.44C49.5079 325.004 51.1449 337.381 51.1449 337.381C51.1449 337.381 58.9849 391.756 58.8429 405.229C61.4089 408.611 68.7259 405.215 68.7479 404.822C69.3499 394.201 68.7359 370.232 68.7379 362.023C68.7389 353.186 69.2859 321.898 67.8029 313.154Z" fill="#6C7995"/>
<path d="M50.6518 334.06C50.0248 327.413 49.3978 320.767 48.7698 314.12" stroke="#333842" stroke-width="0.75" stroke-miterlimit="10"/>
<path d="M42.0889 318.518C45.0289 319.32 48.1259 319.929 51.1559 320.247C57.0779 320.868 62.8059 319.923 68.3099 318.008C68.1749 316.036 68.0089 314.372 67.8029 313.155C67.1669 309.406 64.0269 296.5 59.7349 295.901C58.5169 295.731 57.1579 295.845 55.8539 296.223C53.2769 293.509 49.3639 292.428 45.9539 293.53C37.7579 296.178 37.0849 307.707 36.5129 316.165C38.1899 317.272 40.1319 317.985 42.0889 318.518Z" fill="#3C4966"/>
<path d="M58.3069 244.166C58.3489 244.544 58.3749 244.919 58.3939 245.278C58.4709 246.716 58.5479 248.155 58.6249 249.594C58.7019 251.037 58.9459 252.584 58.8569 254.025C58.7289 256.092 58.2859 258.074 56.3589 259.084C55.1579 259.676 53.7369 259.625 52.5219 259.101C51.5839 258.696 50.3949 258.059 50.0239 257.01C49.7809 256.322 49.7819 255.571 49.7859 254.838C49.7979 252.436 49.7449 250.033 49.8419 247.632C49.9049 246.088 49.7909 244.42 50.4559 242.992C51.3669 241.034 53.7069 239.112 55.8809 239.967C57.5909 240.64 58.1149 242.44 58.3069 244.166Z" fill="#F7B699"/>
<path d="M63.542 241.693L63.56 241.666C63.496 241.581 63.438 241.508 63.387 241.446C63.022 240.837 62.748 240.137 62.436 239.506C62.454 239.543 62.153 239.91 62.122 239.983C62.017 240.231 61.992 240.539 61.954 240.804C61.871 241.38 61.846 241.963 61.88 242.544C61.893 242.763 61.919 242.995 62.051 243.17C62.359 243.579 63.434 243.203 63.855 243.143C63.994 243.123 64.159 243.083 64.207 242.951C64.351 242.551 63.781 242.01 63.542 241.693Z" fill="#F7B699"/>
<path d="M49.3398 233.355C50.4928 232.522 53.1358 231.294 55.8988 231.363C58.8988 231.319 60.5608 232.583 61.2488 234.31C62.3028 236.956 62.7308 239.822 62.7398 242.66C62.7438 244.083 62.6428 245.506 62.4498 246.916C62.2708 248.223 61.6828 249.148 60.2808 249.387C58.9818 249.609 57.6648 249.709 56.3488 249.728C55.1758 249.745 53.7668 249.861 52.6418 249.518C50.7118 248.929 49.5958 247.023 48.9378 245.243C48.7558 244.752 48.3838 243.123 48.2668 242.619C47.5448 239.525 48.1258 234.231 49.3398 233.355Z" fill="#F7B699"/>
<path d="M60.1849 229.5C59.6409 228.169 58.2429 227.236 56.8049 227.245" stroke="#333842" stroke-width="0.75" stroke-miterlimit="10" stroke-linecap="round" stroke-linejoin="round"/>
<path d="M61.4639 229.339C61.0999 229.148 60.6019 229.278 60.3779 229.623" stroke="#333842" stroke-width="0.75" stroke-miterlimit="10" stroke-linecap="round" stroke-linejoin="round"/>
<path d="M56.0588 246.83C56.1798 246.802 56.2818 246.754 56.3438 246.675C56.5318 246.432 56.4848 245.578 56.5258 245.263C56.6428 244.354 56.7598 243.444 56.8778 242.535C56.9518 241.963 56.8898 241.477 57.3608 241.118C57.7858 240.794 58.3358 240.668 58.8618 240.666C60.7368 240.66 61.2178 240.88 60.9438 238.854C60.8138 237.892 60.5828 236.907 60.7678 235.934C60.8858 235.312 61.0358 235.194 61.4018 234.773C61.9868 234.098 62.6268 233.872 62.7828 233.113C61.6358 229.186 57.9168 226.93 53.5398 228.046C51.6328 228.532 49.6128 229.221 48.1578 230.403C47.4788 230.955 46.9228 231.614 46.5598 232.41C46.4698 232.606 46.3928 232.815 46.4098 233.029C46.4238 233.2 46.4678 233.353 46.5358 233.493C45.3838 235.258 46.0918 237.612 46.4388 239.518C46.6818 240.853 47.0928 242.155 47.6228 243.403C47.8878 244.027 48.1838 244.639 48.5058 245.236C48.6358 245.477 49.2698 246.931 49.4608 246.94C51.3788 247.027 53.3018 247.006 55.2178 246.878C55.4438 246.863 55.7968 246.891 56.0588 246.83Z" fill="#333842"/>
<path d="M57.6788 242.558C58.3898 243.362 59.5798 243.525 60.2738 242.605C60.5898 242.185 60.6958 241.643 60.7248 241.118C60.7508 240.65 60.7188 240.169 60.5338 239.739C60.2808 239.153 59.7328 238.803 59.1228 238.674C57.0578 238.237 56.6248 241.367 57.6788 242.558Z" fill="#F7B699"/>
<path d="M58.5459 239.981C58.5879 239.709 58.9499 239.588 59.2029 239.698C59.4549 239.808 59.6079 240.066 59.7179 240.318C59.9009 240.738 60.0119 241.19 60.0429 241.648C59.8099 241.566 59.5239 241.705 59.4449 241.938C59.3649 242.171 59.5059 242.456 59.7399 242.534" stroke="#333842" stroke-width="0.4761" stroke-miterlimit="10" stroke-linecap="round"/>
<path d="M61.3669 237.233C61.8479 237.035 62.3759 236.953 62.8939 236.996" stroke="#333842" stroke-width="0.4761" stroke-miterlimit="10" stroke-linecap="round"/>
<path d="M62.9259 239.496C62.9689 239.856 62.7109 240.183 62.3509 240.225C61.9909 240.268 61.6649 240.01 61.6219 239.65C61.5789 239.29 61.8369 238.962 62.1969 238.92C62.5569 238.878 62.8829 239.137 62.9259 239.496Z" fill="#333842"/>
<path d="M61.4019 245.099C61.6389 245.094 62.1669 245.032 62.3919 245.002" stroke="#333842" stroke-width="0.4761" stroke-miterlimit="10" stroke-linecap="round"/>
<path d="M43.3339 292.228H37.0359C33.4629 292.228 30.5669 289.332 30.5669 285.759C30.5669 282.186 33.4629 279.29 37.0359 279.29H43.3339C46.9069 279.29 49.8029 282.186 49.8029 285.759C49.8029 289.331 46.9059 292.228 43.3339 292.228Z" fill="#3D434F"/>
<path d="M39.8078 258.576C35.0478 264.11 30.7178 276.199 30.2668 283.408C30.1548 285.197 30.4858 287.071 31.5358 288.524C32.5858 289.977 34.4438 290.913 36.1998 290.553C38.0568 290.171 39.3688 288.524 40.3098 286.878C41.8348 284.209 44.0558 277.461 44.6568 274.55C45.3308 271.287 46.8008 268.215 47.3858 264.884C47.7498 262.811 49.6948 253.085 44.9508 254.361C44.1468 254.577 43.4578 255.089 42.8158 255.621C41.7208 256.524 40.7198 257.515 39.8078 258.576Z" fill="#4F5D7A"/>
<path d="M47.7429 253.611L49.5089 250.815L59.0019 250.521L61.2829 253.758L47.7429 253.611Z" fill="white"/>
<path d="M68.2148 295.315L66.2908 257.725C66.0188 257.728 66.3118 254.821 65.3788 254.263C64.0568 253.471 60.4508 252.909 59.4388 252.713L49.4588 252.803C48.2208 252.957 46.5338 253.436 45.0948 253.9C43.3398 254.466 42.0648 255.992 41.8618 257.788L40.4728 277.005L38.5638 294.99L34.0608 308.572C35.7048 310.185 37.5848 311.556 39.6868 312.624C40.3188 312.945 40.9658 313.228 41.6178 313.494C41.6178 313.494 50.8418 317.205 59.4388 315.299C61.0468 315.089 62.6378 314.804 64.1898 314.456C67.5158 313.71 68.1728 313.226 71.3568 311.892L68.2148 295.315Z" fill="#6C7995"/>
<path d="M80.0539 292.228H73.7549C70.1829 292.228 67.2859 289.332 67.2859 285.759C67.2859 282.186 70.1819 279.29 73.7549 279.29H80.0539C83.6259 279.29 86.5229 282.186 86.5229 285.759C86.5229 289.331 83.6259 292.228 80.0539 292.228Z" fill="#6C7995"/>
<path d="M70.0679 259.156C72.4599 262.678 73.8839 267.305 75.3459 271.285C76.7939 275.226 79.2719 280.383 79.1769 284.648C79.1419 286.241 78.5099 287.882 77.2319 288.834C75.9009 289.825 74.0799 289.928 72.4659 289.544C67.6809 288.405 66.3549 284.317 64.8579 280.266C63.0359 275.336 61.7729 269.816 61.4709 264.57C61.3469 262.414 60.5179 252.268 65.2659 254.192C66.0709 254.518 66.7209 255.13 67.3199 255.755C68.3389 256.818 69.2539 257.957 70.0679 259.156Z" fill="#6C7995"/>
<path d="M67.889 286.564C64.21 279.047 63.759 276.321 62.99 273.667" stroke="#333842" stroke-width="0.2994" stroke-miterlimit="10"/>
<path d="M63.9018 277.112C63.3608 276.252 62.8198 275.392 62.2788 274.531" stroke="#333842" stroke-width="0.2994" stroke-miterlimit="10"/>
</svg>
