<svg width="500" height="500" viewBox="0 0 500 500" fill="none" xmlns="http://www.w3.org/2000/svg">
<path d="M394.426 93.4173C396.255 87.4654 392.912 81.158 386.96 79.3293C381.008 77.5006 374.701 80.8431 372.872 86.7949C371.044 92.7468 374.386 99.0542 380.338 100.883C386.29 102.712 392.597 99.3692 394.426 93.4173Z" fill="#215468"/>
<path d="M482.754 354.445C482.051 351.613 481.117 348.992 479.986 346.55C470.896 326.923 449.322 321.286 433.494 309.767C426.739 304.852 421.309 297.436 420.811 289.096C420.219 279.195 426.394 270.365 431.409 261.807C437.818 250.872 442.762 238.783 443.488 226.129C444.214 213.475 440.289 200.18 431.134 191.415C420.578 181.31 404.879 178.586 390.279 179.205C353.129 180.782 318.868 196.405 289.438 164.174C268.582 141.334 259.795 102.926 238.238 80.2348C204.024 44.2208 144.861 50.3308 107.718 83.3508C74.1599 113.184 63.2799 160.644 75.2409 203.225C82.9639 230.719 92.2509 258.652 73.1049 284.58C56.7209 306.768 30.7979 321.562 21.2249 348.573C11.9439 374.761 15.2889 407.149 37.5279 425.898C49.0029 435.572 63.7039 440.554 78.3599 443.788C78.4689 443.812 78.5759 443.832 78.6849 443.856H376.325C423.247 436.788 497.633 414.372 482.754 354.445Z" fill="#CAE7EF"/>
<path d="M366.224 131.53C370.886 120.184 365.469 107.207 354.123 102.544C342.778 97.8819 329.8 103.299 325.138 114.645C320.475 125.991 325.893 138.968 337.238 143.63C348.584 148.293 361.561 142.875 366.224 131.53Z" fill="#CAE7EF"/>
<path d="M69.055 254.471C69.055 261.921 63.0149 267.961 55.5649 267.961C48.1149 267.961 42.075 261.921 42.075 254.471C42.075 247.021 48.1149 240.981 55.5649 240.981C63.0149 240.981 69.055 247.021 69.055 254.471Z" fill="#CAE7EF"/>
<path d="M132.143 441.182C136.635 442.086 141.138 442.934 145.649 443.74H150.366L132.143 441.182Z" fill="#BFD2FF"/>
<path d="M465.992 285.94C465.499 284.184 464.611 282.659 463.326 281.366C462.627 280.826 461.927 280.285 461.228 279.745C459.611 278.807 457.867 278.335 455.996 278.33H455.483C454.056 278.276 452.724 278.574 451.489 279.223C450.204 279.641 449.092 280.356 448.153 281.366C447.142 282.305 446.428 283.417 446.01 284.702C445.361 285.937 445.063 287.269 445.117 288.696C445.24 289.615 445.364 290.533 445.487 291.452C445.979 293.208 446.868 294.733 448.153 296.026C448.852 296.566 449.552 297.107 450.251 297.647C451.868 298.585 453.612 299.056 455.483 299.062H455.996C457.423 299.116 458.754 298.818 459.99 298.169C461.275 297.751 462.387 297.036 463.326 296.026C464.337 295.087 465.051 293.975 465.469 292.69C466.118 291.455 466.416 290.123 466.362 288.696C466.239 287.778 466.115 286.859 465.992 285.94Z" fill="#215468"/>
<path d="M343.179 439.752L106.997 438.625C101.592 438.599 97.2319 434.197 97.2579 428.793L97.8899 296.276C97.9159 290.872 102.318 286.511 107.722 286.537L343.904 287.664C349.309 287.69 353.669 292.092 353.643 297.496L353.011 430.013C352.985 435.417 348.583 439.777 343.179 439.752Z" fill="#63738F"/>
<path d="M226.969 290.164C226.966 290.81 226.44 291.332 225.793 291.329C225.147 291.326 224.625 290.8 224.628 290.153C224.631 289.506 225.157 288.985 225.804 288.988C226.451 288.991 226.972 289.518 226.969 290.164Z" fill="#333842"/>
<path d="M371.896 440.082L78.278 438.681C78.246 445.423 83.685 450.915 90.427 450.947L359.63 452.231C366.372 452.264 371.864 446.824 371.896 440.082Z" fill="#3E4D66"/>
<path d="M339.203 434.958L111.018 433.869C106.795 433.849 103.388 430.409 103.408 426.186L104.009 300.138C104.029 295.915 107.469 292.508 111.692 292.528L339.877 293.617C344.1 293.637 347.507 297.077 347.487 301.3L346.886 427.348C346.866 431.572 343.426 434.979 339.203 434.958Z" fill="#FEFEFF"/>
<path d="M391.071 167.362V175.741H424.111V167.362H391.071Z" fill="#033141"/>
<path d="M391.07 154.408V162.787H440.279V154.408H391.07Z" fill="#4E94A6"/>
<path d="M391.07 141.454V149.833H462.593V141.454H391.07Z" fill="#CAE7EF"/>
<path d="M391.07 128.5V136.879H431.312V128.5H391.07Z" fill="#4E94A6" fill-opacity="0.7"/>
<path d="M389.983 121.035V181.656H467.85" stroke="#333842" stroke-width="0.6764" stroke-miterlimit="10" stroke-linecap="round"/>
<path d="M467.031 193.776H416.253V198.553H467.031V193.776Z" fill="#215468"/>
<path d="M467.031 202.759H416.253V207.535H467.031V202.759Z" fill="#215468"/>
<path d="M467.031 211.742H416.253V216.538H467.031V211.742Z" fill="#215468"/>
<path d="M411.951 193.776H389.983V216.537H411.951V193.776Z" fill="#215468"/>
<path d="M467.032 220.724H389.983V225.501H467.032V220.724Z" fill="#215468"/>
<path d="M467.032 229.707H389.983V234.484H467.032V229.707Z" fill="#215468"/>
<path d="M290.04 68.859C288.468 69.169 286.951 69.627 285.505 70.221C285.593 70.333 285.689 70.434 285.766 70.557C286.951 72.451 286.376 74.948 284.481 76.133C282.586 77.318 280.09 76.743 278.905 74.849C278.821 74.715 278.766 74.573 278.7 74.434C277.504 75.478 276.411 76.636 275.438 77.89C275.578 77.946 275.721 77.989 275.857 78.061C277.831 79.109 278.581 81.559 277.533 83.532C276.485 85.506 274.035 86.256 272.062 85.208C271.907 85.126 271.774 85.021 271.635 84.923C271.119 86.418 270.746 87.976 270.528 89.583C270.694 89.556 270.857 89.52 271.029 89.514C273.262 89.435 275.137 91.181 275.216 93.414C275.295 95.647 273.549 97.522 271.316 97.601C271.12 97.608 270.931 97.584 270.742 97.564C271.051 99.172 271.515 100.722 272.12 102.199C272.266 102.076 272.408 101.951 272.574 101.847C274.469 100.662 276.965 101.237 278.15 103.132C279.335 105.027 278.76 107.523 276.866 108.708C276.686 108.821 276.496 108.903 276.307 108.984C277.374 110.212 278.558 111.333 279.845 112.326C279.912 112.133 279.98 111.941 280.078 111.755C281.126 109.781 283.576 109.031 285.549 110.079C287.522 111.127 288.273 113.577 287.225 115.55C287.119 115.75 286.989 115.928 286.857 116.101C288.383 116.625 289.976 117.003 291.618 117.217C291.577 117.009 291.539 116.801 291.531 116.582C291.452 114.349 293.199 112.475 295.432 112.395C297.665 112.316 299.54 114.062 299.619 116.295C299.627 116.523 299.604 116.744 299.575 116.963C301.201 116.644 302.766 116.164 304.256 115.543C304.117 115.384 303.98 115.222 303.864 115.038C302.679 113.143 303.254 110.647 305.148 109.462C307.042 108.277 309.539 108.852 310.724 110.747C310.84 110.933 310.926 111.128 311.009 111.324C312.23 110.249 313.342 109.056 314.328 107.762C314.14 107.696 313.952 107.631 313.772 107.535C311.798 106.487 311.048 104.037 312.096 102.064C313.144 100.09 315.593 99.34 317.567 100.388C317.747 100.484 317.905 100.603 318.064 100.72C318.573 99.208 318.936 97.632 319.141 96.008C318.962 96.039 318.786 96.075 318.599 96.082C316.366 96.161 314.491 94.415 314.412 92.182C314.333 89.949 316.079 88.074 318.313 87.995C318.495 87.988 318.67 88.013 318.846 88.03C318.525 86.44 318.053 84.908 317.442 83.449C317.315 83.551 317.196 83.661 317.054 83.749C315.16 84.934 312.663 84.359 311.478 82.464C310.293 80.57 310.868 78.073 312.762 76.888C312.901 76.801 313.049 76.743 313.194 76.675C312.142 75.485 310.977 74.399 309.716 73.433C309.662 73.569 309.62 73.708 309.55 73.84C308.502 75.814 306.052 76.564 304.079 75.516C302.106 74.468 301.355 72.018 302.404 70.045C302.476 69.91 302.569 69.795 302.653 69.671C301.172 69.171 299.63 68.812 298.042 68.603C298.061 68.739 298.093 68.871 298.098 69.012C298.177 71.245 296.431 73.12 294.198 73.199C291.965 73.278 290.09 71.532 290.011 69.299C290.007 69.149 290.03 69.006 290.04 68.859ZM294.221 76.434C303.322 76.112 310.961 83.228 311.283 92.329C311.605 101.43 304.489 109.069 295.388 109.391C286.287 109.713 278.648 102.597 278.326 93.496C278.004 84.395 285.12 76.756 294.221 76.434Z" fill="#215468"/>
<path d="M138.508 192.365L138.508 78.8882L44.3113 78.8882L44.3113 192.365H138.508Z" fill="#215468"/>
<path d="M73.948 123.675H63.439V148.54H73.948V123.675Z" fill="#4E94A6" fill-opacity="0.7"/>
<path d="M90.1948 111.506H79.6858V148.539H90.1948V111.506Z" fill="#FEFEFF"/>
<path d="M106.442 94.7129H95.9329V148.539H106.442V94.7129Z" fill="#4E94A6"/>
<path d="M122.688 118.255H112.179V148.54H122.688V118.255Z" fill="#4E94A6"/>
<path d="M57.2549 95.7168V148.809H126.343" stroke="#333842" stroke-width="0.75" stroke-miterlimit="10" stroke-linecap="round"/>
<path d="M126.625 158.93H55.8931V165.703H126.625V158.93Z" fill="#FEFEFF"/>
<path d="M126.625 171.348H55.8931V178.122H126.625V171.348Z" fill="#FEFEFF"/>
<path d="M188.891 222.612L175.845 249.252L152.139 219.716L130.795 247.066L115.055 230.059L112.657 232.279L131.007 252.107L152.175 224.982L176.517 255.309L191.334 225.055L188.891 222.612Z" fill="white"/>
<path d="M180.551 252.281C180.551 249.964 178.673 248.086 176.356 248.086C174.039 248.086 172.16 249.964 172.16 252.281C172.16 254.598 174.038 256.476 176.356 256.476C178.673 256.476 180.551 254.598 180.551 252.281Z" fill="#215468"/>
<path d="M194.414 222.622C194.414 220.305 192.536 218.426 190.219 218.426C187.902 218.426 186.023 220.304 186.023 222.622C186.023 224.939 187.902 226.817 190.219 226.817C192.535 226.817 194.414 224.939 194.414 222.622Z" fill="#4E94A6" fill-opacity="0.7"/>
<path d="M151.997 226.817C154.314 226.817 156.192 224.939 156.192 222.622C156.192 220.305 154.314 218.427 151.997 218.427C149.68 218.427 147.802 220.305 147.802 222.622C147.802 224.939 149.68 226.817 151.997 226.817Z" fill="#333842"/>
<path d="M131.401 253.282C133.718 253.282 135.597 251.404 135.597 249.086C135.597 246.769 133.718 244.89 131.401 244.89C129.084 244.89 127.205 246.769 127.205 249.086C127.205 251.404 129.084 253.282 131.401 253.282Z" fill="#033141"/>
<path d="M118.961 231.965C118.961 229.648 117.083 227.771 114.765 227.771C112.447 227.771 110.57 229.648 110.57 231.965C110.57 234.282 112.448 236.161 114.765 236.161C117.082 236.161 118.961 234.282 118.961 231.965Z" fill="#4E94A6"/>
<path d="M102.502 212.39V268.415H196.81" stroke="#333842" stroke-width="0.75" stroke-miterlimit="10" stroke-linecap="round"/>
<path d="M159.002 419.534C176.662 416.697 188.678 400.081 185.841 382.422C183.005 364.762 166.389 352.746 148.729 355.583C131.069 358.42 119.053 375.035 121.89 392.695C124.727 410.355 141.343 422.371 159.002 419.534Z" fill="#BFC5D4"/>
<path d="M153.098 388.078L127.839 379.268C126.851 382.1 126.347 385.079 126.347 388.078C126.347 402.753 138.423 414.829 153.098 414.829C157.947 414.829 162.705 413.511 166.863 411.016L153.098 388.078Z" fill="#215468"/>
<path d="M154.484 387.579L168.425 410.41C172.337 408.021 175.571 404.666 177.814 400.668C180.057 396.67 181.235 392.162 181.235 387.578H154.484V387.579Z" fill="#CAE7EF"/>
<path d="M154.637 386.29L181.386 385.92C181.336 382.28 180.543 378.689 179.056 375.366C177.569 372.043 175.42 369.058 172.74 366.595L154.637 386.29Z" fill="#FEFEFF"/>
<path d="M191.356 334.515H116.377V338.666H191.356V334.515Z" fill="#333842"/>
<path d="M191.356 326.315H116.377V330.466H191.356V326.315Z" fill="#333842"/>
<path d="M191.356 318.116H116.377V322.267H191.356V318.116Z" fill="#333842"/>
<path d="M191.356 309.916H116.377V314.067H191.356V309.916Z" fill="#333842"/>
<path d="M191.356 342.125H116.377V346.276H191.356V342.125Z" fill="#333842"/>
<path d="M337.928 422.199H207.935V426.35H337.928V422.199Z" fill="#333842"/>
<path d="M337.928 414H207.935V418.151H337.928V414Z" fill="#333842"/>
<path d="M337.928 405.8H207.935V409.951H337.928V405.8Z" fill="#333842"/>
<path d="M201.342 138.943C218.33 135.692 229.465 119.285 226.214 102.297C222.962 85.3097 206.555 74.1745 189.568 77.4261C172.58 80.6776 161.445 97.0846 164.696 114.072C167.948 131.06 184.355 142.195 201.342 138.943Z" fill="#215468"/>
<path d="M194.709 108.655L170.285 100.136C169.33 102.875 168.842 105.754 168.842 108.655C168.842 122.845 180.519 134.521 194.709 134.521C199.397 134.521 203.999 133.246 208.019 130.834L194.709 108.655Z" fill="#CAE7EF"/>
<path d="M196.049 108.172L209.529 130.248C213.312 127.938 216.438 124.694 218.607 120.828C220.776 116.962 221.915 112.604 221.915 108.171L196.049 108.172Z" fill="#4E94A6" fill-opacity="0.7"/>
<path d="M196.198 106.927L222.062 106.569C222.013 103.05 221.247 99.5773 219.809 96.3643C218.372 93.1513 216.293 90.2653 213.702 87.8833L196.198 106.927Z" fill="#FEFEFF"/>
<path d="M373.692 145.202H207.706V395.711H373.692V145.202Z" fill="#215468"/>
<path d="M271.66 265.876H259.855V315.588H271.66V265.876Z" fill="#215468"/>
<path d="M322.386 241.549H310.581V315.589H322.386V241.549Z" fill="#215468"/>
<path d="M347.75 207.975H335.945V315.589H347.75V207.975Z" fill="#215468"/>
<path d="M232.689 261.901C258.101 255.258 304.534 230.771 325.559 207.33" stroke="#215468" stroke-width="0.75" stroke-miterlimit="10" stroke-linecap="round"/>
<path d="M327.259 205.371L325.913 209.085L325.387 207.439L323.698 207.079L327.259 205.371Z" fill="#215468"/>
<path d="M297.023 255.041H285.218V315.588H297.023V255.041Z" fill="#215468"/>
<path d="M246.296 271.628H234.491V315.588H246.296V271.628Z" fill="#215468"/>
<path d="M358.354 315.598H224.693V202.612" stroke="#215468" stroke-width="0.75" stroke-miterlimit="10" stroke-linecap="round"/>
<path d="M359.995 162.814H224.711V170.964H359.995V162.814Z" fill="#215468"/>
<path d="M331.392 175.983H253.313V184.133H331.392V175.983Z" fill="#215468"/>
<path d="M360.012 326.044H224.693V333.535H360.012V326.044Z" fill="#215468"/>
<path d="M360.012 339.778H224.693V347.269H360.012V339.778Z" fill="#215468"/>
<path d="M360.012 353.512H224.693V361.003H360.012V353.512Z" fill="#215468"/>
<path d="M284.781 368.353H224.693V375.844H284.781V368.353Z" fill="#215468"/>
<path d="M374.039 451.727C376.18 451.512 378.3 451.096 380.439 450.878C382.246 450.693 384.06 450.59 385.859 450.324C387.134 450.135 388.455 449.879 389.676 449.37C390.448 449.048 389.952 447.024 389.841 446.459C389.575 445.114 389.586 443.642 389.637 442.272C387.582 442.234 385.524 442.195 383.474 442.108C383.093 442.092 382.701 442.077 382.342 442.217C381.864 442.402 381.506 442.832 381.136 443.213C379.524 444.869 377.415 445.77 375.433 446.829C373.451 447.888 371.453 449.25 370.45 451.414C370.371 451.585 370.301 451.784 370.315 451.967C371.558 451.931 372.8 451.851 374.039 451.727Z" fill="#333842"/>
<path d="M410.996 334.999C410.975 334.973 410.953 334.947 410.932 334.921C408.437 331.943 404.403 330.656 400.854 331.706C391.523 334.466 391.509 348.801 390.542 357.207C389.518 366.099 388.455 374.985 387.351 383.865C385.254 400.739 383.835 425.362 381.449 442.189C382.876 442.985 384.266 443.067 385.889 443.27C388.709 443.622 389.648 443.365 390.57 442.655C393.318 427.354 399.584 404.713 402.714 389.502C404.359 381.506 405.568 377.641 407.318 369.672C408.625 363.721 409.116 357.58 410.707 351.696C411.431 349.019 413.243 346.507 413.547 343.835C413.902 340.702 412.912 337.333 410.996 334.999Z" fill="#4F5D7A"/>
<path d="M399.987 401.429L396.43 400.633" stroke="#333842" stroke-width="0.75" stroke-miterlimit="10" stroke-linecap="round" stroke-linejoin="round"/>
<path d="M399.951 401.419L395.672 403.403" stroke="#333842" stroke-width="0.75" stroke-miterlimit="10" stroke-linecap="round" stroke-linejoin="round"/>
<path d="M410.797 450.893C410.845 450.908 410.898 450.918 410.951 450.928C411.362 450.934 411.773 450.948 412.183 450.966C412.288 450.967 412.392 450.972 412.493 450.981C412.984 451.006 413.474 451.036 413.964 451.075C417.786 451.377 421.695 452.062 425.466 452.143C426.784 452.171 428.17 452.133 429.365 451.667C432.45 450.463 428.69 448.884 427.467 448.186C426.182 447.453 425.068 446.763 423.696 446.149C421.956 445.371 420.284 444.411 418.708 443.285C416.508 443.823 414.243 444.042 411.991 443.933C410.836 443.877 409.118 450.353 410.797 450.893Z" fill="#333842"/>
<path d="M422.207 351.87C421.665 348.107 418.847 335.127 414.571 334.42C411.767 333.957 408.169 334.983 406.222 337.349C404.711 339.185 403.889 341.61 403.528 344.058C402.921 348.171 403.209 352.544 403.368 356.688C403.621 363.26 404.95 375.674 404.95 375.674C404.95 375.674 411.434 430.227 410.956 443.692C413.437 447.137 420.836 443.924 420.868 443.532C421.734 432.93 421.717 408.952 421.923 400.746C422.146 391.913 423.472 360.648 422.207 351.87Z" fill="#616E87"/>
<path d="M404.541 372.34C404.079 365.68 403.618 359.02 403.156 352.359" stroke="#333842" stroke-width="0.75" stroke-miterlimit="10"/>
<path d="M422.093 351.148C421.342 346.682 418.606 335.087 414.571 334.42C413.358 334.22 411.996 334.299 410.683 334.645C408.174 331.868 404.29 330.69 400.854 331.706C394.381 333.62 392.393 341.104 391.459 348.315C394.905 350.73 399.051 352.012 403.212 352.605V352.608C403.296 352.62 403.379 352.626 403.463 352.638C403.908 352.698 404.353 352.751 404.798 352.797C404.951 352.813 405.104 352.828 405.257 352.842C405.782 352.89 406.305 352.931 406.825 352.96C406.908 352.965 406.989 352.967 407.072 352.971C407.532 352.994 407.989 353.01 408.443 353.02C408.592 353.023 408.74 353.027 408.888 353.028C409.389 353.034 409.887 353.036 410.378 353.028V353.027C410.399 353.027 410.421 353.027 410.443 353.027C414.418 352.958 418.316 352.297 422.093 351.148Z" fill="#3C4966"/>
<path d="M412.261 283.285C412.303 283.663 412.329 284.038 412.348 284.397C412.425 285.836 412.502 287.274 412.579 288.713C412.656 290.156 412.9 291.703 412.811 293.144C412.683 295.211 412.24 297.193 410.313 298.203C409.112 298.795 407.691 298.744 406.476 298.22C405.538 297.815 404.349 297.178 403.978 296.128C403.735 295.441 403.736 294.689 403.74 293.956C403.752 291.554 403.699 289.151 403.796 286.75C403.859 285.206 403.745 283.538 404.41 282.11C405.321 280.152 407.661 278.23 409.835 279.085C411.545 279.759 412.069 281.559 412.261 283.285Z" fill="#F7B699"/>
<path d="M409.701 289.042C411.049 287.596 411.933 285.781 412.306 283.85C412.292 283.661 412.283 283.477 412.262 283.285C412.07 281.559 411.546 279.759 409.836 279.086C407.663 278.231 405.323 280.152 404.411 282.111C403.746 283.538 403.86 285.206 403.797 286.751C403.744 288.05 403.736 289.351 403.738 290.651C405.727 291.364 408.304 290.541 409.701 289.042Z" fill="#C46E58"/>
<path d="M421.953 345.161L419.028 330.317L420.03 296.969C419.763 296.972 420.174 294.016 419.27 293.441C417.871 292.551 413.386 291.921 412.818 291.773C412.824 292.402 412.818 292.984 412.674 293.521C412.507 294.146 411.42 295.325 410.638 295.909C408.269 297.676 405.281 297.51 404.006 293.842C403.836 293.354 403.756 292.47 403.735 291.903C402.5 292.063 400.508 292.587 399.087 293.067C397.36 293.651 396.155 295.214 396.027 297.033L394.489 330.232L390.563 342.744C400.046 350.354 410.985 350.285 421.953 345.161Z" fill="white"/>
<path d="M405.797 332.795C411.709 329.749 416.734 325.003 420.113 319.275" stroke="#333842" stroke-width="0.2994" stroke-miterlimit="10" stroke-linecap="round"/>
<path d="M403.341 345.472C409.725 341.051 414.906 334.91 418.19 327.873" stroke="#333842" stroke-width="0.2994" stroke-miterlimit="10" stroke-linecap="round"/>
<path d="M405.782 298.551C407.473 299.45 409.63 299.404 411.281 298.434" stroke="#333842" stroke-width="0.2994" stroke-miterlimit="10" stroke-linecap="round"/>
<path d="M393.089 297.695C388.329 303.229 383.999 315.318 383.548 322.527C383.436 324.316 383.767 326.19 384.817 327.643C385.867 329.096 387.725 330.032 389.481 329.672C391.338 329.29 392.65 327.643 393.59 325.997C395.115 323.328 397.336 316.58 397.937 313.669C398.611 310.406 400.081 307.334 400.666 304.003C401.03 301.93 402.975 292.204 398.231 293.48C397.427 293.696 396.737 294.208 396.096 294.74C395.003 295.643 394.002 296.634 393.089 297.695Z" fill="#6C7995"/>
<path d="M393.641 351.745C394.273 352.066 394.92 352.349 395.572 352.615C397.675 336.661 403.416 292.045 403.413 291.923C402.175 292.077 400.488 292.556 399.049 293.02C397.294 293.586 396.019 295.112 395.816 296.908L394.427 316.125L392.518 334.11L388.015 347.692C389.659 349.306 391.539 350.677 393.641 351.745Z" fill="#6C7995"/>
<path d="M403.414 291.922L397.992 296.504L401.047 297.175L397.694 304.553L400.258 316.691L403.414 291.922Z" fill="#ABC0D4"/>
<path d="M397.916 299.346C397.916 299.346 394.929 307.384 394.874 311.195C394.843 313.394 392.804 332.402 392.804 332.402" stroke="#333842" stroke-width="0.2994" stroke-miterlimit="10"/>
<path d="M396.115 324.883C396.115 328.402 393.262 331.255 389.743 331.255C386.224 331.255 383.371 328.402 383.371 324.883C383.371 321.364 386.224 318.511 389.743 318.511C393.262 318.511 396.115 321.364 396.115 324.883Z" fill="#6C7995"/>
<path d="M387.809 319.272C389.78 318.682 392.041 319.182 393.58 320.547C395.119 321.912 395.885 324.097 395.534 326.124" stroke="#333842" stroke-width="0.2994" stroke-miterlimit="10"/>
<path d="M391.096 317.769C392.455 318.482 393.551 319.682 394.139 321.1" stroke="#333842" stroke-width="0.2994" stroke-miterlimit="10"/>
<path d="M418.145 353.576C421.471 352.83 422.128 352.347 425.312 351.012L422.17 334.434L420.246 296.844C419.974 296.847 420.267 293.94 419.334 293.382C418.012 292.59 414.406 292.028 413.394 291.832V354.419C415.002 354.21 416.592 353.925 418.145 353.576Z" fill="#6C7995"/>
<path d="M424.022 298.275C426.413 301.797 427.837 306.424 429.3 310.404C430.748 314.345 433.226 319.502 433.131 323.767C433.096 325.36 432.464 327.001 431.187 327.953C429.856 328.944 428.035 329.047 426.421 328.663C421.636 327.524 420.31 323.436 418.813 319.385C416.991 314.455 415.728 308.935 415.426 303.689C415.302 301.533 414.473 291.387 419.221 293.311C420.026 293.637 420.676 294.249 421.275 294.874C422.293 295.937 423.208 297.076 424.022 298.275Z" fill="#6C7995"/>
<path d="M419.251 320.749C418.482 318.095 417.713 315.441 416.944 312.787" stroke="#333842" stroke-width="0.2994" stroke-miterlimit="10"/>
<path d="M417.857 316.231C417.316 315.371 416.775 314.511 416.234 313.651" stroke="#333842" stroke-width="0.2994" stroke-miterlimit="10"/>
<path d="M413.392 291.824L418.203 297.044L415.088 297.33L417.499 305.067L413.447 316.793L413.392 291.824Z" fill="#ABC0D4"/>
<path d="M428.826 329.797L421.465 332.03C418.381 332.966 415.122 331.224 414.187 328.14C413.251 325.056 414.993 321.797 418.077 320.862L425.438 318.629C428.522 317.693 431.781 319.435 432.716 322.519C433.652 325.603 431.911 328.862 428.826 329.797Z" fill="#6C7995"/>
<path d="M414.568 322.276C417.272 321.294 419.977 320.312 422.681 319.33C425.002 318.487 427.51 317.915 429.887 318.963" stroke="#333842" stroke-width="0.2994" stroke-miterlimit="10" stroke-linecap="round"/>
<path d="M415.616 313.65H395.105V341.58H415.616V313.65Z" fill="#215468"/>
<path d="M393.109 331.558C395.93 331.558 398.218 329.27 398.218 326.449C398.218 323.627 395.93 321.34 393.109 321.34C390.287 321.34 388 323.627 388 326.449C388 329.27 390.287 331.558 393.109 331.558Z" fill="#F7B699"/>
<path d="M411.886 328.134C411.751 330.953 413.926 333.347 416.745 333.483C419.564 333.618 421.958 331.443 422.094 328.624C422.229 325.805 420.054 323.411 417.235 323.275C414.416 323.14 412.022 325.316 411.886 328.134Z" fill="#F7B699"/>
<path d="M398.588 278.086C398.596 278.471 398.695 278.854 398.882 279.19C399.613 280.505 401.379 280.06 401.855 278.774C402.054 278.237 402.032 277.618 401.858 277.077C401.57 276.185 400.816 275.457 399.858 275.953C399.3 276.242 398.867 276.764 398.686 277.365C398.616 277.599 398.584 277.843 398.588 278.086Z" fill="#C46E58"/>
<path d="M403.367 269.763C404.698 269.052 407.602 268.114 410.346 268.506C413.351 268.811 414.736 270.287 415.049 272.121C415.587 275.27 415.463 279.055 414.072 281.867C413.839 282.338 413.355 283.538 413.076 283.983C410.845 287.532 406.711 287.847 404.637 287.346C402.158 286.747 400.813 284.679 400.393 281.784C400.318 281.264 400.299 279.568 400.291 279.043C400.241 275.816 401.966 270.511 403.367 269.763Z" fill="#F7B699"/>
<path d="M402.775 266.642C404.359 265.639 406.446 265.194 408.397 264.935C413.376 264.276 417.069 267.656 417.11 272.457C417.124 274.099 416.306 277.807 414.442 278.545C412.175 279.442 412.398 276.833 412.689 275.211C412.798 274.607 412.994 274.016 413.006 273.402C413.018 272.788 412.802 272.12 412.263 271.767C411.885 271.52 411.411 271.463 410.957 271.419C409.4 271.267 400.618 271.986 400.73 269.045C400.738 268.831 400.839 268.632 400.951 268.448C401.406 267.699 402.036 267.109 402.775 266.642Z" fill="#333842"/>
<path d="M403.861 271.893C406.02 272.355 408.527 272.169 410.435 271.009" stroke="#333842" stroke-width="0.75" stroke-miterlimit="10" stroke-linecap="round" stroke-linejoin="round"/>
<path d="M414.825 267.159C414.442 265.774 413.162 264.682 411.734 264.522" stroke="#333842" stroke-width="0.75" stroke-miterlimit="10" stroke-linecap="round" stroke-linejoin="round"/>
<path d="M416.113 267.15C415.775 266.918 415.264 266.988 415.001 267.304" stroke="#333842" stroke-width="0.75" stroke-miterlimit="10" stroke-linecap="round" stroke-linejoin="round"/>
<path d="M400.125 277.489C400.146 277.602 400.172 277.712 400.202 277.818C400.271 277.796 400.412 277.744 400.449 277.676C401.44 275.856 400.874 273.153 402.397 271.646C402.916 271.133 403.713 270.757 403.789 270.031C403.822 269.715 403.7 269.405 403.568 269.116C403.498 268.962 403.419 268.803 403.283 268.701C403.1 268.564 402.852 268.559 402.626 268.585C399.642 268.936 399.839 272.361 399.973 274.548C400.03 275.462 399.952 276.577 400.125 277.489Z" fill="#333842"/>
<path d="M413.35 280.201C413.962 281.083 415.124 281.385 415.921 280.553C416.285 280.173 416.454 279.647 416.544 279.129C416.624 278.668 416.65 278.186 416.516 277.737C416.334 277.125 415.831 276.713 415.24 276.513C413.242 275.837 412.444 278.894 413.35 280.201Z" fill="#F7B699"/>
<path d="M402.178 274.586C402.679 274.446 403.213 274.426 403.722 274.53" stroke="#333842" stroke-width="0.4761" stroke-miterlimit="10" stroke-linecap="round"/>
<path d="M404.374 282.628C405.16 283.084 406.138 283.195 407.006 282.927" stroke="#333842" stroke-width="0.4761" stroke-miterlimit="10" stroke-linecap="round"/>
<path d="M408.537 274.428C409.27 274.343 410.029 274.485 410.681 274.831" stroke="#333842" stroke-width="0.4761" stroke-miterlimit="10" stroke-linecap="round"/>
<path d="M409.238 277.323C409.238 277.686 408.944 277.979 408.581 277.979C408.218 277.979 407.925 277.685 407.925 277.323C407.925 276.96 408.219 276.666 408.581 276.666C408.944 276.666 409.238 276.96 409.238 277.323Z" fill="#333842"/>
<path d="M403.46 277.016C403.46 277.379 403.166 277.672 402.803 277.672C402.44 277.672 402.146 277.378 402.146 277.016C402.146 276.653 402.44 276.359 402.803 276.359C403.166 276.36 403.46 276.654 403.46 277.016Z" fill="#333842"/>
<path d="M405.083 280.89C404.478 280.794 403.617 280.36 403.943 279.635C404.029 279.443 404.172 279.283 404.299 279.115C404.693 278.594 404.95 277.971 405.039 277.324" stroke="#333842" stroke-width="0.4761" stroke-miterlimit="10" stroke-linecap="round"/>
<path d="M99.2449 325.371H78.7339V353.301H99.2449V325.371Z" fill="#FFB861"/>
<path d="M76.7369 343.279C79.5586 343.279 81.8459 340.991 81.8459 338.17C81.8459 335.348 79.5586 333.061 76.7369 333.061C73.9153 333.061 71.6279 335.348 71.6279 338.17C71.6279 340.991 73.9153 343.279 76.7369 343.279Z" fill="#F7B699"/>
<path d="M95.515 339.856C95.38 342.675 97.555 345.069 100.374 345.205C103.193 345.34 105.587 343.165 105.723 340.346C105.858 337.527 103.683 335.133 100.864 334.997C98.045 334.862 95.65 337.037 95.515 339.856Z" fill="#F7B699"/>
<path d="M58.5098 467.344C58.1808 465.715 57.7258 464.134 57.1028 462.69C56.1538 462.032 55.2528 461.284 54.4828 460.305C54.1268 459.853 53.7858 459.341 53.3168 459.129C52.9638 458.969 52.5728 458.996 52.1928 459.025C50.1478 459.181 48.0968 459.28 46.0478 459.377C46.0498 461.034 46.0088 462.816 45.6968 464.451C45.5858 465.034 45.1648 466.892 45.5018 467.669L58.5098 467.344Z" fill="#333842"/>
<path d="M72.1759 351.568C72.1539 351.542 72.1319 351.517 72.1099 351.492C69.5419 348.577 65.4769 347.391 61.9549 348.529C52.6949 351.52 53.0389 365.852 52.2809 374.279C51.4789 383.194 50.6369 392.104 49.7539 401.009C48.0769 417.93 47.2719 442.581 45.3059 459.462C46.7519 460.222 48.1439 460.27 49.7719 460.432C52.5999 460.714 53.5319 460.433 54.4359 459.701C56.8019 444.337 62.5029 421.546 65.2529 406.262C66.6989 398.227 67.8099 394.333 69.3619 386.323C70.5209 380.341 70.8589 374.19 72.3019 368.268C72.9589 365.574 74.7079 363.017 74.9449 360.339C75.2229 357.197 74.1499 353.854 72.1759 351.568Z" fill="#4F5D7A"/>
<path d="M62.824 418.252L59.249 417.545" stroke="#333842" stroke-width="0.75" stroke-miterlimit="10" stroke-linecap="round" stroke-linejoin="round"/>
<path d="M62.7868 418.243L58.5598 420.332" stroke="#333842" stroke-width="0.75" stroke-miterlimit="10" stroke-linecap="round" stroke-linejoin="round"/>
<path d="M74.8619 467.43C74.9109 467.444 74.9639 467.452 75.0169 467.461C75.4279 467.457 75.8389 467.46 76.2499 467.468C76.3549 467.467 76.4589 467.469 76.5599 467.475C77.0509 467.488 77.5419 467.505 78.0329 467.532C81.8609 467.739 85.7859 468.327 89.5579 468.313C90.8759 468.308 92.2609 468.236 93.4439 467.74C96.4979 466.459 92.6999 464.975 91.4599 464.307C90.1569 463.606 89.0259 462.944 87.6389 462.364C85.8809 461.629 84.1839 460.711 82.5809 459.625C80.3949 460.218 78.1359 460.493 75.8819 460.44C74.7269 460.415 73.1709 466.932 74.8619 467.43Z" fill="#333842"/>
<path d="M83.8029 368.154C83.1669 364.405 80.0269 351.499 75.7349 350.9C72.9209 350.507 69.3489 351.623 67.4619 354.036C65.9969 355.909 65.2359 358.353 64.9359 360.81C64.4319 364.937 64.8279 369.302 65.0909 373.44C65.5079 380.004 67.1449 392.381 67.1449 392.381C67.1449 392.381 74.9849 446.756 74.8429 460.229C77.4089 463.611 84.7259 460.215 84.7479 459.822C85.3499 449.201 84.7359 425.232 84.7379 417.023C84.7389 408.186 85.2859 376.898 83.8029 368.154Z" fill="#6C7995"/>
<path d="M66.6518 389.06C66.0248 382.413 65.3978 375.767 64.7698 369.12" stroke="#333842" stroke-width="0.75" stroke-miterlimit="10"/>
<path d="M58.0889 373.518C61.0289 374.32 64.1259 374.929 67.1559 375.247C73.0779 375.868 78.8059 374.923 84.3099 373.008C84.1749 371.036 84.0089 369.372 83.8029 368.155C83.1669 364.406 80.0269 351.5 75.7349 350.901C74.5169 350.731 73.1579 350.845 71.8539 351.223C69.2769 348.509 65.3639 347.428 61.9539 348.53C53.7579 351.178 53.0849 362.707 52.5129 371.165C54.1899 372.272 56.1319 372.985 58.0889 373.518Z" fill="#3C4966"/>
<path d="M74.3069 299.166C74.3489 299.544 74.3749 299.919 74.3939 300.278C74.4709 301.716 74.5479 303.155 74.6249 304.594C74.7019 306.037 74.9459 307.584 74.8569 309.025C74.7289 311.092 74.2859 313.074 72.3589 314.084C71.1579 314.676 69.7369 314.625 68.5219 314.101C67.5839 313.696 66.3949 313.059 66.0239 312.01C65.7809 311.322 65.7819 310.571 65.7859 309.838C65.7979 307.436 65.7449 305.033 65.8419 302.632C65.9049 301.088 65.7909 299.42 66.4559 297.992C67.3669 296.034 69.7069 294.112 71.8809 294.967C73.5909 295.64 74.1149 297.44 74.3069 299.166Z" fill="#F7B699"/>
<path d="M79.542 296.693L79.56 296.666C79.496 296.581 79.438 296.508 79.387 296.446C79.022 295.837 78.748 295.137 78.436 294.506C78.454 294.543 78.153 294.91 78.122 294.983C78.017 295.231 77.992 295.539 77.954 295.804C77.871 296.38 77.846 296.963 77.88 297.544C77.893 297.763 77.919 297.995 78.051 298.17C78.359 298.579 79.434 298.203 79.855 298.143C79.994 298.123 80.159 298.083 80.207 297.951C80.351 297.551 79.781 297.01 79.542 296.693Z" fill="#F7B699"/>
<path d="M65.3398 288.355C66.4928 287.522 69.1358 286.294 71.8988 286.363C74.8988 286.319 76.5608 287.583 77.2488 289.31C78.3028 291.956 78.7308 294.822 78.7398 297.66C78.7438 299.083 78.6428 300.506 78.4498 301.916C78.2708 303.223 77.6828 304.148 76.2808 304.387C74.9818 304.609 73.6648 304.709 72.3488 304.728C71.1758 304.745 69.7668 304.861 68.6418 304.518C66.7118 303.929 65.5958 302.023 64.9378 300.243C64.7558 299.752 64.3838 298.123 64.2668 297.619C63.5448 294.525 64.1258 289.231 65.3398 288.355Z" fill="#F7B699"/>
<path d="M76.1849 284.5C75.6409 283.169 74.2429 282.236 72.8049 282.245" stroke="#333842" stroke-width="0.75" stroke-miterlimit="10" stroke-linecap="round" stroke-linejoin="round"/>
<path d="M77.4639 284.339C77.0999 284.148 76.6019 284.278 76.3779 284.623" stroke="#333842" stroke-width="0.75" stroke-miterlimit="10" stroke-linecap="round" stroke-linejoin="round"/>
<path d="M72.0588 301.83C72.1798 301.802 72.2818 301.754 72.3438 301.675C72.5318 301.432 72.4848 300.578 72.5258 300.263C72.6428 299.354 72.7598 298.444 72.8778 297.535C72.9518 296.963 72.8898 296.477 73.3608 296.118C73.7858 295.794 74.3358 295.668 74.8618 295.666C76.7368 295.66 77.2178 295.88 76.9438 293.854C76.8138 292.892 76.5828 291.907 76.7678 290.934C76.8858 290.312 77.0358 290.194 77.4018 289.773C77.9868 289.098 78.6268 288.872 78.7828 288.113C77.6358 284.186 73.9168 281.93 69.5398 283.046C67.6328 283.532 65.6128 284.221 64.1578 285.403C63.4788 285.955 62.9228 286.614 62.5598 287.41C62.4698 287.606 62.3928 287.815 62.4098 288.029C62.4238 288.2 62.4678 288.353 62.5358 288.493C61.3838 290.258 62.0918 292.612 62.4388 294.518C62.6818 295.853 63.0928 297.155 63.6228 298.403C63.8878 299.027 64.1838 299.639 64.5058 300.236C64.6358 300.477 65.2698 301.931 65.4608 301.94C67.3788 302.027 69.3018 302.006 71.2178 301.878C71.4438 301.863 71.7968 301.891 72.0588 301.83Z" fill="#333842"/>
<path d="M73.6788 297.558C74.3898 298.362 75.5798 298.525 76.2738 297.605C76.5898 297.185 76.6958 296.643 76.7248 296.118C76.7508 295.65 76.7188 295.169 76.5338 294.739C76.2808 294.153 75.7328 293.803 75.1228 293.674C73.0578 293.237 72.6248 296.367 73.6788 297.558Z" fill="#F7B699"/>
<path d="M74.5459 294.981C74.5879 294.709 74.9499 294.588 75.2029 294.698C75.4549 294.808 75.6079 295.066 75.7179 295.318C75.9009 295.738 76.0119 296.19 76.0429 296.648C75.8099 296.566 75.5239 296.705 75.4449 296.938C75.3649 297.171 75.5059 297.456 75.7399 297.534" stroke="#333842" stroke-width="0.4761" stroke-miterlimit="10" stroke-linecap="round"/>
<path d="M77.3669 292.233C77.8479 292.035 78.3759 291.953 78.8939 291.996" stroke="#333842" stroke-width="0.4761" stroke-miterlimit="10" stroke-linecap="round"/>
<path d="M78.9259 294.496C78.9689 294.856 78.7109 295.183 78.3509 295.225C77.9909 295.268 77.6649 295.01 77.6219 294.65C77.5789 294.29 77.8369 293.962 78.1969 293.92C78.5569 293.878 78.8829 294.137 78.9259 294.496Z" fill="#333842"/>
<path d="M77.4019 300.099C77.6389 300.094 78.1669 300.032 78.3919 300.002" stroke="#333842" stroke-width="0.4761" stroke-miterlimit="10" stroke-linecap="round"/>
<path d="M59.3339 347.228H53.0359C49.4629 347.228 46.5669 344.332 46.5669 340.759C46.5669 337.186 49.4629 334.29 53.0359 334.29H59.3339C62.9069 334.29 65.8029 337.186 65.8029 340.759C65.8029 344.331 62.9059 347.228 59.3339 347.228Z" fill="#3D434F"/>
<path d="M55.8078 313.576C51.0478 319.11 46.7178 331.199 46.2668 338.408C46.1548 340.197 46.4858 342.071 47.5358 343.524C48.5858 344.977 50.4438 345.913 52.1998 345.553C54.0568 345.171 55.3688 343.524 56.3098 341.878C57.8348 339.209 60.0558 332.461 60.6568 329.55C61.3308 326.287 62.8008 323.215 63.3858 319.884C63.7498 317.811 65.6948 308.085 60.9508 309.361C60.1468 309.577 59.4578 310.089 58.8158 310.621C57.7208 311.524 56.7198 312.515 55.8078 313.576Z" fill="#4F5D7A"/>
<path d="M63.7429 308.611L65.5089 305.815L75.0019 305.521L77.2829 308.758L63.7429 308.611Z" fill="white"/>
<path d="M84.2148 350.315L82.2908 312.725C82.0188 312.728 82.3118 309.821 81.3788 309.263C80.0568 308.471 76.4508 307.909 75.4388 307.713L65.4588 307.803C64.2208 307.957 62.5338 308.436 61.0948 308.9C59.3398 309.466 58.0648 310.992 57.8618 312.788L56.4728 332.005L54.5638 349.99L50.0608 363.572C51.7048 365.185 53.5848 366.556 55.6868 367.624C56.3188 367.945 56.9658 368.228 57.6178 368.494C57.6178 368.494 66.8418 372.205 75.4388 370.299C77.0468 370.089 78.6378 369.804 80.1898 369.456C83.5158 368.71 84.1728 368.226 87.3568 366.892L84.2148 350.315Z" fill="#6C7995"/>
<path d="M96.0539 347.228H89.7549C86.1829 347.228 83.2859 344.332 83.2859 340.759C83.2859 337.186 86.1819 334.29 89.7549 334.29H96.0539C99.6259 334.29 102.523 337.186 102.523 340.759C102.523 344.331 99.6259 347.228 96.0539 347.228Z" fill="#6C7995"/>
<path d="M86.0679 314.156C88.4599 317.678 89.8839 322.305 91.3459 326.285C92.7939 330.226 95.2719 335.383 95.1769 339.648C95.1419 341.241 94.5099 342.882 93.2319 343.834C91.9009 344.825 90.0799 344.928 88.4659 344.544C83.6809 343.405 82.3549 339.317 80.8579 335.266C79.0359 330.336 77.7729 324.816 77.4709 319.57C77.3469 317.414 76.5179 307.268 81.2659 309.192C82.0709 309.518 82.7209 310.13 83.3199 310.755C84.3389 311.818 85.2539 312.957 86.0679 314.156Z" fill="#6C7995"/>
<path d="M83.889 341.564C80.21 334.047 79.759 331.321 78.99 328.667" stroke="#333842" stroke-width="0.2994" stroke-miterlimit="10"/>
<path d="M79.9018 332.112C79.3608 331.252 78.8198 330.392 78.2788 329.531" stroke="#333842" stroke-width="0.2994" stroke-miterlimit="10"/>
<path d="M270.967 262.062H259.162V311.774H270.967V262.062Z" fill="#033141"/>
<path d="M321.693 237.735H309.888V311.775H321.693V237.735Z" fill="#CAE7EF"/>
<path d="M347.057 204.161H335.252V311.775H347.057V204.161Z" fill="#4E94A6" fill-opacity="0.7"/>
<path d="M231.996 258.087C257.408 251.444 303.841 226.957 324.866 203.516" stroke="#333842" stroke-width="0.75" stroke-miterlimit="10" stroke-linecap="round"/>
<path d="M326.566 201.557L325.22 205.271L324.694 203.625L323.005 203.265L326.566 201.557Z" fill="#333842"/>
<path d="M296.33 251.227H284.525V311.774H296.33V251.227Z" fill="#FEFEFF"/>
<path d="M245.603 267.814H233.798V311.774H245.603V267.814Z" fill="#4E94A6"/>
<path d="M357.661 311.784H224V198.798" stroke="#333842" stroke-width="0.75" stroke-miterlimit="10" stroke-linecap="round"/>
<path d="M359.302 159H224.018V167.15H359.302V159Z" fill="#FEFEFF"/>
<path d="M330.699 172.169H252.62V180.319H330.699V172.169Z" fill="#FEFEFF"/>
<path d="M359.319 322.23H224V329.721H359.319V322.23Z" fill="#FEFEFF"/>
<path d="M359.319 335.964H224V343.455H359.319V335.964Z" fill="#FEFEFF"/>
<path d="M359.319 349.698H224V357.189H359.319V349.698Z" fill="#FEFEFF"/>
<path d="M284.088 364.539H224V372.03H284.088V364.539Z" fill="#FEFEFF"/>
<path d="M342.961 360.993C334.231 362.718 333.993 372.75 334.752 379.931C336.354 395.097 340.762 431.003 340.762 431.003L349.155 475.052L355.022 475.379L351.907 430.807C351.907 430.807 353.395 398.335 354.887 387.023C357.306 371.182 354.562 358.7 342.961 360.993Z" fill="#4F5D7A"/>
<path d="M355.384 473.894C353.049 474.158 351.383 474.143 349.053 473.838C349.05 473.838 349.047 473.837 349.044 473.837C348.539 473.771 348.041 474.008 347.764 474.435C347.595 474.695 347.433 474.938 347.271 475.142C346.404 476.233 345.258 476.853 343.919 477.161C343.872 477.179 343.831 477.205 343.782 477.22C342.19 477.419 340.738 478.234 340.557 479.756H355.229C355.742 477.775 355.986 475.693 355.384 473.894Z" fill="#01354B"/>
<path d="M355.497 479.526H340.552V481.454H355.497V479.526Z" fill="#01354B"/>
<path d="M344.5 361.252C335.616 360.742 332.879 370.396 331.82 377.539C329.583 392.625 325.924 428.643 325.924 428.643L329.16 475.104L335.281 474.863L338.7 428.889C338.7 428.889 345.274 400.017 349.546 389.436C355.845 374.701 356.305 361.93 344.5 361.252Z" fill="#616E87"/>
<path d="M335.798 473.894C333.463 474.158 331.797 474.143 329.467 473.838C329.161 473.798 328.847 473.753 328.546 473.823C328.274 473.886 328.033 474.039 327.794 474.184C325.551 475.551 322.355 476.504 319.771 476.981C318.284 477.255 316.683 477.409 315.503 478.354C315.079 478.694 314.73 479.256 314.78 479.756H335.643C336.156 477.775 336.4 475.693 335.798 473.894Z" fill="#01354B"/>
<path d="M335.599 479.526H314.29V481.454H335.599V479.526Z" fill="#333842"/>
<path d="M345.609 312.754C345.659 311.748 345.592 310.746 345.397 309.771C346.883 310.272 348.435 310.311 349.953 309.902C350.699 309.701 351.415 309.403 352.114 309.076C352.363 308.959 352.811 308.594 353.225 308.365C352.317 311.716 352.389 315.211 354.462 318.09C352.895 319.447 350.854 320.144 348.815 320.492C347.063 320.791 342.873 321.068 343.88 318.12C344.21 317.155 344.917 316.414 345.197 315.414C345.437 314.551 345.565 313.646 345.609 312.754Z" fill="#F7B699"/>
<path d="M349.666 309.969C348.24 310.299 346.79 310.241 345.396 309.771C345.591 310.746 345.658 311.748 345.608 312.754C345.564 313.647 345.436 314.551 345.195 315.413C345.17 315.503 345.138 315.589 345.106 315.675C345.279 315.654 345.452 315.624 345.624 315.591C347.607 314.256 348.966 312.225 349.666 309.969Z" fill="#C46E58"/>
<path d="M341.376 306.459C341.497 306.486 341.617 306.504 341.733 306.509C342.1 306.524 342.058 306.063 342.037 305.797C341.982 305.093 341.981 304.357 341.864 303.662C341.61 303.927 341.506 304.248 341.296 304.541C341.022 304.924 340.744 305.304 340.468 305.685C340.43 305.738 340.391 305.793 340.382 305.857C340.361 306.009 340.512 306.125 340.649 306.193C340.867 306.302 341.122 306.401 341.376 306.459Z" fill="#F7B699"/>
<path d="M354.573 306.179C355.195 304.723 355.52 303.144 355.474 301.566C355.423 299.857 354.864 298.142 353.771 296.827C352.178 294.908 349.463 293.999 347.035 294.571C346.412 294.718 345.813 294.962 345.26 295.283C343.91 296.068 342.341 297.648 342.119 299.278C342.069 299.644 342.144 299.994 342.074 300.364C341.97 300.913 341.854 301.459 341.769 302.011C341.6 303.112 341.503 304.229 341.555 305.343C341.616 306.646 341.776 307.966 342.288 309.166C342.801 310.368 343.614 311.179 344.605 311.694C346.463 312.66 348.708 312.358 350.451 311.196C352.268 309.987 353.708 308.203 354.573 306.179Z" fill="#F7B699"/>
<path d="M342.082 307.873C342.337 307.986 342.593 308.1 342.848 308.213" stroke="#333842" stroke-width="0.4827" stroke-miterlimit="10" stroke-linecap="round"/>
<path d="M319.573 329.916C319.695 329.264 320.186 328.694 320.812 328.475C321.459 328.25 322.554 328.248 322.77 327.597C322.878 327.271 322.985 327.15 322.724 326.928C322.463 326.706 322.112 326.615 321.77 326.594C320.719 326.529 319.654 327.121 319.154 328.047C319 328.332 318.778 328.705 318.467 328.614C318.32 328.571 318.224 328.43 318.164 328.289C317.798 327.432 318.304 326.473 318.794 325.68C319.179 325.056 319.591 324.407 320.229 324.045C320.944 323.639 321.817 323.666 322.638 323.722C324.295 323.836 326.031 323.962 327.431 324.948C327.798 325.206 328.133 325.507 328.499 325.767C329.438 326.433 330.548 326.807 331.641 327.171C331.3 328.355 330.959 329.538 330.618 330.722C330.6 330.783 330.579 330.85 330.524 330.883C330.467 330.918 330.393 330.903 330.328 330.887C328.317 330.396 325.996 329.985 323.98 329.669C322.534 329.485 321.002 329.669 319.573 329.916Z" fill="#F7B699"/>
<path d="M343.958 330.32C342.907 329.82 341.782 329.381 340.622 328.984C338.63 328.301 336.534 327.742 334.532 327.213C333.773 327.013 330.869 326.284 330.089 326.159C327.911 327.932 327.296 329.118 327.296 331.739C329.593 333.275 335.172 336.419 337.705 337.627C339.123 338.303 340.531 339.012 342.088 339.478C343.645 339.944 345.391 340.154 346.997 339.8C347.837 339.615 348.664 339.242 349.032 338.637C349.261 338.26 349.291 337.831 349.277 337.416C349.182 334.578 347.116 331.821 343.958 330.32Z" fill="#CAE7EF"/>
<path d="M306.109 342.302C305.246 340.77 305.046 338.855 305.68 337.216C305.915 336.609 306.31 336.001 306.93 335.804C307.675 335.567 308.49 336.019 308.961 336.642C309.432 337.266 309.654 338.036 309.955 338.757C310.28 339.537 310.706 340.274 311.219 340.945C311.751 341.642 312.4 342.315 312.554 343.178C312.676 343.863 312.441 344.602 311.945 345.091C310.102 346.906 307.002 343.887 306.109 342.302Z" fill="#F7B699"/>
<path d="M326.875 341.185L315.736 346.585L301 333.209L312.14 327.809L326.875 341.185Z" fill="#F4AE2D"/>
<path d="M325.055 340.628L315.488 345.265L302.756 333.708L312.323 329.07L325.055 340.628Z" fill="white"/>
<path d="M313.777 331.516L305.826 335.369L305.051 334.665L313.001 330.811L313.777 331.516Z" fill="#C8DDF7"/>
<path d="M317.838 335.202L309.888 339.056L309.112 338.352L317.063 334.498L317.838 335.202Z" fill="#C8DDF7"/>
<path d="M319.184 336.424L311.233 340.277L310.458 339.573L318.408 335.72L319.184 336.424Z" fill="#C8DDF7"/>
<path d="M320.53 337.645L312.579 341.499L311.803 340.795L319.754 336.941L320.53 337.645Z" fill="#C8DDF7"/>
<path d="M321.875 338.867L313.925 342.72L313.149 342.016L321.1 338.163L321.875 338.867Z" fill="#C8DDF7"/>
<path d="M323.221 340.088L315.27 343.942L314.495 343.238L322.445 339.384L323.221 340.088Z" fill="#C8DDF7"/>
<path d="M311.848 330.159L305.164 333.398L302.321 330.817L309.004 327.577L311.848 330.159Z" fill="#333842"/>
<path d="M307.263 341.079C307.151 341.209 307.049 341.347 306.959 341.492C306.117 342.845 307.747 344.102 308.784 344.832C311.14 346.49 314.017 347.283 316.749 348.079C318.291 348.528 322.757 347.428 321.524 345.005C320.682 343.351 318.191 342.398 316.552 341.957C314.851 341.638 313.398 340.93 312.76 339.206C312.477 338.44 312.362 337.622 312.113 336.844C312.052 336.653 311.977 336.456 311.829 336.321C311.68 336.186 311.436 336.136 311.278 336.26C311.189 336.33 311.143 336.441 311.104 336.548C310.627 337.878 311.483 338.863 309.845 339.643C309.301 339.902 308.704 340.045 308.177 340.337C307.831 340.527 307.52 340.781 307.263 341.079Z" fill="#F7B699"/>
<path d="M356.59 373.789C356.59 373.789 356.969 373.635 357.258 373.495C358.849 372.677 359.386 370.606 359.544 368.78C359.906 364.588 358.574 360.642 358.736 356.21C358.907 351.52 360.002 346.698 360.663 341.651C361.239 337.25 361.463 332.492 360.475 327.957C359.737 324.57 358.724 320.806 356.656 318.161C355.656 316.882 353.843 316.374 352.446 316.036C350.701 315.613 348.876 315.653 347.132 316.179C344.873 316.86 342.787 318.342 341.168 320.373C339.937 321.918 339.326 324.54 338.697 326.505C337.279 330.936 336.298 335.512 335.775 339.932C335.227 344.569 335.894 343.084 335.657 347.643C335.42 352.207 336.735 355.836 334.391 359.636C333.158 361.636 331.588 363.377 330.806 365.55C330.039 367.682 330.286 370.475 332.091 371.857C331.988 372.668 331.864 373.474 331.79 374.277C335.419 376.042 340.224 376.424 344.103 376.775C347.648 377.096 351.218 377.109 354.777 376.823C355.808 376.823 356.603 376.608 356.603 376.608L356.59 373.789Z" fill="#CAE7EF"/>
<path d="M356.383 373.851C351.275 374.434 346.109 374.203 341.076 373.167" stroke="#333842" stroke-width="0.2918" stroke-miterlimit="10" stroke-linecap="round"/>
<path d="M345.885 330.903C345.634 330.417 345.327 329.939 344.871 329.637C344.385 329.315 343.777 329.226 343.195 329.252C340.647 329.366 338.63 331.446 337.269 333.603C335.908 335.76 334.859 338.197 332.918 339.853C329.531 342.743 318.124 341.918 314.336 341.075C312.36 341.251 310.101 343.863 311.266 346.581C316.345 348.812 331.66 356.956 337.206 354.316C339.139 353.396 340.578 351.796 341.765 349.983C342.451 348.935 343.053 347.816 343.617 346.715C344.881 344.25 346.094 341.722 346.674 339.013C347.254 336.304 347.155 333.366 345.885 330.903Z" fill="#CAE7EF"/>
<path d="M348.139 321.731C346.447 319.931 343.545 319.737 341.503 321.019C340.309 321.768 339.702 323.316 339.085 324.543C338.33 326.046 337.685 327.605 337.16 329.203C336.617 330.856 336.2 332.548 335.691 334.212C334.856 336.939 333.768 339.592 333.143 342.374C332.518 345.156 332.38 348.143 333.427 350.796C334.922 354.584 339.907 352.572 342.129 350.464C344.042 348.649 344.959 346.05 345.811 343.554C346.667 341.047 347.523 338.54 348.379 336.033C349.101 333.917 349.929 331.117 350.079 328.407C350.217 325.902 349.776 323.473 348.139 321.731Z" fill="#CAE7EF"/>
<path d="M334.544 338.655C335.478 333.053 338.153 326.484 340.809 321.464" stroke="#333842" stroke-width="0.2918" stroke-miterlimit="10"/>
<path d="M349.863 332.712C348.769 335.656 347.675 338.599 346.581 341.543C345.795 343.658 345.049 346.36 343.559 348.104C342.075 349.841 340.692 351.74 338.873 353.168C337.103 354.557 335.599 354.973 333.36 354.754" stroke="#333842" stroke-width="0.2918" stroke-miterlimit="10" stroke-linecap="round"/>
<path d="M351.053 333.494C350.069 334.056 349.245 334.895 348.703 335.89" stroke="#333842" stroke-width="0.2918" stroke-miterlimit="10"/>
<path d="M316.759 332.207L315.446 332.92L316.112 331.583L324.031 323.382C324.203 323.204 324.488 323.198 324.667 323.371C324.846 323.544 324.85 323.828 324.678 324.007L316.759 332.207Z" fill="#333842"/>
<path d="M342.398 304.489C341.967 304.141 341.563 303.766 341.217 303.331C339.02 300.572 340.443 297.519 342.202 295.064C344.162 292.329 347.896 290.831 351.188 291.015C353.067 291.12 354.852 291.727 356.185 293.085C356.802 293.714 357.258 294.383 357.452 295.258C357.51 295.519 357.696 297.571 357.272 297.613C360.517 297.292 360.353 304.351 360.323 306.284C360.244 311.22 360.166 316.157 360.087 321.093C360.059 322.871 359.982 324.791 358.88 326.187C357.792 327.565 355.851 328.108 354.129 327.763C352.407 327.418 350.913 326.288 349.853 324.889C348.952 323.7 347.864 321.924 347.836 320.388C347.804 318.665 348.038 316.886 348.033 315.145C348.024 312.129 347.434 308.897 345.3 306.765C344.43 305.898 343.349 305.258 342.398 304.489Z" fill="#333842"/>
</svg>
