<?xml version="1.0" encoding="utf-8"?>
<svg version="1.1" xmlns="http://www.w3.org/2000/svg" x="0px" y="0px"
	 viewBox="0 0 500 500" style="enable-background:new 0 0 500 500;" xml:space="preserve">
<g id="OBJECTS">
		<ellipse transform="matrix(0.7071 -0.7071 0.7071 0.7071 -105.3631 250.5655)" style="opacity:0.4;fill:#09136E;" cx="249.778" cy="252.467" rx="182.857" ry="182.857"/>
	<g>
		<g>
			<path style="fill:#B19CFE;" d="M51.169,245.987h65.507c1.387,0,2.511-1.124,2.511-2.511v-19.353c0-1.387-1.124-2.511-2.511-2.511
				H51.169c-1.387,0-2.511,1.124-2.511,2.511v19.353C48.658,244.863,49.782,245.987,51.169,245.987z"/>
			<g>
				<circle style="fill:#D42190;" cx="56.386" cy="233.799" r="2.573"/>
				<path style="fill:#FFC655;" d="M65.315,233.799c0,1.421,1.152,2.573,2.573,2.573c1.421,0,2.573-1.152,2.573-2.573
					c0-1.421-1.152-2.573-2.573-2.573C66.467,231.226,65.315,232.378,65.315,233.799z"/>
				<circle style="fill:#542FD0;" cx="79.39" cy="233.799" r="2.573"/>
			</g>
		</g>
		<g>
			<path style="fill:#B19CFE;" d="M51.169,273.625h65.507c1.387,0,2.511-1.124,2.511-2.511v-19.353c0-1.387-1.124-2.511-2.511-2.511
				H51.169c-1.387,0-2.511,1.124-2.511,2.511v19.353C48.658,272.501,49.782,273.625,51.169,273.625z"/>
			<g>
				<path style="fill:#D42190;" d="M53.812,261.438c0,1.421,1.152,2.573,2.573,2.573s2.573-1.152,2.573-2.573
					c0-1.421-1.152-2.573-2.573-2.573S53.812,260.017,53.812,261.438z"/>
				<path style="fill:#FFC655;" d="M65.315,261.438c0,1.421,1.152,2.573,2.573,2.573c1.421,0,2.573-1.152,2.573-2.573
					c0-1.421-1.152-2.573-2.573-2.573C66.467,258.865,65.315,260.017,65.315,261.438z"/>
				<path style="fill:#542FD0;" d="M76.817,261.438c0,1.421,1.152,2.573,2.573,2.573s2.573-1.152,2.573-2.573
					c0-1.421-1.152-2.573-2.573-2.573S76.817,260.017,76.817,261.438z"/>
			</g>
		</g>
		<g>
			<path style="fill:#B19CFE;" d="M51.169,301.263h65.507c1.387,0,2.511-1.124,2.511-2.511V279.4c0-1.387-1.124-2.511-2.511-2.511
				H51.169c-1.387,0-2.511,1.124-2.511,2.511v19.353C48.658,300.139,49.782,301.263,51.169,301.263z"/>
			<g>
				<circle style="fill:#D42190;" cx="56.386" cy="289.076" r="2.573"/>
				<path style="fill:#FFC655;" d="M65.315,289.076c0,1.421,1.152,2.573,2.573,2.573c1.421,0,2.573-1.152,2.573-2.573
					c0-1.421-1.152-2.573-2.573-2.573C66.467,286.503,65.315,287.655,65.315,289.076z"/>
				<circle style="fill:#542FD0;" cx="79.39" cy="289.076" r="2.573"/>
			</g>
		</g>
	</g>
	<g>
		<circle style="fill:#B19CFE;" cx="84.217" cy="139.399" r="36.786"/>
		<g>
			<g>
				<path style="fill:#542FD0;" d="M84.217,170.722c-17.272,0-31.323-14.051-31.323-31.323c0-17.272,14.052-31.323,31.323-31.323
					s31.323,14.052,31.323,31.323C115.54,156.671,101.489,170.722,84.217,170.722z"/>
			</g>
		</g>
		<g>
			<path style="fill:#FFC655;" d="M81.345,137.431c-9.418,7.103-15.047,13.304-13.929,14.822c1.118,1.518,8.578-2.196,18.157-9.081
				L81.345,137.431z"/>
			<path style="fill:#FFC655;" d="M87.781,138.703c-0.207-11.794-1.819-28.555-3.705-28.544c-1.886,0.011-3.36,16.791-3.425,28.587
				L87.781,138.703z"/>
		</g>
		<circle style="fill:#B19CFE;" cx="84.217" cy="139.399" r="4.389"/>
	</g>
	<path style="fill:#542FD0;" d="M365.18,128.999h-9.222c-0.599-1.829-1.353-3.588-2.258-5.255l6.349-6.689
		c2.333-2.458,2.232-6.343-0.226-8.676l-5.453-5.175c-2.458-2.334-6.343-2.232-8.676,0.226l-6.348,6.689
		c-1.217-0.58-2.478-1.081-3.773-1.506v-9.222c0-3.39-2.748-6.137-6.137-6.137h-7.517c-3.389,0-6.137,2.748-6.137,6.137v9.222
		c-1.295,0.424-2.556,0.925-3.773,1.506l-6.349-6.689c-2.333-2.458-6.218-2.56-8.676-0.226l-5.452,5.175
		c-2.458,2.333-2.56,6.218-0.226,8.676l6.349,6.689c-0.905,1.667-1.659,3.426-2.258,5.255h-9.222c-3.389,0-6.137,2.748-6.137,6.137
		v7.517c0,3.39,2.748,6.137,6.137,6.137h9.222c0.599,1.828,1.353,3.588,2.258,5.254l-6.349,6.689
		c-2.334,2.458-2.232,6.343,0.226,8.676l5.452,5.175c2.458,2.333,6.343,2.232,8.676-0.226l6.349-6.689
		c1.217,0.58,2.477,1.081,3.773,1.506v9.221c0,3.389,2.748,6.137,6.137,6.137h7.517c3.389,0,6.137-2.748,6.137-6.137v-9.221
		c1.295-0.424,2.556-0.925,3.773-1.506l6.349,6.689c2.333,2.458,6.218,2.56,8.676,0.226l5.453-5.175
		c2.458-2.333,2.56-6.218,0.226-8.676l-6.349-6.689c0.905-1.667,1.659-3.426,2.258-5.254h9.222c3.389,0,6.137-2.748,6.137-6.137
		v-7.517C371.317,131.747,368.57,128.999,365.18,128.999z M325.678,159.33c-11.268,0-20.435-9.167-20.435-20.435
		s9.167-20.435,20.435-20.435c11.268,0,20.435,9.167,20.435,20.435S336.946,159.33,325.678,159.33z"/>
	<g>
		<path style="fill:#D42190;" d="M408.85,150.794v200.513c0,6.284-5.098,11.382-11.395,11.382H108.073
			c-6.297,0-11.395-5.098-11.395-11.382V150.794c0-6.297,5.098-11.395,11.395-11.395h289.381
			C403.751,139.399,408.85,144.497,408.85,150.794z"/>
		<path style="fill:#DED7FF;" d="M408.85,155.705v198.22c0,4.84-3.924,8.764-8.764,8.764h-294.63c-4.848,0-8.777-3.93-8.777-8.777
			V155.705H408.85z"/>
		<g>
			<g>
				<circle style="fill:#FFFFFF;" cx="110.462" cy="148.578" r="2.161"/>
				<circle style="fill:#FFFFFF;" cx="123.914" cy="148.578" r="2.161"/>
				<circle style="fill:#FFFFFF;" cx="137.366" cy="148.578" r="2.161"/>
			</g>
			<path style="fill:#FFFFFF;" d="M395.087,148.578l2.033-1.978c0.131-0.128,0.143-0.348,0.027-0.491
				c-0.116-0.145-0.318-0.156-0.448-0.029l-2.09,2.033l-2.09-2.033c-0.132-0.127-0.333-0.115-0.449,0.029
				c-0.117,0.143-0.104,0.364,0.027,0.491l2.033,1.978l-2.033,1.978c-0.131,0.128-0.143,0.348-0.027,0.491
				c0.063,0.077,0.15,0.117,0.238,0.117c0.075,0,0.15-0.029,0.211-0.088l2.09-2.033l2.09,2.033c0.061,0.059,0.136,0.088,0.211,0.088
				c0.088,0,0.175-0.039,0.238-0.117c0.117-0.143,0.104-0.363-0.027-0.491L395.087,148.578z"/>
		</g>
	</g>
	<g>
		<g>
			<g>
				<rect x="103.836" y="165.206" style="fill:#B19CFE;" width="104.965" height="186.366"/>
			</g>
			<rect x="215.881" y="165.206" style="fill:#B19CFE;" width="183.835" height="101.063"/>
			<rect x="215.881" y="271.468" style="fill:#B19CFE;" width="183.835" height="80.104"/>
		</g>
	</g>
	<g>

			<ellipse transform="matrix(0.2224 -0.9749 0.9749 0.2224 33.6528 318.4061)" style="fill:#FFC655;" cx="216.444" cy="138.105" rx="31.633" ry="31.633"/>
		<g>
			<g>
				<path style="fill:#542FD0;" d="M216.444,165.933c-15.344,0-27.828-12.483-27.828-27.827s12.484-27.828,27.828-27.828
					s27.827,12.484,27.827,27.828S231.788,165.933,216.444,165.933z M216.444,112.672c-14.024,0-25.433,11.409-25.433,25.433
					c0,14.023,11.409,25.432,25.433,25.432c14.023,0,25.433-11.409,25.433-25.432C241.877,124.081,230.468,112.672,216.444,112.672z
					"/>
			</g>
		</g>
	</g>
	<g>
		<g>
			<g>
				<path style="fill:#542FD0;" d="M445.448,175.338c-0.402-0.519-0.83-1.011-1.258-1.504c-5.653-6.237-13.796-10.153-22.833-10.153
					c-9.037,0-17.18,3.916-22.833,10.153c-0.428,0.493-0.843,0.985-1.245,1.504c-4.188,5.238-6.678,11.89-6.678,19.099
					c0,7.52,2.71,14.418,7.209,19.76c0.415,0.506,0.856,0.998,1.323,1.465c5.601,5.874,13.498,9.53,22.224,9.53
					c8.726,0,16.623-3.656,22.224-9.53c0.467-0.467,0.908-0.959,1.323-1.465c4.512-5.342,7.222-12.24,7.222-19.76
					C452.125,187.228,449.636,180.577,445.448,175.338z M443.269,213.122c-0.428,0.506-0.882,0.999-1.349,1.465
					c-3.708,3.799-8.454,6.574-13.783,7.845c-1.867,0.467-3.812,0.739-5.809,0.791c-0.324,0.026-0.648,0.026-0.973,0.026
					c-0.324,0-0.648,0-0.973-0.026c-1.997-0.052-3.929-0.324-5.796-0.778c-5.329-1.284-10.075-4.059-13.796-7.858
					c-0.467-0.467-0.908-0.96-1.336-1.478c-4.123-4.798-6.665-10.957-6.885-17.699c-0.026-0.324-0.026-0.648-0.026-0.973
					s0-0.648,0.026-0.973c0.207-6.418,2.528-12.331,6.314-17.025c0.402-0.506,0.83-1.011,1.284-1.491
					c3.799-4.136,8.791-7.157,14.418-8.519c1.867-0.454,3.799-0.726,5.796-0.778c0.324-0.026,0.648-0.026,0.973-0.026
					c0.324,0,0.648,0,0.973,0.026c1.997,0.052,3.942,0.324,5.809,0.791c5.627,1.348,10.606,4.37,14.418,8.493
					c0.441,0.48,0.869,0.985,1.284,1.504c3.786,4.694,6.107,10.606,6.315,17.025c0.026,0.324,0.026,0.648,0.026,0.973
					s0,0.648-0.026,0.973C449.934,202.152,447.38,208.324,443.269,213.122z"/>
			</g>
			<g>
				<path style="fill:#542FD0;" d="M437.46,193.465c-0.065-4.681-0.661-9.05-1.686-12.94c-0.156-0.648-0.324-1.284-0.519-1.893
					c-1.647-5.355-4.123-9.608-7.118-12.188c-2.049-1.776-4.344-2.762-6.781-2.762c-2.425,0-4.72,0.973-6.768,2.749
					c-2.995,2.58-5.472,6.846-7.106,12.201c-0.194,0.609-0.376,1.245-0.545,1.893c-1.011,3.89-1.608,8.26-1.673,12.94
					c-0.013,0.324-0.013,0.648-0.013,0.973s0,0.648,0.013,0.973c0.078,5.057,0.765,9.776,1.932,13.9
					c0.182,0.635,0.376,1.258,0.583,1.854c1.634,4.927,3.994,8.843,6.807,11.281c2.049,1.776,4.344,2.749,6.768,2.749
					c2.438,0,4.733-0.986,6.781-2.762c2.814-2.425,5.173-6.341,6.82-11.255c0.194-0.609,0.389-1.232,0.57-1.867
					c1.167-4.123,1.854-8.843,1.932-13.9c0.013-0.324,0.013-0.648,0.013-0.973S437.473,193.789,437.46,193.465z M433.674,208.687
					c-0.181,0.635-0.376,1.258-0.57,1.867c-2.386,7.144-6.302,12.007-10.775,12.616c-0.324,0.052-0.648,0.078-0.973,0.078
					c-0.324,0-0.648-0.026-0.973-0.078c-4.473-0.609-8.389-5.485-10.762-12.629c-0.194-0.61-0.389-1.232-0.571-1.867
					c-1.102-3.929-1.763-8.454-1.841-13.264c-0.013-0.324-0.013-0.648-0.013-0.973s0-0.648,0.013-0.973
					c0.065-4.421,0.635-8.597,1.582-12.305c0.169-0.648,0.35-1.271,0.532-1.88c2.334-7.663,6.392-12.94,11.06-13.576
					c0.324-0.052,0.648-0.078,0.973-0.078c0.324,0,0.648,0.026,0.973,0.078c4.681,0.635,8.739,5.913,11.073,13.576
					c0.194,0.609,0.363,1.232,0.519,1.88c0.96,3.708,1.53,7.884,1.595,12.305c0.013,0.324,0.013,0.648,0.013,0.973
					s0,0.648-0.013,0.973C435.438,200.22,434.776,204.746,433.674,208.687z"/>
			</g>
			<g>
				<path style="fill:#542FD0;" d="M444.19,173.834c-0.532,0.389-1.076,0.765-1.634,1.102c-2.282,1.491-4.733,2.723-7.3,3.696
					c-0.609,0.233-1.232,0.454-1.854,0.648c-3.501,1.141-7.222,1.789-11.073,1.867c-0.324,0.026-0.648,0.026-0.973,0.026
					c-0.324,0-0.648,0-0.973-0.026c-3.851-0.078-7.559-0.726-11.06-1.867c-0.622-0.195-1.232-0.402-1.841-0.648
					c-2.58-0.96-5.031-2.204-7.313-3.683c-0.558-0.35-1.102-0.713-1.647-1.115c-0.428,0.493-0.843,0.985-1.245,1.504
					c0.532,0.389,1.063,0.752,1.608,1.102c2.516,1.647,5.212,3.008,8.052,4.084c0.609,0.22,1.232,0.441,1.854,0.635
					c3.669,1.18,7.559,1.854,11.592,1.945c0.324,0.013,0.648,0.013,0.973,0.013c0.324,0,0.648,0,0.973-0.013
					c4.033-0.091,7.922-0.765,11.592-1.945c0.622-0.194,1.245-0.415,1.854-0.635c2.852-1.076,5.549-2.451,8.065-4.084
					c0.545-0.35,1.076-0.726,1.608-1.102C445.046,174.82,444.618,174.327,444.19,173.834z"/>
			</g>
			<g>
				<path style="fill:#542FD0;" d="M443.269,213.122c-2.425-1.53-5.018-2.801-7.741-3.812c-0.609-0.22-1.232-0.428-1.854-0.622
					c-3.592-1.128-7.404-1.776-11.345-1.867c-0.324-0.013-0.648-0.013-0.973-0.013c-0.324,0-0.648,0-0.973,0.013
					c-3.942,0.091-7.741,0.739-11.332,1.854c-0.622,0.208-1.245,0.415-1.854,0.635c-2.723,0.998-5.316,2.282-7.741,3.799
					c-0.557,0.35-1.102,0.713-1.647,1.089c0.415,0.506,0.856,0.998,1.323,1.465c0.545-0.376,1.089-0.739,1.66-1.076
					c2.191-1.362,4.538-2.515,6.989-3.423c0.609-0.22,1.219-0.428,1.841-0.622c3.41-1.076,7.028-1.686,10.762-1.763
					c0.324-0.026,0.648-0.026,0.973-0.026c0.324,0,0.648,0,0.973,0.026c3.747,0.078,7.352,0.7,10.775,1.776
					c0.622,0.182,1.245,0.402,1.854,0.622c2.45,0.908,4.771,2.049,6.963,3.41c0.571,0.337,1.115,0.7,1.66,1.076
					c0.467-0.467,0.908-0.959,1.323-1.465C444.371,213.835,443.827,213.472,443.269,213.122z"/>
			</g>
			<g>
				<rect x="391.574" y="193.464" style="fill:#542FD0;" width="59.575" height="1.945"/>
			</g>
			<g>
				<rect x="420.388" y="164.649" style="fill:#542FD0;" width="1.945" height="59.575"/>
			</g>
		</g>
	</g>
	<g>
		<g>
			<path style="fill:#B19CFE;" d="M426.797,147.157c0,3.001-2.433,5.434-5.434,5.434c-3.001,0-5.434-2.433-5.434-5.434
				c0-3.001,2.433-5.434,5.434-5.434C424.364,141.723,426.797,144.156,426.797,147.157z"/>
		</g>
		<g>
			<path style="fill:#B19CFE;" d="M434.567,139.762c-0.504,0-0.993-0.298-1.258-0.827c-2.425-4.847-7.002-7.858-11.947-7.858
				c-4.944,0-9.521,3.011-11.947,7.858c-0.39,0.781-1.268,1.058-1.964,0.618c-0.694-0.439-0.94-1.428-0.55-2.208
				c2.935-5.867,8.475-9.511,14.46-9.511c5.985,0,11.525,3.644,14.46,9.511c0.39,0.78,0.144,1.769-0.55,2.208
				C435.049,139.694,434.807,139.762,434.567,139.762z"/>
		</g>
		<g>
			<path style="fill:#B19CFE;" d="M401.157,134.538c-0.239,0-0.482-0.067-0.706-0.208c-0.694-0.439-0.94-1.428-0.55-2.208
				c4.355-8.707,12.579-14.116,21.461-14.116s17.106,5.409,21.462,14.116c0.39,0.78,0.144,1.769-0.55,2.208
				c-0.695,0.439-1.573,0.162-1.964-0.618c-3.846-7.687-11.107-12.463-18.948-12.463c-7.842,0-15.102,4.776-18.947,12.463
				C402.15,134.24,401.661,134.538,401.157,134.538z"/>
		</g>
		<g>
			<path style="fill:#B19CFE;" d="M446.597,127.893c-0.503,0-0.993-0.298-1.258-0.827c-4.867-9.728-14.054-15.77-23.977-15.77
				c-9.922,0-19.109,6.043-23.975,15.77c-0.39,0.781-1.269,1.058-1.964,0.618c-0.694-0.439-0.94-1.428-0.55-2.208
				c5.376-10.747,15.526-17.424,26.489-17.424c10.963,0,21.113,6.676,26.49,17.424c0.39,0.78,0.144,1.769-0.55,2.208
				C447.079,127.826,446.836,127.893,446.597,127.893z"/>
		</g>
	</g>
	<g style="opacity:0.5;">
		<g>
			<g>
				<path style="fill:#FFFFFF;" d="M363.175,374.039h-14.046c-0.258,0-0.467-0.209-0.467-0.467c0-0.258,0.209-0.466,0.467-0.466
					h14.046c0.258,0,0.466,0.209,0.466,0.466C363.641,373.83,363.432,374.039,363.175,374.039z"/>
			</g>
			<g>
				<path style="fill:#FFFFFF;" d="M351.847,379.335H335.51c-0.258,0-0.467-0.209-0.467-0.466c0-0.258,0.209-0.467,0.467-0.467
					h16.337c0.258,0,0.467,0.209,0.467,0.467C352.314,379.126,352.105,379.335,351.847,379.335z"/>
			</g>
			<g>
				<path style="fill:#FFFFFF;" d="M344.09,374.039h-4.094c-0.258,0-0.466-0.209-0.466-0.467c0-0.258,0.209-0.466,0.466-0.466h4.094
					c0.258,0,0.467,0.209,0.467,0.466C344.557,373.83,344.348,374.039,344.09,374.039z"/>
			</g>
		</g>
		<g>
			<g>
				<path style="fill:#FFFFFF;" d="M148.011,131.255h-5.91c-0.258,0-0.466-0.209-0.466-0.466c0-0.258,0.209-0.467,0.466-0.467h5.91
					c0.258,0,0.467,0.209,0.467,0.467C148.478,131.046,148.269,131.255,148.011,131.255z"/>
			</g>
			<g>
				<path style="fill:#FFFFFF;" d="M138.772,131.255h-13.334c-0.258,0-0.466-0.209-0.466-0.466c0-0.258,0.209-0.467,0.466-0.467
					h13.334c0.258,0,0.466,0.209,0.466,0.467C139.239,131.046,139.03,131.255,138.772,131.255z"/>
			</g>
			<g>
				<path style="fill:#FFFFFF;" d="M164.977,131.255h-13.334c-0.258,0-0.467-0.209-0.467-0.466c0-0.258,0.209-0.467,0.467-0.467
					h13.334c0.258,0,0.467,0.209,0.467,0.467C165.443,131.046,165.235,131.255,164.977,131.255z"/>
			</g>
			<g>
				<path style="fill:#FFFFFF;" d="M146.193,124.471H132.86c-0.258,0-0.467-0.209-0.467-0.467c0-0.258,0.209-0.467,0.467-0.467
					h13.333c0.258,0,0.467,0.209,0.467,0.467C146.66,124.262,146.451,124.471,146.193,124.471z"/>
			</g>
			<g>
				<path style="fill:#FFFFFF;" d="M155.289,124.471h-6.163c-0.258,0-0.467-0.209-0.467-0.467c0-0.258,0.209-0.467,0.467-0.467
					h6.163c0.258,0,0.467,0.209,0.467,0.467C155.756,124.262,155.547,124.471,155.289,124.471z"/>
			</g>
		</g>
	</g>
	<path style="fill:#D42190;" d="M396.166,92.492c0-7.998-6.484-14.482-14.482-14.482c-7.998,0-14.482,6.484-14.482,14.482
		c0,2.889,0.856,5.575,2.314,7.834l-0.014-0.003l9.37,16.041c1.257,2.152,4.367,2.152,5.624,0l9.37-16.041l-0.014,0.003
		C395.31,98.066,396.166,95.381,396.166,92.492z M381.684,97.994c-3.328,0-6.026-2.698-6.026-6.026c0-3.328,2.698-6.026,6.026-6.026
		s6.026,2.698,6.026,6.026C387.71,95.297,385.012,97.994,381.684,97.994z"/>
	<g>
		<g>
			<rect x="100.702" y="172.136" style="opacity:0.5;fill:#FFFFFF;" width="101.685" height="45.003"/>
			<g>
				<g>
					<g>
						<g>
							<path style="fill:#D42190;" d="M133.945,184.352c-0.384-0.393-0.792-0.768-1.219-1.113c-0.13-0.11-0.264-0.216-0.398-0.317
								c-0.158-0.125-0.321-0.245-0.489-0.36c-0.168-0.12-0.341-0.235-0.518-0.35c-0.014-0.01-0.029-0.019-0.048-0.029
								c-0.154-0.101-0.312-0.197-0.475-0.288c-0.053-0.034-0.11-0.067-0.168-0.096c-0.106-0.062-0.211-0.12-0.322-0.173
								c-0.115-0.067-0.23-0.13-0.35-0.187c-0.077-0.038-0.158-0.081-0.24-0.115c-0.134-0.067-0.273-0.13-0.413-0.192
								c-0.11-0.048-0.221-0.096-0.336-0.144c-0.081-0.034-0.173-0.067-0.259-0.101c-0.182-0.072-0.36-0.139-0.547-0.202
								c-0.221-0.077-0.441-0.149-0.667-0.211c-0.005-0.005-0.01-0.005-0.014-0.005c-0.221-0.067-0.446-0.125-0.667-0.178
								c-0.197-0.048-0.393-0.091-0.59-0.125c-0.005-0.005-0.01-0.005-0.014-0.005c-0.216-0.043-0.441-0.082-0.662-0.11
								c-0.077-0.014-0.149-0.029-0.225-0.034c-0.01-0.005-0.019-0.005-0.029-0.005c-0.197-0.024-0.398-0.048-0.6-0.067
								c-0.23-0.019-0.47-0.033-0.705-0.043h-0.014c-0.005,0-0.005,0-0.005,0c-0.197-0.01-0.389-0.014-0.585-0.014
								c-8.131,0-14.747,6.615-14.747,14.747c0,4.874,2.379,9.206,6.035,11.892c2.442,1.794,5.454,2.854,8.712,2.854
								c7.58,0,13.835-5.747,14.651-13.111c0,0,0,0,0-0.005c0.053-0.47,0.082-0.95,0.091-1.43v-0.202
								C138.128,190.637,136.53,187.01,133.945,184.352z M133.772,196.283v0.005c-0.801,5.018-5.152,8.861-10.386,8.861
								c-1.78,0-3.459-0.446-4.927-1.233c-0.091-0.048-0.178-0.096-0.264-0.149c-0.014-0.01-0.029-0.014-0.043-0.024
								c-0.153-0.086-0.302-0.178-0.451-0.273c-0.322-0.206-0.633-0.432-0.931-0.676c-0.149-0.12-0.297-0.245-0.437-0.374
								c0,0,0,0-0.005,0c-0.221-0.201-0.432-0.408-0.633-0.628c-0.082-0.082-0.158-0.168-0.23-0.254
								c-0.163-0.187-0.321-0.379-0.47-0.576c-0.062-0.081-0.125-0.168-0.182-0.254c-0.154-0.211-0.297-0.427-0.427-0.652
								c-0.053-0.077-0.096-0.158-0.139-0.235c-0.062-0.106-0.12-0.206-0.173-0.312c-0.038-0.072-0.077-0.144-0.11-0.216
								c-0.067-0.134-0.134-0.273-0.197-0.417c-0.062-0.134-0.12-0.273-0.173-0.417c-0.067-0.163-0.13-0.336-0.187-0.513
								c-0.043-0.129-0.086-0.264-0.12-0.398c-0.024-0.077-0.048-0.154-0.062-0.23c-0.034-0.115-0.062-0.226-0.086-0.341
								c-0.038-0.163-0.072-0.331-0.101-0.499c-0.024-0.115-0.043-0.235-0.058-0.35c-0.019-0.125-0.034-0.249-0.048-0.374
								c-0.019-0.168-0.029-0.34-0.043-0.508v-0.063c-0.01-0.182-0.014-0.36-0.014-0.542c0-5.795,4.716-10.511,10.511-10.511
								c0.173,0,0.35,0.005,0.523,0.014c0.019,0,0.038,0,0.062,0.005h0.005c0.024,0.005,0.048,0.005,0.072,0.005l0.082,0.005
								c0.072,0.005,0.139,0.005,0.206,0.014c0.072,0.01,0.144,0.014,0.211,0.024c0.192,0.019,0.384,0.043,0.571,0.077
								c0.12,0.019,0.245,0.043,0.365,0.067c0.096,0.019,0.192,0.038,0.288,0.062c0.062,0.014,0.13,0.034,0.192,0.048
								c0.115,0.029,0.23,0.057,0.345,0.091c0.062,0.019,0.13,0.038,0.192,0.062c0.139,0.038,0.278,0.086,0.413,0.134
								c0.048,0.019,0.101,0.038,0.153,0.057c0.106,0.038,0.211,0.077,0.317,0.125c0.091,0.033,0.182,0.077,0.273,0.12
								c0.091,0.033,0.182,0.077,0.269,0.125c0.077,0.034,0.153,0.072,0.226,0.11c0.091,0.043,0.182,0.091,0.269,0.144
								c0.082,0.038,0.158,0.081,0.235,0.13c0.086,0.048,0.173,0.101,0.259,0.158c0.086,0.048,0.173,0.105,0.259,0.163
								c0.043,0.029,0.091,0.058,0.134,0.091c0.115,0.077,0.23,0.158,0.341,0.245c0.12,0.086,0.24,0.178,0.355,0.273
								c0.115,0.091,0.23,0.187,0.341,0.293c0.077,0.067,0.158,0.139,0.235,0.216c0.058,0.053,0.115,0.105,0.168,0.158
								c0.058,0.053,0.11,0.106,0.163,0.163c0.254,0.259,0.494,0.533,0.72,0.82c1.367,1.722,2.207,3.891,2.264,6.241
								c0.005,0.091,0.005,0.177,0.005,0.269c0,0.557-0.043,1.103-0.125,1.636C133.772,196.278,133.772,196.278,133.772,196.283z"/>
						</g>
					</g>
					<path style="fill:#FFC655;" d="M132.726,183.239c-0.13-0.11-0.264-0.216-0.398-0.317c-0.158-0.125-0.321-0.245-0.489-0.36
						c-0.168-0.12-0.341-0.235-0.518-0.35c-0.014-0.01-0.029-0.019-0.048-0.029c-0.154-0.101-0.312-0.197-0.475-0.288
						c-0.053-0.034-0.11-0.067-0.168-0.096c-0.106-0.062-0.211-0.12-0.322-0.173c-0.115-0.067-0.23-0.13-0.35-0.187
						c-0.077-0.038-0.158-0.081-0.24-0.115c-0.134-0.067-0.273-0.13-0.413-0.192c-0.11-0.048-0.221-0.096-0.336-0.144
						c-0.081-0.034-0.173-0.067-0.259-0.101c-0.182-0.072-0.36-0.139-0.547-0.202c-0.221-0.077-0.441-0.149-0.667-0.211
						c-0.005-0.005-0.01-0.005-0.014-0.005c-0.221-0.067-0.446-0.125-0.667-0.178c-0.197-0.048-0.393-0.091-0.59-0.125
						c-0.005-0.005-0.01-0.005-0.014-0.005c-0.216-0.043-0.441-0.082-0.662-0.11c-0.077-0.014-0.149-0.029-0.225-0.034
						c-0.01-0.005-0.019-0.005-0.029-0.005c-0.197-0.024-0.398-0.048-0.6-0.067c-0.23-0.019-0.47-0.033-0.705-0.043h-0.014
						c-0.005,0-0.005,0-0.005,0c-0.197-0.01-0.389-0.014-0.585-0.014c-8.131,0-14.747,6.615-14.747,14.747
						c0,4.874,2.379,9.206,6.035,11.892l0.01-0.01c0.389,0.302,0.878,0.485,1.41,0.485c1.271,0,2.303-1.027,2.303-2.298
						c0-0.235-0.034-0.461-0.105-0.676c-0.024-0.091-0.058-0.178-0.096-0.264c-0.331-0.187-0.649-0.391-0.955-0.612
						c-0.011-0.008-0.023-0.017-0.034-0.025c-0.304-0.221-0.595-0.457-0.872-0.711c0,0,0,0-0.005,0
						c-0.221-0.201-0.432-0.408-0.633-0.628c-0.082-0.082-0.158-0.168-0.23-0.254c-0.163-0.187-0.321-0.379-0.47-0.576
						c-0.062-0.081-0.125-0.168-0.182-0.254c-0.154-0.211-0.297-0.427-0.427-0.652c-0.053-0.077-0.096-0.158-0.139-0.235
						c-0.062-0.106-0.12-0.206-0.173-0.312c-0.038-0.072-0.077-0.144-0.11-0.216c-0.067-0.134-0.134-0.273-0.197-0.417
						c-0.062-0.134-0.12-0.273-0.173-0.417c-0.067-0.163-0.13-0.336-0.187-0.513c-0.043-0.129-0.086-0.264-0.12-0.398
						c-0.024-0.077-0.048-0.154-0.062-0.23c-0.034-0.115-0.062-0.226-0.086-0.341c-0.038-0.163-0.072-0.331-0.101-0.499
						c-0.024-0.115-0.043-0.235-0.058-0.35c-0.019-0.125-0.034-0.249-0.048-0.374c-0.019-0.168-0.029-0.34-0.043-0.508v-0.063
						c-0.01-0.182-0.014-0.36-0.014-0.542c0-5.795,4.716-10.511,10.511-10.511c0.173,0,0.35,0.005,0.523,0.014
						c0.019,0,0.038,0,0.062,0.005h0.005c0.024,0.005,0.048,0.005,0.072,0.005l0.082,0.005c0.072,0.005,0.139,0.005,0.206,0.014
						c0.072,0.01,0.144,0.014,0.211,0.024c0.192,0.019,0.384,0.043,0.571,0.077c0.12,0.019,0.245,0.043,0.365,0.067
						c0.096,0.019,0.192,0.038,0.288,0.062c0.062,0.014,0.13,0.034,0.192,0.048c0.115,0.029,0.23,0.057,0.345,0.091
						c0.062,0.019,0.13,0.038,0.192,0.062c0.139,0.038,0.278,0.086,0.413,0.134c0.048,0.019,0.101,0.038,0.153,0.057
						c0.106,0.038,0.211,0.081,0.317,0.125c0.091,0.038,0.182,0.077,0.273,0.12c0.091,0.033,0.182,0.077,0.269,0.125
						c0.077,0.034,0.149,0.067,0.226,0.11c0.091,0.043,0.182,0.091,0.269,0.144c0.082,0.038,0.158,0.081,0.235,0.13
						c0.086,0.048,0.173,0.101,0.259,0.158c0.086,0.048,0.173,0.105,0.259,0.163c0.043,0.029,0.091,0.058,0.134,0.091
						c0.115,0.077,0.23,0.158,0.341,0.245c0.12,0.086,0.24,0.178,0.355,0.273c0.115,0.091,0.23,0.187,0.341,0.293
						c0.077,0.067,0.158,0.139,0.235,0.216c0.058,0.053,0.115,0.105,0.168,0.158c0.058,0.053,0.11,0.106,0.163,0.163
						c0.254,0.259,0.494,0.533,0.72,0.82l2.317-3.775C133.561,183.959,133.153,183.585,132.726,183.239z"/>
					<path style="fill:#542FD0;" d="M133.945,184.352c-0.384-0.393-0.792-0.768-1.219-1.113c-0.13-0.11-0.264-0.216-0.398-0.317
						c-0.158-0.125-0.321-0.245-0.489-0.36c-0.168-0.12-0.341-0.235-0.518-0.35c-0.014-0.01-0.029-0.019-0.048-0.029
						c-0.154-0.101-0.312-0.197-0.475-0.288c-0.053-0.034-0.11-0.067-0.168-0.096c-0.106-0.062-0.211-0.12-0.322-0.173
						c-0.115-0.067-0.23-0.13-0.35-0.187c-0.077-0.038-0.158-0.081-0.24-0.115c-0.134-0.067-0.273-0.13-0.413-0.192
						c-0.11-0.048-0.221-0.096-0.336-0.144c-0.081-0.034-0.173-0.067-0.259-0.101c-0.182-0.072-0.36-0.139-0.547-0.202
						c-0.221-0.077-0.441-0.149-0.667-0.211c-0.005-0.005-0.01-0.005-0.014-0.005c-0.221-0.067-0.446-0.125-0.667-0.178
						c-0.197-0.048-0.393-0.091-0.59-0.125c-0.005-0.005-0.01-0.005-0.014-0.005c-0.216-0.043-0.441-0.082-0.662-0.11
						c-0.077-0.014-0.149-0.029-0.225-0.034c-0.01-0.005-0.019-0.005-0.029-0.005c-0.197-0.024-0.398-0.048-0.6-0.067
						c-0.23-0.019-0.47-0.033-0.705-0.043h-0.014c-0.005,0-0.005,0-0.005,0c-0.408,0.168-0.753,0.451-0.993,0.806
						c-0.283,0.403-0.437,0.907-0.408,1.434c0.048,0.902,0.609,1.665,1.401,2h0.005c0.024,0.005,0.048,0.005,0.072,0.005
						l0.082,0.005c0.072,0.005,0.139,0.005,0.206,0.014c0.072,0.01,0.144,0.014,0.211,0.024c0.192,0.019,0.384,0.043,0.571,0.077
						c0.12,0.019,0.245,0.043,0.365,0.067c0.096,0.019,0.192,0.038,0.288,0.062c0.062,0.014,0.13,0.034,0.192,0.048
						c0.115,0.029,0.23,0.057,0.345,0.091c0.062,0.019,0.13,0.038,0.192,0.062c0.139,0.038,0.278,0.086,0.413,0.134
						c0.048,0.019,0.101,0.038,0.153,0.057c0.106,0.038,0.211,0.077,0.317,0.125c0.091,0.033,0.182,0.077,0.273,0.12
						c0.091,0.033,0.182,0.077,0.269,0.125c0.077,0.034,0.153,0.072,0.226,0.11c0.091,0.043,0.182,0.091,0.269,0.144
						c0.082,0.038,0.158,0.081,0.235,0.13c0.086,0.048,0.173,0.101,0.259,0.158c0.086,0.048,0.173,0.105,0.259,0.163
						c0.043,0.029,0.091,0.058,0.134,0.091c0.115,0.077,0.23,0.158,0.341,0.245c0.12,0.086,0.24,0.178,0.355,0.273
						c0.115,0.091,0.23,0.187,0.341,0.293c0.077,0.067,0.158,0.139,0.235,0.216c0.058,0.053,0.115,0.105,0.168,0.158
						c0.058,0.053,0.11,0.106,0.163,0.163c0.254,0.259,0.494,0.533,0.72,0.82c1.367,1.722,2.207,3.891,2.264,6.241
						c0.005,0.091,0.005,0.177,0.005,0.269c0,0.557-0.043,1.103-0.125,1.636c0,0.005,0,0.005,0,0.01v0.005
						c0.331,0.811,1.118,1.391,2.048,1.425c0.528,0.019,1.027-0.144,1.425-0.432c0.35-0.25,0.628-0.6,0.792-1.008c0,0,0,0,0-0.005
						c0.053-0.47,0.082-0.95,0.091-1.43v-0.202C138.128,190.637,136.53,187.01,133.945,184.352z"/>
				</g>
				<g>
					<rect x="144.247" y="181.209" style="fill:#542FD0;" width="21.79" height="2.931"/>
					<rect x="144.247" y="187.191" style="fill:#542FD0;" width="50.202" height="2.931"/>
					<rect x="144.247" y="193.172" style="fill:#542FD0;" width="37.598" height="2.931"/>
					<rect x="144.247" y="199.153" style="fill:#542FD0;" width="44.719" height="2.931"/>
					<rect x="144.247" y="205.135" style="fill:#542FD0;" width="36.636" height="2.931"/>
					<rect x="183.483" y="205.135" style="fill:#542FD0;" width="10.966" height="2.931"/>
				</g>
			</g>
		</g>
		<g>
			<rect x="100.702" y="221.842" style="opacity:0.5;fill:#FFFFFF;" width="101.685" height="45.003"/>
			<g>
				<g>
					<g>
						<g>
							<g>
								<g>
									<path style="fill:#D42190;" d="M132.741,255.735c0.424-0.349,0.832-0.724,1.212-1.12c0.121-0.12,0.237-0.245,0.349-0.37
										c0.138-0.147,0.271-0.3,0.4-0.457c0.134-0.157,0.263-0.32,0.393-0.487c0.011-0.014,0.022-0.027,0.033-0.045
										c0.113-0.144,0.222-0.294,0.327-0.449c0.038-0.05,0.076-0.104,0.11-0.159c0.071-0.1,0.137-0.2,0.199-0.306
										c0.077-0.109,0.148-0.219,0.216-0.333c0.045-0.073,0.095-0.151,0.135-0.229c0.078-0.128,0.152-0.262,0.226-0.395
										c0.057-0.106,0.114-0.212,0.172-0.322c0.04-0.078,0.081-0.166,0.122-0.25c0.087-0.176,0.169-0.347,0.247-0.528
										c0.095-0.213,0.185-0.427,0.266-0.647c0.005-0.004,0.006-0.009,0.006-0.014c0.086-0.214,0.162-0.434,0.233-0.649
										c0.064-0.192,0.124-0.384,0.174-0.577c0.005-0.004,0.006-0.009,0.006-0.014c0.061-0.212,0.118-0.433,0.166-0.65
										c0.021-0.075,0.041-0.146,0.052-0.222c0.006-0.009,0.007-0.019,0.007-0.028c0.04-0.194,0.081-0.393,0.117-0.592
										c0.038-0.228,0.073-0.466,0.102-0.699l0.001-0.014c0-0.005,0-0.005,0-0.005c0.026-0.195,0.047-0.386,0.064-0.582
										c0.686-8.102-5.348-15.252-13.45-15.938c-4.857-0.411-9.374,1.594-12.359,5.01c-1.994,2.282-3.304,5.194-3.579,8.44
										c-0.639,7.553,4.56,14.271,11.828,15.705c0,0,0,0,0.005,0c0.464,0.092,0.94,0.161,1.417,0.211l0.201,0.017
										C126.126,259.373,129.875,258.087,132.741,255.735z M120.867,254.557l-0.005,0c-4.932-1.222-8.394-5.881-7.953-11.096
										c0.15-1.773,0.736-3.409,1.644-4.805c0.056-0.087,0.111-0.169,0.17-0.25c0.011-0.014,0.017-0.027,0.028-0.041
										c0.099-0.146,0.202-0.286,0.311-0.426c0.233-0.303,0.484-0.595,0.752-0.87c0.132-0.138,0.269-0.276,0.41-0.403
										c0,0,0,0,0-0.005c0.219-0.203,0.443-0.396,0.68-0.578c0.088-0.074,0.181-0.144,0.273-0.208
										c0.2-0.147,0.405-0.288,0.613-0.42c0.087-0.055,0.178-0.11,0.269-0.16c0.223-0.135,0.451-0.26,0.686-0.37
										c0.081-0.046,0.166-0.082,0.246-0.119c0.111-0.053,0.216-0.102,0.325-0.146c0.075-0.032,0.15-0.064,0.224-0.092
										c0.139-0.056,0.284-0.111,0.432-0.161c0.139-0.051,0.283-0.096,0.431-0.137c0.168-0.053,0.345-0.101,0.527-0.143
										c0.133-0.032,0.27-0.064,0.407-0.086c0.078-0.017,0.157-0.035,0.235-0.043c0.118-0.024,0.23-0.043,0.347-0.057
										c0.166-0.024,0.336-0.044,0.506-0.058c0.117-0.014,0.238-0.023,0.354-0.028c0.126-0.009,0.251-0.012,0.377-0.016
										c0.169-0.005,0.342,0,0.51,0l0.062,0.005c0.182,0.006,0.36,0.016,0.541,0.031c5.774,0.489,10.075,5.585,9.587,11.36
										c-0.015,0.172-0.034,0.348-0.058,0.52c-0.002,0.019-0.003,0.038-0.01,0.062l0,0.005c-0.007,0.023-0.009,0.047-0.011,0.071
										l-0.012,0.081c-0.011,0.071-0.016,0.138-0.032,0.204c-0.016,0.071-0.026,0.142-0.042,0.208
										c-0.035,0.19-0.075,0.379-0.125,0.562c-0.029,0.118-0.064,0.24-0.098,0.358c-0.027,0.094-0.054,0.188-0.086,0.282
										c-0.02,0.061-0.044,0.126-0.064,0.187c-0.038,0.112-0.077,0.225-0.12,0.337c-0.024,0.061-0.049,0.126-0.078,0.186
										c-0.05,0.135-0.11,0.27-0.169,0.4c-0.023,0.046-0.047,0.097-0.07,0.148c-0.047,0.102-0.094,0.204-0.151,0.305
										c-0.041,0.088-0.092,0.175-0.143,0.262c-0.041,0.088-0.092,0.175-0.147,0.257c-0.04,0.074-0.085,0.147-0.129,0.215
										c-0.051,0.087-0.106,0.174-0.166,0.256c-0.045,0.078-0.094,0.151-0.149,0.223c-0.055,0.082-0.115,0.164-0.18,0.245
										c-0.055,0.082-0.12,0.163-0.184,0.244c-0.032,0.041-0.065,0.086-0.102,0.126c-0.086,0.108-0.177,0.216-0.273,0.319
										c-0.096,0.112-0.197,0.224-0.302,0.331c-0.101,0.107-0.206,0.214-0.32,0.315c-0.073,0.071-0.152,0.146-0.235,0.216
										c-0.057,0.053-0.115,0.106-0.172,0.154c-0.058,0.053-0.115,0.101-0.176,0.149c-0.28,0.231-0.572,0.447-0.878,0.648
										c-1.831,1.217-4.063,1.871-6.41,1.73c-0.091-0.003-0.177-0.01-0.268-0.018c-0.554-0.047-1.096-0.136-1.619-0.262
										C120.872,254.557,120.872,254.557,120.867,254.557z"/>
								</g>
							</g>
						</g>
					</g>
					<path style="fill:#FFC655;" d="M133.953,254.615c0.121-0.12,0.237-0.245,0.349-0.37c0.138-0.147,0.271-0.3,0.4-0.457
						c0.134-0.157,0.263-0.32,0.393-0.487c0.011-0.014,0.022-0.027,0.033-0.045c0.113-0.144,0.222-0.294,0.327-0.449
						c0.038-0.05,0.076-0.104,0.11-0.159c0.071-0.1,0.137-0.2,0.199-0.306c0.077-0.109,0.148-0.219,0.216-0.333
						c0.045-0.073,0.095-0.151,0.135-0.229c0.078-0.128,0.152-0.262,0.226-0.395c0.057-0.106,0.114-0.212,0.172-0.322
						c0.04-0.078,0.081-0.166,0.122-0.25c0.087-0.176,0.169-0.347,0.247-0.528c0.095-0.213,0.185-0.427,0.266-0.647
						c0.005-0.004,0.006-0.009,0.006-0.014c0.086-0.214,0.162-0.434,0.233-0.649c0.064-0.192,0.124-0.384,0.174-0.577
						c0.005-0.004,0.006-0.009,0.006-0.014c0.061-0.212,0.118-0.433,0.166-0.65c0.021-0.075,0.041-0.146,0.052-0.222
						c0.006-0.009,0.007-0.019,0.007-0.028c0.04-0.194,0.081-0.393,0.117-0.592c0.038-0.228,0.073-0.466,0.102-0.699l0.001-0.014
						c0-0.005,0-0.005,0-0.005c0.026-0.195,0.047-0.386,0.064-0.582c0.686-8.102-5.348-15.252-13.45-15.938
						c-4.857-0.411-9.374,1.594-12.359,5.01l0.009,0.01c-0.334,0.362-0.557,0.834-0.602,1.365c-0.107,1.267,0.829,2.381,2.095,2.488
						c0.234,0.02,0.462,0.005,0.683-0.048c0.093-0.016,0.182-0.042,0.271-0.073c0.214-0.314,0.445-0.614,0.69-0.9
						c0.009-0.011,0.019-0.021,0.028-0.032c0.246-0.284,0.506-0.555,0.782-0.809c0,0,0,0,0-0.005
						c0.219-0.203,0.443-0.396,0.68-0.578c0.088-0.074,0.181-0.144,0.273-0.208c0.2-0.147,0.405-0.288,0.613-0.42
						c0.087-0.055,0.178-0.11,0.269-0.16c0.223-0.135,0.451-0.26,0.686-0.37c0.081-0.046,0.166-0.082,0.246-0.119
						c0.111-0.053,0.216-0.102,0.325-0.146c0.075-0.032,0.15-0.064,0.224-0.092c0.139-0.056,0.284-0.111,0.432-0.161
						c0.139-0.051,0.283-0.096,0.431-0.137c0.168-0.053,0.345-0.101,0.527-0.143c0.133-0.032,0.27-0.064,0.407-0.086
						c0.078-0.017,0.157-0.035,0.235-0.043c0.118-0.024,0.23-0.043,0.347-0.057c0.166-0.024,0.336-0.044,0.506-0.058
						c0.117-0.014,0.238-0.023,0.354-0.028c0.126-0.009,0.251-0.012,0.377-0.016c0.169-0.005,0.342,0,0.51,0l0.062,0.005
						c0.182,0.006,0.36,0.016,0.541,0.031c5.774,0.489,10.075,5.585,9.587,11.36c-0.015,0.172-0.034,0.348-0.058,0.52
						c-0.002,0.019-0.003,0.038-0.01,0.062l0,0.005c-0.007,0.023-0.009,0.047-0.011,0.071l-0.012,0.081
						c-0.011,0.071-0.016,0.138-0.032,0.204c-0.016,0.071-0.026,0.142-0.042,0.208c-0.035,0.19-0.075,0.379-0.125,0.562
						c-0.029,0.118-0.064,0.24-0.098,0.358c-0.027,0.094-0.054,0.188-0.086,0.282c-0.02,0.061-0.044,0.126-0.064,0.187
						c-0.038,0.112-0.077,0.225-0.12,0.337c-0.024,0.061-0.049,0.126-0.078,0.186c-0.05,0.135-0.11,0.27-0.169,0.4
						c-0.023,0.046-0.047,0.097-0.07,0.148c-0.047,0.102-0.099,0.203-0.151,0.305c-0.046,0.088-0.092,0.175-0.143,0.262
						c-0.041,0.088-0.092,0.175-0.147,0.257c-0.04,0.074-0.079,0.143-0.129,0.215c-0.051,0.087-0.106,0.174-0.166,0.256
						c-0.045,0.078-0.094,0.151-0.149,0.223c-0.055,0.082-0.115,0.164-0.18,0.245c-0.055,0.082-0.12,0.163-0.184,0.244
						c-0.032,0.041-0.065,0.086-0.102,0.126c-0.086,0.108-0.177,0.216-0.273,0.319c-0.096,0.112-0.197,0.224-0.302,0.331
						c-0.101,0.107-0.206,0.214-0.32,0.315c-0.073,0.071-0.152,0.146-0.235,0.216c-0.057,0.053-0.115,0.106-0.172,0.154
						c-0.058,0.053-0.115,0.101-0.176,0.149c-0.28,0.231-0.572,0.447-0.878,0.648l3.567,2.627
						C133.165,255.386,133.573,255.011,133.953,254.615z"/>
					<path style="fill:#542FD0;" d="M132.741,255.735c0.424-0.349,0.832-0.724,1.212-1.12c0.121-0.12,0.237-0.245,0.349-0.37
						c0.138-0.147,0.271-0.3,0.4-0.457c0.134-0.157,0.263-0.32,0.393-0.487c0.011-0.014,0.022-0.027,0.033-0.045
						c0.113-0.144,0.222-0.294,0.327-0.449c0.038-0.05,0.076-0.104,0.11-0.159c0.071-0.1,0.137-0.2,0.199-0.306
						c0.077-0.109,0.148-0.219,0.216-0.333c0.045-0.073,0.095-0.151,0.135-0.229c0.078-0.128,0.152-0.262,0.226-0.395
						c0.057-0.106,0.114-0.212,0.172-0.322c0.04-0.078,0.081-0.166,0.122-0.25c0.087-0.176,0.169-0.347,0.247-0.528
						c0.095-0.213,0.185-0.427,0.266-0.647c0.005-0.004,0.006-0.009,0.006-0.014c0.086-0.214,0.162-0.434,0.233-0.649
						c0.064-0.192,0.124-0.384,0.174-0.577c0.005-0.004,0.006-0.009,0.006-0.014c0.061-0.212,0.118-0.433,0.166-0.65
						c0.021-0.075,0.041-0.146,0.052-0.222c0.006-0.009,0.007-0.019,0.007-0.028c0.04-0.194,0.081-0.393,0.117-0.592
						c0.038-0.228,0.073-0.466,0.102-0.699l0.001-0.014c0-0.005,0-0.005,0-0.005c-0.133-0.421-0.386-0.788-0.719-1.057
						c-0.378-0.316-0.867-0.512-1.395-0.527c-0.903-0.028-1.71,0.467-2.111,1.227l0,0.005c-0.007,0.023-0.009,0.047-0.011,0.071
						l-0.012,0.081c-0.011,0.071-0.016,0.138-0.032,0.204c-0.016,0.071-0.026,0.142-0.042,0.208
						c-0.035,0.19-0.075,0.379-0.125,0.562c-0.029,0.118-0.064,0.24-0.098,0.358c-0.027,0.094-0.054,0.188-0.086,0.282
						c-0.02,0.061-0.044,0.126-0.064,0.187c-0.038,0.112-0.077,0.225-0.12,0.337c-0.024,0.061-0.049,0.126-0.078,0.186
						c-0.05,0.135-0.11,0.27-0.169,0.4c-0.023,0.046-0.047,0.097-0.07,0.148c-0.047,0.102-0.094,0.204-0.151,0.305
						c-0.041,0.088-0.092,0.175-0.143,0.262c-0.041,0.088-0.092,0.175-0.147,0.257c-0.04,0.074-0.085,0.147-0.129,0.215
						c-0.051,0.087-0.106,0.174-0.166,0.256c-0.045,0.078-0.094,0.151-0.149,0.223c-0.055,0.082-0.115,0.164-0.18,0.245
						c-0.055,0.082-0.12,0.163-0.184,0.244c-0.032,0.041-0.065,0.086-0.102,0.126c-0.086,0.108-0.177,0.216-0.273,0.319
						c-0.096,0.112-0.197,0.224-0.302,0.331c-0.101,0.107-0.206,0.214-0.32,0.315c-0.073,0.071-0.152,0.146-0.235,0.216
						c-0.057,0.053-0.115,0.106-0.172,0.154c-0.058,0.053-0.115,0.101-0.176,0.149c-0.28,0.231-0.572,0.447-0.878,0.648
						c-1.831,1.217-4.063,1.871-6.41,1.73c-0.091-0.003-0.177-0.01-0.268-0.018c-0.554-0.047-1.096-0.136-1.619-0.262
						c-0.005,0-0.005,0-0.01-0.001l-0.005,0c-0.836,0.261-1.48,0.996-1.592,1.921c-0.064,0.524,0.057,1.035,0.31,1.456
						c0.219,0.37,0.545,0.677,0.937,0.874c0,0,0,0,0.005,0c0.464,0.092,0.94,0.161,1.417,0.211l0.201,0.017
						C126.126,259.373,129.875,258.087,132.741,255.735z"/>
				</g>
				<g>
					<rect x="144.247" y="254.841" style="fill:#542FD0;" width="21.79" height="2.931"/>
					<rect x="144.247" y="248.86" style="fill:#542FD0;" width="50.202" height="2.931"/>
					<rect x="144.247" y="242.878" style="fill:#542FD0;" width="37.598" height="2.931"/>
					<rect x="144.247" y="236.897" style="fill:#542FD0;" width="44.719" height="2.931"/>
					<rect x="144.247" y="230.915" style="fill:#542FD0;" width="36.636" height="2.931"/>
					<rect x="183.483" y="230.915" style="fill:#542FD0;" width="10.966" height="2.931"/>
				</g>
			</g>
		</g>
		<g>
			<rect x="100.702" y="271.468" style="opacity:0.5;fill:#FFFFFF;" width="101.685" height="53.94"/>
			<g>
				<g>
					<rect x="123.544" y="303.728" style="fill:#FFC655;" width="5.088" height="17.195"/>
					<rect x="154.725" y="299.311" style="fill:#FFC655;" width="5.088" height="21.612"/>
					<rect x="133.612" y="308.857" style="fill:#D42190;" width="5.088" height="12.066"/>
					<rect x="114.865" y="308.857" style="fill:#542FD0;" width="4.322" height="12.066"/>
					<rect x="144.141" y="298.44" style="fill:#542FD0;" width="5.088" height="22.483"/>
					<rect x="165.308" y="291.174" style="fill:#D42190;" width="5.088" height="29.749"/>
					<rect x="175.094" y="284.657" style="fill:#542FD0;" width="5.088" height="36.266"/>
					<g>
						<path style="fill:#542FD0;" d="M112.394,305.746c-0.126,0-0.251-0.046-0.337-0.135c-0.152-0.158-0.126-0.392,0.06-0.522
							l16.819-11.73c0.171-0.118,0.423-0.11,0.581,0.02l6.96,5.729l12.355-9.449c0.16-0.123,0.402-0.128,0.569-0.011l7.194,5.03
							l21.886-18.617c0.171-0.145,0.447-0.146,0.617-0.001c0.17,0.145,0.171,0.379,0.001,0.524l-22.167,18.856
							c-0.159,0.136-0.414,0.147-0.586,0.024l-7.21-5.041l-12.379,9.466c-0.17,0.131-0.432,0.126-0.595-0.009l-6.973-5.74
							l-16.518,11.521C112.59,305.718,112.492,305.746,112.394,305.746z"/>
					</g>
				</g>
				<g>
					<g>
						<g>
							<rect x="187.018" y="280.922" style="fill:#542FD0;" width="4.112" height="4.112"/>
						</g>
						<g>
							<rect x="187.018" y="289.894" style="fill:#FFC655;" width="4.112" height="4.112"/>
						</g>
						<g>
							<rect x="187.018" y="298.866" style="fill:#D42190;" width="4.112" height="4.112"/>
						</g>
						<g>
							<rect x="187.018" y="307.839" style="fill:#542FD0;" width="4.112" height="4.112"/>
						</g>
						<g>
							<rect x="187.018" y="316.811" style="fill:#FFC655;" width="4.112" height="4.112"/>
						</g>
					</g>
				</g>
			</g>
		</g>
		<g>
			<rect x="237.521" y="287.46" style="opacity:0.5;fill:#FFFFFF;" width="167.054" height="68.557"/>
			<g>
				<g>
					<rect x="308.733" y="308.322" style="fill:#542FD0;" width="5.341" height="26.632"/>
					<rect x="320.269" y="315.158" style="fill:#D42190;" width="5.34" height="19.796"/>
					<rect x="331.805" y="294.65" style="fill:#FFC655;" width="5.341" height="40.304"/>
				</g>
				<g>
					<g>
						<g>
							<rect x="253.111" y="319.858" style="fill:#542FD0;" width="5.341" height="15.096"/>
							<rect x="264.647" y="297.499" style="fill:#D42190;" width="5.341" height="37.455"/>
							<rect x="276.182" y="312.452" style="fill:#FFC655;" width="5.341" height="22.502"/>
						</g>
						<g>
							<rect x="249.934" y="339.665" style="fill:#542FD0;" width="34.767" height="2.931"/>
							<rect x="249.934" y="345.896" style="fill:#542FD0;" width="11.282" height="2.931"/>
							<rect x="263.534" y="345.896" style="fill:#542FD0;" width="21.167" height="2.931"/>
						</g>
					</g>
					<g>
						<g>
							<rect x="360.573" y="326.715" style="fill:#542FD0;" width="5.341" height="8.239"/>
							<rect x="372.108" y="316.226" style="fill:#D42190;" width="5.341" height="18.728"/>
							<rect x="383.644" y="305.26" style="fill:#FFC655;" width="5.341" height="29.694"/>
						</g>
						<g>
							<rect x="357.395" y="339.665" style="fill:#542FD0;" width="34.767" height="2.931"/>
							<rect x="357.395" y="345.896" style="fill:#542FD0;" width="24.184" height="2.931"/>
							<rect x="383.898" y="345.896" style="fill:#542FD0;" width="8.264" height="2.931"/>
						</g>
					</g>
				</g>
				<g>
					<rect x="305.556" y="345.896" style="fill:#542FD0;" width="34.767" height="2.931"/>
					<rect x="305.556" y="339.665" style="fill:#542FD0;" width="11.282" height="2.931"/>
					<rect x="319.156" y="339.665" style="fill:#542FD0;" width="21.167" height="2.931"/>
				</g>
			</g>
		</g>
		<g>
			<rect x="138.7" y="330.837" style="opacity:0.5;fill:#FFFFFF;" width="93.186" height="23.519"/>
			<g>
				<polygon style="fill:#09136E;" points="200.432,345.615 143.838,345.615 146.699,339.579 203.293,339.579 				"/>
				<polygon style="fill:#09136E;" points="205.74,339.579 202.878,345.615 207.211,345.615 210.072,339.579 				"/>
				<polygon style="fill:#09136E;" points="212.103,339.579 209.242,345.615 213.574,345.615 216.436,339.579 				"/>
				<polygon style="fill:#09136E;" points="218.015,339.579 215.154,345.615 223.886,345.615 226.748,339.579 				"/>
			</g>
		</g>
	</g>
	<g>
		<path style="fill:#B19CFE;" d="M447.299,335.478l-3.502,2.636c-3.047,2.293-7.376,1.682-9.67-1.365l-27.686-36.785l14.536-10.941
			l27.686,36.785C450.957,328.856,450.346,333.185,447.299,335.478z"/>
		<path style="fill:#D42190;" d="M425.921,286.923c3.361,4.465,2.462,13.924-3.852,18.677c-6.314,4.752-15.653,2.998-19.014-1.467
			c-3.361-4.465,0.529-9.95,6.844-14.703C416.213,284.678,422.56,282.458,425.921,286.923z"/>
		<g>

				<ellipse transform="matrix(0.1428 -0.9898 0.9898 0.1428 72.1966 619.9708)" style="fill:#B19CFE;" cx="394" cy="268.307" rx="29.573" ry="29.573"/>
			<path style="opacity:0.5;fill:#DED7FF;" d="M411.961,257.529c4.216,5.601,3.093,13.56-2.509,17.776
				c-5.602,4.216-13.56,3.093-17.776-2.509s-3.093-13.56,2.509-17.776C399.786,250.804,407.745,251.927,411.961,257.529z"/>
			<path style="opacity:0.5;fill:#DED7FF;" d="M400.542,275.831c2.108,2.801,1.546,6.78-1.254,8.888
				c-2.801,2.108-6.78,1.546-8.888-1.254c-2.108-2.801-1.546-6.78,1.254-8.888C394.455,272.469,398.434,273.03,400.542,275.831z"/>
			<path style="fill:#542FD0;" d="M414.437,295.461c-14.973,11.269-36.321,8.256-47.59-6.716
				c-11.269-14.973-8.256-36.321,6.716-47.59c14.973-11.269,36.321-8.256,47.59,6.716
				C432.423,262.843,429.41,284.191,414.437,295.461z M378.87,248.204c-11.085,8.343-13.316,24.149-4.973,35.234
				s24.148,13.316,35.233,4.973c11.085-8.343,13.316-24.148,4.973-35.234C405.76,242.092,389.955,239.861,378.87,248.204z"/>
		</g>
	</g>
	<path style="fill:#542FD0;" d="M128.6,347.548l-8.465-1.181c-0.316-1.755-0.782-3.467-1.399-5.113l6.685-5.327
		c2.457-1.958,2.861-5.536,0.904-7.993l-4.342-5.449c-1.958-2.457-5.536-2.862-7.993-0.904l-6.684,5.327
		c-1.042-0.689-2.136-1.31-3.271-1.865l1.181-8.465c0.434-3.112-1.736-5.986-4.847-6.42l-6.901-0.963
		c-3.111-0.434-5.986,1.736-6.42,4.848l-1.181,8.465c-1.243,0.224-2.465,0.522-3.656,0.899l-4.971-6.953
		c-1.827-2.556-5.38-3.146-7.935-1.319l-5.668,4.052c-2.556,1.827-3.146,5.38-1.319,7.935l4.971,6.953
		c-1.044,1.414-1.961,2.933-2.746,4.534l-8.465-1.181c-3.111-0.434-5.985,1.736-6.42,4.847l-0.963,6.9
		c-0.434,3.112,1.736,5.986,4.847,6.42l8.465,1.181c0.316,1.755,0.782,3.467,1.399,5.113l-6.685,5.327
		c-2.457,1.958-2.862,5.537-0.904,7.993l4.342,5.449c1.958,2.457,5.537,2.862,7.993,0.904l6.685-5.327
		c1.043,0.688,2.136,1.31,3.27,1.865l-1.181,8.465c-0.434,3.111,1.736,5.986,4.847,6.42l6.901,0.963
		c3.111,0.434,5.985-1.736,6.42-4.847l1.181-8.465c1.243-0.224,2.465-0.522,3.656-0.899l4.971,6.953
		c1.827,2.556,5.38,3.146,7.935,1.319l5.668-4.052c2.555-1.827,3.146-5.38,1.319-7.935l-4.971-6.954
		c1.044-1.414,1.962-2.932,2.746-4.534l8.465,1.181c3.111,0.434,5.986-1.736,6.42-4.848l0.963-6.9
		C133.882,350.857,131.712,347.983,128.6,347.548z M88.453,370.33c-10.344-1.444-17.584-11.033-16.141-21.376
		c1.444-10.344,11.033-17.584,21.376-16.141s17.584,11.033,16.141,21.377C108.386,364.534,98.797,371.774,88.453,370.33z"/>
	<path style="fill:#542FD0;" d="M187.154,389.058l-5.937-2.285c0.068-1.326,0.018-2.645-0.152-3.943l5.745-2.733
		c2.111-1.004,3.009-3.53,2.004-5.642l-2.228-4.683c-1.004-2.112-3.53-3.009-5.642-2.004l-5.745,2.733
		c-0.639-0.675-1.327-1.31-2.056-1.904l2.285-5.937c0.84-2.182-0.248-4.632-2.43-5.472l-4.84-1.863
		c-2.182-0.84-4.632,0.248-5.472,2.431l-2.285,5.937c-0.939-0.048-1.875-0.038-2.802,0.034l-2.43-5.88
		c-0.893-2.161-3.369-3.189-5.53-2.296l-4.793,1.981c-2.161,0.893-3.189,3.369-2.296,5.53l2.43,5.88
		c-0.996,0.849-1.917,1.795-2.755,2.824l-5.937-2.285c-2.182-0.84-4.632,0.248-5.472,2.43l-1.863,4.84
		c-0.84,2.182,0.248,4.632,2.43,5.472l5.937,2.285c-0.067,1.326-0.018,2.645,0.152,3.942l-5.745,2.733
		c-2.111,1.004-3.009,3.531-2.004,5.642l2.228,4.683c1.005,2.111,3.531,3.009,5.642,2.004l5.745-2.733
		c0.639,0.675,1.327,1.31,2.056,1.904l-2.285,5.937c-0.84,2.182,0.248,4.632,2.43,5.472l4.84,1.863
		c2.182,0.84,4.632-0.248,5.472-2.43l2.285-5.937c0.939,0.048,1.875,0.038,2.802-0.034l2.43,5.879
		c0.893,2.161,3.369,3.189,5.53,2.296l4.793-1.981c2.161-0.893,3.189-3.369,2.296-5.53l-2.43-5.88
		c0.995-0.849,1.917-1.795,2.756-2.823l5.937,2.285c2.182,0.84,4.632-0.248,5.472-2.43l1.863-4.84
		C190.424,392.348,189.336,389.898,187.154,389.058z M154.206,398.796c-7.255-2.792-10.885-10.965-8.093-18.22
		c2.792-7.255,10.965-10.885,18.22-8.093s10.885,10.965,8.092,18.22C169.634,397.959,161.46,401.589,154.206,398.796z"/>
	<g>
		<circle style="fill:#D42190;" cx="234.206" cy="375.491" r="26.577"/>
		<g>
			<path style="fill:#09136E;" d="M240.96,364.813c0,3.73-3.024,6.754-6.754,6.754c-3.73,0-6.754-3.024-6.754-6.754
				s3.024-6.754,6.754-6.754C237.936,358.058,240.96,361.082,240.96,364.813z"/>
			<path style="fill:#09136E;" d="M246.917,390.243v-6.016c0-5.915-5.675-10.71-12.677-10.71h-0.068
				c-7.001,0-12.677,4.795-12.677,10.71v6.016H246.917z"/>
		</g>
	</g>
	<g>
		<circle style="fill:#FFC655;" cx="401.818" cy="368.411" r="31.633"/>
		<g>
			<path style="fill:#542FD0;" d="M401.819,396.238c-15.344,0-27.828-12.483-27.828-27.827s12.484-27.828,27.828-27.828
				s27.827,12.484,27.827,27.828S417.163,396.238,401.819,396.238z M401.819,342.978c-14.024,0-25.433,11.409-25.433,25.433
				c0,14.023,11.409,25.432,25.433,25.432c14.023,0,25.432-11.409,25.432-25.432C427.251,354.387,415.842,342.978,401.819,342.978z"
				/>
		</g>
	</g>
	<g>
		<g>
			<g>
				<path style="fill:#FFFFFF;" d="M218.959,112.815c0,1.389-1.126,2.515-2.515,2.515s-2.515-1.126-2.515-2.515
					c0-1.389,1.126-2.515,2.515-2.515S218.959,111.426,218.959,112.815z"/>
			</g>
			<g>
				<path style="fill:#FFFFFF;" d="M328.192,105.552c0,1.389-1.126,2.515-2.515,2.515c-1.389,0-2.515-1.126-2.515-2.515
					c0-1.389,1.126-2.515,2.515-2.515C327.066,103.037,328.192,104.163,328.192,105.552z"/>
			</g>
			<g>
				<path style="fill:#FFFFFF;" d="M216.911,114.618h-0.933V80.652c0-6.088,4.952-11.041,11.04-11.041h88.085
					c6.088,0,11.04,4.953,11.04,11.041v24.851h-0.933V80.652c0-5.574-4.534-10.108-10.107-10.108h-88.085
					c-5.573,0-10.107,4.534-10.107,10.108V114.618z"/>
			</g>
		</g>
		<g>
			<g>
				<path style="fill:#FFFFFF;" d="M83.922,168.207c1.389,0,2.515,1.126,2.515,2.515s-1.126,2.515-2.515,2.515
					c-1.389,0-2.515-1.126-2.515-2.515S82.533,168.207,83.922,168.207z"/>
			</g>
			<g>
				<path style="fill:#FFFFFF;" d="M83.922,223.127c1.389,0,2.515,1.126,2.515,2.515c0,1.389-1.126,2.515-2.515,2.515
					c-1.389,0-2.515-1.126-2.515-2.515C81.408,224.253,82.533,223.127,83.922,223.127z"/>
			</g>
			<g>
				<rect x="83.456" y="172.136" style="fill:#FFFFFF;" width="0.933" height="52.711"/>
			</g>
		</g>
		<g>
			<g>
				<path style="fill:#FFFFFF;" d="M400.144,392.901c0-1.389,1.126-2.515,2.515-2.515c1.389,0,2.515,1.126,2.515,2.515
					c0,1.389-1.126,2.515-2.515,2.515C401.27,395.416,400.144,394.29,400.144,392.901z"/>
			</g>
			<g>
				<path style="fill:#FFFFFF;" d="M156.319,403.135c0-1.389,1.126-2.515,2.515-2.515c1.389,0,2.515,1.126,2.515,2.515
					c0,1.389-1.126,2.515-2.515,2.515C157.444,405.65,156.319,404.524,156.319,403.135z"/>
			</g>
			<g>
				<path style="fill:#FFFFFF;" d="M392.085,429.74H169.408c-6.088,0-11.042-4.953-11.042-11.041v-16.651h0.933v16.651
					c0,5.573,4.534,10.108,10.108,10.108h222.676c5.573,0,10.107-4.534,10.107-10.108v-24.651h0.933v24.651
					C403.125,424.787,398.172,429.74,392.085,429.74z"/>
			</g>
		</g>
	</g>
</g>
<g id="TEXTS">

		<text transform="matrix(1 0 0 1 227.3081 241.622)" style="fill:#09136E; font-family:'Montserrat-Bold'; font-size:72.0526px; letter-spacing:3;">erp</text>
	<text transform="matrix(1 0 0 1 203.9458 151.9554)" style="fill:#09136E; font-family:'Montserrat-Bold'; font-size:39.1815px;">$</text>
	<text transform="matrix(1 0 0 1 389.3208 382.261)" style="fill:#09136E; font-family:'Montserrat-Bold'; font-size:39.1815px;">$</text>
</g>
</svg>
