<svg width="500" height="500" viewBox="0 0 500 500" fill="none" xmlns="http://www.w3.org/2000/svg">
<g clip-path="url(#clip0_406_603)">
<path opacity="0.4" d="M379.073 381.765C450.482 310.356 450.482 194.578 379.073 123.169C307.663 51.7592 191.886 51.7592 120.476 123.169C49.0667 194.578 49.0667 310.356 120.476 381.765C191.886 453.174 307.663 453.174 379.073 381.765Z" fill="#CAE7EF"/>
<path d="M51.169 245.987H116.676C118.063 245.987 119.187 244.863 119.187 243.476V224.123C119.187 222.736 118.063 221.612 116.676 221.612H51.169C49.782 221.612 48.658 222.736 48.658 224.123V243.476C48.658 244.863 49.782 245.987 51.169 245.987Z" fill="#CAE7EF"/>
<path d="M56.386 236.372C57.807 236.372 58.959 235.22 58.959 233.799C58.959 232.378 57.807 231.226 56.386 231.226C54.965 231.226 53.813 232.378 53.813 233.799C53.813 235.22 54.965 236.372 56.386 236.372Z" fill="#CAE7EF"/>
<path d="M65.3149 233.799C65.3149 235.22 66.4669 236.372 67.8879 236.372C69.3089 236.372 70.4609 235.22 70.4609 233.799C70.4609 232.378 69.3089 231.226 67.8879 231.226C66.4669 231.226 65.3149 232.378 65.3149 233.799Z" fill="#CAE7EF"/>
<path d="M79.3899 236.372C80.8109 236.372 81.9629 235.22 81.9629 233.799C81.9629 232.378 80.8109 231.226 79.3899 231.226C77.9689 231.226 76.8169 232.378 76.8169 233.799C76.8169 235.22 77.9689 236.372 79.3899 236.372Z" fill="#CAE7EF"/>
<path d="M51.169 273.625H116.676C118.063 273.625 119.187 272.502 119.187 271.115V251.761C119.187 250.374 118.063 249.25 116.676 249.25H51.169C49.782 249.25 48.658 250.374 48.658 251.761V271.115C48.658 272.502 49.782 273.625 51.169 273.625Z" fill="#CAE7EF"/>
<path d="M53.812 261.438C53.812 262.859 54.964 264.011 56.385 264.011C57.806 264.011 58.958 262.859 58.958 261.438C58.958 260.017 57.806 258.865 56.385 258.865C54.964 258.865 53.812 260.017 53.812 261.438Z" fill="#CAE7EF"/>
<path d="M65.3149 261.438C65.3149 262.859 66.4669 264.011 67.8879 264.011C69.3089 264.011 70.4609 262.859 70.4609 261.438C70.4609 260.017 69.3089 258.865 67.8879 258.865C66.4669 258.865 65.3149 260.017 65.3149 261.438Z" fill="#CAE7EF"/>
<path d="M76.8169 261.438C76.8169 262.859 77.9689 264.011 79.3899 264.011C80.8109 264.011 81.9629 262.859 81.9629 261.438C81.9629 260.017 80.8109 258.865 79.3899 258.865C77.9689 258.865 76.8169 260.017 76.8169 261.438Z" fill="#CAE7EF"/>
<path d="M51.169 301.263H116.676C118.063 301.263 119.187 300.139 119.187 298.752V279.4C119.187 278.013 118.063 276.889 116.676 276.889H51.169C49.782 276.889 48.658 278.013 48.658 279.4V298.753C48.658 300.139 49.782 301.263 51.169 301.263Z" fill="#CAE7EF"/>
<path d="M56.386 291.649C57.807 291.649 58.959 290.497 58.959 289.076C58.959 287.655 57.807 286.503 56.386 286.503C54.965 286.503 53.813 287.655 53.813 289.076C53.813 290.497 54.965 291.649 56.386 291.649Z" fill="#CAE7EF"/>
<path d="M65.3149 289.076C65.3149 290.497 66.4669 291.649 67.8879 291.649C69.3089 291.649 70.4609 290.497 70.4609 289.076C70.4609 287.655 69.3089 286.503 67.8879 286.503C66.4669 286.503 65.3149 287.655 65.3149 289.076Z" fill="#CAE7EF"/>
<path d="M79.3899 291.649C80.8109 291.649 81.9629 290.497 81.9629 289.076C81.9629 287.655 80.8109 286.503 79.3899 286.503C77.9689 286.503 76.8169 287.655 76.8169 289.076C76.8169 290.497 77.9689 291.649 79.3899 291.649Z" fill="#CAE7EF"/>
<path d="M84.2169 176.185C104.533 176.185 121.003 159.716 121.003 139.399C121.003 119.083 104.533 102.613 84.2169 102.613C63.9006 102.613 47.4309 119.083 47.4309 139.399C47.4309 159.716 63.9006 176.185 84.2169 176.185Z" fill="#4E94A6"/>
<path d="M84.2168 170.722C66.9448 170.722 52.8938 156.671 52.8938 139.399C52.8938 122.127 66.9458 108.076 84.2168 108.076C101.488 108.076 115.54 122.128 115.54 139.399C115.54 156.671 101.489 170.722 84.2168 170.722Z" fill="#01354B"/>
<path d="M81.3448 137.431C71.9268 144.534 66.2978 150.735 67.4158 152.253C68.5338 153.771 75.9938 150.057 85.5728 143.172L81.3448 137.431Z" fill="#4E94A6"/>
<path d="M87.7809 138.703C87.5739 126.909 85.9619 110.148 84.0759 110.159C82.1899 110.17 80.7159 126.95 80.6509 138.746L87.7809 138.703Z" fill="#4E94A6"/>
<path d="M84.2169 143.788C86.6409 143.788 88.6059 141.823 88.6059 139.399C88.6059 136.975 86.6409 135.01 84.2169 135.01C81.7929 135.01 79.8279 136.975 79.8279 139.399C79.8279 141.823 81.7929 143.788 84.2169 143.788Z" fill="#CAE7EF"/>
<path d="M365.18 128.999H355.958C355.359 127.17 354.605 125.411 353.7 123.744L360.049 117.055C362.382 114.597 362.281 110.712 359.823 108.379L354.37 103.204C351.912 100.87 348.027 100.972 345.694 103.43L339.346 110.119C338.129 109.539 336.868 109.038 335.573 108.613V99.3909C335.573 96.0009 332.825 93.2539 329.436 93.2539H321.919C318.53 93.2539 315.782 96.0019 315.782 99.3909V108.613C314.487 109.037 313.226 109.538 312.009 110.119L305.66 103.43C303.327 100.972 299.442 100.87 296.984 103.204L291.532 108.379C289.074 110.712 288.972 114.597 291.306 117.055L297.655 123.744C296.75 125.411 295.996 127.17 295.397 128.999H286.175C282.786 128.999 280.038 131.747 280.038 135.136V142.653C280.038 146.043 282.786 148.79 286.175 148.79H295.397C295.996 150.618 296.75 152.378 297.655 154.044L291.306 160.733C288.972 163.191 289.074 167.076 291.532 169.409L296.984 174.584C299.442 176.917 303.327 176.816 305.66 174.358L312.009 167.669C313.226 168.249 314.486 168.75 315.782 169.175V178.396C315.782 181.785 318.53 184.533 321.919 184.533H329.436C332.825 184.533 335.573 181.785 335.573 178.396V169.175C336.868 168.751 338.129 168.25 339.346 167.669L345.695 174.358C348.028 176.816 351.913 176.918 354.371 174.584L359.824 169.409C362.282 167.076 362.384 163.191 360.05 160.733L353.701 154.044C354.606 152.377 355.36 150.618 355.959 148.79H365.181C368.57 148.79 371.318 146.042 371.318 142.653V135.136C371.317 131.747 368.57 128.999 365.18 128.999ZM325.678 159.33C314.41 159.33 305.243 150.163 305.243 138.895C305.243 127.627 314.41 118.46 325.678 118.46C336.946 118.46 346.113 127.627 346.113 138.895C346.113 150.163 336.946 159.33 325.678 159.33Z" fill="#01354B"/>
<path d="M408.85 150.794V351.307C408.85 357.591 403.752 362.689 397.455 362.689H108.073C101.776 362.689 96.678 357.591 96.678 351.307V150.794C96.678 144.497 101.776 139.399 108.073 139.399H397.454C403.751 139.399 408.85 144.497 408.85 150.794Z" fill="#4E94A6"/>
<path d="M408.85 155.705V353.925C408.85 358.765 404.926 362.689 400.086 362.689H105.456C100.608 362.689 96.679 358.759 96.679 353.912V155.705H408.85Z" fill="#01354B"/>
<path d="M110.462 150.739C111.656 150.739 112.623 149.771 112.623 148.578C112.623 147.385 111.656 146.417 110.462 146.417C109.269 146.417 108.301 147.385 108.301 148.578C108.301 149.771 109.269 150.739 110.462 150.739Z" fill="white"/>
<path d="M123.914 150.739C125.107 150.739 126.075 149.771 126.075 148.578C126.075 147.385 125.107 146.417 123.914 146.417C122.72 146.417 121.753 147.385 121.753 148.578C121.753 149.771 122.72 150.739 123.914 150.739Z" fill="white"/>
<path d="M137.366 150.739C138.56 150.739 139.527 149.771 139.527 148.578C139.527 147.385 138.56 146.417 137.366 146.417C136.173 146.417 135.205 147.385 135.205 148.578C135.205 149.771 136.173 150.739 137.366 150.739Z" fill="white"/>
<path d="M395.087 148.578L397.12 146.6C397.251 146.472 397.263 146.252 397.147 146.109C397.031 145.964 396.829 145.953 396.699 146.08L394.609 148.113L392.519 146.08C392.387 145.953 392.186 145.965 392.07 146.109C391.953 146.252 391.966 146.473 392.097 146.6L394.13 148.578L392.097 150.556C391.966 150.684 391.954 150.904 392.07 151.047C392.133 151.124 392.22 151.164 392.308 151.164C392.383 151.164 392.458 151.135 392.519 151.076L394.609 149.043L396.699 151.076C396.76 151.135 396.835 151.164 396.91 151.164C396.998 151.164 397.085 151.125 397.148 151.047C397.265 150.904 397.252 150.684 397.121 150.556L395.087 148.578Z" fill="white"/>
<path d="M208.801 165.206H103.836V351.572H208.801V165.206Z" fill="#CAE7EF"/>
<path d="M399.716 165.206H215.881V266.269H399.716V165.206Z" fill="#CAE7EF"/>
<path d="M399.716 271.468H215.881V351.572H399.716V271.468Z" fill="#CAE7EF"/>
<path d="M247.268 145.145C251.153 128.113 240.496 111.156 223.464 107.271C206.432 103.385 189.475 114.043 185.59 131.075C181.704 148.106 192.362 165.063 209.393 168.949C226.425 172.834 243.382 162.177 247.268 145.145Z" fill="#FFC655"/>
<path d="M216.444 165.933C201.1 165.933 188.616 153.45 188.616 138.106C188.616 122.762 201.1 110.278 216.444 110.278C231.788 110.278 244.271 122.762 244.271 138.106C244.271 153.45 231.788 165.933 216.444 165.933ZM216.444 112.672C202.42 112.672 191.011 124.081 191.011 138.105C191.011 152.128 202.42 163.537 216.444 163.537C230.467 163.537 241.877 152.128 241.877 138.105C241.877 124.081 230.468 112.672 216.444 112.672Z" fill="#01354B"/>
<path d="M445.448 175.338C445.046 174.819 444.618 174.327 444.19 173.834C438.537 167.597 430.394 163.681 421.357 163.681C412.32 163.681 404.177 167.597 398.524 173.834C398.096 174.327 397.681 174.819 397.279 175.338C393.091 180.576 390.601 187.228 390.601 194.437C390.601 201.957 393.311 208.855 397.81 214.197C398.225 214.703 398.666 215.195 399.133 215.662C404.734 221.536 412.631 225.192 421.357 225.192C430.083 225.192 437.98 221.536 443.581 215.662C444.048 215.195 444.489 214.703 444.904 214.197C449.416 208.855 452.126 201.957 452.126 194.437C452.125 187.228 449.636 180.577 445.448 175.338ZM443.269 213.122C442.841 213.628 442.387 214.121 441.92 214.587C438.212 218.386 433.466 221.161 428.137 222.432C426.27 222.899 424.325 223.171 422.328 223.223C422.004 223.249 421.68 223.249 421.355 223.249C421.031 223.249 420.707 223.249 420.382 223.223C418.385 223.171 416.453 222.899 414.586 222.445C409.257 221.161 404.511 218.386 400.79 214.587C400.323 214.12 399.882 213.627 399.454 213.109C395.331 208.311 392.789 202.152 392.569 195.41C392.543 195.086 392.543 194.762 392.543 194.437C392.543 194.112 392.543 193.789 392.569 193.464C392.776 187.046 395.097 181.133 398.883 176.439C399.285 175.933 399.713 175.428 400.167 174.948C403.966 170.812 408.958 167.791 414.585 166.429C416.452 165.975 418.384 165.703 420.381 165.651C420.705 165.625 421.029 165.625 421.354 165.625C421.678 165.625 422.002 165.625 422.327 165.651C424.324 165.703 426.269 165.975 428.136 166.442C433.763 167.79 438.742 170.812 442.554 174.935C442.995 175.415 443.423 175.92 443.838 176.439C447.624 181.133 449.945 187.045 450.153 193.464C450.179 193.788 450.179 194.112 450.179 194.437C450.179 194.762 450.179 195.085 450.153 195.41C449.934 202.152 447.38 208.324 443.269 213.122Z" fill="#4E94A6"/>
<path d="M437.46 193.465C437.395 188.784 436.799 184.415 435.774 180.525C435.618 179.877 435.45 179.241 435.255 178.632C433.608 173.277 431.132 169.024 428.137 166.444C426.088 164.668 423.793 163.682 421.356 163.682C418.931 163.682 416.636 164.655 414.588 166.431C411.593 169.011 409.116 173.277 407.482 178.632C407.288 179.241 407.106 179.877 406.937 180.525C405.926 184.415 405.329 188.785 405.264 193.465C405.251 193.789 405.251 194.113 405.251 194.438C405.251 194.763 405.251 195.086 405.264 195.411C405.342 200.468 406.029 205.187 407.196 209.311C407.378 209.946 407.572 210.569 407.779 211.165C409.413 216.092 411.773 220.008 414.586 222.446C416.635 224.222 418.93 225.195 421.354 225.195C423.792 225.195 426.087 224.209 428.135 222.433C430.949 220.008 433.308 216.092 434.955 211.178C435.149 210.569 435.344 209.946 435.525 209.311C436.692 205.188 437.379 200.468 437.457 195.411C437.47 195.087 437.47 194.763 437.47 194.438C437.47 194.113 437.473 193.789 437.46 193.465ZM433.674 208.687C433.493 209.322 433.298 209.945 433.104 210.554C430.718 217.698 426.802 222.561 422.329 223.17C422.005 223.222 421.681 223.248 421.356 223.248C421.032 223.248 420.708 223.222 420.383 223.17C415.91 222.561 411.994 217.685 409.621 210.541C409.427 209.931 409.232 209.309 409.05 208.674C407.948 204.745 407.287 200.22 407.209 195.41C407.196 195.086 407.196 194.762 407.196 194.437C407.196 194.112 407.196 193.789 407.209 193.464C407.274 189.043 407.844 184.867 408.791 181.159C408.96 180.511 409.141 179.888 409.323 179.279C411.657 171.616 415.715 166.339 420.383 165.703C420.707 165.651 421.031 165.625 421.356 165.625C421.68 165.625 422.004 165.651 422.329 165.703C427.01 166.338 431.068 171.616 433.402 179.279C433.596 179.888 433.765 180.511 433.921 181.159C434.881 184.867 435.451 189.043 435.516 193.464C435.529 193.788 435.529 194.112 435.529 194.437C435.529 194.762 435.529 195.085 435.516 195.41C435.438 200.22 434.776 204.746 433.674 208.687Z" fill="#4E94A6"/>
<path d="M444.19 173.834C443.658 174.223 443.114 174.599 442.556 174.936C440.274 176.427 437.823 177.659 435.256 178.632C434.647 178.865 434.024 179.086 433.402 179.28C429.901 180.421 426.18 181.069 422.329 181.147C422.005 181.173 421.681 181.173 421.356 181.173C421.032 181.173 420.708 181.173 420.383 181.147C416.532 181.069 412.824 180.421 409.323 179.28C408.701 179.085 408.091 178.878 407.482 178.632C404.902 177.672 402.451 176.428 400.169 174.949C399.611 174.599 399.067 174.236 398.522 173.834C398.094 174.327 397.679 174.819 397.277 175.338C397.809 175.727 398.34 176.09 398.885 176.44C401.401 178.087 404.097 179.448 406.937 180.524C407.546 180.744 408.169 180.965 408.791 181.159C412.46 182.339 416.35 183.013 420.383 183.104C420.707 183.117 421.031 183.117 421.356 183.117C421.68 183.117 422.004 183.117 422.329 183.104C426.362 183.013 430.251 182.339 433.921 181.159C434.543 180.965 435.166 180.744 435.775 180.524C438.627 179.448 441.324 178.073 443.84 176.44C444.385 176.09 444.916 175.714 445.448 175.338C445.046 174.82 444.618 174.327 444.19 173.834Z" fill="#4E94A6"/>
<path d="M443.269 213.122C440.844 211.592 438.251 210.321 435.528 209.31C434.919 209.09 434.296 208.882 433.674 208.688C430.082 207.56 426.27 206.912 422.329 206.821C422.005 206.808 421.681 206.808 421.356 206.808C421.032 206.808 420.708 206.808 420.383 206.821C416.441 206.912 412.642 207.56 409.051 208.675C408.429 208.883 407.806 209.09 407.197 209.31C404.474 210.308 401.881 211.592 399.456 213.109C398.899 213.459 398.354 213.822 397.809 214.198C398.224 214.704 398.665 215.196 399.132 215.663C399.677 215.287 400.221 214.924 400.792 214.587C402.983 213.225 405.33 212.072 407.781 211.164C408.39 210.944 409 210.736 409.622 210.542C413.032 209.466 416.65 208.856 420.384 208.779C420.708 208.753 421.032 208.753 421.357 208.753C421.681 208.753 422.005 208.753 422.33 208.779C426.077 208.857 429.682 209.479 433.105 210.555C433.727 210.737 434.35 210.957 434.959 211.177C437.409 212.085 439.73 213.226 441.922 214.587C442.493 214.924 443.037 215.287 443.582 215.663C444.049 215.196 444.49 214.704 444.905 214.198C444.371 213.835 443.827 213.472 443.269 213.122Z" fill="#4E94A6"/>
<path d="M451.149 193.464H391.574V195.409H451.149V193.464Z" fill="#4E94A6"/>
<path d="M422.333 164.649H420.388V224.224H422.333V164.649Z" fill="#4E94A6"/>
<path d="M426.797 147.157C426.797 150.158 424.364 152.591 421.363 152.591C418.362 152.591 415.929 150.158 415.929 147.157C415.929 144.156 418.362 141.723 421.363 141.723C424.364 141.723 426.797 144.156 426.797 147.157Z" fill="#01354B"/>
<path d="M434.567 139.762C434.063 139.762 433.574 139.464 433.309 138.935C430.884 134.088 426.307 131.077 421.362 131.077C416.418 131.077 411.841 134.088 409.415 138.935C409.025 139.716 408.147 139.993 407.451 139.553C406.757 139.114 406.511 138.125 406.901 137.345C409.836 131.478 415.376 127.834 421.361 127.834C427.346 127.834 432.886 131.478 435.821 137.345C436.211 138.125 435.965 139.114 435.271 139.553C435.049 139.694 434.807 139.762 434.567 139.762Z" fill="#01354B"/>
<path d="M401.157 134.538C400.918 134.538 400.675 134.471 400.451 134.33C399.757 133.891 399.511 132.902 399.901 132.122C404.256 123.415 412.48 118.006 421.362 118.006C430.244 118.006 438.468 123.415 442.824 132.122C443.214 132.902 442.968 133.891 442.274 134.33C441.579 134.769 440.701 134.492 440.31 133.712C436.464 126.025 429.203 121.249 421.362 121.249C413.52 121.249 406.26 126.025 402.415 133.712C402.15 134.24 401.661 134.538 401.157 134.538Z" fill="#01354B"/>
<path d="M446.597 127.893C446.094 127.893 445.604 127.595 445.339 127.066C440.472 117.338 431.285 111.296 421.362 111.296C411.44 111.296 402.253 117.339 397.387 127.066C396.997 127.847 396.118 128.124 395.423 127.684C394.729 127.245 394.483 126.256 394.873 125.476C400.249 114.729 410.399 108.052 421.362 108.052C432.325 108.052 442.475 114.728 447.852 125.476C448.242 126.256 447.996 127.245 447.302 127.684C447.079 127.826 446.836 127.893 446.597 127.893Z" fill="#01354B"/>
<g opacity="0.5">
<path d="M363.175 374.039H349.129C348.871 374.039 348.662 373.83 348.662 373.572C348.662 373.314 348.871 373.106 349.129 373.106H363.175C363.433 373.106 363.641 373.315 363.641 373.572C363.641 373.83 363.432 374.039 363.175 374.039Z" fill="white"/>
<path d="M351.847 379.335H335.51C335.252 379.335 335.043 379.126 335.043 378.869C335.043 378.611 335.252 378.402 335.51 378.402H351.847C352.105 378.402 352.314 378.611 352.314 378.869C352.314 379.126 352.105 379.335 351.847 379.335Z" fill="white"/>
<path d="M344.09 374.039H339.996C339.738 374.039 339.53 373.83 339.53 373.572C339.53 373.314 339.739 373.106 339.996 373.106H344.09C344.348 373.106 344.557 373.315 344.557 373.572C344.557 373.83 344.348 374.039 344.09 374.039Z" fill="white"/>
<path d="M148.011 131.255H142.101C141.843 131.255 141.635 131.046 141.635 130.789C141.635 130.531 141.844 130.322 142.101 130.322H148.011C148.269 130.322 148.478 130.531 148.478 130.789C148.478 131.046 148.269 131.255 148.011 131.255Z" fill="white"/>
<path d="M138.772 131.255H125.438C125.18 131.255 124.972 131.046 124.972 130.789C124.972 130.531 125.181 130.322 125.438 130.322H138.772C139.03 130.322 139.238 130.531 139.238 130.789C139.239 131.046 139.03 131.255 138.772 131.255Z" fill="white"/>
<path d="M164.977 131.255H151.643C151.385 131.255 151.176 131.046 151.176 130.789C151.176 130.531 151.385 130.322 151.643 130.322H164.977C165.235 130.322 165.444 130.531 165.444 130.789C165.443 131.046 165.235 131.255 164.977 131.255Z" fill="white"/>
<path d="M146.193 124.471H132.86C132.602 124.471 132.393 124.262 132.393 124.004C132.393 123.746 132.602 123.537 132.86 123.537H146.193C146.451 123.537 146.66 123.746 146.66 124.004C146.66 124.262 146.451 124.471 146.193 124.471Z" fill="white"/>
<path d="M155.289 124.471H149.126C148.868 124.471 148.659 124.262 148.659 124.004C148.659 123.746 148.868 123.537 149.126 123.537H155.289C155.547 123.537 155.756 123.746 155.756 124.004C155.756 124.262 155.547 124.471 155.289 124.471Z" fill="white"/>
</g>
<path d="M396.166 92.4922C396.166 84.4942 389.682 78.0103 381.684 78.0103C373.686 78.0103 367.202 84.4942 367.202 92.4922C367.202 95.3812 368.058 98.0672 369.516 100.326L369.502 100.323L378.872 116.364C380.129 118.516 383.239 118.516 384.496 116.364L393.866 100.323L393.852 100.326C395.31 98.0662 396.166 95.3812 396.166 92.4922ZM381.684 97.9943C378.356 97.9943 375.658 95.2963 375.658 91.9683C375.658 88.6403 378.356 85.9423 381.684 85.9423C385.012 85.9423 387.71 88.6403 387.71 91.9683C387.71 95.2973 385.012 97.9943 381.684 97.9943Z" fill="#4E94A6"/>
<path opacity="0.5" d="M202.387 172.136H100.702V217.139H202.387V172.136Z" fill="white"/>
<path d="M133.945 184.352C133.561 183.959 133.153 183.584 132.726 183.239C132.596 183.129 132.462 183.023 132.328 182.922C132.17 182.797 132.007 182.677 131.839 182.562C131.671 182.442 131.498 182.327 131.321 182.212C131.307 182.202 131.292 182.193 131.273 182.183C131.119 182.082 130.961 181.986 130.798 181.895C130.745 181.861 130.688 181.828 130.63 181.799C130.524 181.737 130.419 181.679 130.308 181.626C130.193 181.559 130.078 181.496 129.958 181.439C129.881 181.401 129.8 181.358 129.718 181.324C129.584 181.257 129.445 181.194 129.305 181.132C129.195 181.084 129.084 181.036 128.969 180.988C128.888 180.954 128.796 180.921 128.71 180.887C128.528 180.815 128.35 180.748 128.163 180.685C127.942 180.608 127.722 180.536 127.496 180.474C127.491 180.469 127.486 180.469 127.482 180.469C127.261 180.402 127.036 180.344 126.815 180.291C126.618 180.243 126.422 180.2 126.225 180.166C126.22 180.161 126.215 180.161 126.211 180.161C125.995 180.118 125.77 180.079 125.549 180.051C125.472 180.037 125.4 180.022 125.324 180.017C125.314 180.012 125.305 180.012 125.295 180.012C125.098 179.988 124.897 179.964 124.695 179.945C124.465 179.926 124.225 179.912 123.99 179.902H123.976C123.971 179.902 123.971 179.902 123.971 179.902C123.774 179.892 123.582 179.888 123.386 179.888C115.255 179.888 108.639 186.503 108.639 194.635C108.639 199.509 111.018 203.841 114.674 206.527C117.116 208.321 120.128 209.381 123.386 209.381C130.966 209.381 137.221 203.634 138.037 196.27C138.037 196.27 138.037 196.27 138.037 196.265C138.09 195.795 138.119 195.315 138.128 194.835V194.633C138.128 190.637 136.53 187.01 133.945 184.352ZM133.772 196.283V196.288C132.971 201.306 128.62 205.149 123.386 205.149C121.606 205.149 119.927 204.703 118.459 203.916C118.368 203.868 118.281 203.82 118.195 203.767C118.181 203.757 118.166 203.753 118.152 203.743C117.999 203.657 117.85 203.565 117.701 203.47C117.379 203.264 117.068 203.038 116.77 202.794C116.621 202.674 116.473 202.549 116.333 202.42C116.333 202.42 116.333 202.42 116.328 202.42C116.107 202.219 115.896 202.012 115.695 201.792C115.613 201.71 115.537 201.624 115.465 201.538C115.302 201.351 115.144 201.159 114.995 200.962C114.933 200.881 114.87 200.794 114.813 200.708C114.659 200.497 114.516 200.281 114.386 200.056C114.333 199.979 114.29 199.898 114.247 199.821C114.185 199.715 114.127 199.615 114.074 199.509C114.036 199.437 113.997 199.365 113.964 199.293C113.897 199.159 113.83 199.02 113.767 198.876C113.705 198.742 113.647 198.603 113.594 198.459C113.527 198.296 113.464 198.123 113.407 197.946C113.364 197.817 113.321 197.682 113.287 197.548C113.263 197.471 113.239 197.394 113.225 197.318C113.191 197.203 113.163 197.092 113.139 196.977C113.101 196.814 113.067 196.646 113.038 196.478C113.014 196.363 112.995 196.243 112.98 196.128C112.961 196.003 112.946 195.879 112.932 195.754C112.913 195.586 112.903 195.414 112.889 195.246V195.183C112.879 195.001 112.875 194.823 112.875 194.641C112.875 188.846 117.591 184.13 123.386 184.13C123.559 184.13 123.736 184.135 123.909 184.144C123.928 184.144 123.947 184.144 123.971 184.149H123.976C124 184.154 124.024 184.154 124.048 184.154L124.13 184.159C124.202 184.164 124.269 184.164 124.336 184.173C124.408 184.183 124.48 184.187 124.547 184.197C124.739 184.216 124.931 184.24 125.118 184.274C125.238 184.293 125.363 184.317 125.483 184.341C125.579 184.36 125.675 184.379 125.771 184.403C125.833 184.417 125.901 184.437 125.963 184.451C126.078 184.48 126.193 184.508 126.308 184.542C126.37 184.561 126.438 184.58 126.5 184.604C126.639 184.642 126.778 184.69 126.913 184.738C126.961 184.757 127.014 184.776 127.066 184.795C127.172 184.833 127.277 184.872 127.383 184.92C127.474 184.953 127.565 184.997 127.656 185.04C127.747 185.073 127.838 185.117 127.925 185.165C128.002 185.199 128.078 185.237 128.151 185.275C128.242 185.318 128.333 185.366 128.42 185.419C128.502 185.457 128.578 185.5 128.655 185.549C128.741 185.597 128.828 185.65 128.914 185.707C129 185.755 129.087 185.812 129.173 185.87C129.216 185.899 129.264 185.928 129.307 185.961C129.422 186.038 129.537 186.119 129.648 186.206C129.768 186.292 129.888 186.384 130.003 186.479C130.118 186.57 130.233 186.666 130.344 186.772C130.421 186.839 130.502 186.911 130.579 186.988C130.637 187.041 130.694 187.093 130.747 187.146C130.805 187.199 130.857 187.252 130.91 187.309C131.164 187.568 131.404 187.842 131.63 188.129C132.997 189.851 133.837 192.02 133.894 194.37C133.899 194.461 133.899 194.547 133.899 194.639C133.899 195.196 133.856 195.742 133.774 196.275C133.772 196.278 133.772 196.278 133.772 196.283Z" fill="#4E94A6"/>
<path d="M132.726 183.239C132.596 183.129 132.462 183.023 132.328 182.922C132.17 182.797 132.007 182.677 131.839 182.562C131.671 182.442 131.498 182.327 131.321 182.212C131.307 182.202 131.292 182.193 131.273 182.183C131.119 182.082 130.961 181.986 130.798 181.895C130.745 181.861 130.688 181.828 130.63 181.799C130.524 181.737 130.419 181.679 130.308 181.626C130.193 181.559 130.078 181.496 129.958 181.439C129.881 181.401 129.8 181.358 129.718 181.324C129.584 181.257 129.445 181.194 129.305 181.132C129.195 181.084 129.084 181.036 128.969 180.988C128.888 180.954 128.796 180.921 128.71 180.887C128.528 180.815 128.35 180.748 128.163 180.685C127.942 180.608 127.722 180.536 127.496 180.474C127.491 180.469 127.486 180.469 127.482 180.469C127.261 180.402 127.036 180.344 126.815 180.291C126.618 180.243 126.422 180.2 126.225 180.166C126.22 180.161 126.215 180.161 126.211 180.161C125.995 180.118 125.77 180.079 125.549 180.051C125.472 180.037 125.4 180.022 125.324 180.017C125.314 180.012 125.305 180.012 125.295 180.012C125.098 179.988 124.897 179.964 124.695 179.945C124.465 179.926 124.225 179.912 123.99 179.902H123.976C123.971 179.902 123.971 179.902 123.971 179.902C123.774 179.892 123.582 179.888 123.386 179.888C115.255 179.888 108.639 186.503 108.639 194.635C108.639 199.509 111.018 203.841 114.674 206.527L114.684 206.517C115.073 206.819 115.562 207.002 116.094 207.002C117.365 207.002 118.397 205.975 118.397 204.704C118.397 204.469 118.363 204.243 118.292 204.028C118.268 203.937 118.234 203.85 118.196 203.764C117.865 203.577 117.547 203.373 117.241 203.152C117.23 203.144 117.218 203.135 117.207 203.127C116.903 202.906 116.612 202.67 116.335 202.416C116.335 202.416 116.335 202.416 116.33 202.416C116.109 202.215 115.898 202.008 115.697 201.788C115.615 201.706 115.539 201.62 115.467 201.534C115.304 201.347 115.146 201.155 114.997 200.958C114.935 200.877 114.872 200.79 114.815 200.704C114.661 200.493 114.518 200.277 114.388 200.052C114.335 199.975 114.292 199.894 114.249 199.817C114.187 199.711 114.129 199.611 114.076 199.505C114.038 199.433 113.999 199.361 113.966 199.289C113.899 199.155 113.832 199.016 113.769 198.872C113.707 198.738 113.649 198.599 113.596 198.455C113.529 198.292 113.466 198.119 113.409 197.942C113.366 197.813 113.323 197.678 113.289 197.544C113.265 197.467 113.241 197.39 113.227 197.314C113.193 197.199 113.165 197.088 113.141 196.973C113.103 196.81 113.069 196.642 113.04 196.474C113.016 196.359 112.997 196.239 112.982 196.124C112.963 195.999 112.948 195.875 112.934 195.75C112.915 195.582 112.905 195.41 112.891 195.242V195.179C112.881 194.997 112.877 194.819 112.877 194.637C112.877 188.842 117.593 184.126 123.388 184.126C123.561 184.126 123.738 184.131 123.911 184.14C123.93 184.14 123.949 184.14 123.973 184.145H123.978C124.002 184.15 124.026 184.15 124.05 184.15L124.132 184.155C124.204 184.16 124.271 184.16 124.338 184.169C124.41 184.179 124.482 184.183 124.549 184.193C124.741 184.212 124.933 184.236 125.12 184.27C125.24 184.289 125.365 184.313 125.485 184.337C125.581 184.356 125.677 184.375 125.773 184.399C125.835 184.413 125.903 184.433 125.965 184.447C126.08 184.476 126.195 184.504 126.31 184.538C126.372 184.557 126.44 184.576 126.502 184.6C126.641 184.638 126.78 184.686 126.915 184.734C126.963 184.753 127.016 184.772 127.068 184.791C127.174 184.829 127.279 184.872 127.385 184.916C127.476 184.954 127.567 184.993 127.658 185.036C127.749 185.069 127.84 185.113 127.927 185.161C128.004 185.195 128.076 185.228 128.153 185.271C128.244 185.314 128.335 185.362 128.422 185.415C128.504 185.453 128.58 185.496 128.657 185.545C128.743 185.593 128.83 185.646 128.916 185.703C129.002 185.751 129.089 185.808 129.175 185.866C129.218 185.895 129.266 185.924 129.309 185.957C129.424 186.034 129.539 186.115 129.65 186.202C129.77 186.288 129.89 186.38 130.005 186.475C130.12 186.566 130.235 186.662 130.346 186.768C130.423 186.835 130.504 186.907 130.581 186.984C130.639 187.037 130.696 187.089 130.749 187.142C130.807 187.195 130.859 187.248 130.912 187.305C131.166 187.564 131.406 187.838 131.632 188.125L133.949 184.35C133.561 183.959 133.153 183.585 132.726 183.239Z" fill="#215468"/>
<path d="M133.945 184.352C133.561 183.959 133.153 183.584 132.726 183.239C132.596 183.129 132.462 183.023 132.328 182.922C132.17 182.797 132.007 182.677 131.839 182.562C131.671 182.442 131.498 182.327 131.321 182.212C131.307 182.202 131.292 182.193 131.273 182.183C131.119 182.082 130.961 181.986 130.798 181.895C130.745 181.861 130.688 181.828 130.63 181.799C130.524 181.737 130.419 181.679 130.308 181.626C130.193 181.559 130.078 181.496 129.958 181.439C129.881 181.401 129.8 181.358 129.718 181.324C129.584 181.257 129.445 181.194 129.305 181.132C129.195 181.084 129.084 181.036 128.969 180.988C128.888 180.954 128.796 180.921 128.71 180.887C128.528 180.815 128.35 180.748 128.163 180.685C127.942 180.608 127.722 180.536 127.496 180.474C127.491 180.469 127.486 180.469 127.482 180.469C127.261 180.402 127.036 180.344 126.815 180.291C126.618 180.243 126.422 180.2 126.225 180.166C126.22 180.161 126.215 180.161 126.211 180.161C125.995 180.118 125.77 180.079 125.549 180.051C125.472 180.037 125.4 180.022 125.324 180.017C125.314 180.012 125.305 180.012 125.295 180.012C125.098 179.988 124.897 179.964 124.695 179.945C124.465 179.926 124.225 179.912 123.99 179.902H123.976C123.971 179.902 123.971 179.902 123.971 179.902C123.563 180.07 123.218 180.353 122.978 180.708C122.695 181.111 122.541 181.615 122.57 182.142C122.618 183.044 123.179 183.807 123.971 184.142H123.976C124 184.147 124.024 184.147 124.048 184.147L124.13 184.152C124.202 184.157 124.269 184.157 124.336 184.166C124.408 184.176 124.48 184.18 124.547 184.19C124.739 184.209 124.931 184.233 125.118 184.267C125.238 184.286 125.363 184.31 125.483 184.334C125.579 184.353 125.675 184.372 125.771 184.396C125.833 184.41 125.901 184.43 125.963 184.444C126.078 184.473 126.193 184.501 126.308 184.535C126.37 184.554 126.438 184.573 126.5 184.597C126.639 184.635 126.778 184.683 126.913 184.731C126.961 184.75 127.014 184.769 127.066 184.788C127.172 184.826 127.277 184.865 127.383 184.913C127.474 184.946 127.565 184.99 127.656 185.033C127.747 185.066 127.838 185.11 127.925 185.158C128.002 185.192 128.078 185.23 128.151 185.268C128.242 185.311 128.333 185.359 128.42 185.412C128.502 185.45 128.578 185.493 128.655 185.542C128.741 185.59 128.828 185.643 128.914 185.7C129 185.748 129.087 185.805 129.173 185.863C129.216 185.892 129.264 185.921 129.307 185.954C129.422 186.031 129.537 186.112 129.648 186.199C129.768 186.285 129.888 186.377 130.003 186.472C130.118 186.563 130.233 186.659 130.344 186.765C130.421 186.832 130.502 186.904 130.579 186.981C130.637 187.034 130.694 187.086 130.747 187.139C130.805 187.192 130.857 187.245 130.91 187.302C131.164 187.561 131.404 187.835 131.63 188.122C132.997 189.844 133.837 192.013 133.894 194.363C133.899 194.454 133.899 194.54 133.899 194.632C133.899 195.189 133.856 195.735 133.774 196.268C133.774 196.273 133.774 196.273 133.774 196.278V196.283C134.105 197.094 134.892 197.674 135.822 197.708C136.35 197.727 136.849 197.564 137.247 197.276C137.597 197.026 137.875 196.676 138.039 196.268C138.039 196.268 138.039 196.268 138.039 196.263C138.092 195.793 138.121 195.313 138.13 194.833V194.631C138.128 190.637 136.53 187.01 133.945 184.352Z" fill="#A1C4CD"/>
<path d="M166.037 181.209H144.247V184.14H166.037V181.209Z" fill="#01354B"/>
<path d="M194.449 187.191H144.247V190.122H194.449V187.191Z" fill="#01354B"/>
<path d="M181.845 193.172H144.247V196.103H181.845V193.172Z" fill="#01354B"/>
<path d="M188.966 199.153H144.247V202.084H188.966V199.153Z" fill="#01354B"/>
<path d="M180.883 205.135H144.247V208.066H180.883V205.135Z" fill="#01354B"/>
<path d="M194.449 205.135H183.483V208.066H194.449V205.135Z" fill="#01354B"/>
<path opacity="0.5" d="M202.387 221.842H100.702V266.845H202.387V221.842Z" fill="white"/>
<path d="M132.741 255.735C133.165 255.386 133.573 255.011 133.953 254.615C134.074 254.495 134.19 254.37 134.302 254.245C134.44 254.098 134.573 253.945 134.702 253.788C134.836 253.631 134.965 253.468 135.095 253.301C135.106 253.287 135.117 253.274 135.128 253.256C135.241 253.112 135.35 252.962 135.455 252.807C135.493 252.757 135.531 252.703 135.565 252.648C135.636 252.548 135.702 252.448 135.764 252.342C135.841 252.233 135.912 252.123 135.98 252.009C136.025 251.936 136.075 251.858 136.115 251.78C136.193 251.652 136.267 251.518 136.341 251.385C136.398 251.279 136.455 251.173 136.513 251.063C136.553 250.985 136.594 250.897 136.635 250.813C136.722 250.637 136.804 250.466 136.882 250.285C136.977 250.072 137.067 249.858 137.148 249.638C137.153 249.634 137.154 249.629 137.154 249.624C137.24 249.41 137.316 249.19 137.387 248.975C137.451 248.783 137.511 248.591 137.561 248.398C137.566 248.394 137.567 248.389 137.567 248.384C137.628 248.172 137.685 247.951 137.733 247.734C137.754 247.659 137.774 247.588 137.785 247.512C137.791 247.503 137.792 247.493 137.792 247.484C137.832 247.29 137.873 247.091 137.909 246.892C137.947 246.664 137.982 246.426 138.011 246.193L138.012 246.179C138.012 246.174 138.012 246.174 138.012 246.174C138.038 245.979 138.059 245.788 138.076 245.592C138.762 237.49 132.728 230.34 124.626 229.654C119.769 229.243 115.252 231.248 112.267 234.664C110.273 236.946 108.963 239.858 108.688 243.104C108.049 250.657 113.248 257.375 120.516 258.809C120.516 258.809 120.516 258.809 120.521 258.809C120.985 258.901 121.461 258.97 121.938 259.02L122.139 259.037C126.126 259.373 129.875 258.087 132.741 255.735ZM120.867 254.557H120.862C115.93 253.335 112.468 248.676 112.909 243.461C113.059 241.688 113.645 240.052 114.553 238.656C114.609 238.569 114.664 238.487 114.723 238.406C114.734 238.392 114.74 238.379 114.751 238.365C114.85 238.219 114.953 238.079 115.062 237.939C115.295 237.636 115.546 237.344 115.814 237.069C115.946 236.931 116.083 236.793 116.224 236.666C116.224 236.666 116.224 236.666 116.224 236.661C116.443 236.458 116.667 236.265 116.904 236.083C116.992 236.009 117.085 235.939 117.177 235.875C117.377 235.728 117.582 235.587 117.79 235.455C117.877 235.4 117.968 235.345 118.059 235.295C118.282 235.16 118.51 235.035 118.745 234.925C118.826 234.879 118.911 234.843 118.991 234.806C119.102 234.753 119.207 234.704 119.316 234.66C119.391 234.628 119.466 234.596 119.54 234.568C119.679 234.512 119.824 234.457 119.972 234.407C120.111 234.356 120.255 234.311 120.403 234.27C120.571 234.217 120.748 234.169 120.93 234.127C121.063 234.095 121.2 234.063 121.337 234.041C121.415 234.024 121.494 234.006 121.572 233.998C121.69 233.974 121.802 233.955 121.919 233.941C122.085 233.917 122.255 233.897 122.425 233.883C122.542 233.869 122.663 233.86 122.779 233.855C122.905 233.846 123.03 233.843 123.156 233.839C123.325 233.834 123.498 233.839 123.666 233.839L123.728 233.844C123.91 233.85 124.088 233.86 124.269 233.875C130.043 234.364 134.344 239.46 133.856 245.235C133.841 245.407 133.822 245.583 133.798 245.755C133.796 245.774 133.795 245.793 133.788 245.817V245.822C133.781 245.845 133.779 245.869 133.777 245.893L133.765 245.974C133.754 246.045 133.749 246.112 133.733 246.178C133.717 246.249 133.707 246.32 133.691 246.386C133.656 246.576 133.616 246.765 133.566 246.948C133.537 247.066 133.502 247.188 133.468 247.306C133.441 247.4 133.414 247.494 133.382 247.588C133.362 247.649 133.338 247.714 133.318 247.775C133.28 247.887 133.241 248 133.198 248.112C133.174 248.173 133.149 248.238 133.12 248.298C133.07 248.433 133.01 248.568 132.951 248.698C132.928 248.744 132.904 248.795 132.881 248.846C132.834 248.948 132.787 249.05 132.73 249.151C132.689 249.239 132.638 249.326 132.587 249.413C132.546 249.501 132.495 249.588 132.44 249.67C132.4 249.744 132.355 249.817 132.311 249.885C132.26 249.972 132.205 250.059 132.145 250.141C132.1 250.219 132.051 250.292 131.996 250.364C131.941 250.446 131.881 250.528 131.816 250.609C131.761 250.691 131.696 250.772 131.632 250.853C131.6 250.894 131.567 250.939 131.53 250.979C131.444 251.087 131.353 251.195 131.257 251.298C131.161 251.41 131.06 251.522 130.955 251.629C130.854 251.736 130.749 251.843 130.635 251.944C130.562 252.015 130.483 252.09 130.4 252.16C130.343 252.213 130.285 252.266 130.228 252.314C130.17 252.367 130.113 252.415 130.052 252.463C129.772 252.694 129.48 252.91 129.174 253.111C127.343 254.328 125.111 254.982 122.764 254.841C122.673 254.838 122.587 254.831 122.496 254.823C121.942 254.776 121.4 254.687 120.877 254.561C120.872 254.557 120.872 254.557 120.867 254.557Z" fill="#4E94A6"/>
<path d="M133.953 254.615C134.074 254.495 134.19 254.37 134.302 254.245C134.44 254.098 134.573 253.945 134.702 253.788C134.836 253.631 134.965 253.468 135.095 253.301C135.106 253.287 135.117 253.274 135.128 253.256C135.241 253.112 135.35 252.962 135.455 252.807C135.493 252.757 135.531 252.703 135.565 252.648C135.636 252.548 135.702 252.448 135.764 252.342C135.841 252.233 135.912 252.123 135.98 252.009C136.025 251.936 136.075 251.858 136.115 251.78C136.193 251.652 136.267 251.518 136.341 251.385C136.398 251.279 136.455 251.173 136.513 251.063C136.553 250.985 136.594 250.897 136.635 250.813C136.722 250.637 136.804 250.466 136.882 250.285C136.977 250.072 137.067 249.858 137.148 249.638C137.153 249.634 137.154 249.629 137.154 249.624C137.24 249.41 137.316 249.19 137.387 248.975C137.451 248.783 137.511 248.591 137.561 248.398C137.566 248.394 137.567 248.389 137.567 248.384C137.628 248.172 137.685 247.951 137.733 247.734C137.754 247.659 137.774 247.588 137.785 247.512C137.791 247.503 137.792 247.493 137.792 247.484C137.832 247.29 137.873 247.091 137.909 246.892C137.947 246.664 137.982 246.426 138.011 246.193L138.012 246.179C138.012 246.174 138.012 246.174 138.012 246.174C138.038 245.979 138.059 245.788 138.076 245.592C138.762 237.49 132.728 230.34 124.626 229.654C119.769 229.243 115.252 231.248 112.267 234.664L112.276 234.674C111.942 235.036 111.719 235.508 111.674 236.039C111.567 237.306 112.503 238.42 113.769 238.527C114.003 238.547 114.231 238.532 114.452 238.479C114.545 238.463 114.634 238.437 114.723 238.406C114.937 238.092 115.168 237.792 115.413 237.506C115.422 237.495 115.432 237.485 115.441 237.474C115.687 237.19 115.947 236.919 116.223 236.665C116.223 236.665 116.223 236.665 116.223 236.66C116.442 236.457 116.666 236.264 116.903 236.082C116.991 236.008 117.084 235.938 117.176 235.874C117.376 235.727 117.581 235.586 117.789 235.454C117.876 235.399 117.967 235.344 118.058 235.294C118.281 235.159 118.509 235.034 118.744 234.924C118.825 234.878 118.91 234.842 118.99 234.805C119.101 234.752 119.206 234.703 119.315 234.659C119.39 234.627 119.465 234.595 119.539 234.567C119.678 234.511 119.823 234.456 119.971 234.406C120.11 234.355 120.254 234.31 120.402 234.269C120.57 234.216 120.747 234.168 120.929 234.126C121.062 234.094 121.199 234.062 121.336 234.04C121.414 234.023 121.493 234.005 121.571 233.997C121.689 233.973 121.801 233.954 121.918 233.94C122.084 233.916 122.254 233.896 122.424 233.882C122.541 233.868 122.662 233.859 122.778 233.854C122.904 233.845 123.029 233.842 123.155 233.838C123.324 233.833 123.497 233.838 123.665 233.838L123.727 233.843C123.909 233.849 124.087 233.859 124.268 233.874C130.042 234.363 134.343 239.459 133.855 245.234C133.84 245.406 133.821 245.582 133.797 245.754C133.795 245.773 133.794 245.792 133.787 245.816V245.821C133.78 245.844 133.778 245.868 133.776 245.892L133.764 245.973C133.753 246.044 133.748 246.111 133.732 246.177C133.716 246.248 133.706 246.319 133.69 246.385C133.655 246.575 133.615 246.764 133.565 246.947C133.536 247.065 133.501 247.187 133.467 247.305C133.44 247.399 133.413 247.493 133.381 247.587C133.361 247.648 133.337 247.713 133.317 247.774C133.279 247.886 133.24 247.999 133.197 248.111C133.173 248.172 133.148 248.237 133.119 248.297C133.069 248.432 133.009 248.567 132.95 248.697C132.927 248.743 132.903 248.794 132.88 248.845C132.833 248.947 132.781 249.048 132.729 249.15C132.683 249.238 132.637 249.325 132.586 249.412C132.545 249.5 132.494 249.587 132.439 249.669C132.399 249.743 132.36 249.812 132.31 249.884C132.259 249.971 132.204 250.058 132.144 250.14C132.099 250.218 132.05 250.291 131.995 250.363C131.94 250.445 131.88 250.527 131.815 250.608C131.76 250.69 131.695 250.771 131.631 250.852C131.599 250.893 131.566 250.938 131.529 250.978C131.443 251.086 131.352 251.194 131.256 251.297C131.16 251.409 131.059 251.521 130.954 251.628C130.853 251.735 130.748 251.842 130.634 251.943C130.561 252.014 130.482 252.089 130.399 252.159C130.342 252.212 130.284 252.265 130.227 252.313C130.169 252.366 130.112 252.414 130.051 252.462C129.771 252.693 129.479 252.909 129.173 253.11L132.74 255.737C133.165 255.386 133.573 255.011 133.953 254.615Z" fill="#215468"/>
<path d="M132.741 255.735C133.165 255.386 133.573 255.011 133.953 254.615C134.074 254.495 134.19 254.37 134.302 254.245C134.44 254.098 134.573 253.945 134.702 253.788C134.836 253.631 134.965 253.468 135.095 253.301C135.106 253.287 135.117 253.274 135.128 253.256C135.241 253.112 135.35 252.962 135.455 252.807C135.493 252.757 135.531 252.703 135.565 252.648C135.636 252.548 135.702 252.448 135.764 252.342C135.841 252.233 135.912 252.123 135.98 252.009C136.025 251.936 136.075 251.858 136.115 251.78C136.193 251.652 136.267 251.518 136.341 251.385C136.398 251.279 136.455 251.173 136.513 251.063C136.553 250.985 136.594 250.897 136.635 250.813C136.722 250.637 136.804 250.466 136.882 250.285C136.977 250.072 137.067 249.858 137.148 249.638C137.153 249.634 137.154 249.629 137.154 249.624C137.24 249.41 137.316 249.19 137.387 248.975C137.451 248.783 137.511 248.591 137.561 248.398C137.566 248.394 137.567 248.389 137.567 248.384C137.628 248.172 137.685 247.951 137.733 247.734C137.754 247.659 137.774 247.588 137.785 247.512C137.791 247.503 137.792 247.493 137.792 247.484C137.832 247.29 137.873 247.091 137.909 246.892C137.947 246.664 137.982 246.426 138.011 246.193L138.012 246.179C138.012 246.174 138.012 246.174 138.012 246.174C137.879 245.753 137.626 245.386 137.293 245.117C136.915 244.801 136.426 244.605 135.898 244.59C134.995 244.562 134.188 245.057 133.787 245.817V245.822C133.78 245.845 133.778 245.869 133.776 245.893L133.764 245.974C133.753 246.045 133.748 246.112 133.732 246.178C133.716 246.249 133.706 246.32 133.69 246.386C133.655 246.576 133.615 246.765 133.565 246.948C133.536 247.066 133.501 247.188 133.467 247.306C133.44 247.4 133.413 247.494 133.381 247.588C133.361 247.649 133.337 247.714 133.317 247.775C133.279 247.887 133.24 248 133.197 248.112C133.173 248.173 133.148 248.238 133.119 248.298C133.069 248.433 133.009 248.568 132.95 248.698C132.927 248.744 132.903 248.795 132.88 248.846C132.833 248.948 132.786 249.05 132.729 249.151C132.688 249.239 132.637 249.326 132.586 249.413C132.545 249.501 132.494 249.588 132.439 249.67C132.399 249.744 132.354 249.817 132.31 249.885C132.259 249.972 132.204 250.059 132.144 250.141C132.099 250.219 132.05 250.292 131.995 250.364C131.94 250.446 131.88 250.528 131.815 250.609C131.76 250.691 131.695 250.772 131.631 250.853C131.599 250.894 131.566 250.939 131.529 250.979C131.443 251.087 131.352 251.195 131.256 251.298C131.16 251.41 131.059 251.522 130.954 251.629C130.853 251.736 130.748 251.843 130.634 251.944C130.561 252.015 130.482 252.09 130.399 252.16C130.342 252.213 130.284 252.266 130.227 252.314C130.169 252.367 130.112 252.415 130.051 252.463C129.771 252.694 129.479 252.91 129.173 253.111C127.342 254.328 125.11 254.982 122.763 254.841C122.672 254.838 122.586 254.831 122.495 254.823C121.941 254.776 121.399 254.687 120.876 254.561C120.871 254.561 120.871 254.561 120.866 254.56H120.861C120.025 254.821 119.381 255.556 119.269 256.481C119.205 257.005 119.326 257.516 119.579 257.937C119.798 258.307 120.124 258.614 120.516 258.811C120.516 258.811 120.516 258.811 120.521 258.811C120.985 258.903 121.461 258.972 121.938 259.022L122.139 259.039C126.126 259.373 129.875 258.087 132.741 255.735Z" fill="#A1C4CD"/>
<path d="M166.037 254.841H144.247V257.772H166.037V254.841Z" fill="#01354B"/>
<path d="M194.449 248.86H144.247V251.791H194.449V248.86Z" fill="#01354B"/>
<path d="M181.845 242.878H144.247V245.809H181.845V242.878Z" fill="#01354B"/>
<path d="M188.966 236.897H144.247V239.828H188.966V236.897Z" fill="#01354B"/>
<path d="M180.883 230.915H144.247V233.846H180.883V230.915Z" fill="#01354B"/>
<path d="M194.449 230.915H183.483V233.846H194.449V230.915Z" fill="#01354B"/>
<path opacity="0.5" d="M202.387 271.468H100.702V325.408H202.387V271.468Z" fill="white"/>
<path d="M128.632 303.729H123.544V320.924H128.632V303.729Z" fill="#4E94A6"/>
<path d="M159.813 299.312H154.725V320.924H159.813V299.312Z" fill="#4E94A6"/>
<path d="M138.7 308.857H133.612V320.923H138.7V308.857Z" fill="#4E94A6"/>
<path d="M119.187 308.857H114.865V320.923H119.187V308.857Z" fill="#01354B"/>
<path d="M149.229 298.44H144.141V320.923H149.229V298.44Z" fill="#01354B"/>
<path d="M170.396 291.174H165.308V320.923H170.396V291.174Z" fill="#4E94A6"/>
<path d="M180.182 284.657H175.094V320.923H180.182V284.657Z" fill="#01354B"/>
<path d="M112.394 305.746C112.268 305.746 112.143 305.7 112.057 305.611C111.905 305.453 111.931 305.219 112.117 305.089L128.936 293.359C129.107 293.241 129.359 293.249 129.517 293.379L136.477 299.108L148.832 289.659C148.992 289.536 149.234 289.531 149.401 289.648L156.595 294.678L178.481 276.061C178.652 275.916 178.928 275.915 179.098 276.06C179.268 276.205 179.269 276.439 179.099 276.584L156.932 295.44C156.773 295.576 156.518 295.587 156.346 295.464L149.136 290.423L136.757 299.889C136.587 300.02 136.325 300.015 136.162 299.88L129.189 294.14L112.671 305.661C112.59 305.718 112.492 305.746 112.394 305.746Z" fill="#542FD0"/>
<path d="M191.13 280.922H187.018V285.034H191.13V280.922Z" fill="#4E94A6"/>
<path d="M191.13 289.895H187.018V294.007H191.13V289.895Z" fill="#4E94A6"/>
<path d="M191.13 298.866H187.018V302.978H191.13V298.866Z" fill="#01354B"/>
<path d="M191.13 307.839H187.018V311.951H191.13V307.839Z" fill="#4E94A6"/>
<path d="M191.13 316.812H187.018V320.924H191.13V316.812Z" fill="#4E94A6"/>
<path opacity="0.5" d="M404.575 287.46H237.521V356.017H404.575V287.46Z" fill="white"/>
<path d="M314.074 308.322H308.733V334.954H314.074V308.322Z" fill="#01354B"/>
<path d="M325.609 315.158H320.269V334.954H325.609V315.158Z" fill="#215468"/>
<path d="M337.146 294.65H331.805V334.954H337.146V294.65Z" fill="#4E94A6"/>
<path d="M258.452 319.858H253.111V334.954H258.452V319.858Z" fill="#01354B"/>
<path d="M269.988 297.5H264.647V334.955H269.988V297.5Z" fill="#215468"/>
<path d="M281.523 312.453H276.182V334.955H281.523V312.453Z" fill="#4E94A6"/>
<path d="M284.701 339.666H249.934V342.597H284.701V339.666Z" fill="#01354B"/>
<path d="M261.216 345.896H249.934V348.827H261.216V345.896Z" fill="#01354B"/>
<path d="M284.701 345.896H263.534V348.827H284.701V345.896Z" fill="#01354B"/>
<path d="M365.914 326.716H360.573V334.955H365.914V326.716Z" fill="#4E94A6"/>
<path d="M377.449 316.227H372.108V334.955H377.449V316.227Z" fill="#4E94A6"/>
<path d="M388.985 305.261H383.644V334.955H388.985V305.261Z" fill="#01354B"/>
<path d="M392.162 339.666H357.395V342.597H392.162V339.666Z" fill="#01354B"/>
<path d="M381.579 345.896H357.395V348.827H381.579V345.896Z" fill="#01354B"/>
<path d="M392.162 345.896H383.898V348.827H392.162V345.896Z" fill="#01354B"/>
<path d="M340.323 345.896H305.556V348.827H340.323V345.896Z" fill="#01354B"/>
<path d="M316.838 339.666H305.556V342.597H316.838V339.666Z" fill="#01354B"/>
<path d="M340.323 339.666H319.156V342.597H340.323V339.666Z" fill="#01354B"/>
<path opacity="0.5" d="M231.886 330.837H138.7V354.356H231.886V330.837Z" fill="white"/>
<path d="M200.432 345.616H143.838L146.699 339.58H203.293L200.432 345.616Z" fill="#09136E"/>
<path d="M205.74 339.58L202.878 345.616H207.211L210.072 339.58H205.74Z" fill="#09136E"/>
<path d="M212.103 339.58L209.242 345.616H213.574L216.436 339.58H212.103Z" fill="#09136E"/>
<path d="M218.015 339.58L215.154 345.616H223.886L226.748 339.58H218.015Z" fill="#09136E"/>
<path d="M447.299 335.478L443.797 338.114C440.75 340.407 436.421 339.796 434.127 336.749L406.441 299.964L420.977 289.023L448.663 325.808C450.957 328.856 450.346 333.185 447.299 335.478Z" fill="#01354B"/>
<path d="M425.921 286.923C429.282 291.388 428.383 300.847 422.069 305.6C415.755 310.352 406.416 308.598 403.055 304.133C399.694 299.668 403.584 294.183 409.899 289.43C416.213 284.678 422.56 282.458 425.921 286.923Z" fill="#4E94A6"/>
<path d="M423.301 272.527C425.634 256.361 414.419 241.365 398.253 239.033C382.087 236.701 367.091 247.915 364.759 264.081C362.426 280.247 373.641 295.243 389.807 297.576C405.973 299.908 420.969 288.693 423.301 272.527Z" fill="#E4EFF3"/>
<path opacity="0.5" d="M411.961 257.529C416.177 263.13 415.054 271.089 409.452 275.305C403.85 279.521 395.892 278.398 391.676 272.796C387.46 267.194 388.583 259.236 394.185 255.02C399.786 250.804 407.745 251.927 411.961 257.529Z" fill="#4E94A6"/>
<path opacity="0.5" d="M400.542 275.831C402.65 278.632 402.088 282.611 399.288 284.719C396.487 286.827 392.508 286.265 390.4 283.465C388.292 280.664 388.854 276.685 391.654 274.577C394.455 272.469 398.434 273.03 400.542 275.831Z" fill="#01354B"/>
<path d="M414.437 295.461C399.464 306.73 378.116 303.717 366.847 288.745C355.578 273.772 358.591 252.424 373.563 241.155C388.536 229.886 409.884 232.899 421.153 247.871C432.423 262.843 429.41 284.191 414.437 295.461ZM378.87 248.204C367.785 256.547 365.554 272.353 373.897 283.438C382.24 294.523 398.045 296.754 409.13 288.411C420.215 280.068 422.446 264.263 414.103 253.177C405.76 242.092 389.955 239.861 378.87 248.204Z" fill="#01354B"/>
<path d="M92.9603 369.408L84.4953 368.227C84.1793 366.472 83.7132 364.76 83.0963 363.114L89.7812 357.787C92.2383 355.829 92.6423 352.251 90.6852 349.794L86.3433 344.345C84.3853 341.888 80.8073 341.483 78.3503 343.441L71.6663 348.768C70.6243 348.079 69.5303 347.458 68.3953 346.903L69.5763 338.438C70.0103 335.326 67.8403 332.452 64.7293 332.018L57.8283 331.055C54.7173 330.621 51.8422 332.791 51.4082 335.903L50.2272 344.368C48.9842 344.592 47.7623 344.89 46.5713 345.267L41.6003 338.314C39.7733 335.758 36.2203 335.168 33.6653 336.995L27.9973 341.047C25.4413 342.874 24.8513 346.427 26.6783 348.982L31.6493 355.935C30.6053 357.349 29.6883 358.868 28.9033 360.469L20.4383 359.288C17.3273 358.854 14.4533 361.024 14.0183 364.135L13.0553 371.035C12.6213 374.147 14.7913 377.021 17.9023 377.455L26.3673 378.636C26.6833 380.391 27.1493 382.103 27.7663 383.749L21.0813 389.076C18.6243 391.034 18.2193 394.613 20.1773 397.069L24.5193 402.518C26.4773 404.975 30.0563 405.38 32.5123 403.422L39.1973 398.095C40.2402 398.783 41.3333 399.405 42.4673 399.96L41.2863 408.425C40.8523 411.536 43.0223 414.411 46.1333 414.845L53.0343 415.808C56.1453 416.242 59.0193 414.072 59.4543 410.961L60.6353 402.496C61.8783 402.272 63.1003 401.974 64.2913 401.597L69.2623 408.55C71.0893 411.106 74.6423 411.696 77.1973 409.869L82.8652 405.817C85.4202 403.99 86.0113 400.437 84.1842 397.882L79.2132 390.928C80.2572 389.514 81.1753 387.996 81.9593 386.394L90.4243 387.575C93.5353 388.009 96.4102 385.839 96.8442 382.727L97.8073 375.827C98.2423 372.717 96.0723 369.843 92.9603 369.408ZM52.8133 392.19C42.4693 390.746 35.2292 381.157 36.6722 370.814C38.1162 360.47 47.7053 353.23 58.0483 354.673C68.3913 356.116 75.6323 365.706 74.1893 376.05C72.7463 386.394 63.1573 393.634 52.8133 392.19Z" fill="#01354B"/>
<path d="M151.514 410.919L145.577 408.634C145.645 407.308 145.595 405.989 145.425 404.691L151.17 401.958C153.281 400.954 154.179 398.428 153.174 396.316L150.946 391.633C149.942 389.521 147.416 388.624 145.304 389.629L139.559 392.362C138.92 391.687 138.232 391.052 137.503 390.458L139.788 384.521C140.628 382.339 139.54 379.889 137.358 379.049L132.518 377.186C130.336 376.346 127.886 377.434 127.046 379.617L124.761 385.554C123.822 385.506 122.886 385.516 121.959 385.588L119.529 379.708C118.636 377.547 116.16 376.519 113.999 377.412L109.206 379.393C107.045 380.286 106.017 382.762 106.91 384.923L109.34 390.803C108.344 391.652 107.423 392.598 106.585 393.627L100.648 391.342C98.4663 390.502 96.0163 391.59 95.1763 393.772L93.3133 398.612C92.4733 400.794 93.5613 403.244 95.7433 404.084L101.68 406.369C101.613 407.695 101.662 409.014 101.832 410.311L96.0873 413.044C93.9763 414.048 93.0783 416.575 94.0833 418.686L96.3113 423.369C97.3163 425.48 99.8423 426.378 101.953 425.373L107.698 422.64C108.337 423.315 109.025 423.95 109.754 424.544L107.469 430.481C106.629 432.663 107.717 435.113 109.899 435.953L114.739 437.816C116.921 438.656 119.371 437.568 120.211 435.386L122.496 429.449C123.435 429.497 124.371 429.487 125.298 429.415L127.728 435.294C128.621 437.455 131.097 438.483 133.258 437.59L138.051 435.609C140.212 434.716 141.24 432.24 140.347 430.079L137.917 424.199C138.912 423.35 139.834 422.404 140.673 421.376L146.61 423.661C148.792 424.501 151.242 423.413 152.082 421.231L153.945 416.391C154.784 414.209 153.696 411.759 151.514 410.919ZM118.566 420.657C111.311 417.865 107.681 409.692 110.473 402.437C113.265 395.182 121.438 391.552 128.693 394.344C135.948 397.136 139.578 405.309 136.785 412.564C133.994 419.82 125.82 423.45 118.566 420.657Z" fill="#01354B"/>
<path d="M234.206 402.068C248.884 402.068 260.783 390.169 260.783 375.491C260.783 360.813 248.884 348.914 234.206 348.914C219.528 348.914 207.629 360.813 207.629 375.491C207.629 390.169 219.528 402.068 234.206 402.068Z" fill="#4E94A6"/>
<path d="M240.96 364.813C240.96 368.543 237.936 371.567 234.206 371.567C230.476 371.567 227.452 368.543 227.452 364.813C227.452 361.083 230.476 358.059 234.206 358.059C237.936 358.058 240.96 361.082 240.96 364.813Z" fill="#01354B"/>
<path d="M246.917 390.243V384.227C246.917 378.312 241.242 373.517 234.24 373.517H234.172C227.171 373.517 221.495 378.312 221.495 384.227V390.243H246.917Z" fill="#01354B"/>
<path d="M401.818 400.044C419.288 400.044 433.451 385.882 433.451 368.411C433.451 350.941 419.288 336.778 401.818 336.778C384.348 336.778 370.185 350.941 370.185 368.411C370.185 385.882 384.348 400.044 401.818 400.044Z" fill="#FFC655"/>
<path d="M401.819 396.238C386.475 396.238 373.991 383.756 373.991 368.411C373.991 353.067 386.475 340.583 401.819 340.583C417.163 340.583 429.646 353.067 429.646 368.411C429.646 383.756 417.163 396.238 401.819 396.238ZM401.819 342.978C387.795 342.978 376.386 354.387 376.386 368.411C376.386 382.434 387.795 393.843 401.819 393.843C415.842 393.843 427.251 382.434 427.251 368.411C427.251 354.387 415.842 342.978 401.819 342.978Z" fill="#01354B"/>
<path d="M218.959 112.815C218.959 114.204 217.833 115.33 216.444 115.33C215.055 115.33 213.929 114.204 213.929 112.815C213.929 111.426 215.055 110.3 216.444 110.3C217.833 110.3 218.959 111.426 218.959 112.815Z" fill="#01354B"/>
<path d="M328.192 105.552C328.192 106.941 327.066 108.067 325.677 108.067C324.288 108.067 323.162 106.941 323.162 105.552C323.162 104.163 324.288 103.037 325.677 103.037C327.066 103.037 328.192 104.163 328.192 105.552Z" fill="#01354B"/>
<path d="M216.911 114.618H215.978V80.6523C215.978 74.5643 220.93 69.6113 227.018 69.6113H315.103C321.191 69.6113 326.143 74.5643 326.143 80.6523V105.503H325.21V80.6523C325.21 75.0783 320.676 70.5443 315.103 70.5443H227.018C221.445 70.5443 216.911 75.0783 216.911 80.6523V114.618Z" fill="#01354B"/>
<path d="M83.922 168.208C85.311 168.208 86.437 169.334 86.437 170.723C86.437 172.112 85.311 173.238 83.922 173.238C82.533 173.238 81.407 172.112 81.407 170.723C81.407 169.334 82.533 168.208 83.922 168.208Z" fill="#01354B"/>
<path d="M83.922 223.127C85.311 223.127 86.437 224.253 86.437 225.642C86.437 227.031 85.311 228.157 83.922 228.157C82.533 228.157 81.407 227.031 81.407 225.642C81.408 224.253 82.533 223.127 83.922 223.127Z" fill="#01354B"/>
<path d="M84.3891 172.137H83.4561V224.848H84.3891V172.137Z" fill="#01354B"/>
<path d="M400.144 392.901C400.144 391.512 401.27 390.386 402.659 390.386C404.048 390.386 405.174 391.512 405.174 392.901C405.174 394.29 404.048 395.416 402.659 395.416C401.27 395.416 400.144 394.29 400.144 392.901Z" fill="#01354B"/>
<path d="M156.319 403.135C156.319 401.746 157.445 400.62 158.834 400.62C160.223 400.62 161.349 401.746 161.349 403.135C161.349 404.524 160.223 405.65 158.834 405.65C157.444 405.65 156.319 404.524 156.319 403.135Z" fill="#01354B"/>
<path d="M392.085 429.74H169.408C163.32 429.74 158.366 424.787 158.366 418.699V402.048H159.299V418.699C159.299 424.272 163.833 428.807 169.407 428.807H392.083C397.656 428.807 402.19 424.273 402.19 418.699V394.048H403.123V418.699C403.125 424.787 398.172 429.74 392.085 429.74Z" fill="#01354B"/>
<path d="M251.734 240.146C247.315 240.146 243.424 239.281 240.061 237.552C236.747 235.823 234.177 233.469 232.352 230.491C230.526 227.464 229.614 224.03 229.614 220.187C229.614 216.296 230.502 212.862 232.28 209.884C234.105 206.857 236.579 204.504 239.701 202.823C242.823 201.093 246.354 200.229 250.293 200.229C254.088 200.229 257.498 201.045 260.524 202.678C263.599 204.264 266.024 206.569 267.802 209.595C269.579 212.574 270.468 216.152 270.468 220.331C270.468 220.764 270.444 221.268 270.396 221.844C270.348 222.373 270.299 222.877 270.251 223.358H238.764V216.801H264.343L260.02 218.746C260.02 216.729 259.612 214.975 258.795 213.486C257.978 211.997 256.85 210.844 255.409 210.028C253.968 209.163 252.286 208.731 250.365 208.731C248.444 208.731 246.738 209.163 245.249 210.028C243.808 210.844 242.679 212.021 241.863 213.558C241.046 215.047 240.638 216.825 240.638 218.89V220.62C240.638 222.733 241.094 224.606 242.007 226.24C242.968 227.825 244.289 229.05 245.97 229.914C247.699 230.731 249.716 231.139 252.022 231.139C254.088 231.139 255.889 230.827 257.426 230.202C259.011 229.578 260.452 228.641 261.749 227.392L267.73 233.877C265.952 235.895 263.719 237.456 261.029 238.561C258.339 239.617 255.24 240.146 251.734 240.146ZM277.951 239.569V200.805H288.687V211.757L287.174 208.587C288.327 205.849 290.176 203.783 292.722 202.39C295.268 200.949 298.366 200.229 302.017 200.229V210.604C301.536 210.556 301.104 210.532 300.72 210.532C300.335 210.484 299.927 210.46 299.495 210.46C296.42 210.46 293.923 211.349 292.001 213.126C290.128 214.855 289.191 217.569 289.191 221.268V239.569H277.951ZM331.613 240.146C328.346 240.146 325.488 239.425 323.038 237.984C320.589 236.543 318.667 234.358 317.274 231.427C315.929 228.449 315.257 224.702 315.257 220.187C315.257 215.624 315.905 211.877 317.202 208.947C318.499 206.017 320.372 203.831 322.822 202.39C325.272 200.949 328.202 200.229 331.613 200.229C335.263 200.229 338.53 201.069 341.412 202.75C344.342 204.384 346.648 206.689 348.329 209.668C350.058 212.646 350.923 216.152 350.923 220.187C350.923 224.27 350.058 227.801 348.329 230.779C346.648 233.757 344.342 236.063 341.412 237.696C338.53 239.329 335.263 240.146 331.613 240.146ZM308.7 253.548V200.805H319.436V208.731L319.22 220.259L319.94 231.716V253.548H308.7ZM329.667 230.923C331.541 230.923 333.198 230.491 334.639 229.626C336.128 228.761 337.305 227.537 338.169 225.951C339.082 224.318 339.538 222.397 339.538 220.187C339.538 217.93 339.082 216.008 338.169 214.423C337.305 212.838 336.128 211.613 334.639 210.748C333.198 209.884 331.541 209.451 329.667 209.451C327.794 209.451 326.113 209.884 324.624 210.748C323.134 211.613 321.958 212.838 321.093 214.423C320.228 216.008 319.796 217.93 319.796 220.187C319.796 222.397 320.228 224.318 321.093 225.951C321.958 227.537 323.134 228.761 324.624 229.626C326.113 230.491 327.794 230.923 329.667 230.923Z" fill="#01354B"/>
<path d="M214.799 155.476V118.645H218.717V155.476H214.799ZM216.21 151.244C214.015 151.244 211.913 150.957 209.901 150.382C207.89 149.781 206.271 149.011 205.043 148.07L207.198 143.29C208.373 144.126 209.758 144.818 211.351 145.367C212.971 145.889 214.603 146.151 216.249 146.151C217.503 146.151 218.508 146.033 219.266 145.798C220.049 145.537 220.624 145.184 220.99 144.74C221.355 144.296 221.538 143.787 221.538 143.212C221.538 142.481 221.251 141.906 220.676 141.488C220.102 141.044 219.344 140.691 218.404 140.43C217.463 140.143 216.419 139.881 215.269 139.646C214.146 139.385 213.01 139.072 211.86 138.706C210.737 138.34 209.705 137.87 208.765 137.295C207.825 136.721 207.054 135.963 206.453 135.023C205.879 134.083 205.591 132.881 205.591 131.418C205.591 129.851 206.009 128.427 206.845 127.147C207.707 125.841 208.987 124.81 210.685 124.052C212.409 123.269 214.564 122.877 217.15 122.877C218.874 122.877 220.572 123.086 222.244 123.504C223.915 123.895 225.391 124.496 226.671 125.306L224.712 130.125C223.432 129.394 222.152 128.858 220.872 128.519C219.592 128.153 218.338 127.97 217.111 127.97C215.883 127.97 214.877 128.114 214.094 128.401C213.31 128.689 212.749 129.067 212.409 129.538C212.069 129.982 211.9 130.504 211.9 131.105C211.9 131.81 212.187 132.385 212.762 132.829C213.336 133.247 214.094 133.586 215.034 133.848C215.975 134.109 217.006 134.37 218.13 134.631C219.279 134.892 220.415 135.193 221.538 135.532C222.688 135.872 223.732 136.329 224.673 136.904C225.613 137.478 226.371 138.236 226.945 139.176C227.546 140.117 227.847 141.305 227.847 142.742C227.847 144.283 227.416 145.693 226.554 146.973C225.692 148.253 224.399 149.285 222.675 150.069C220.977 150.852 218.822 151.244 216.21 151.244Z" fill="#01354B"/>
<path d="M400.174 385.781V348.951H404.092V385.781H400.174ZM401.585 381.55C399.39 381.55 397.288 381.262 395.276 380.688C393.265 380.087 391.646 379.316 390.418 378.376L392.573 373.596C393.748 374.432 395.133 375.124 396.726 375.673C398.346 376.195 399.978 376.456 401.624 376.456C402.878 376.456 403.883 376.339 404.641 376.104C405.424 375.842 405.999 375.49 406.365 375.046C406.73 374.602 406.913 374.092 406.913 373.518C406.913 372.786 406.626 372.212 406.051 371.794C405.477 371.35 404.719 370.997 403.779 370.736C402.838 370.448 401.794 370.187 400.644 369.952C399.521 369.691 398.385 369.377 397.235 369.012C396.112 368.646 395.08 368.176 394.14 367.601C393.2 367.026 392.429 366.269 391.828 365.329C391.254 364.388 390.966 363.187 390.966 361.724C390.966 360.157 391.384 358.733 392.22 357.453C393.082 356.147 394.362 355.115 396.06 354.358C397.784 353.574 399.939 353.182 402.525 353.182C404.249 353.182 405.947 353.391 407.619 353.809C409.29 354.201 410.766 354.802 412.046 355.612L410.087 360.431C408.807 359.7 407.527 359.164 406.247 358.824C404.967 358.459 403.713 358.276 402.486 358.276C401.258 358.276 400.252 358.42 399.469 358.707C398.685 358.994 398.124 359.373 397.784 359.843C397.444 360.287 397.275 360.81 397.275 361.41C397.275 362.116 397.562 362.69 398.137 363.134C398.711 363.552 399.469 363.892 400.409 364.153C401.35 364.414 402.381 364.676 403.505 364.937C404.654 365.198 405.79 365.498 406.913 365.838C408.063 366.178 409.107 366.635 410.048 367.209C410.988 367.784 411.746 368.542 412.32 369.482C412.921 370.422 413.222 371.611 413.222 373.047C413.222 374.589 412.791 375.999 411.929 377.279C411.067 378.559 409.774 379.591 408.05 380.374C406.352 381.158 404.197 381.55 401.585 381.55Z" fill="#01354B"/>
</g>
<defs>
<clipPath id="clip0_406_603">
<rect width="500" height="500" fill="white"/>
</clipPath>
</defs>
</svg>
