<?xml version="1.0" encoding="utf-8"?>
<svg version="1.1" xmlns="http://www.w3.org/2000/svg" x="0px" y="0px"
	 viewBox="0 0 500 500" style="enable-background:new 0 0 500 500;" xml:space="preserve">
<g id="OBJECTS">
	<g style="opacity:0.5;">

			<ellipse transform="matrix(0.7071 -0.7071 0.7071 0.7071 -205.0406 189.362)" style="fill:#DED7FF;" cx="126.06" cy="342.187" rx="86.405" ry="86.405"/>
		<circle style="fill:#DED7FF;" cx="322.106" cy="207.663" r="136.255"/>
	</g>
	<path style="fill:#09136E;" d="M259.38,176.441l-11.134-2.498c-0.228-2.37-0.662-4.698-1.303-6.956l9.477-6.356
		c3.483-2.336,4.413-7.054,2.077-10.537l-5.182-7.725c-2.336-3.483-7.054-4.413-10.537-2.077l-9.477,6.356
		c-1.312-1.03-2.699-1.976-4.148-2.84l2.498-11.134c0.918-4.093-1.655-8.154-5.747-9.072l-9.076-2.036
		c-4.092-0.918-8.154,1.655-9.072,5.748l-2.498,11.134c-1.679,0.162-3.337,0.425-4.963,0.796l-5.853-9.796
		c-2.151-3.6-6.814-4.775-10.414-2.623l-7.985,4.771c-3.6,2.151-4.775,6.814-2.623,10.414l5.853,9.796
		c-1.544,1.768-2.931,3.687-4.149,5.733l-11.134-2.498c-4.092-0.918-8.154,1.655-9.072,5.748l-2.036,9.076
		c-0.918,4.093,1.655,8.154,5.747,9.072l11.134,2.498c0.228,2.37,0.662,4.698,1.303,6.956l-9.477,6.356
		c-3.483,2.336-4.413,7.054-2.077,10.537l5.181,7.725c2.336,3.483,7.054,4.413,10.537,2.077l9.477-6.356
		c1.312,1.03,2.698,1.976,4.147,2.84l-2.498,11.134c-0.918,4.092,1.655,8.154,5.748,9.072l9.076,2.036
		c4.092,0.918,8.154-1.655,9.072-5.748l2.498-11.134c1.679-0.161,3.337-0.425,4.963-0.796l5.853,9.796
		c2.151,3.6,6.814,4.775,10.414,2.623l7.985-4.771c3.6-2.151,4.775-6.814,2.623-10.414l-5.854-9.796
		c1.544-1.767,2.931-3.687,4.149-5.733l11.134,2.498c4.092,0.918,8.154-1.655,9.072-5.748l2.036-9.076
		C266.046,181.421,263.472,177.359,259.38,176.441z M203.469,202.362c-13.605-3.052-22.19-16.603-19.138-30.208
		s16.603-22.19,30.208-19.138s22.19,16.603,19.138,30.208C230.625,196.829,217.075,205.414,203.469,202.362z"/>
	<path style="fill:#09136E;" d="M333.191,345.738l-7.436-4.882c0.485-1.792,0.808-3.609,0.961-5.432l8.66-2.033
		c3.183-0.747,5.158-3.933,4.41-7.116l-1.657-7.059c-0.747-3.183-3.933-5.158-7.116-4.41l-8.66,2.033
		c-0.674-1.112-1.426-2.183-2.245-3.211l4.882-7.436c1.794-2.733,1.033-6.404-1.7-8.198l-6.062-3.979
		c-2.733-1.794-6.404-1.033-8.198,1.7l-4.882,7.436c-1.269-0.343-2.551-0.607-3.839-0.783l-1.578-8.755
		c-0.58-3.218-3.659-5.356-6.877-4.776l-7.136,1.287c-3.218,0.58-5.356,3.659-4.775,6.877l1.579,8.755
		c-1.612,0.865-3.151,1.885-4.602,3.042l-7.436-4.882c-2.733-1.794-6.403-1.033-8.198,1.7l-3.979,6.062
		c-1.794,2.733-1.033,6.404,1.7,8.198l7.436,4.882c-0.485,1.792-0.808,3.609-0.961,5.432l-8.66,2.033
		c-3.183,0.747-5.158,3.933-4.411,7.116l1.657,7.06c0.747,3.183,3.933,5.158,7.116,4.41l8.66-2.033
		c0.674,1.112,1.425,2.183,2.245,3.211l-4.882,7.436c-1.794,2.733-1.033,6.404,1.7,8.198l6.062,3.979
		c2.733,1.794,6.403,1.033,8.198-1.7l4.882-7.436c1.269,0.344,2.551,0.607,3.839,0.783l1.579,8.755
		c0.58,3.218,3.659,5.356,6.877,4.775l7.136-1.287c3.217-0.58,5.356-3.659,4.775-6.877l-1.579-8.755
		c1.612-0.865,3.151-1.885,4.602-3.042l7.436,4.882c2.733,1.794,6.404,1.033,8.198-1.7l3.979-6.062
		C336.685,351.202,335.924,347.532,333.191,345.738z M285.28,349.284c-9.087-5.965-11.626-18.21-5.661-27.296
		c5.965-9.087,18.21-11.626,27.297-5.661c9.087,5.965,11.626,18.21,5.661,27.296C306.611,352.71,294.366,355.25,285.28,349.284z"/>
	<g>
		<path style="fill:#FFC655;" d="M410.519,213.134c-15.333-19.837-39.363-32.618-66.324-32.618c-8.933,0-17.708,1.43-26.026,4.148
			c-0.009,0.001-0.015,0-0.024,0.001c-1.842,0.2-7.989,2.33-14.135,5.57c-5.835,3.062-11.672,7.167-14.245,9.786l-26.006,25.873
			l-14.72,14.636l-14.747-14.658l-15.488-15.409c-0.304-0.423-0.625-0.838-0.974-1.238c-3.266-3.74-6.834-7.147-10.642-10.209
			c-0.107-0.089-0.216-0.176-0.325-0.262c-14.726-11.72-33.079-18.238-52.185-18.238c-27.053,0-51.151,12.877-66.476,32.814
			c-10.852,14.136-17.339,31.829-17.339,51.001c0,22.113,8.635,42.243,22.661,57.24c15.312,16.339,37.057,26.561,61.154,26.561
			c17.805,0,33.857-5.403,49.057-16.473c1.257-0.714,2.451-1.586,3.53-2.651l13.802-13.713l27.975-27.819l28.141,27.975
			l10.342,10.287c0.627,0.775,1.321,1.511,2.106,2.183c0.34,0.293,0.694,0.566,1.038,0.853c0.212,0.181,0.424,0.359,0.643,0.528
			c14.897,12.141,33.595,18.834,52.882,18.834c24.098,0,45.843-10.23,61.154-26.561c14.046-15,22.655-35.126,22.655-57.248
			C428.005,245.064,421.481,227.291,410.519,213.134z M197.657,291.617l-12.469,12.389c-0.029,0.022-0.061,0.039-0.09,0.061
			c-9.894,7.458-19.268,10.783-30.42,10.783c-14.094,0-26.875-5.816-36.044-15.162c-0.452-0.465-0.903-0.93-1.328-1.41
			c-7.909-8.675-12.821-20.088-13.136-32.664c-0.014-0.424-0.014-0.849-0.014-1.286c0-0.889,0.027-1.751,0.069-2.586
			c0.56-11.289,4.857-21.607,11.672-29.763c0.931-1.108,1.903-2.176,2.915-3.202c9.154-9.25,21.84-14.984,35.866-14.984
			c11.266,0,22.115,3.784,30.901,10.578l24.127,23.998l15.725,15.632L197.657,291.617z M380.008,299.939
			c-9.164,9.209-21.834,14.911-35.813,14.911c-11.487,0-22.608-3.926-31.536-11.075l-12.221-12.157l-27.787-27.62l15.938-15.849
			l14.252-14.174c1.185-0.795,2.296-1.74,3.278-2.867c9.608-11.006,23.498-17.308,38.077-17.308
			c14.046,0,26.782,5.769,35.947,15.044c9.009,9.142,14.579,21.657,14.579,35.481C394.721,278.215,389.107,290.797,380.008,299.939z
			"/>
		<g>
			<path style="fill:#542FD0;" d="M123.456,314.342c-1.707-1.742-3.942-2.646-6.201-2.722c-0.298-0.06-0.627-0.093-0.748-0.128
				c-0.52-0.152-1.024-0.355-1.506-0.603c-0.981-0.506-1.866-1.204-2.578-2.048c-1.269-1.506-1.194-2.668-1.176-4.627l6.06-5.935
				c-7.909-8.675-12.821-20.088-13.136-32.664c-0.014-0.424-0.014-0.849-0.014-1.286c0-0.889,0.027-1.751,0.069-2.586
				c0.56-11.289,4.857-21.607,11.672-29.763l-8.616-5.802c0.034-0.879,0.25-1.663,0.921-2.6c0.644-0.898,1.471-1.662,2.41-2.244
				c0.461-0.285,0.948-0.527,1.455-0.719c0.117-0.045,0.444-0.103,0.735-0.186c2.246-0.253,4.403-1.329,5.969-3.199
				c3.23-3.859,2.719-9.607-1.14-12.837c-3.859-3.23-9.607-2.72-12.837,1.14c-1.518,1.814-2.2,4.045-2.106,6.236
				c-0.055,0.336-0.048,0.786-0.076,0.934c-0.1,0.532-0.252,1.055-0.451,1.558c-0.408,1.027-1.014,1.975-1.785,2.768
				c-1.325,1.362-2.461,1.447-4.292,1.609l-7.884-5.31c-10.852,14.136-17.339,31.829-17.339,51.001
				c0,22.113,8.635,42.243,22.661,57.24l7.002-6.857c1.963,0.022,3.127-0.031,4.608,1.27c0.83,0.729,1.509,1.628,1.995,2.619
				c0.238,0.487,0.431,0.995,0.572,1.518c0.04,0.146,0.067,0.594,0.149,0.925c0.078,2.191,0.932,4.362,2.588,6.052
				c3.522,3.595,9.292,3.654,12.886,0.131C126.919,323.706,126.979,317.936,123.456,314.342z"/>
		</g>
		<g>
			<path style="fill:#542FD0;" d="M428.005,264.329c0-19.171-6.487-36.865-17.338-51.001l-7.884,5.31
				c-1.83-0.162-2.967-0.247-4.292-1.609c-0.77-0.792-1.377-1.741-1.784-2.768c-0.199-0.504-0.352-1.026-0.451-1.558
				c-0.028-0.148-0.021-0.598-0.076-0.934c0.094-2.191-0.587-4.422-2.106-6.236c-3.23-3.859-8.977-4.37-12.837-1.14
				c-3.859,3.23-4.37,8.977-1.139,12.837c1.565,1.87,3.722,2.946,5.968,3.199c0.293,0.083,0.618,0.141,0.736,0.186
				c0.506,0.192,0.993,0.434,1.454,0.719c0.939,0.582,1.766,1.346,2.41,2.244c0.671,0.936,0.887,1.721,0.921,2.6l-8.616,5.802
				c6.815,8.156,11.112,18.474,11.672,29.763c0.041,0.835,0.068,1.697,0.068,2.586c0,0.438,0,0.862-0.014,1.286
				c-0.315,12.576-5.227,23.988-13.136,32.664l6.06,5.935c0.018,1.959,0.093,3.121-1.176,4.627
				c-0.712,0.845-1.596,1.542-2.578,2.048c-0.482,0.248-0.986,0.451-1.506,0.603c-0.12,0.035-0.45,0.068-0.748,0.128
				c-2.259,0.076-4.494,0.98-6.201,2.722c-3.522,3.595-3.463,9.365,0.131,12.887c3.594,3.522,9.364,3.464,12.886-0.131
				c1.656-1.69,2.51-3.861,2.588-6.052c0.081-0.331,0.108-0.78,0.148-0.925c0.141-0.523,0.334-1.032,0.572-1.518
				c0.486-0.992,1.165-1.89,1.995-2.619c1.482-1.301,2.646-1.248,4.609-1.27l7.002,6.857
				C419.37,306.572,428.005,286.443,428.005,264.329z"/>
		</g>
		<g>
			<path style="fill:#542FD0;" d="M305.949,307.78c-1.723-1.621-3.91-2.431-6.103-2.465c-0.333-0.074-0.782-0.093-0.928-0.13
				c-0.526-0.13-1.038-0.313-1.529-0.541c-1.001-0.466-1.913-1.127-2.659-1.942c-1.16-1.267-1.286-2.316-1.34-3.862l7.049-7.224
				l-66.146-65.747l-7.052,6.454c-1.928-0.06-3.088-0.043-4.529-1.362c-0.815-0.746-1.476-1.658-1.942-2.659
				c-0.228-0.491-0.41-1.004-0.541-1.529c-0.037-0.146-0.056-0.596-0.13-0.928c-0.034-2.193-0.844-4.38-2.465-6.104
				c-3.448-3.665-9.216-3.841-12.881-0.392c-3.665,3.449-3.842,9.216-0.393,12.882c1.672,1.776,3.888,2.725,6.145,2.847
				c0.297,0.066,0.626,0.105,0.745,0.143c0.517,0.162,1.017,0.375,1.493,0.633c0.971,0.526,1.841,1.241,2.536,2.1
				c1.165,1.441,1.147,2.56,1.092,4.316l-6.666,6.1l67.478,67.078l6.252-6.407c1.748-0.054,2.865-0.069,4.302,1.092
				c0.859,0.695,1.574,1.565,2.1,2.536c0.258,0.476,0.471,0.977,0.633,1.494c0.038,0.12,0.077,0.449,0.143,0.745
				c0.121,2.257,1.071,4.474,2.847,6.145c3.666,3.449,9.433,3.273,12.882-0.392C309.79,316.996,309.614,311.229,305.949,307.78z"/>
		</g>
		<g>
			<path style="fill:#D42190;" d="M282.702,237.955c0.695-0.859,1.565-1.574,2.536-2.1c0.476-0.258,0.977-0.471,1.494-0.633
				c0.12-0.038,0.449-0.077,0.745-0.143c2.258-0.122,4.474-1.071,6.145-2.847c3.449-3.665,3.273-9.433-0.392-12.882
				c-3.665-3.449-9.432-3.273-12.881,0.392c-1.621,1.723-2.431,3.911-2.465,6.104c-0.075,0.332-0.093,0.782-0.13,0.928
				c-0.13,0.526-0.313,1.038-0.541,1.529c-0.466,1.001-1.127,1.913-1.942,2.659c-1.393,1.275-2.527,1.301-4.343,1.356l-7.169-6.426
				l-66.102,65.725l6.943,7.021c-0.052,1.656-0.139,2.743-1.347,4.064c-0.746,0.815-1.658,1.476-2.659,1.942
				c-0.491,0.228-1.004,0.41-1.53,0.541c-0.146,0.037-0.596,0.055-0.928,0.13c-2.192,0.034-4.38,0.844-6.103,2.465
				c-3.665,3.449-3.841,9.216-0.392,12.881c3.449,3.665,9.216,3.841,12.881,0.392c1.776-1.671,2.725-3.887,2.847-6.145
				c0.066-0.296,0.105-0.625,0.143-0.745c0.162-0.517,0.375-1.017,0.633-1.494c0.526-0.971,1.241-1.841,2.1-2.536
				c1.532-1.239,2.692-1.14,4.651-1.082l6.171,6.241l67.522-67.145l-6.989-6.265C281.56,240.342,281.624,239.289,282.702,237.955z"
				/>
		</g>
	</g>
	<g>
		<path style="fill:#D42190;" d="M435.573,261.76L435.573,261.76c0.11,4.565-3.502,8.355-8.067,8.465l-39.893-1.435l-0.296-11.743
			l39.791-3.353C431.673,253.583,435.463,257.195,435.573,261.76z"/>
		<g>

				<ellipse transform="matrix(0.7268 -0.6869 0.6869 0.7268 -83.3546 317.7292)" style="fill:#B19CFE;" cx="357.684" cy="263.635" rx="26.879" ry="26.879"/>
			<path style="opacity:0.3;fill:#FFFFFF;" d="M357.792,244.151c5.844-0.141,10.695,4.483,10.836,10.327
				c0.141,5.844-4.483,10.696-10.327,10.836c-5.844,0.141-10.695-4.483-10.836-10.327
				C347.325,249.143,351.948,244.292,357.792,244.151z"/>
			<path style="opacity:0.3;fill:#FFFFFF;" d="M364.514,258.236c4.032-0.097,7.379,3.093,7.476,7.124
				c0.097,4.032-3.093,7.379-7.124,7.476c-4.032,0.097-7.379-3.093-7.476-7.124C357.293,261.68,360.483,258.333,364.514,258.236z"/>
			<path style="fill:#09136E;" d="M388.564,262.891c0.41,17.028-13.109,31.214-30.136,31.623
				c-17.028,0.41-31.214-13.109-31.624-30.137c-0.41-17.028,13.109-31.214,30.137-31.623
				C373.968,232.345,388.154,245.864,388.564,262.891z M334.822,264.185c0.303,12.606,10.806,22.615,23.412,22.312
				c12.606-0.303,22.615-10.806,22.312-23.412c-0.303-12.606-10.806-22.615-23.413-22.312
				C344.527,241.076,334.519,251.579,334.822,264.185z"/>
		</g>
	</g>
	<g>
		<g style="opacity:0.4;">
			<path style="fill:#D42190;" d="M156.546,150.832v99.484c0,3.708-3.008,6.716-6.724,6.716H46.294
				c-3.716,0-6.724-3.008-6.724-6.716v-99.484c0-3.716,3.008-6.724,6.724-6.724h103.528
				C153.538,144.108,156.546,147.116,156.546,150.832z"/>
			<path style="fill:#DED7FF;" d="M156.546,153.73v98.132c0,2.856-2.315,5.172-5.171,5.172H44.749c-2.86,0-5.179-2.319-5.179-5.179
				V153.73H156.546z"/>
		</g>
		<g>
			<path style="fill:#09136E;" d="M73.914,161.501c-1.597-0.397-3.271-0.607-4.989-0.607c-8.991,0-16.662,5.752-19.522,13.77
				c-0.192,0.535-0.361,1.084-0.509,1.642c-0.451,1.696-0.692,3.472-0.692,5.306c0,4.159,1.232,8.036,3.355,11.289
				c0.634,0.973,1.352,1.892,2.137,2.744c3.128,3.4,7.38,5.747,12.164,6.457c0.999,0.152,2.026,0.228,3.066,0.228
				c11.423,0,20.718-9.29,20.718-20.718C89.643,171.907,82.937,163.741,73.914,161.501z M68.925,196.975
				c-0.62,0-1.232-0.036-1.83-0.107c-3.583-0.428-6.787-2.088-9.179-4.547c-1.084-1.111-1.999-2.383-2.699-3.779
				c-1.067-2.084-1.66-4.435-1.66-6.93c0-1.066,0.107-2.106,0.317-3.115c0.281-1.352,0.736-2.637,1.347-3.833
				c2.539-4.989,7.729-8.416,13.704-8.416c1.37,0,2.7,0.178,3.962,0.522c6.555,1.749,11.401,7.742,11.401,14.841
				C84.289,190.086,77.395,196.975,68.925,196.975z"/>
			<path style="fill:#FFC655;" d="M67.096,196.868l-1.236,5.234c-4.784-0.709-9.036-3.057-12.164-6.457
				c-0.785-0.852-1.504-1.771-2.137-2.744v-4.511l3.659,0.152c0.701,1.397,1.615,2.668,2.699,3.779
				C60.309,194.78,63.513,196.44,67.096,196.868z"/>
			<path style="fill:#D42190;" d="M57.917,192.321l-4.221,3.324c-3.409-3.695-5.493-8.625-5.493-14.034
				c0-1.834,0.241-3.61,0.692-5.306c0.147-0.558,0.317-1.107,0.509-1.642h5.819c-0.611,1.196-1.066,2.481-1.347,3.833
				c-0.21,1.008-0.317,2.048-0.317,3.115C53.558,185.775,55.218,189.55,57.917,192.321z"/>
			<path style="fill:#542FD0;" d="M73.914,161.501l-1.026,5.27c-1.263-0.344-2.592-0.522-3.962-0.522
				c-7.407,0-13.605,5.265-15.051,12.249l-4.98-2.191c2.347-8.862,10.437-15.412,20.031-15.412
				C70.643,160.894,72.317,161.104,73.914,161.501z"/>
		</g>
		<g>
			<rect x="97.727" y="171.91" style="fill:#09136E;" width="50.187" height="3.359"/>
			<rect x="97.727" y="179.933" style="fill:#09136E;" width="50.187" height="3.359"/>
			<rect x="97.727" y="187.956" style="fill:#09136E;" width="22.494" height="3.359"/>
			<rect x="123.682" y="187.956" style="fill:#09136E;" width="24.232" height="3.359"/>
		</g>
		<g>
			<rect x="51.652" y="216.423" style="fill:#09136E;" width="48.728" height="3.359"/>
			<rect x="103.68" y="216.423" style="fill:#09136E;" width="39.721" height="3.359"/>
			<rect x="51.652" y="224.446" style="fill:#09136E;" width="91.745" height="3.359"/>
			<rect x="51.652" y="239.696" style="fill:#09136E;" width="65.798" height="3.359"/>
			<rect x="120.636" y="239.696" style="fill:#09136E;" width="22.764" height="3.359"/>
			<rect x="51.652" y="232.469" style="fill:#09136E;" width="22.494" height="3.359"/>
			<rect x="77.607" y="232.469" style="fill:#09136E;" width="65.79" height="3.359"/>
		</g>
		<g>
			<g>
				<path style="fill:#FFFFFF;" d="M142.34,252.432c-0.057,0-0.113-0.022-0.156-0.064c-0.087-0.086-0.089-0.227-0.002-0.315
					l1.577-1.599l-1.577-1.599c-0.087-0.088-0.085-0.229,0.002-0.315c0.088-0.086,0.229-0.086,0.315,0.002l1.731,1.756
					c0.086,0.087,0.086,0.226,0,0.313l-1.731,1.756C142.454,252.41,142.397,252.432,142.34,252.432z"/>
			</g>
			<g>
				<path style="fill:#FFFFFF;" d="M147.201,252.432c-0.057,0-0.113-0.022-0.157-0.064c-0.087-0.086-0.089-0.227-0.002-0.315
					l1.577-1.599l-1.577-1.599c-0.087-0.088-0.085-0.229,0.002-0.315c0.088-0.086,0.229-0.086,0.315,0.002l1.732,1.756
					c0.086,0.087,0.086,0.226,0,0.313l-1.732,1.756C147.316,252.41,147.259,252.432,147.201,252.432z"/>
			</g>
		</g>
		<g>
			<g>
				<path style="fill:#FFFFFF;" d="M48.979,149.525c0,0.704-0.571,1.275-1.275,1.275c-0.704,0-1.275-0.571-1.275-1.275
					c0-0.704,0.571-1.275,1.275-1.275C48.408,148.249,48.979,148.82,48.979,149.525z"/>
				<path style="fill:#FFFFFF;" d="M56.916,149.525c0,0.704-0.571,1.275-1.275,1.275c-0.704,0-1.275-0.571-1.275-1.275
					c0-0.704,0.571-1.275,1.275-1.275C56.345,148.249,56.916,148.82,56.916,149.525z"/>
				<path style="fill:#FFFFFF;" d="M64.854,149.525c0,0.704-0.571,1.275-1.275,1.275c-0.704,0-1.275-0.571-1.275-1.275
					c0-0.704,0.571-1.275,1.275-1.275C64.283,148.249,64.854,148.82,64.854,149.525z"/>
			</g>
			<path style="fill:#FFFFFF;" d="M148.425,149.525l1.2-1.167c0.077-0.075,0.085-0.205,0.016-0.29
				c-0.068-0.085-0.188-0.092-0.265-0.017l-1.233,1.199l-1.233-1.199c-0.078-0.075-0.196-0.068-0.265,0.017
				c-0.069,0.085-0.062,0.214,0.016,0.29l1.2,1.167l-1.2,1.167c-0.077,0.075-0.085,0.205-0.016,0.29
				c0.037,0.046,0.089,0.069,0.14,0.069c0.044,0,0.089-0.017,0.124-0.052l1.233-1.199l1.233,1.199
				c0.036,0.035,0.08,0.052,0.125,0.052c0.052,0,0.103-0.023,0.14-0.069c0.069-0.085,0.061-0.215-0.016-0.29L148.425,149.525z"/>
		</g>
		<g>
			<g>
				<path style="fill:#FFFFFF;" d="M48.979,149.525c0,0.704-0.571,1.275-1.275,1.275c-0.704,0-1.275-0.571-1.275-1.275
					c0-0.704,0.571-1.275,1.275-1.275C48.408,148.249,48.979,148.82,48.979,149.525z"/>
				<path style="fill:#FFFFFF;" d="M56.916,149.525c0,0.704-0.571,1.275-1.275,1.275c-0.704,0-1.275-0.571-1.275-1.275
					c0-0.704,0.571-1.275,1.275-1.275C56.345,148.249,56.916,148.82,56.916,149.525z"/>
				<path style="fill:#FFFFFF;" d="M64.854,149.525c0,0.704-0.571,1.275-1.275,1.275c-0.704,0-1.275-0.571-1.275-1.275
					c0-0.704,0.571-1.275,1.275-1.275C64.283,148.249,64.854,148.82,64.854,149.525z"/>
			</g>
			<path style="fill:#FFFFFF;" d="M148.425,149.525l1.2-1.167c0.077-0.075,0.085-0.205,0.016-0.29
				c-0.068-0.085-0.188-0.092-0.265-0.017l-1.233,1.199l-1.233-1.199c-0.078-0.075-0.196-0.068-0.265,0.017
				c-0.069,0.085-0.062,0.214,0.016,0.29l1.2,1.167l-1.2,1.167c-0.077,0.075-0.085,0.205-0.016,0.29
				c0.037,0.046,0.089,0.069,0.14,0.069c0.044,0,0.089-0.017,0.124-0.052l1.233-1.199l1.233,1.199
				c0.036,0.035,0.08,0.052,0.125,0.052c0.052,0,0.103-0.023,0.14-0.069c0.069-0.085,0.061-0.215-0.016-0.29L148.425,149.525z"/>
		</g>
	</g>
	<g>
		<g style="opacity:0.4;">
			<path style="fill:#D42190;" d="M439.041,305.738v104.3c0,3.708-3.008,6.716-6.724,6.716H328.789
				c-3.716,0-6.724-3.008-6.724-6.716v-104.3c0-3.716,3.008-6.724,6.724-6.724h103.528
				C436.033,299.014,439.041,302.022,439.041,305.738z"/>
			<path style="fill:#DED7FF;" d="M439.041,308.636v102.947c0,2.856-2.315,5.172-5.172,5.172H327.244
				c-2.86,0-5.179-2.319-5.179-5.179V308.636H439.041z"/>
		</g>
		<g>
			<rect x="334.679" y="377.418" style="fill:#09136E;" width="48.728" height="3.359"/>
			<rect x="386.706" y="377.418" style="fill:#09136E;" width="39.721" height="3.359"/>
			<rect x="334.679" y="385.441" style="fill:#09136E;" width="91.745" height="3.359"/>
			<rect x="334.679" y="400.691" style="fill:#09136E;" width="65.798" height="3.359"/>
			<rect x="403.663" y="400.691" style="fill:#09136E;" width="22.764" height="3.359"/>
			<rect x="334.679" y="393.464" style="fill:#09136E;" width="22.494" height="3.359"/>
			<rect x="360.633" y="393.464" style="fill:#09136E;" width="65.79" height="3.359"/>
		</g>
		<g>
			<g>
				<path style="fill:#FFFFFF;" d="M331.473,304.431c0,0.704-0.571,1.275-1.275,1.275c-0.704,0-1.275-0.571-1.275-1.275
					c0-0.704,0.571-1.275,1.275-1.275C330.902,303.156,331.473,303.727,331.473,304.431z"/>
				<path style="fill:#FFFFFF;" d="M339.411,304.431c0,0.704-0.571,1.275-1.275,1.275c-0.704,0-1.275-0.571-1.275-1.275
					c0-0.704,0.571-1.275,1.275-1.275C338.84,303.156,339.411,303.727,339.411,304.431z"/>
				<path style="fill:#FFFFFF;" d="M347.348,304.431c0,0.704-0.571,1.275-1.275,1.275c-0.704,0-1.275-0.571-1.275-1.275
					c0-0.704,0.571-1.275,1.275-1.275C346.778,303.156,347.348,303.727,347.348,304.431z"/>
			</g>
			<path style="fill:#FFFFFF;" d="M430.92,304.431l1.2-1.167c0.077-0.075,0.085-0.205,0.016-0.29
				c-0.069-0.085-0.188-0.092-0.265-0.017l-1.233,1.199l-1.233-1.199c-0.078-0.075-0.196-0.068-0.265,0.017
				c-0.069,0.085-0.061,0.215,0.016,0.29l1.2,1.167l-1.2,1.167c-0.077,0.075-0.085,0.205-0.016,0.29
				c0.037,0.046,0.089,0.069,0.14,0.069c0.044,0,0.089-0.017,0.124-0.052l1.233-1.199l1.233,1.199
				c0.036,0.035,0.08,0.052,0.125,0.052c0.052,0,0.103-0.023,0.14-0.069c0.069-0.085,0.061-0.215-0.016-0.29L430.92,304.431z"/>
		</g>
		<g>
			<g>
				<g>
					<path style="fill:#FFFFFF;" d="M424.835,412.153c-0.056,0-0.113-0.022-0.156-0.064c-0.087-0.086-0.089-0.227-0.002-0.315
						l1.576-1.599l-1.576-1.599c-0.087-0.088-0.085-0.229,0.002-0.315c0.088-0.086,0.228-0.086,0.315,0.002l1.731,1.756
						c0.086,0.087,0.086,0.226,0,0.313l-1.731,1.756C424.949,412.131,424.892,412.153,424.835,412.153z"/>
				</g>
				<g>
					<path style="fill:#FFFFFF;" d="M429.696,412.153c-0.056,0-0.113-0.022-0.156-0.064c-0.087-0.086-0.089-0.227-0.002-0.315
						l1.577-1.599l-1.577-1.599c-0.087-0.088-0.085-0.229,0.002-0.315c0.088-0.086,0.229-0.086,0.315,0.002l1.732,1.756
						c0.086,0.087,0.086,0.226,0,0.313l-1.732,1.756C429.811,412.131,429.753,412.153,429.696,412.153z"/>
				</g>
			</g>
			<g>
				<g>
					<path style="fill:#FFFFFF;" d="M331.473,304.431c0,0.704-0.571,1.275-1.275,1.275c-0.704,0-1.275-0.571-1.275-1.275
						c0-0.704,0.571-1.275,1.275-1.275C330.902,303.156,331.473,303.727,331.473,304.431z"/>
					<path style="fill:#FFFFFF;" d="M339.411,304.431c0,0.704-0.571,1.275-1.275,1.275c-0.704,0-1.275-0.571-1.275-1.275
						c0-0.704,0.571-1.275,1.275-1.275C338.84,303.156,339.411,303.727,339.411,304.431z"/>
					<path style="fill:#FFFFFF;" d="M347.348,304.431c0,0.704-0.571,1.275-1.275,1.275c-0.704,0-1.275-0.571-1.275-1.275
						c0-0.704,0.571-1.275,1.275-1.275C346.778,303.156,347.348,303.727,347.348,304.431z"/>
				</g>
				<path style="fill:#FFFFFF;" d="M430.92,304.431l1.2-1.167c0.077-0.075,0.085-0.205,0.016-0.29
					c-0.069-0.085-0.188-0.092-0.265-0.017l-1.233,1.199l-1.233-1.199c-0.078-0.075-0.196-0.068-0.265,0.017
					c-0.069,0.085-0.061,0.215,0.016,0.29l1.2,1.167l-1.2,1.167c-0.077,0.075-0.085,0.205-0.016,0.29
					c0.037,0.046,0.089,0.069,0.14,0.069c0.044,0,0.089-0.017,0.124-0.052l1.233-1.199l1.233,1.199
					c0.036,0.035,0.08,0.052,0.125,0.052c0.052,0,0.103-0.023,0.14-0.069c0.069-0.085,0.061-0.215-0.016-0.29L430.92,304.431z"/>
			</g>
		</g>
		<g>
			<g>
				<rect x="347.51" y="349.131" style="fill:#FFC655;" width="6.004" height="20.291"/>
				<rect x="384.306" y="343.918" style="fill:#FFC655;" width="6.004" height="25.505"/>
				<rect x="359.392" y="355.183" style="fill:#D42190;" width="6.004" height="14.239"/>
				<rect x="337.268" y="355.183" style="fill:#542FD0;" width="5.1" height="14.239"/>
				<rect x="371.817" y="342.89" style="fill:#542FD0;" width="6.004" height="26.532"/>
				<rect x="396.795" y="334.316" style="fill:#D42190;" width="6.004" height="35.106"/>
				<rect x="408.344" y="326.625" style="fill:#542FD0;" width="6.004" height="42.797"/>
				<g>
					<path style="fill:#542FD0;" d="M334.353,351.512c-0.149,0-0.296-0.055-0.398-0.159c-0.18-0.187-0.149-0.462,0.071-0.616
						l19.848-13.843c0.202-0.139,0.499-0.13,0.685,0.024l8.214,6.761l14.58-11.15c0.189-0.146,0.475-0.151,0.672-0.012l8.49,5.936
						l25.827-21.97c0.201-0.171,0.527-0.172,0.728-0.001c0.201,0.171,0.202,0.448,0.001,0.618l-26.159,22.251
						c-0.188,0.161-0.488,0.173-0.692,0.029l-8.509-5.949l-14.608,11.171c-0.201,0.155-0.509,0.149-0.703-0.01l-8.228-6.773
						l-19.492,13.595C334.584,351.479,334.469,351.512,334.353,351.512z"/>
				</g>
			</g>
			<g>
				<g>
					<g>
						<rect x="422.415" y="322.218" style="fill:#542FD0;" width="4.853" height="4.853"/>
					</g>
					<g>
						<rect x="422.415" y="332.806" style="fill:#FFC655;" width="4.853" height="4.853"/>
					</g>
					<g>
						<rect x="422.415" y="343.394" style="fill:#D42190;" width="4.853" height="4.853"/>
					</g>
					<g>
						<rect x="422.415" y="353.982" style="fill:#542FD0;" width="4.853" height="4.853"/>
					</g>
					<g>
						<rect x="422.415" y="364.57" style="fill:#FFC655;" width="4.853" height="4.853"/>
					</g>
				</g>
			</g>
		</g>
	</g>
	<g>
		<g>
			<path style="fill:#B19CFE;" d="M134.867,130.613H55.068l-0.137-0.286c-0.586-1.216-0.882-2.523-0.882-3.883
				c0-4.946,4.024-8.97,8.969-8.97c0.256,0,0.521,0.013,0.797,0.04c-0.123-0.791-0.185-1.592-0.185-2.391
				c0-8.541,6.948-15.49,15.49-15.49c2.876,0,5.666,0.791,8.104,2.292c3.414-6.144,9.832-9.938,16.882-9.938
				c10.234,0,18.621,7.9,19.27,18.061c7.248,1.431,12.467,7.752,12.467,15.178c0,1.7-0.288,3.398-0.857,5.046L134.867,130.613z
				 M55.71,129.604h78.433c0.457-1.434,0.689-2.905,0.689-4.377c0-7.069-5.058-13.065-12.026-14.256l-0.402-0.069l-0.018-0.407
				c-0.425-9.812-8.456-17.497-18.282-17.497c-6.856,0-13.082,3.786-16.248,9.88l-0.259,0.499l-0.468-0.312
				c-2.379-1.584-5.148-2.421-8.01-2.421c-7.984,0-14.48,6.496-14.48,14.48c0,0.967,0.098,1.937,0.289,2.882l0.145,0.718
				l-0.723-0.12c-0.486-0.081-0.922-0.12-1.332-0.12c-4.389,0-7.96,3.571-7.96,7.961C55.058,127.546,55.277,128.608,55.71,129.604z"
				/>
		</g>
		<g>
			<path style="fill:#B19CFE;" d="M257.511,394.526h-79.799l-0.137-0.286c-0.586-1.216-0.882-2.523-0.882-3.883
				c0-4.946,4.024-8.97,8.969-8.97c0.257,0,0.521,0.014,0.796,0.04c-0.123-0.791-0.185-1.592-0.185-2.391
				c0-8.541,6.948-15.49,15.49-15.49c2.876,0,5.666,0.791,8.104,2.292c3.413-6.144,9.832-9.938,16.882-9.938
				c10.234,0,18.621,7.9,19.27,18.061c7.248,1.431,12.467,7.752,12.467,15.178c0,1.7-0.288,3.398-0.857,5.046L257.511,394.526z
				 M178.353,393.517h78.433c0.457-1.434,0.689-2.905,0.689-4.377c0-7.069-5.058-13.065-12.026-14.256l-0.402-0.069l-0.018-0.407
				c-0.425-9.812-8.455-17.497-18.282-17.497c-6.856,0-13.082,3.786-16.249,9.88l-0.259,0.499l-0.468-0.312
				c-2.379-1.584-5.148-2.421-8.01-2.421c-7.984,0-14.48,6.496-14.48,14.48c0,0.966,0.098,1.937,0.289,2.884l0.146,0.719
				l-0.725-0.122c-0.483-0.082-0.918-0.121-1.331-0.121c-4.389,0-7.96,3.571-7.96,7.961
				C177.702,391.459,177.92,392.521,178.353,393.517z"/>
		</g>
		<g>
			<path style="fill:#B19CFE;" d="M438.268,165.004h-70.892l-0.137-0.286c-0.523-1.087-0.789-2.255-0.789-3.471
				c0-4.421,3.596-8.017,8.017-8.017c0.208,0,0.42,0.01,0.639,0.03c-0.103-0.683-0.154-1.373-0.154-2.059
				c0-7.611,6.191-13.802,13.802-13.802c2.542,0,5.01,0.694,7.171,2.011c3.046-5.44,8.744-8.797,15.002-8.797
				c9.097,0,16.556,7.012,17.154,16.038c6.437,1.292,11.067,6.913,11.067,13.516c0,1.513-0.256,3.026-0.763,4.497L438.268,165.004z
				 M368.019,163.995h69.524c0.395-1.257,0.595-2.543,0.595-3.827c0-6.245-4.468-11.542-10.624-12.595l-0.402-0.069l-0.018-0.407
				c-0.376-8.677-7.479-15.474-16.168-15.474c-6.063,0-11.568,3.348-14.368,8.737l-0.259,0.499l-0.468-0.311
				c-2.103-1.4-4.55-2.139-7.077-2.139c-7.054,0-12.793,5.739-12.793,12.792c0,0.851,0.086,1.708,0.255,2.548l0.145,0.72
				l-0.723-0.122c-0.424-0.072-0.807-0.106-1.171-0.106c-3.864,0-7.007,3.143-7.007,7.007
				C367.46,162.205,367.647,163.127,368.019,163.995z"/>
		</g>
	</g>
	<g>
		<g>
			<path style="fill:#B19CFE;" d="M73.896,391.146H39.044v-24.78h34.852V391.146z M40.097,390.094h32.747v-22.674H40.097V390.094z"
				/>
		</g>
		<g>
			<g>

					<rect x="47.494" y="362.744" transform="matrix(0.6115 -0.7913 0.7913 0.6115 -276.8241 183.0898)" style="fill:#B19CFE;" width="1.052" height="21.357"/>
			</g>
			<g>

					<rect x="54.241" y="372.896" transform="matrix(0.7912 -0.6115 0.6115 0.7912 -214.8071 117.6652)" style="fill:#B19CFE;" width="21.358" height="1.052"/>
			</g>
		</g>
		<g>

				<rect x="66.613" y="374.548" transform="matrix(0.7387 -0.6741 0.6741 0.7387 -241.1544 145.5503)" style="fill:#B19CFE;" width="1.052" height="18.487"/>
		</g>
		<g>

				<rect x="36.557" y="383.266" transform="matrix(0.6742 -0.7386 0.7386 0.6742 -268.5403 158.884)" style="fill:#B19CFE;" width="18.487" height="1.052"/>
		</g>
	</g>
	<g>
		<path style="fill:#B19CFE;" d="M282.44,121.984l-0.258-0.146c-17.965-10.129-12.694-26.074-12.638-26.234l0.143-0.41l0.43,0.062
			c5.07,0.732,11.991-3.179,12.061-3.219l0.252-0.144l0.257,0.137c0.3,0.17,7.058,3.939,12.076,3.226l0.43-0.062l0.143,0.41
			c0.056,0.16,5.327,16.106-12.637,26.234L282.44,121.984z M270.414,96.351c-0.709,2.497-3.503,15.507,12.024,24.423
			c15.529-8.916,12.735-21.926,12.026-24.423c-4.847,0.473-10.71-2.542-12.026-3.256C281.119,93.803,275.194,96.809,270.414,96.351z
			"/>
	</g>
	<g>
		<g>
			<path style="fill:#D42190;" d="M133.494,327.774H58.339c-0.291,0-0.526-0.235-0.526-0.526v-74.817
				c0-0.291,0.235-0.526,0.526-0.526c0.291,0,0.526,0.235,0.526,0.526v74.29h74.628c0.291,0,0.526,0.235,0.526,0.526
				C134.02,327.539,133.785,327.774,133.494,327.774z"/>
		</g>
		<g>
			<path style="fill:#D42190;" d="M60.177,252.314c0,1.013-0.822,1.835-1.835,1.835c-1.014,0-1.835-0.822-1.835-1.835
				c0-1.014,0.822-1.835,1.835-1.835C59.355,250.479,60.177,251.3,60.177,252.314z"/>
		</g>
		<g>
			<path style="fill:#D42190;" d="M135.329,327.248c0,1.013-0.822,1.835-1.835,1.835c-1.013,0-1.835-0.822-1.835-1.835
				c0-1.013,0.822-1.835,1.835-1.835C134.507,325.413,135.329,326.234,135.329,327.248z"/>
		</g>
	</g>
	<g>
		<g>
			<path style="fill:#D42190;" d="M452.03,316.88h-24.025c-0.291,0-0.526-0.235-0.526-0.526c0-0.291,0.235-0.526,0.526-0.526h23.499
				V190.643h-84.272c-0.291,0-0.526-0.235-0.526-0.526c0-0.291,0.235-0.526,0.526-0.526h84.798c0.291,0,0.526,0.236,0.526,0.526
				v126.237C452.556,316.644,452.321,316.88,452.03,316.88z"/>
		</g>
		<g>
			<path style="fill:#D42190;" d="M425.433,316.354c0-1.013,0.822-1.835,1.835-1.835c1.013,0,1.835,0.822,1.835,1.835
				c0,1.013-0.822,1.835-1.835,1.835C426.254,318.189,425.433,317.367,425.433,316.354z"/>
		</g>
		<g>
			<path style="fill:#D42190;" d="M365.396,190.116c0-1.013,0.822-1.835,1.835-1.835c1.013,0,1.835,0.822,1.835,1.835
				c0,1.014-0.822,1.835-1.835,1.835C366.218,191.951,365.396,191.13,365.396,190.116z"/>
		</g>
	</g>
	<path style="fill:#09136E;" d="M250.535,311.418l-4.941-3.225c0.318-1.189,0.53-2.396,0.628-3.605l5.741-1.364
		c2.11-0.501,3.414-2.618,2.913-4.728l-1.112-4.68c-0.501-2.11-2.618-3.414-4.728-2.913l-5.741,1.364
		c-0.449-0.736-0.949-1.446-1.495-2.126l3.225-4.941c1.185-1.816,0.674-4.249-1.142-5.435l-4.028-2.629
		c-1.816-1.185-4.249-0.674-5.435,1.142l-3.225,4.941c-0.842-0.226-1.693-0.398-2.548-0.513l-1.063-5.804
		c-0.39-2.133-2.436-3.546-4.57-3.156l-4.731,0.866c-2.133,0.391-3.546,2.436-3.156,4.57l1.062,5.804
		c-1.068,0.577-2.087,1.256-3.047,2.026l-4.941-3.225c-1.816-1.185-4.249-0.674-5.435,1.142l-2.629,4.028
		c-1.185,1.816-0.674,4.249,1.142,5.435l4.941,3.225c-0.319,1.189-0.53,2.395-0.628,3.605l-5.741,1.364
		c-2.11,0.501-3.414,2.618-2.913,4.728l1.112,4.68c0.501,2.11,2.618,3.414,4.728,2.913l5.741-1.364
		c0.449,0.736,0.949,1.446,1.495,2.126l-3.225,4.941c-1.185,1.816-0.674,4.249,1.142,5.435l4.028,2.629
		c1.816,1.185,4.249,0.674,5.435-1.142l3.225-4.941c0.842,0.226,1.693,0.398,2.548,0.513l1.062,5.804
		c0.39,2.133,2.436,3.546,4.57,3.156l4.731-0.866c2.133-0.39,3.546-2.436,3.155-4.57l-1.062-5.804
		c1.068-0.577,2.087-1.256,3.047-2.026l4.941,3.225c1.816,1.185,4.249,0.674,5.435-1.142l2.629-4.028
		C252.862,315.036,252.351,312.603,250.535,311.418z M218.762,313.854c-6.038-3.941-7.743-12.058-3.803-18.096
		c3.941-6.038,12.058-7.743,18.096-3.803c6.038,3.941,7.744,12.058,3.803,18.096C232.917,316.089,224.799,317.795,218.762,313.854z"
		/>
	<path style="fill:#09136E;" d="M163.638,350.829l-0.021-39.947c4.925-2.279,8.293-6.847,8.29-12.12
		c-0.003-5.393-3.533-10.04-8.644-12.258l0.008,14.943l-13.481,0.007l-0.008-14.943c-5.109,2.223-8.634,6.874-8.632,12.267
		c0.003,5.273,3.375,9.838,8.302,12.112l0.021,39.947c-4.925,2.279-8.293,6.847-8.29,12.12c0.003,5.393,3.533,10.04,8.644,12.258
		l-0.008-14.943l13.481-0.007l0.008,14.943c5.109-2.223,8.634-6.874,8.632-12.267C171.938,357.667,168.566,353.102,163.638,350.829z
		"/>
	<g>
		<g>
			<path style="fill:#FFC655;" d="M58.254,348.226c0,2.085-1.69,3.776-3.776,3.776s-3.776-1.69-3.776-3.776s1.69-3.776,3.776-3.776
				S58.254,346.141,58.254,348.226z"/>
		</g>
		<g>
			<path style="fill:#FFC655;" d="M308.817,144.108c0,2.085-1.69,3.776-3.776,3.776s-3.776-1.691-3.776-3.776
				s1.691-3.776,3.776-3.776S308.817,142.023,308.817,144.108z"/>
		</g>
		<g>
			<path style="fill:#FFC655;" d="M152.696,120.575c-2.36,0-4.28-1.92-4.28-4.28c0-2.361,1.92-4.281,4.28-4.281
				s4.28,1.92,4.28,4.281C156.976,118.655,155.056,120.575,152.696,120.575z M152.696,113.023c-1.804,0-3.271,1.468-3.271,3.272
				c0,1.804,1.467,3.271,3.271,3.271c1.804,0,3.271-1.467,3.271-3.271C155.967,114.491,154.5,113.023,152.696,113.023z"/>
		</g>
		<g>
			<circle style="fill:#FFC655;" cx="288.098" cy="391.294" r="3.776"/>
		</g>
		<g>
			<path style="fill:#FFC655;" d="M456.675,181.254c-2.36,0-4.28-1.92-4.28-4.281c0-2.36,1.92-4.28,4.28-4.28
				c2.361,0,4.281,1.92,4.281,4.28C460.956,179.333,459.036,181.254,456.675,181.254z M456.675,173.702
				c-1.804,0-3.271,1.467-3.271,3.271c0,1.804,1.467,3.272,3.271,3.272c1.804,0,3.272-1.468,3.272-3.272
				C459.947,175.169,458.479,173.702,456.675,173.702z"/>
		</g>
	</g>
	<g>
		<g>
			<rect x="343.202" y="92.493" style="fill:#542FD0;" width="52.576" height="4.325"/>
			<rect x="343.202" y="102.508" style="fill:#542FD0;" width="63.786" height="4.324"/>
			<rect x="343.202" y="112.522" style="fill:#542FD0;" width="58.494" height="4.325"/>
			<rect x="343.202" y="122.537" style="fill:#542FD0;" width="22.789" height="4.325"/>
		</g>
	</g>
	<g>
		<g>
			<rect x="110.546" y="402.984" style="fill:#542FD0;" width="11.394" height="4.325"/>
			<rect x="125.44" y="402.984" style="fill:#542FD0;" width="46.317" height="4.325"/>
			<rect x="110.546" y="392.97" style="fill:#542FD0;" width="38.337" height="4.325"/>
			<rect x="110.546" y="412.43" style="fill:#542FD0;" width="51.31" height="4.325"/>
			<rect x="110.546" y="382.955" style="fill:#542FD0;" width="22.789" height="4.325"/>
		</g>
	</g>
	<g>
		<g>
			<path style="fill:#D42190;" d="M255.233,416.701c-0.185,0-0.369-0.079-0.498-0.232c-0.231-0.274-0.196-0.685,0.078-0.916
				l9.244-7.796c0.275-0.23,0.685-0.196,0.916,0.078c0.232,0.275,0.196,0.685-0.078,0.916l-9.244,7.796
				C255.53,416.65,255.381,416.701,255.233,416.701z"/>
		</g>
		<g>
			<path style="fill:#D42190;" d="M263.677,416.701c-0.185,0-0.369-0.079-0.498-0.232c-0.231-0.274-0.196-0.685,0.078-0.916
				l9.244-7.796c0.274-0.23,0.684-0.196,0.916,0.078c0.231,0.275,0.196,0.685-0.078,0.916l-9.244,7.796
				C263.973,416.65,263.825,416.701,263.677,416.701z"/>
		</g>
		<g>
			<path style="fill:#D42190;" d="M272.12,416.701c-0.185,0-0.369-0.079-0.497-0.232c-0.232-0.274-0.196-0.685,0.078-0.916
				l9.245-7.796c0.275-0.23,0.684-0.196,0.916,0.078c0.232,0.275,0.196,0.685-0.078,0.916l-9.245,7.796
				C272.416,416.65,272.268,416.701,272.12,416.701z"/>
		</g>
		<g>
			<path style="fill:#D42190;" d="M280.563,416.701c-0.185,0-0.369-0.079-0.498-0.232c-0.231-0.274-0.196-0.685,0.078-0.916
				l9.244-7.796c0.275-0.23,0.685-0.196,0.916,0.078c0.232,0.275,0.196,0.685-0.078,0.916l-9.244,7.796
				C280.859,416.65,280.711,416.701,280.563,416.701z"/>
		</g>
		<g>
			<path style="fill:#D42190;" d="M289.006,416.701c-0.185,0-0.369-0.079-0.497-0.232c-0.232-0.274-0.196-0.685,0.078-0.916
				l9.244-7.796c0.275-0.23,0.684-0.196,0.916,0.078c0.231,0.275,0.196,0.685-0.078,0.916l-9.244,7.796
				C289.303,416.65,289.154,416.701,289.006,416.701z"/>
		</g>
		<g>
			<path style="fill:#D42190;" d="M298.25,416.701c-0.185,0-0.369-0.079-0.498-0.232c-0.231-0.274-0.196-0.685,0.078-0.916
				l9.244-7.796c0.275-0.23,0.684-0.196,0.916,0.078c0.232,0.275,0.196,0.685-0.078,0.916l-9.244,7.796
				C298.547,416.65,298.398,416.701,298.25,416.701z"/>
		</g>
	</g>
	<g>
		<g>
			<path style="fill:#D42190;" d="M163.034,100.938c-0.185,0-0.369-0.079-0.498-0.231c-0.231-0.274-0.196-0.685,0.078-0.916
				l9.245-7.795c0.274-0.231,0.684-0.196,0.916,0.078c0.231,0.274,0.196,0.685-0.078,0.916l-9.245,7.795
				C163.33,100.888,163.182,100.938,163.034,100.938z"/>
		</g>
		<g>
			<path style="fill:#D42190;" d="M171.477,100.938c-0.185,0-0.369-0.079-0.498-0.231c-0.231-0.274-0.196-0.685,0.078-0.916
				l9.244-7.795c0.274-0.231,0.684-0.196,0.916,0.078c0.231,0.274,0.196,0.685-0.078,0.916l-9.244,7.795
				C171.773,100.888,171.625,100.938,171.477,100.938z"/>
		</g>
		<g>
			<path style="fill:#D42190;" d="M179.92,100.938c-0.185,0-0.369-0.079-0.497-0.231c-0.232-0.274-0.196-0.685,0.078-0.916
				l9.244-7.795c0.275-0.231,0.684-0.196,0.916,0.078c0.231,0.274,0.196,0.685-0.078,0.916l-9.244,7.795
				C180.217,100.888,180.068,100.938,179.92,100.938z"/>
		</g>
		<g>
			<path style="fill:#D42190;" d="M188.363,100.938c-0.185,0-0.369-0.079-0.498-0.231c-0.231-0.274-0.196-0.685,0.078-0.916
				l9.245-7.795c0.275-0.231,0.684-0.196,0.916,0.078c0.231,0.274,0.196,0.685-0.078,0.916l-9.245,7.795
				C188.66,100.888,188.511,100.938,188.363,100.938z"/>
		</g>
		<g>
			<path style="fill:#D42190;" d="M196.807,100.938c-0.185,0-0.369-0.079-0.497-0.231c-0.232-0.274-0.196-0.685,0.078-0.916
				l9.244-7.795c0.275-0.231,0.684-0.196,0.916,0.078c0.231,0.274,0.196,0.685-0.078,0.916l-9.244,7.795
				C197.103,100.888,196.955,100.938,196.807,100.938z"/>
		</g>
		<g>
			<path style="fill:#D42190;" d="M206.051,100.938c-0.185,0-0.369-0.079-0.498-0.231c-0.231-0.274-0.196-0.685,0.078-0.916
				l9.245-7.795c0.274-0.231,0.684-0.196,0.916,0.078c0.231,0.274,0.196,0.685-0.078,0.916l-9.245,7.795
				C206.347,100.888,206.199,100.938,206.051,100.938z"/>
		</g>
	</g>
	<path style="fill:#542FD0;" d="M313.806,189.481h-9.439v-9.438c0-1.474-1.195-2.668-2.668-2.668h-1.809
		c-1.474,0-2.668,1.195-2.668,2.668v9.438h-9.438c-1.474,0-2.668,1.195-2.668,2.668v1.809c0,1.474,1.195,2.668,2.668,2.668h9.438
		v9.438c0,1.474,1.195,2.668,2.668,2.668h1.809c1.474,0,2.668-1.195,2.668-2.668v-9.438h9.439c1.474,0,2.668-1.195,2.668-2.668
		v-1.809C316.474,190.675,315.279,189.481,313.806,189.481z"/>
	<path style="fill:#542FD0;" d="M349.285,171.344h-9.438v-9.438c0-1.474-1.195-2.668-2.668-2.668h-1.809
		c-1.474,0-2.668,1.195-2.668,2.668v9.438h-9.438c-1.474,0-2.668,1.195-2.668,2.668v1.809c0,1.474,1.195,2.668,2.668,2.668h9.438
		v9.438c0,1.474,1.195,2.668,2.668,2.668h1.809c1.474,0,2.668-1.195,2.668-2.668v-9.438h9.438c1.474,0,2.668-1.195,2.668-2.668
		v-1.809C351.953,172.539,350.759,171.344,349.285,171.344z"/>
</g>
</svg>
