<svg width="500" height="500" viewBox="0 0 500 500" fill="none" xmlns="http://www.w3.org/2000/svg">
<g opacity="0.5">
<path d="M187.154 403.283C220.897 369.54 220.897 314.832 187.154 281.089C153.411 247.346 98.7027 247.346 64.9598 281.089C31.2168 314.832 31.2168 369.54 64.9598 403.283C98.7027 437.025 153.411 437.025 187.154 403.283Z" fill="#4E94A6"/>
<path d="M322.106 343.918C397.357 343.918 458.361 282.915 458.361 207.663C458.361 132.412 397.357 71.4082 322.106 71.4082C246.854 71.4082 185.851 132.412 185.851 207.663C185.851 282.915 246.854 343.918 322.106 343.918Z" fill="#CAE7EF"/>
</g>
<path d="M259.38 176.441L248.246 173.943C248.018 171.573 247.584 169.245 246.943 166.987L256.42 160.631C259.903 158.295 260.833 153.577 258.497 150.094L253.315 142.369C250.979 138.886 246.261 137.956 242.778 140.292L233.301 146.648C231.989 145.618 230.602 144.672 229.153 143.808L231.651 132.674C232.569 128.581 229.996 124.52 225.904 123.602L216.828 121.566C212.736 120.648 208.674 123.221 207.756 127.314L205.258 138.448C203.579 138.61 201.921 138.873 200.295 139.244L194.442 129.448C192.291 125.848 187.628 124.673 184.028 126.825L176.043 131.596C172.443 133.747 171.268 138.41 173.42 142.01L179.273 151.806C177.729 153.574 176.342 155.493 175.124 157.539L163.99 155.041C159.898 154.123 155.836 156.696 154.918 160.789L152.882 169.865C151.964 173.958 154.537 178.019 158.629 178.937L169.763 181.435C169.991 183.805 170.425 186.133 171.066 188.391L161.589 194.747C158.106 197.083 157.176 201.801 159.512 205.284L164.693 213.009C167.029 216.492 171.747 217.422 175.23 215.086L184.707 208.73C186.019 209.76 187.405 210.706 188.854 211.57L186.356 222.704C185.438 226.796 188.011 230.858 192.104 231.776L201.18 233.812C205.272 234.73 209.334 232.157 210.252 228.064L212.75 216.93C214.429 216.769 216.087 216.505 217.713 216.134L223.566 225.93C225.717 229.53 230.38 230.705 233.98 228.553L241.965 223.782C245.565 221.631 246.74 216.968 244.588 213.368L238.734 203.572C240.278 201.805 241.665 199.885 242.883 197.839L254.017 200.337C258.109 201.255 262.171 198.682 263.089 194.589L265.125 185.513C266.046 181.421 263.472 177.359 259.38 176.441ZM203.469 202.362C189.864 199.31 181.279 185.759 184.331 172.154C187.383 158.549 200.934 149.964 214.539 153.016C228.144 156.068 236.729 169.619 233.677 183.224C230.625 196.829 217.075 205.414 203.469 202.362Z" fill="#215468"/>
<path d="M333.191 345.738L325.755 340.856C326.24 339.064 326.563 337.247 326.716 335.424L335.376 333.391C338.559 332.644 340.534 329.458 339.786 326.275L338.129 319.216C337.382 316.033 334.196 314.058 331.013 314.806L322.353 316.839C321.679 315.727 320.927 314.656 320.108 313.628L324.99 306.192C326.784 303.459 326.023 299.788 323.29 297.994L317.228 294.015C314.495 292.221 310.824 292.982 309.03 295.715L304.148 303.151C302.879 302.808 301.597 302.544 300.309 302.368L298.731 293.613C298.151 290.395 295.072 288.257 291.854 288.837L284.718 290.124C281.5 290.704 279.362 293.783 279.943 297.001L281.522 305.756C279.91 306.621 278.371 307.641 276.92 308.798L269.484 303.916C266.751 302.122 263.081 302.883 261.286 305.616L257.307 311.678C255.513 314.411 256.274 318.082 259.007 319.876L266.443 324.758C265.958 326.55 265.635 328.367 265.482 330.19L256.822 332.223C253.639 332.97 251.664 336.156 252.411 339.339L254.068 346.399C254.815 349.582 258.001 351.557 261.184 350.809L269.844 348.776C270.518 349.888 271.269 350.959 272.089 351.987L267.207 359.423C265.413 362.156 266.174 365.827 268.907 367.621L274.969 371.6C277.702 373.394 281.372 372.633 283.167 369.9L288.049 362.464C289.318 362.808 290.6 363.071 291.888 363.247L293.467 372.002C294.047 375.22 297.126 377.358 300.344 376.777L307.48 375.49C310.697 374.91 312.836 371.831 312.255 368.613L310.676 359.858C312.288 358.993 313.827 357.973 315.278 356.816L322.714 361.698C325.447 363.492 329.118 362.731 330.912 359.998L334.891 353.936C336.685 351.202 335.924 347.532 333.191 345.738ZM285.28 349.284C276.193 343.319 273.654 331.074 279.619 321.988C285.584 312.901 297.829 310.362 306.916 316.327C316.003 322.292 318.542 334.537 312.577 343.623C306.611 352.71 294.366 355.25 285.28 349.284Z" fill="#01354B"/>
<path d="M410.519 213.134C395.186 193.297 371.156 180.516 344.195 180.516C335.262 180.516 326.487 181.946 318.169 184.664C318.16 184.665 318.154 184.664 318.145 184.665C316.303 184.865 310.156 186.995 304.01 190.235C298.175 193.297 292.338 197.402 289.765 200.021L263.759 225.894L249.039 240.53L234.292 225.872L218.804 210.463C218.5 210.04 218.179 209.625 217.83 209.225C214.564 205.485 210.996 202.078 207.188 199.016C207.081 198.927 206.972 198.84 206.863 198.754C192.137 187.034 173.784 180.516 154.678 180.516C127.625 180.516 103.527 193.393 88.2018 213.33C77.3498 227.466 70.8628 245.159 70.8628 264.331C70.8628 286.444 79.4978 306.574 93.5238 321.571C108.836 337.91 130.581 348.132 154.678 348.132C172.483 348.132 188.535 342.729 203.735 331.659C204.992 330.945 206.186 330.073 207.265 329.008L221.067 315.295L249.042 287.476L277.183 315.451L287.525 325.738C288.152 326.513 288.846 327.249 289.631 327.921C289.971 328.214 290.325 328.487 290.669 328.774C290.881 328.955 291.093 329.133 291.312 329.302C306.209 341.443 324.907 348.136 344.194 348.136C368.292 348.136 390.037 337.906 405.348 321.575C419.394 306.575 428.003 286.449 428.003 264.327C428.005 245.064 421.481 227.291 410.519 213.134ZM197.657 291.617L185.188 304.006C185.159 304.028 185.127 304.045 185.098 304.067C175.204 311.525 165.83 314.85 154.678 314.85C140.584 314.85 127.803 309.034 118.634 299.688C118.182 299.223 117.731 298.758 117.306 298.278C109.397 289.603 104.485 278.19 104.17 265.614C104.156 265.19 104.156 264.765 104.156 264.328C104.156 263.439 104.183 262.577 104.225 261.742C104.785 250.453 109.082 240.135 115.897 231.979C116.828 230.871 117.8 229.803 118.812 228.777C127.966 219.527 140.652 213.793 154.678 213.793C165.944 213.793 176.793 217.577 185.579 224.371L209.706 248.369L225.431 264.001L197.657 291.617ZM380.008 299.939C370.844 309.148 358.174 314.85 344.195 314.85C332.708 314.85 321.587 310.924 312.659 303.775L300.438 291.618L272.651 263.998L288.589 248.149L302.841 233.975C304.026 233.18 305.137 232.235 306.119 231.108C315.727 220.102 329.617 213.8 344.196 213.8C358.242 213.8 370.978 219.569 380.143 228.844C389.152 237.986 394.722 250.501 394.722 264.325C394.721 278.215 389.107 290.797 380.008 299.939Z" fill="#4E94A6"/>
<path d="M123.456 314.342C121.749 312.6 119.514 311.696 117.255 311.62C116.957 311.56 116.628 311.527 116.507 311.492C115.987 311.34 115.483 311.137 115.001 310.889C114.02 310.383 113.135 309.685 112.423 308.841C111.154 307.335 111.229 306.173 111.247 304.214L117.307 298.279C109.398 289.604 104.486 278.191 104.171 265.615C104.157 265.191 104.157 264.766 104.157 264.329C104.157 263.44 104.184 262.578 104.226 261.743C104.786 250.454 109.083 240.136 115.898 231.98L107.282 226.178C107.316 225.299 107.532 224.515 108.203 223.578C108.847 222.68 109.674 221.916 110.613 221.334C111.074 221.049 111.561 220.807 112.068 220.615C112.185 220.57 112.512 220.512 112.803 220.429C115.049 220.176 117.206 219.1 118.772 217.23C122.002 213.371 121.491 207.623 117.632 204.393C113.773 201.163 108.025 201.673 104.795 205.533C103.277 207.347 102.595 209.578 102.689 211.769C102.634 212.105 102.641 212.555 102.613 212.703C102.513 213.235 102.361 213.758 102.162 214.261C101.754 215.288 101.148 216.236 100.377 217.029C99.0518 218.391 97.9158 218.476 96.0848 218.638L88.2008 213.328C77.3488 227.464 70.8618 245.157 70.8618 264.329C70.8618 286.442 79.4968 306.572 93.5228 321.569L100.525 314.712C102.488 314.734 103.652 314.681 105.133 315.982C105.963 316.711 106.642 317.61 107.128 318.601C107.366 319.088 107.559 319.596 107.7 320.119C107.74 320.265 107.767 320.713 107.849 321.044C107.927 323.235 108.781 325.406 110.437 327.096C113.959 330.691 119.729 330.75 123.323 327.227C126.919 323.706 126.979 317.936 123.456 314.342Z" fill="#215468"/>
<path d="M428.005 264.329C428.005 245.158 421.518 227.464 410.667 213.328L402.783 218.638C400.953 218.476 399.816 218.391 398.491 217.029C397.721 216.237 397.114 215.288 396.707 214.261C396.508 213.757 396.355 213.235 396.256 212.703C396.228 212.555 396.235 212.105 396.18 211.769C396.274 209.578 395.593 207.347 394.074 205.533C390.844 201.674 385.097 201.163 381.237 204.393C377.378 207.623 376.867 213.37 380.098 217.23C381.663 219.1 383.82 220.176 386.066 220.429C386.359 220.512 386.684 220.57 386.802 220.615C387.308 220.807 387.795 221.049 388.256 221.334C389.195 221.916 390.022 222.68 390.666 223.578C391.337 224.514 391.553 225.299 391.587 226.178L382.971 231.98C389.786 240.136 394.083 250.454 394.643 261.743C394.684 262.578 394.711 263.44 394.711 264.329C394.711 264.767 394.711 265.191 394.697 265.615C394.382 278.191 389.47 289.603 381.561 298.279L387.621 304.214C387.639 306.173 387.714 307.335 386.445 308.841C385.733 309.686 384.849 310.383 383.867 310.889C383.385 311.137 382.881 311.34 382.361 311.492C382.241 311.527 381.911 311.56 381.613 311.62C379.354 311.696 377.119 312.6 375.412 314.342C371.89 317.937 371.949 323.707 375.543 327.229C379.137 330.751 384.907 330.693 388.429 327.098C390.085 325.408 390.939 323.237 391.017 321.046C391.098 320.715 391.125 320.266 391.165 320.121C391.306 319.598 391.499 319.089 391.737 318.603C392.223 317.611 392.902 316.713 393.732 315.984C395.214 314.683 396.378 314.736 398.341 314.714L405.343 321.571C419.37 306.572 428.005 286.443 428.005 264.329Z" fill="#215468"/>
<path d="M305.949 307.78C304.226 306.159 302.039 305.349 299.846 305.315C299.513 305.241 299.064 305.222 298.918 305.185C298.392 305.055 297.88 304.872 297.389 304.644C296.388 304.178 295.476 303.517 294.73 302.702C293.57 301.435 293.444 300.386 293.39 298.84L300.439 291.616L234.293 225.869L227.241 232.323C225.313 232.263 224.153 232.28 222.712 230.961C221.897 230.215 221.236 229.303 220.77 228.302C220.542 227.811 220.36 227.298 220.229 226.773C220.192 226.627 220.173 226.177 220.099 225.845C220.065 223.652 219.255 221.465 217.634 219.741C214.186 216.076 208.418 215.9 204.753 219.349C201.088 222.798 200.911 228.565 204.36 232.231C206.032 234.007 208.248 234.956 210.505 235.078C210.802 235.144 211.131 235.183 211.25 235.221C211.767 235.383 212.267 235.596 212.743 235.854C213.714 236.38 214.584 237.095 215.279 237.954C216.444 239.395 216.426 240.514 216.371 242.27L209.705 248.37L277.183 315.448L283.435 309.041C285.183 308.987 286.3 308.972 287.737 310.133C288.596 310.828 289.311 311.698 289.837 312.669C290.095 313.145 290.308 313.646 290.47 314.163C290.508 314.283 290.547 314.612 290.613 314.908C290.734 317.165 291.684 319.382 293.46 321.053C297.126 324.502 302.893 324.326 306.342 320.661C309.79 316.996 309.614 311.229 305.949 307.78Z" fill="#215468"/>
<path d="M282.702 237.955C283.397 237.096 284.267 236.381 285.238 235.855C285.714 235.597 286.215 235.384 286.732 235.222C286.852 235.184 287.181 235.145 287.477 235.079C289.735 234.957 291.951 234.008 293.622 232.232C297.071 228.567 296.895 222.799 293.23 219.35C289.565 215.901 283.798 216.077 280.349 219.742C278.728 221.465 277.918 223.653 277.884 225.846C277.809 226.178 277.791 226.628 277.754 226.774C277.624 227.3 277.441 227.812 277.213 228.303C276.747 229.304 276.086 230.216 275.271 230.962C273.878 232.237 272.744 232.263 270.928 232.318L263.759 225.892L197.657 291.617L204.6 298.638C204.548 300.294 204.461 301.381 203.253 302.702C202.507 303.517 201.595 304.178 200.594 304.644C200.103 304.872 199.59 305.054 199.064 305.185C198.918 305.222 198.468 305.24 198.136 305.315C195.944 305.349 193.756 306.159 192.033 307.78C188.368 311.229 188.192 316.996 191.641 320.661C195.09 324.326 200.857 324.502 204.522 321.053C206.298 319.382 207.247 317.166 207.369 314.908C207.435 314.612 207.474 314.283 207.512 314.163C207.674 313.646 207.887 313.146 208.145 312.669C208.671 311.698 209.386 310.828 210.245 310.133C211.777 308.894 212.937 308.993 214.896 309.051L221.067 315.292L288.589 248.147L281.6 241.882C281.56 240.342 281.624 239.289 282.702 237.955Z" fill="#215468"/>
<path d="M435.573 261.76C435.683 266.325 432.071 270.115 427.506 270.225L387.613 268.79L387.317 257.047L427.108 253.694C431.673 253.583 435.463 257.195 435.573 261.76Z" fill="#01354B"/>
<path d="M376.164 283.182C386.953 272.985 387.434 255.972 377.237 245.183C367.04 234.394 350.027 233.914 339.238 244.111C328.449 254.307 327.968 271.32 338.165 282.109C348.362 292.899 365.375 293.379 376.164 283.182Z" fill="#E4EFF3"/>
<path opacity="0.3" d="M357.792 244.151C363.636 244.01 368.487 248.634 368.628 254.478C368.769 260.322 364.145 265.174 358.301 265.314C352.457 265.455 347.606 260.831 347.465 254.987C347.325 249.143 351.948 244.292 357.792 244.151Z" fill="#4E94A6"/>
<path opacity="0.3" d="M364.514 258.237C368.546 258.14 371.893 261.33 371.99 265.361C372.087 269.393 368.897 272.74 364.866 272.837C360.834 272.934 357.487 269.744 357.39 265.713C357.293 261.681 360.483 258.334 364.514 258.237Z" fill="#01354B"/>
<path d="M388.564 262.891C388.974 279.919 375.455 294.105 358.428 294.514C341.4 294.924 327.214 281.405 326.804 264.377C326.394 247.349 339.913 233.163 356.941 232.754C373.968 232.345 388.154 245.864 388.564 262.891ZM334.822 264.185C335.125 276.791 345.628 286.8 358.234 286.497C370.84 286.194 380.849 275.691 380.546 263.085C380.243 250.479 369.74 240.47 357.133 240.773C344.527 241.076 334.519 251.579 334.822 264.185Z" fill="#01354B"/>
<g opacity="0.4">
<path d="M156.976 150.724V250.208C156.976 253.916 153.968 256.924 150.252 256.924H46.724C43.008 256.924 40 253.916 40 250.208V150.724C40 147.008 43.008 144 46.724 144H150.252C153.968 144 156.976 147.008 156.976 150.724Z" fill="#CAE7EF"/>
<path d="M156.976 153.622V251.754C156.976 254.61 154.661 256.926 151.805 256.926H45.179C42.319 256.926 40 254.607 40 251.747V153.622H156.976Z" fill="#4E94A6"/>
</g>
<path d="M73.9139 161.502C72.3169 161.105 70.6429 160.895 68.9249 160.895C59.9339 160.895 52.2629 166.647 49.4029 174.665C49.2109 175.2 49.0419 175.749 48.8939 176.307C48.4429 178.003 48.2019 179.779 48.2019 181.613C48.2019 185.772 49.4339 189.649 51.5569 192.902C52.1909 193.875 52.9089 194.794 53.6939 195.646C56.8219 199.046 61.0739 201.393 65.8579 202.103C66.8569 202.255 67.8839 202.331 68.9239 202.331C80.3469 202.331 89.6419 193.041 89.6419 181.613C89.6429 171.908 82.9369 163.742 73.9139 161.502ZM68.9249 196.976C68.3049 196.976 67.6929 196.94 67.0949 196.869C63.5119 196.441 60.3079 194.781 57.9159 192.322C56.8319 191.211 55.9169 189.939 55.2169 188.543C54.1499 186.459 53.5569 184.108 53.5569 181.613C53.5569 180.547 53.6639 179.507 53.8739 178.498C54.1549 177.146 54.6099 175.861 55.2209 174.665C57.7599 169.676 62.9499 166.249 68.9249 166.249C70.2949 166.249 71.6249 166.427 72.8869 166.771C79.4419 168.52 84.2879 174.513 84.2879 181.612C84.2889 190.087 77.3949 196.976 68.9249 196.976Z" fill="#215468"/>
<path d="M67.0958 196.869L65.8598 202.103C61.0758 201.394 56.8238 199.046 53.6958 195.646C52.9108 194.794 52.1918 193.875 51.5588 192.902V188.391L55.2178 188.543C55.9188 189.94 56.8328 191.211 57.9168 192.322C60.3088 194.781 63.5128 196.441 67.0958 196.869Z" fill="#FFC655"/>
<path d="M57.9169 192.322L53.6959 195.646C50.2869 191.951 48.2029 187.021 48.2029 181.612C48.2029 179.778 48.4439 178.002 48.8949 176.306C49.0419 175.748 49.2119 175.199 49.4039 174.664H55.2229C54.6119 175.86 54.1569 177.145 53.8759 178.497C53.6659 179.505 53.5589 180.545 53.5589 181.612C53.5579 185.776 55.2179 189.551 57.9169 192.322Z" fill="#01354B"/>
<path d="M73.914 161.502L72.888 166.772C71.625 166.428 70.296 166.249 68.926 166.249C61.519 166.249 55.321 171.515 53.875 178.499L48.895 176.308C51.242 167.446 59.332 160.896 68.926 160.896C70.643 160.895 72.317 161.105 73.914 161.502Z" fill="#A1C4CD"/>
<path d="M147.914 171.91H97.7268V175.269H147.914V171.91Z" fill="#CAE7EF"/>
<path d="M147.914 179.933H97.7268V183.292H147.914V179.933Z" fill="#CAE7EF"/>
<path d="M120.221 187.956H97.7268V191.315H120.221V187.956Z" fill="#CAE7EF"/>
<path d="M147.914 187.956H123.682V191.315H147.914V187.956Z" fill="#CAE7EF"/>
<path d="M100.81 216.315H52.082V219.674H100.81V216.315Z" fill="#CAE7EF"/>
<path d="M143.831 216.315H104.11V219.674H143.831V216.315Z" fill="#CAE7EF"/>
<path d="M143.827 224.338H52.082V227.697H143.827V224.338Z" fill="#CAE7EF"/>
<path d="M117.88 239.588H52.082V242.947H117.88V239.588Z" fill="#CAE7EF"/>
<path d="M143.83 239.588H121.066V242.947H143.83V239.588Z" fill="#CAE7EF"/>
<path d="M74.576 232.361H52.082V235.72H74.576V232.361Z" fill="#CAE7EF"/>
<path d="M143.827 232.361H78.0371V235.72H143.827V232.361Z" fill="#CAE7EF"/>
<path d="M142.34 252.432C142.283 252.432 142.227 252.41 142.184 252.368C142.097 252.282 142.095 252.141 142.182 252.053L143.759 250.454L142.182 248.855C142.095 248.767 142.097 248.626 142.184 248.54C142.272 248.454 142.413 248.454 142.499 248.542L144.23 250.298C144.316 250.385 144.316 250.524 144.23 250.611L142.499 252.367C142.454 252.41 142.397 252.432 142.34 252.432Z" fill="white"/>
<path d="M147.201 252.432C147.144 252.432 147.088 252.41 147.044 252.368C146.957 252.282 146.955 252.141 147.042 252.053L148.619 250.454L147.042 248.855C146.955 248.767 146.957 248.626 147.044 248.54C147.132 248.454 147.273 248.454 147.359 248.542L149.091 250.298C149.177 250.385 149.177 250.524 149.091 250.611L147.359 252.367C147.316 252.41 147.259 252.432 147.201 252.432Z" fill="white"/>
<path d="M48.9787 149.525C48.9787 150.229 48.4077 150.8 47.7037 150.8C46.9997 150.8 46.4287 150.229 46.4287 149.525C46.4287 148.821 46.9997 148.25 47.7037 148.25C48.4077 148.249 48.9787 148.82 48.9787 149.525Z" fill="white"/>
<path d="M56.9157 149.525C56.9157 150.229 56.3447 150.8 55.6407 150.8C54.9367 150.8 54.3657 150.229 54.3657 149.525C54.3657 148.821 54.9367 148.25 55.6407 148.25C56.3447 148.249 56.9157 148.82 56.9157 149.525Z" fill="white"/>
<path d="M64.8537 149.525C64.8537 150.229 64.2827 150.8 63.5787 150.8C62.8747 150.8 62.3037 150.229 62.3037 149.525C62.3037 148.821 62.8747 148.25 63.5787 148.25C64.2827 148.249 64.8537 148.82 64.8537 149.525Z" fill="white"/>
<path d="M148.425 149.525L149.625 148.358C149.702 148.283 149.71 148.153 149.641 148.068C149.573 147.983 149.453 147.976 149.376 148.051L148.143 149.25L146.91 148.051C146.832 147.976 146.714 147.983 146.645 148.068C146.576 148.153 146.583 148.282 146.661 148.358L147.861 149.525L146.661 150.692C146.584 150.767 146.576 150.897 146.645 150.982C146.682 151.028 146.734 151.051 146.785 151.051C146.829 151.051 146.874 151.034 146.909 150.999L148.142 149.8L149.375 150.999C149.411 151.034 149.455 151.051 149.5 151.051C149.552 151.051 149.603 151.028 149.64 150.982C149.709 150.897 149.701 150.767 149.624 150.692L148.425 149.525Z" fill="white"/>
<path d="M48.9787 149.525C48.9787 150.229 48.4077 150.8 47.7037 150.8C46.9997 150.8 46.4287 150.229 46.4287 149.525C46.4287 148.821 46.9997 148.25 47.7037 148.25C48.4077 148.249 48.9787 148.82 48.9787 149.525Z" fill="white"/>
<path d="M56.9157 149.525C56.9157 150.229 56.3447 150.8 55.6407 150.8C54.9367 150.8 54.3657 150.229 54.3657 149.525C54.3657 148.821 54.9367 148.25 55.6407 148.25C56.3447 148.249 56.9157 148.82 56.9157 149.525Z" fill="white"/>
<path d="M64.8537 149.525C64.8537 150.229 64.2827 150.8 63.5787 150.8C62.8747 150.8 62.3037 150.229 62.3037 149.525C62.3037 148.821 62.8747 148.25 63.5787 148.25C64.2827 148.249 64.8537 148.82 64.8537 149.525Z" fill="white"/>
<path d="M148.425 149.525L149.625 148.358C149.702 148.283 149.71 148.153 149.641 148.068C149.573 147.983 149.453 147.976 149.376 148.051L148.143 149.25L146.91 148.051C146.832 147.976 146.714 147.983 146.645 148.068C146.576 148.153 146.583 148.282 146.661 148.358L147.861 149.525L146.661 150.692C146.584 150.767 146.576 150.897 146.645 150.982C146.682 151.028 146.734 151.051 146.785 151.051C146.829 151.051 146.874 151.034 146.909 150.999L148.142 149.8L149.375 150.999C149.411 151.034 149.455 151.051 149.5 151.051C149.552 151.051 149.603 151.028 149.64 150.982C149.709 150.897 149.701 150.767 149.624 150.692L148.425 149.525Z" fill="white"/>
<g opacity="0.4">
<path d="M439.041 305.738V410.038C439.041 413.746 436.033 416.754 432.317 416.754H328.789C325.073 416.754 322.065 413.746 322.065 410.038V305.738C322.065 302.022 325.073 299.014 328.789 299.014H432.317C436.033 299.014 439.041 302.022 439.041 305.738Z" fill="#4E94A6"/>
<path d="M439.041 308.636V411.583C439.041 414.439 436.726 416.755 433.869 416.755H327.244C324.384 416.755 322.065 414.436 322.065 411.576V308.636H439.041Z" fill="#215468"/>
</g>
<path d="M383.407 377.418H334.679V380.777H383.407V377.418Z" fill="#A1C4CD"/>
<path d="M426.427 377.418H386.706V380.777H426.427V377.418Z" fill="#A1C4CD"/>
<path d="M426.424 385.441H334.679V388.8H426.424V385.441Z" fill="#A1C4CD"/>
<path d="M400.477 400.691H334.679V404.05H400.477V400.691Z" fill="#A1C4CD"/>
<path d="M426.427 400.691H403.663V404.05H426.427V400.691Z" fill="#A1C4CD"/>
<path d="M357.173 393.464H334.679V396.823H357.173V393.464Z" fill="#A1C4CD"/>
<path d="M426.423 393.464H360.633V396.823H426.423V393.464Z" fill="#A1C4CD"/>
<path d="M331.473 304.431C331.473 305.135 330.902 305.706 330.198 305.706C329.494 305.706 328.923 305.135 328.923 304.431C328.923 303.727 329.494 303.156 330.198 303.156C330.902 303.156 331.473 303.727 331.473 304.431Z" fill="white"/>
<path d="M339.411 304.431C339.411 305.135 338.84 305.706 338.136 305.706C337.432 305.706 336.861 305.135 336.861 304.431C336.861 303.727 337.432 303.156 338.136 303.156C338.84 303.156 339.411 303.727 339.411 304.431Z" fill="white"/>
<path d="M347.348 304.431C347.348 305.135 346.777 305.706 346.073 305.706C345.369 305.706 344.798 305.135 344.798 304.431C344.798 303.727 345.369 303.156 346.073 303.156C346.778 303.156 347.348 303.727 347.348 304.431Z" fill="white"/>
<path d="M430.92 304.431L432.12 303.264C432.197 303.189 432.205 303.059 432.136 302.974C432.067 302.889 431.948 302.882 431.871 302.957L430.638 304.156L429.405 302.957C429.327 302.882 429.209 302.889 429.14 302.974C429.071 303.059 429.079 303.189 429.156 303.264L430.356 304.431L429.156 305.598C429.079 305.673 429.071 305.803 429.14 305.888C429.177 305.934 429.229 305.957 429.28 305.957C429.324 305.957 429.369 305.94 429.404 305.905L430.637 304.706L431.87 305.905C431.906 305.94 431.95 305.957 431.995 305.957C432.047 305.957 432.098 305.934 432.135 305.888C432.204 305.803 432.196 305.673 432.119 305.598L430.92 304.431Z" fill="white"/>
<path d="M424.835 412.153C424.779 412.153 424.722 412.131 424.679 412.089C424.592 412.003 424.59 411.862 424.677 411.774L426.253 410.175L424.677 408.576C424.59 408.488 424.592 408.347 424.679 408.261C424.767 408.175 424.907 408.175 424.994 408.263L426.725 410.019C426.811 410.106 426.811 410.245 426.725 410.332L424.994 412.088C424.949 412.131 424.892 412.153 424.835 412.153Z" fill="white"/>
<path d="M429.696 412.153C429.64 412.153 429.583 412.131 429.54 412.089C429.453 412.003 429.451 411.862 429.538 411.774L431.115 410.175L429.538 408.576C429.451 408.488 429.453 408.347 429.54 408.261C429.628 408.175 429.769 408.175 429.855 408.263L431.587 410.019C431.673 410.106 431.673 410.245 431.587 410.332L429.855 412.088C429.811 412.131 429.753 412.153 429.696 412.153Z" fill="white"/>
<path d="M331.473 304.431C331.473 305.135 330.902 305.706 330.198 305.706C329.494 305.706 328.923 305.135 328.923 304.431C328.923 303.727 329.494 303.156 330.198 303.156C330.902 303.156 331.473 303.727 331.473 304.431Z" fill="white"/>
<path d="M339.411 304.431C339.411 305.135 338.84 305.706 338.136 305.706C337.432 305.706 336.861 305.135 336.861 304.431C336.861 303.727 337.432 303.156 338.136 303.156C338.84 303.156 339.411 303.727 339.411 304.431Z" fill="white"/>
<path d="M347.348 304.431C347.348 305.135 346.777 305.706 346.073 305.706C345.369 305.706 344.798 305.135 344.798 304.431C344.798 303.727 345.369 303.156 346.073 303.156C346.778 303.156 347.348 303.727 347.348 304.431Z" fill="white"/>
<path d="M430.92 304.431L432.12 303.264C432.197 303.189 432.205 303.059 432.136 302.974C432.067 302.889 431.948 302.882 431.871 302.957L430.638 304.156L429.405 302.957C429.327 302.882 429.209 302.889 429.14 302.974C429.071 303.059 429.079 303.189 429.156 303.264L430.356 304.431L429.156 305.598C429.079 305.673 429.071 305.803 429.14 305.888C429.177 305.934 429.229 305.957 429.28 305.957C429.324 305.957 429.369 305.94 429.404 305.905L430.637 304.706L431.87 305.905C431.906 305.94 431.95 305.957 431.995 305.957C432.047 305.957 432.098 305.934 432.135 305.888C432.204 305.803 432.196 305.673 432.119 305.598L430.92 304.431Z" fill="white"/>
<path d="M353.514 349.131H347.51V369.422H353.514V349.131Z" fill="#FFC655"/>
<path d="M390.31 343.918H384.306V369.423H390.31V343.918Z" fill="#FFC655"/>
<path d="M365.396 355.183H359.392V369.422H365.396V355.183Z" fill="#01354B"/>
<path d="M342.368 355.183H337.268V369.422H342.368V355.183Z" fill="#A1C4CD"/>
<path d="M377.821 342.89H371.817V369.422H377.821V342.89Z" fill="#A1C4CD"/>
<path d="M402.799 334.316H396.795V369.422H402.799V334.316Z" fill="#01354B"/>
<path d="M414.348 326.625H408.344V369.422H414.348V326.625Z" fill="#A1C4CD"/>
<path d="M334.353 351.512C334.204 351.512 334.057 351.457 333.955 351.353C333.775 351.166 333.806 350.891 334.026 350.737L353.874 336.894C354.076 336.755 354.373 336.764 354.559 336.918L362.773 343.679L377.353 332.529C377.542 332.383 377.828 332.378 378.025 332.517L386.515 338.453L412.342 316.483C412.543 316.312 412.869 316.311 413.07 316.482C413.271 316.653 413.272 316.93 413.071 317.1L386.912 339.351C386.724 339.512 386.424 339.524 386.22 339.38L377.711 333.431L363.103 344.602C362.902 344.757 362.594 344.751 362.4 344.592L354.172 337.819L334.68 351.414C334.584 351.479 334.469 351.512 334.353 351.512Z" fill="black"/>
<path d="M427.268 322.218H422.415V327.071H427.268V322.218Z" fill="#A1C4CD"/>
<path d="M427.268 332.806H422.415V337.659H427.268V332.806Z" fill="#FFC655"/>
<path d="M427.268 343.395H422.415V348.248H427.268V343.395Z" fill="#01354B"/>
<path d="M427.268 353.982H422.415V358.835H427.268V353.982Z" fill="#A1C4CD"/>
<path d="M427.268 364.57H422.415V369.423H427.268V364.57Z" fill="#FFC655"/>
<path d="M134.867 130.613H55.0678L54.9308 130.327C54.3448 129.111 54.0488 127.804 54.0488 126.444C54.0488 121.498 58.0728 117.474 63.0178 117.474C63.2738 117.474 63.5388 117.487 63.8148 117.514C63.6918 116.723 63.6298 115.922 63.6298 115.123C63.6298 106.582 70.5778 99.6333 79.1198 99.6333C81.9958 99.6333 84.7858 100.424 87.2238 101.925C90.6378 95.7813 97.0558 91.9873 104.106 91.9873C114.34 91.9873 122.727 99.8873 123.376 110.048C130.624 111.479 135.843 117.8 135.843 125.226C135.843 126.926 135.555 128.624 134.986 130.272L134.867 130.613ZM55.7098 129.604H134.143C134.6 128.17 134.832 126.699 134.832 125.227C134.832 118.158 129.774 112.162 122.806 110.971L122.404 110.902L122.386 110.495C121.961 100.683 113.93 92.9983 104.104 92.9983C97.2478 92.9983 91.0218 96.7843 87.8558 102.878L87.5968 103.377L87.1288 103.065C84.7498 101.481 81.9808 100.644 79.1188 100.644C71.1348 100.644 64.6388 107.14 64.6388 115.124C64.6388 116.091 64.7368 117.061 64.9278 118.006L65.0728 118.724L64.3498 118.604C63.8638 118.523 63.4278 118.484 63.0178 118.484C58.6288 118.484 55.0578 122.055 55.0578 126.445C55.0578 127.546 55.2768 128.608 55.7098 129.604Z" fill="#215468"/>
<path d="M257.511 394.526H177.712L177.575 394.24C176.989 393.024 176.693 391.717 176.693 390.357C176.693 385.411 180.717 381.387 185.662 381.387C185.919 381.387 186.183 381.401 186.458 381.427C186.335 380.636 186.273 379.835 186.273 379.036C186.273 370.495 193.221 363.546 201.763 363.546C204.639 363.546 207.429 364.337 209.867 365.838C213.28 359.694 219.699 355.9 226.749 355.9C236.983 355.9 245.37 363.8 246.019 373.961C253.267 375.392 258.486 381.713 258.486 389.139C258.486 390.839 258.198 392.537 257.629 394.185L257.511 394.526ZM178.353 393.517H256.786C257.243 392.083 257.475 390.612 257.475 389.14C257.475 382.071 252.417 376.075 245.449 374.884L245.047 374.815L245.029 374.408C244.604 364.596 236.574 356.911 226.747 356.911C219.891 356.911 213.665 360.697 210.498 366.791L210.239 367.29L209.771 366.978C207.392 365.394 204.623 364.557 201.761 364.557C193.777 364.557 187.281 371.053 187.281 379.037C187.281 380.003 187.379 380.974 187.57 381.921L187.716 382.64L186.991 382.518C186.508 382.436 186.073 382.397 185.66 382.397C181.271 382.397 177.7 385.968 177.7 390.358C177.702 391.459 177.92 392.521 178.353 393.517Z" fill="#215468"/>
<path d="M438.268 165.004H367.376L367.239 164.718C366.716 163.631 366.45 162.463 366.45 161.247C366.45 156.826 370.046 153.23 374.467 153.23C374.675 153.23 374.887 153.24 375.106 153.26C375.003 152.577 374.952 151.887 374.952 151.201C374.952 143.59 381.143 137.399 388.754 137.399C391.296 137.399 393.764 138.093 395.925 139.41C398.971 133.97 404.669 130.613 410.927 130.613C420.024 130.613 427.483 137.625 428.081 146.651C434.518 147.943 439.148 153.564 439.148 160.167C439.148 161.68 438.892 163.193 438.385 164.664L438.268 165.004ZM368.019 163.995H437.543C437.938 162.738 438.138 161.452 438.138 160.168C438.138 153.923 433.67 148.626 427.514 147.573L427.112 147.504L427.094 147.097C426.718 138.42 419.615 131.623 410.926 131.623C404.863 131.623 399.358 134.971 396.558 140.36L396.299 140.859L395.831 140.548C393.728 139.148 391.281 138.409 388.754 138.409C381.7 138.409 375.961 144.148 375.961 151.201C375.961 152.052 376.047 152.909 376.216 153.749L376.361 154.469L375.638 154.347C375.214 154.275 374.831 154.241 374.467 154.241C370.603 154.241 367.46 157.384 367.46 161.248C367.46 162.205 367.647 163.127 368.019 163.995Z" fill="#215468"/>
<path d="M73.896 391.146H39.0439V366.366H73.896V391.146ZM40.0969 390.094H72.8439V367.42H40.0969V390.094Z" fill="#01354B"/>
<path d="M39.9011 366.493L39.2578 367.326L56.1576 380.386L56.8009 379.553L39.9011 366.493Z" fill="#01354B"/>
<path d="M73.0327 366.472L56.1343 379.532L56.7776 380.365L73.676 367.304L73.0327 366.472Z" fill="#01354B"/>
<path d="M61.3125 376.616L60.5354 377.325L72.9975 390.982L73.7746 390.272L61.3125 376.616Z" fill="#01354B"/>
<path d="M51.6505 376.626L39.1865 390.281L39.9635 390.99L52.4275 377.336L51.6505 376.626Z" fill="#01354B"/>
<path d="M282.44 121.984L282.182 121.838C264.217 111.709 269.488 95.7641 269.544 95.6041L269.687 95.1941L270.117 95.2561C275.187 95.9881 282.108 92.0771 282.178 92.0371L282.43 91.8931L282.687 92.0301C282.987 92.2001 289.745 95.9691 294.763 95.2561L295.193 95.1941L295.336 95.6041C295.392 95.7641 300.663 111.71 282.699 121.838L282.44 121.984ZM270.414 96.3511C269.705 98.8481 266.911 111.858 282.438 120.774C297.967 111.858 295.173 98.8481 294.464 96.3511C289.617 96.8241 283.754 93.8091 282.438 93.0951C281.119 93.8031 275.194 96.8091 270.414 96.3511Z" fill="#215468"/>
<path d="M133.494 327.774H58.3387C58.0477 327.774 57.8127 327.539 57.8127 327.248V252.431C57.8127 252.14 58.0477 251.905 58.3387 251.905C58.6297 251.905 58.8647 252.14 58.8647 252.431V326.721H133.493C133.784 326.721 134.019 326.956 134.019 327.247C134.02 327.539 133.785 327.774 133.494 327.774Z" fill="#01354B"/>
<path d="M60.1768 252.314C60.1768 253.327 59.3548 254.149 58.3418 254.149C57.3278 254.149 56.5068 253.327 56.5068 252.314C56.5068 251.3 57.3288 250.479 58.3418 250.479C59.3548 250.479 60.1768 251.3 60.1768 252.314Z" fill="#01354B"/>
<path d="M135.329 327.248C135.329 328.261 134.507 329.083 133.494 329.083C132.481 329.083 131.659 328.261 131.659 327.248C131.659 326.235 132.481 325.413 133.494 325.413C134.507 325.413 135.329 326.234 135.329 327.248Z" fill="#01354B"/>
<path d="M452.03 316.88H428.005C427.714 316.88 427.479 316.645 427.479 316.354C427.479 316.063 427.714 315.828 428.005 315.828H451.504V190.643H367.232C366.941 190.643 366.706 190.408 366.706 190.117C366.706 189.826 366.941 189.591 367.232 189.591H452.03C452.321 189.591 452.556 189.827 452.556 190.117V316.354C452.556 316.644 452.321 316.88 452.03 316.88Z" fill="#01354B"/>
<path d="M425.433 316.354C425.433 315.341 426.255 314.519 427.268 314.519C428.281 314.519 429.103 315.341 429.103 316.354C429.103 317.367 428.281 318.189 427.268 318.189C426.254 318.189 425.433 317.367 425.433 316.354Z" fill="#01354B"/>
<path d="M365.396 190.116C365.396 189.103 366.218 188.281 367.231 188.281C368.244 188.281 369.066 189.103 369.066 190.116C369.066 191.13 368.244 191.951 367.231 191.951C366.218 191.951 365.396 191.13 365.396 190.116Z" fill="#01354B"/>
<path d="M250.535 311.418L245.594 308.193C245.912 307.004 246.124 305.797 246.222 304.588L251.963 303.224C254.073 302.723 255.377 300.606 254.876 298.496L253.764 293.816C253.263 291.706 251.146 290.402 249.036 290.903L243.295 292.267C242.846 291.531 242.346 290.821 241.8 290.141L245.025 285.2C246.21 283.384 245.699 280.951 243.883 279.765L239.855 277.136C238.039 275.951 235.606 276.462 234.42 278.278L231.195 283.219C230.353 282.993 229.502 282.821 228.647 282.706L227.584 276.902C227.194 274.769 225.148 273.356 223.014 273.746L218.283 274.612C216.15 275.003 214.737 277.048 215.127 279.182L216.189 284.986C215.121 285.563 214.102 286.242 213.142 287.012L208.201 283.787C206.385 282.602 203.952 283.113 202.766 284.929L200.137 288.957C198.952 290.773 199.463 293.206 201.279 294.392L206.22 297.617C205.901 298.806 205.69 300.012 205.592 301.222L199.851 302.586C197.741 303.087 196.437 305.204 196.938 307.314L198.05 311.994C198.551 314.104 200.668 315.408 202.778 314.907L208.519 313.543C208.968 314.279 209.468 314.989 210.014 315.669L206.789 320.61C205.604 322.426 206.115 324.859 207.931 326.045L211.959 328.674C213.775 329.859 216.208 329.348 217.394 327.532L220.619 322.591C221.461 322.817 222.312 322.989 223.167 323.104L224.229 328.908C224.619 331.041 226.665 332.454 228.799 332.064L233.53 331.198C235.663 330.808 237.076 328.762 236.685 326.628L235.623 320.824C236.691 320.247 237.71 319.568 238.67 318.798L243.611 322.023C245.427 323.208 247.86 322.697 249.046 320.881L251.675 316.853C252.862 315.036 252.351 312.603 250.535 311.418ZM218.762 313.854C212.724 309.913 211.019 301.796 214.959 295.758C218.9 289.72 227.017 288.015 233.055 291.955C239.093 295.896 240.799 304.013 236.858 310.051C232.917 316.089 224.799 317.795 218.762 313.854Z" fill="#01354B"/>
<path d="M163.638 350.829L163.617 310.882C168.542 308.603 171.91 304.035 171.907 298.762C171.904 293.369 168.374 288.722 163.263 286.504L163.271 301.447L149.79 301.454L149.782 286.511C144.673 288.734 141.148 293.385 141.15 298.778C141.153 304.051 144.525 308.616 149.452 310.89L149.473 350.837C144.548 353.116 141.18 357.684 141.183 362.957C141.186 368.35 144.716 372.997 149.827 375.215L149.819 360.272L163.3 360.265L163.308 375.208C168.417 372.985 171.942 368.334 171.94 362.941C171.938 357.667 168.566 353.102 163.638 350.829Z" fill="#01354B"/>
<path d="M58.2539 348.226C58.2539 350.311 56.5639 352.002 54.4779 352.002C52.3919 352.002 50.7019 350.312 50.7019 348.226C50.7019 346.14 52.3919 344.45 54.4779 344.45C56.5639 344.45 58.2539 346.141 58.2539 348.226Z" fill="#01354B"/>
<path d="M308.817 144.108C308.817 146.193 307.127 147.884 305.041 147.884C302.955 147.884 301.265 146.193 301.265 144.108C301.265 142.023 302.956 140.332 305.041 140.332C307.126 140.332 308.817 142.023 308.817 144.108Z" fill="#01354B"/>
<path d="M152.696 120.575C150.336 120.575 148.416 118.655 148.416 116.295C148.416 113.934 150.336 112.014 152.696 112.014C155.056 112.014 156.976 113.934 156.976 116.295C156.976 118.655 155.056 120.575 152.696 120.575ZM152.696 113.023C150.892 113.023 149.425 114.491 149.425 116.295C149.425 118.099 150.892 119.566 152.696 119.566C154.5 119.566 155.967 118.099 155.967 116.295C155.967 114.491 154.5 113.023 152.696 113.023Z" fill="#01354B"/>
<path d="M288.098 395.07C290.183 395.07 291.874 393.379 291.874 391.294C291.874 389.209 290.183 387.518 288.098 387.518C286.012 387.518 284.322 389.209 284.322 391.294C284.322 393.379 286.012 395.07 288.098 395.07Z" fill="#01354B"/>
<path d="M456.675 181.254C454.315 181.254 452.395 179.334 452.395 176.973C452.395 174.613 454.315 172.693 456.675 172.693C459.036 172.693 460.956 174.613 460.956 176.973C460.956 179.333 459.036 181.254 456.675 181.254ZM456.675 173.702C454.871 173.702 453.404 175.169 453.404 176.973C453.404 178.777 454.871 180.245 456.675 180.245C458.479 180.245 459.947 178.777 459.947 176.973C459.947 175.169 458.479 173.702 456.675 173.702Z" fill="#01354B"/>
<path d="M395.778 92.4932H343.202V96.8182H395.778V92.4932Z" fill="#215468"/>
<path d="M406.988 102.508H343.202V106.832H406.988V102.508Z" fill="#215468"/>
<path d="M401.696 112.522H343.202V116.847H401.696V112.522Z" fill="#215468"/>
<path d="M365.991 122.537H343.202V126.862H365.991V122.537Z" fill="#215468"/>
<path d="M121.94 402.984H110.546V407.309H121.94V402.984Z" fill="#01354B"/>
<path d="M171.757 402.984H125.44V407.309H171.757V402.984Z" fill="#01354B"/>
<path d="M148.883 392.97H110.546V397.295H148.883V392.97Z" fill="#01354B"/>
<path d="M161.856 412.43H110.546V416.755H161.856V412.43Z" fill="#01354B"/>
<path d="M133.335 382.955H110.546V387.28H133.335V382.955Z" fill="#01354B"/>
<path d="M255.233 416.701C255.048 416.701 254.864 416.622 254.735 416.469C254.504 416.195 254.539 415.784 254.813 415.553L264.057 407.757C264.332 407.527 264.742 407.561 264.973 407.835C265.205 408.11 265.169 408.52 264.895 408.751L255.651 416.547C255.53 416.65 255.381 416.701 255.233 416.701Z" fill="#01354B"/>
<path d="M263.677 416.701C263.492 416.701 263.308 416.622 263.179 416.469C262.948 416.195 262.983 415.784 263.257 415.553L272.501 407.757C272.775 407.527 273.185 407.561 273.417 407.835C273.648 408.11 273.613 408.52 273.339 408.751L264.095 416.547C263.973 416.65 263.825 416.701 263.677 416.701Z" fill="#01354B"/>
<path d="M272.12 416.701C271.935 416.701 271.751 416.622 271.623 416.469C271.391 416.195 271.427 415.784 271.701 415.553L280.946 407.757C281.221 407.527 281.63 407.561 281.862 407.835C282.094 408.11 282.058 408.52 281.784 408.751L272.539 416.547C272.416 416.65 272.268 416.701 272.12 416.701Z" fill="#01354B"/>
<path d="M280.563 416.701C280.378 416.701 280.194 416.622 280.065 416.469C279.834 416.195 279.869 415.784 280.143 415.553L289.387 407.757C289.662 407.527 290.072 407.561 290.303 407.835C290.535 408.11 290.499 408.52 290.225 408.751L280.981 416.547C280.859 416.65 280.711 416.701 280.563 416.701Z" fill="#01354B"/>
<path d="M289.006 416.701C288.821 416.701 288.637 416.622 288.509 416.469C288.277 416.195 288.313 415.784 288.587 415.553L297.831 407.757C298.106 407.527 298.515 407.561 298.747 407.835C298.978 408.11 298.943 408.52 298.669 408.751L289.425 416.547C289.303 416.65 289.154 416.701 289.006 416.701Z" fill="#01354B"/>
<path d="M298.25 416.701C298.065 416.701 297.881 416.622 297.752 416.469C297.521 416.195 297.556 415.784 297.83 415.553L307.074 407.757C307.349 407.527 307.758 407.561 307.99 407.835C308.222 408.11 308.186 408.52 307.912 408.751L298.668 416.547C298.547 416.65 298.398 416.701 298.25 416.701Z" fill="#01354B"/>
<path d="M163.034 100.938C162.849 100.938 162.665 100.859 162.536 100.707C162.305 100.433 162.34 100.022 162.614 99.791L171.859 91.996C172.133 91.765 172.543 91.8 172.775 92.074C173.006 92.348 172.971 92.759 172.697 92.99L163.452 100.785C163.33 100.888 163.182 100.938 163.034 100.938Z" fill="#4E94A6"/>
<path d="M171.477 100.938C171.292 100.938 171.108 100.859 170.979 100.707C170.748 100.433 170.783 100.022 171.057 99.791L180.301 91.996C180.575 91.765 180.985 91.8 181.217 92.074C181.448 92.348 181.413 92.759 181.139 92.99L171.895 100.785C171.773 100.888 171.625 100.938 171.477 100.938Z" fill="#4E94A6"/>
<path d="M179.92 100.938C179.735 100.938 179.551 100.859 179.423 100.707C179.191 100.433 179.227 100.022 179.501 99.791L188.745 91.996C189.02 91.765 189.429 91.8 189.661 92.074C189.892 92.348 189.857 92.759 189.583 92.99L180.339 100.785C180.217 100.888 180.068 100.938 179.92 100.938Z" fill="#4E94A6"/>
<path d="M188.363 100.938C188.178 100.938 187.994 100.859 187.865 100.707C187.634 100.433 187.669 100.022 187.943 99.791L197.188 91.996C197.463 91.765 197.872 91.8 198.104 92.074C198.335 92.348 198.3 92.759 198.026 92.99L188.781 100.785C188.66 100.888 188.511 100.938 188.363 100.938Z" fill="#4E94A6"/>
<path d="M196.807 100.938C196.622 100.938 196.438 100.859 196.31 100.707C196.078 100.433 196.114 100.022 196.388 99.791L205.632 91.996C205.907 91.765 206.316 91.8 206.548 92.074C206.779 92.348 206.744 92.759 206.47 92.99L197.226 100.785C197.103 100.888 196.955 100.938 196.807 100.938Z" fill="#4E94A6"/>
<path d="M206.051 100.938C205.866 100.938 205.682 100.859 205.553 100.707C205.322 100.433 205.357 100.022 205.631 99.791L214.876 91.996C215.15 91.765 215.56 91.8 215.792 92.074C216.023 92.348 215.988 92.759 215.714 92.99L206.469 100.785C206.347 100.888 206.199 100.938 206.051 100.938Z" fill="#4E94A6"/>
<path d="M313.806 189.481H304.367V180.043C304.367 178.569 303.172 177.375 301.699 177.375H299.89C298.416 177.375 297.222 178.57 297.222 180.043V189.481H287.784C286.31 189.481 285.116 190.676 285.116 192.149V193.958C285.116 195.432 286.311 196.626 287.784 196.626H297.222V206.064C297.222 207.538 298.417 208.732 299.89 208.732H301.699C303.173 208.732 304.367 207.537 304.367 206.064V196.626H313.806C315.28 196.626 316.474 195.431 316.474 193.958V192.149C316.474 190.675 315.279 189.481 313.806 189.481Z" fill="#215468"/>
<path d="M349.285 171.344H339.847V161.906C339.847 160.432 338.652 159.238 337.179 159.238H335.37C333.896 159.238 332.702 160.433 332.702 161.906V171.344H323.264C321.79 171.344 320.596 172.539 320.596 174.012V175.821C320.596 177.295 321.791 178.489 323.264 178.489H332.702V187.927C332.702 189.401 333.897 190.595 335.37 190.595H337.179C338.653 190.595 339.847 189.4 339.847 187.927V178.489H349.285C350.759 178.489 351.953 177.294 351.953 175.821V174.012C351.953 172.539 350.759 171.344 349.285 171.344Z" fill="#215468"/>
</svg>
