<svg width="458" height="394" viewBox="0 0 458 394" fill="none" xmlns="http://www.w3.org/2000/svg">
<g opacity="0.5">
<path d="M184.154 332.283C217.897 298.54 217.897 243.832 184.154 210.089C150.411 176.346 95.7027 176.346 61.9598 210.089C28.2168 243.832 28.2168 298.54 61.9598 332.283C95.7027 366.025 150.411 366.025 184.154 332.283Z" fill="#4E94A6"/>
<path d="M319.106 272.918C394.357 272.918 455.361 211.915 455.361 136.663C455.361 61.4117 394.357 0.408203 319.106 0.408203C243.854 0.408203 182.851 61.4117 182.851 136.663C182.851 211.915 243.854 272.918 319.106 272.918Z" fill="#CAE7EF"/>
</g>
<path d="M256.38 105.441L245.246 102.943C245.018 100.573 244.584 98.2452 243.943 95.9872L253.42 89.6312C256.903 87.2952 257.833 82.5772 255.497 79.0942L250.315 71.3692C247.979 67.8862 243.261 66.9562 239.778 69.2922L230.301 75.6482C228.989 74.6182 227.602 73.6722 226.153 72.8082L228.651 61.6742C229.569 57.5812 226.996 53.5202 222.904 52.6022L213.828 50.5662C209.736 49.6482 205.674 52.2212 204.756 56.3142L202.258 67.4482C200.579 67.6102 198.921 67.8732 197.295 68.2442L191.442 58.4482C189.291 54.8482 184.628 53.6732 181.028 55.8252L173.043 60.5962C169.443 62.7472 168.268 67.4102 170.42 71.0102L176.273 80.8062C174.729 82.5742 173.342 84.4932 172.124 86.5392L160.99 84.0412C156.898 83.1232 152.836 85.6962 151.918 89.7892L149.882 98.8652C148.964 102.958 151.537 107.019 155.629 107.937L166.763 110.435C166.991 112.805 167.425 115.133 168.066 117.391L158.589 123.747C155.106 126.083 154.176 130.801 156.512 134.284L161.693 142.009C164.029 145.492 168.747 146.422 172.23 144.086L181.707 137.73C183.019 138.76 184.405 139.706 185.854 140.57L183.356 151.704C182.438 155.796 185.011 159.858 189.104 160.776L198.18 162.812C202.272 163.73 206.334 161.157 207.252 157.064L209.75 145.93C211.429 145.769 213.087 145.505 214.713 145.134L220.566 154.93C222.717 158.53 227.38 159.705 230.98 157.553L238.965 152.782C242.565 150.631 243.74 145.968 241.588 142.368L235.734 132.572C237.278 130.805 238.665 128.885 239.883 126.839L251.017 129.337C255.109 130.255 259.171 127.682 260.089 123.589L262.125 114.513C263.046 110.421 260.472 106.359 256.38 105.441ZM200.469 131.362C186.864 128.31 178.279 114.759 181.331 101.154C184.383 87.5492 197.934 78.9642 211.539 82.0162C225.144 85.0682 233.729 98.6192 230.677 112.224C227.625 125.829 214.075 134.414 200.469 131.362Z" fill="#215468"/>
<path d="M330.191 274.738L322.755 269.856C323.24 268.064 323.563 266.247 323.716 264.424L332.376 262.391C335.559 261.644 337.534 258.458 336.786 255.275L335.129 248.216C334.382 245.033 331.196 243.058 328.013 243.806L319.353 245.839C318.679 244.727 317.927 243.656 317.108 242.628L321.99 235.192C323.784 232.459 323.023 228.788 320.29 226.994L314.228 223.015C311.495 221.221 307.824 221.982 306.03 224.715L301.148 232.151C299.879 231.808 298.597 231.544 297.309 231.368L295.731 222.613C295.151 219.395 292.072 217.257 288.854 217.837L281.718 219.124C278.5 219.704 276.362 222.783 276.943 226.001L278.522 234.756C276.91 235.621 275.371 236.641 273.92 237.798L266.484 232.916C263.751 231.122 260.081 231.883 258.286 234.616L254.307 240.678C252.513 243.411 253.274 247.082 256.007 248.876L263.443 253.758C262.958 255.55 262.635 257.367 262.482 259.19L253.822 261.223C250.639 261.97 248.664 265.156 249.411 268.339L251.068 275.399C251.815 278.582 255.001 280.557 258.184 279.809L266.844 277.776C267.518 278.888 268.269 279.959 269.089 280.987L264.207 288.423C262.413 291.156 263.174 294.827 265.907 296.621L271.969 300.6C274.702 302.394 278.372 301.633 280.167 298.9L285.049 291.464C286.318 291.808 287.6 292.071 288.888 292.247L290.467 301.002C291.047 304.22 294.126 306.358 297.344 305.777L304.48 304.49C307.697 303.91 309.836 300.831 309.255 297.613L307.676 288.858C309.288 287.993 310.827 286.973 312.278 285.816L319.714 290.698C322.447 292.492 326.118 291.731 327.912 288.998L331.891 282.936C333.685 280.202 332.924 276.532 330.191 274.738ZM282.28 278.284C273.193 272.319 270.654 260.074 276.619 250.988C282.584 241.901 294.829 239.362 303.916 245.327C313.003 251.292 315.542 263.537 309.577 272.623C303.611 281.71 291.366 284.25 282.28 278.284Z" fill="#01354B"/>
<path d="M407.519 142.134C392.186 122.297 368.156 109.516 341.195 109.516C332.262 109.516 323.487 110.946 315.169 113.664C315.16 113.665 315.154 113.664 315.145 113.665C313.303 113.865 307.156 115.995 301.01 119.235C295.175 122.297 289.338 126.402 286.765 129.021L260.759 154.894L246.039 169.53L231.292 154.872L215.804 139.463C215.5 139.04 215.179 138.625 214.83 138.225C211.564 134.485 207.996 131.078 204.188 128.016C204.081 127.927 203.972 127.84 203.863 127.754C189.137 116.034 170.784 109.516 151.678 109.516C124.625 109.516 100.527 122.393 85.2018 142.33C74.3498 156.466 67.8628 174.159 67.8628 193.331C67.8628 215.444 76.4978 235.574 90.5238 250.571C105.836 266.91 127.581 277.132 151.678 277.132C169.483 277.132 185.535 271.729 200.735 260.659C201.992 259.945 203.186 259.073 204.265 258.008L218.067 244.295L246.042 216.476L274.183 244.451L284.525 254.738C285.152 255.513 285.846 256.249 286.631 256.921C286.971 257.214 287.325 257.487 287.669 257.774C287.881 257.955 288.093 258.133 288.312 258.302C303.209 270.443 321.907 277.136 341.194 277.136C365.292 277.136 387.037 266.906 402.348 250.575C416.394 235.575 425.003 215.449 425.003 193.327C425.005 174.064 418.481 156.291 407.519 142.134ZM194.657 220.617L182.188 233.006C182.159 233.028 182.127 233.045 182.098 233.067C172.204 240.525 162.83 243.85 151.678 243.85C137.584 243.85 124.803 238.034 115.634 228.688C115.182 228.223 114.731 227.758 114.306 227.278C106.397 218.603 101.485 207.19 101.17 194.614C101.156 194.19 101.156 193.765 101.156 193.328C101.156 192.439 101.183 191.577 101.225 190.742C101.785 179.453 106.082 169.135 112.897 160.979C113.828 159.871 114.8 158.803 115.812 157.777C124.966 148.527 137.652 142.793 151.678 142.793C162.944 142.793 173.793 146.577 182.579 153.371L206.706 177.369L222.431 193.001L194.657 220.617ZM377.008 228.939C367.844 238.148 355.174 243.85 341.195 243.85C329.708 243.85 318.587 239.924 309.659 232.775L297.438 220.618L269.651 192.998L285.589 177.149L299.841 162.975C301.026 162.18 302.137 161.235 303.119 160.108C312.727 149.102 326.617 142.8 341.196 142.8C355.242 142.8 367.978 148.569 377.143 157.844C386.152 166.986 391.722 179.501 391.722 193.325C391.721 207.215 386.107 219.797 377.008 228.939Z" fill="#4E94A6"/>
<path d="M120.456 243.342C118.749 241.6 116.514 240.696 114.255 240.62C113.957 240.56 113.628 240.527 113.507 240.492C112.987 240.34 112.483 240.137 112.001 239.889C111.02 239.383 110.135 238.685 109.423 237.841C108.154 236.335 108.229 235.173 108.247 233.214L114.307 227.279C106.398 218.604 101.486 207.191 101.171 194.615C101.157 194.191 101.157 193.766 101.157 193.329C101.157 192.44 101.184 191.578 101.226 190.743C101.786 179.454 106.083 169.136 112.898 160.98L104.282 155.178C104.316 154.299 104.532 153.515 105.203 152.578C105.847 151.68 106.674 150.916 107.613 150.334C108.074 150.049 108.561 149.807 109.068 149.615C109.185 149.57 109.512 149.512 109.803 149.429C112.049 149.176 114.206 148.1 115.772 146.23C119.002 142.371 118.491 136.623 114.632 133.393C110.773 130.163 105.025 130.673 101.795 134.533C100.277 136.347 99.5948 138.578 99.6888 140.769C99.6338 141.105 99.6408 141.555 99.6128 141.703C99.5128 142.235 99.3608 142.758 99.1618 143.261C98.7538 144.288 98.1478 145.236 97.3768 146.029C96.0518 147.391 94.9158 147.476 93.0848 147.638L85.2008 142.328C74.3488 156.464 67.8618 174.157 67.8618 193.329C67.8618 215.442 76.4968 235.572 90.5228 250.569L97.5248 243.712C99.4878 243.734 100.652 243.681 102.133 244.982C102.963 245.711 103.642 246.61 104.128 247.601C104.366 248.088 104.559 248.596 104.7 249.119C104.74 249.265 104.767 249.713 104.849 250.044C104.927 252.235 105.781 254.406 107.437 256.096C110.959 259.691 116.729 259.75 120.323 256.227C123.919 252.706 123.979 246.936 120.456 243.342Z" fill="#215468"/>
<path d="M425.005 193.329C425.005 174.158 418.518 156.464 407.667 142.328L399.783 147.638C397.953 147.476 396.816 147.391 395.491 146.029C394.721 145.237 394.114 144.288 393.707 143.261C393.508 142.757 393.355 142.235 393.256 141.703C393.228 141.555 393.235 141.105 393.18 140.769C393.274 138.578 392.593 136.347 391.074 134.533C387.844 130.674 382.097 130.163 378.237 133.393C374.378 136.623 373.867 142.37 377.098 146.23C378.663 148.1 380.82 149.176 383.066 149.429C383.359 149.512 383.684 149.57 383.802 149.615C384.308 149.807 384.795 150.049 385.256 150.334C386.195 150.916 387.022 151.68 387.666 152.578C388.337 153.514 388.553 154.299 388.587 155.178L379.971 160.98C386.786 169.136 391.083 179.454 391.643 190.743C391.684 191.578 391.711 192.44 391.711 193.329C391.711 193.767 391.711 194.191 391.697 194.615C391.382 207.191 386.47 218.603 378.561 227.279L384.621 233.214C384.639 235.173 384.714 236.335 383.445 237.841C382.733 238.686 381.849 239.383 380.867 239.889C380.385 240.137 379.881 240.34 379.361 240.492C379.241 240.527 378.911 240.56 378.613 240.62C376.354 240.696 374.119 241.6 372.412 243.342C368.89 246.937 368.949 252.707 372.543 256.229C376.137 259.751 381.907 259.693 385.429 256.098C387.085 254.408 387.939 252.237 388.017 250.046C388.098 249.715 388.125 249.266 388.165 249.121C388.306 248.598 388.499 248.089 388.737 247.603C389.223 246.611 389.902 245.713 390.732 244.984C392.214 243.683 393.378 243.736 395.341 243.714L402.343 250.571C416.37 235.572 425.005 215.443 425.005 193.329Z" fill="#215468"/>
<path d="M302.949 236.78C301.226 235.159 299.039 234.349 296.846 234.315C296.513 234.241 296.064 234.222 295.918 234.185C295.392 234.055 294.88 233.872 294.389 233.644C293.388 233.178 292.476 232.517 291.73 231.702C290.57 230.435 290.444 229.386 290.39 227.84L297.439 220.616L231.293 154.869L224.241 161.323C222.313 161.263 221.153 161.28 219.712 159.961C218.897 159.215 218.236 158.303 217.77 157.302C217.542 156.811 217.36 156.298 217.229 155.773C217.192 155.627 217.173 155.177 217.099 154.845C217.065 152.652 216.255 150.465 214.634 148.741C211.186 145.076 205.418 144.9 201.753 148.349C198.088 151.798 197.911 157.565 201.36 161.231C203.032 163.007 205.248 163.956 207.505 164.078C207.802 164.144 208.131 164.183 208.25 164.221C208.767 164.383 209.267 164.596 209.743 164.854C210.714 165.38 211.584 166.095 212.279 166.954C213.444 168.395 213.426 169.514 213.371 171.27L206.705 177.37L274.183 244.448L280.435 238.041C282.183 237.987 283.3 237.972 284.737 239.133C285.596 239.828 286.311 240.698 286.837 241.669C287.095 242.145 287.308 242.646 287.47 243.163C287.508 243.283 287.547 243.612 287.613 243.908C287.734 246.165 288.684 248.382 290.46 250.053C294.126 253.502 299.893 253.326 303.342 249.661C306.79 245.996 306.614 240.229 302.949 236.78Z" fill="#215468"/>
<path d="M279.702 166.955C280.397 166.096 281.267 165.381 282.238 164.855C282.714 164.597 283.215 164.384 283.732 164.222C283.852 164.184 284.181 164.145 284.477 164.079C286.735 163.957 288.951 163.008 290.622 161.232C294.071 157.567 293.895 151.799 290.23 148.35C286.565 144.901 280.798 145.077 277.349 148.742C275.728 150.465 274.918 152.653 274.884 154.846C274.809 155.178 274.791 155.628 274.754 155.774C274.624 156.3 274.441 156.812 274.213 157.303C273.747 158.304 273.086 159.216 272.271 159.962C270.878 161.237 269.744 161.263 267.928 161.318L260.759 154.892L194.657 220.617L201.6 227.638C201.548 229.294 201.461 230.381 200.253 231.702C199.507 232.517 198.595 233.178 197.594 233.644C197.103 233.872 196.59 234.054 196.064 234.185C195.918 234.222 195.468 234.24 195.136 234.315C192.944 234.349 190.756 235.159 189.033 236.78C185.368 240.229 185.192 245.996 188.641 249.661C192.09 253.326 197.857 253.502 201.522 250.053C203.298 248.382 204.247 246.166 204.369 243.908C204.435 243.612 204.474 243.283 204.512 243.163C204.674 242.646 204.887 242.146 205.145 241.669C205.671 240.698 206.386 239.828 207.245 239.133C208.777 237.894 209.937 237.993 211.896 238.051L218.067 244.292L285.589 177.147L278.6 170.882C278.56 169.342 278.624 168.289 279.702 166.955Z" fill="#215468"/>
<path d="M432.573 190.76C432.683 195.325 429.071 199.115 424.506 199.225L384.613 197.79L384.317 186.047L424.108 182.694C428.673 182.583 432.463 186.195 432.573 190.76Z" fill="#01354B"/>
<path d="M373.164 212.182C383.953 201.985 384.434 184.972 374.237 174.183C364.04 163.394 347.027 162.914 336.238 173.111C325.449 183.307 324.968 200.32 335.165 211.109C345.362 221.899 362.375 222.379 373.164 212.182Z" fill="#E4EFF3"/>
<path opacity="0.3" d="M354.792 173.151C360.636 173.01 365.487 177.634 365.628 183.478C365.769 189.322 361.145 194.174 355.301 194.314C349.457 194.455 344.606 189.831 344.465 183.987C344.325 178.143 348.948 173.292 354.792 173.151Z" fill="#4E94A6"/>
<path opacity="0.3" d="M361.514 187.237C365.546 187.14 368.893 190.33 368.99 194.361C369.087 198.393 365.897 201.74 361.866 201.837C357.834 201.934 354.487 198.744 354.39 194.713C354.293 190.681 357.483 187.334 361.514 187.237Z" fill="#01354B"/>
<path d="M385.564 191.891C385.974 208.919 372.455 223.105 355.428 223.514C338.4 223.924 324.214 210.405 323.804 193.377C323.394 176.349 336.913 162.163 353.941 161.754C370.968 161.345 385.154 174.864 385.564 191.891ZM331.822 193.185C332.125 205.791 342.628 215.8 355.234 215.497C367.84 215.194 377.849 204.691 377.546 192.085C377.243 179.479 366.74 169.47 354.133 169.773C341.527 170.076 331.519 180.579 331.822 193.185Z" fill="#01354B"/>
<g opacity="0.4">
<path d="M153.976 79.724V179.208C153.976 182.916 150.968 185.924 147.252 185.924H43.724C40.008 185.924 37 182.916 37 179.208V79.724C37 76.008 40.008 73 43.724 73H147.252C150.968 73 153.976 76.008 153.976 79.724Z" fill="#CAE7EF"/>
<path d="M153.976 82.6221V180.754C153.976 183.61 151.661 185.926 148.805 185.926H42.179C39.319 185.926 37 183.607 37 180.747V82.6221H153.976Z" fill="#4E94A6"/>
</g>
<path d="M70.9139 90.5015C69.3169 90.1045 67.6429 89.8945 65.9249 89.8945C56.9339 89.8945 49.2629 95.6465 46.4029 103.665C46.2109 104.2 46.0419 104.749 45.8939 105.307C45.4429 107.003 45.2019 108.779 45.2019 110.613C45.2019 114.772 46.4339 118.649 48.5569 121.902C49.1909 122.875 49.9089 123.794 50.6939 124.646C53.8219 128.046 58.0739 130.393 62.8579 131.103C63.8569 131.255 64.8839 131.331 65.9239 131.331C77.3469 131.331 86.6419 122.041 86.6419 110.613C86.6429 100.908 79.9369 92.7415 70.9139 90.5015ZM65.9249 125.976C65.3049 125.976 64.6929 125.94 64.0949 125.869C60.5119 125.441 57.3079 123.781 54.9159 121.322C53.8319 120.211 52.9169 118.939 52.2169 117.543C51.1499 115.459 50.5569 113.108 50.5569 110.613C50.5569 109.547 50.6639 108.507 50.8739 107.498C51.1549 106.146 51.6099 104.861 52.2209 103.665C54.7599 98.6755 59.9499 95.2485 65.9249 95.2485C67.2949 95.2485 68.6249 95.4265 69.8869 95.7705C76.4419 97.5195 81.2879 103.513 81.2879 110.612C81.2889 119.087 74.3949 125.976 65.9249 125.976Z" fill="#215468"/>
<path d="M64.0958 125.869L62.8598 131.103C58.0758 130.394 53.8238 128.046 50.6958 124.646C49.9108 123.794 49.1918 122.875 48.5588 121.902V117.391L52.2178 117.543C52.9188 118.94 53.8328 120.211 54.9168 121.322C57.3088 123.781 60.5128 125.441 64.0958 125.869Z" fill="#FFC655"/>
<path d="M54.9169 121.322L50.6959 124.646C47.2869 120.951 45.2029 116.021 45.2029 110.612C45.2029 108.778 45.4439 107.002 45.8949 105.306C46.0419 104.748 46.2119 104.199 46.4039 103.664H52.2229C51.6119 104.86 51.1569 106.145 50.8759 107.497C50.6659 108.505 50.5589 109.545 50.5589 110.612C50.5579 114.776 52.2179 118.551 54.9169 121.322Z" fill="#01354B"/>
<path d="M70.914 90.5015L69.888 95.7715C68.625 95.4275 67.296 95.2495 65.926 95.2495C58.519 95.2495 52.321 100.515 50.875 107.499L45.895 105.308C48.242 96.4455 56.332 89.8955 65.926 89.8955C67.643 89.8945 69.317 90.1045 70.914 90.5015Z" fill="#A1C4CD"/>
<path d="M144.914 100.91H94.7268V104.269H144.914V100.91Z" fill="#CAE7EF"/>
<path d="M144.914 108.933H94.7268V112.292H144.914V108.933Z" fill="#CAE7EF"/>
<path d="M117.221 116.956H94.7268V120.315H117.221V116.956Z" fill="#CAE7EF"/>
<path d="M144.914 116.956H120.682V120.315H144.914V116.956Z" fill="#CAE7EF"/>
<path d="M97.81 145.315H49.082V148.674H97.81V145.315Z" fill="#CAE7EF"/>
<path d="M140.831 145.315H101.11V148.674H140.831V145.315Z" fill="#CAE7EF"/>
<path d="M140.827 153.338H49.082V156.697H140.827V153.338Z" fill="#CAE7EF"/>
<path d="M114.88 168.588H49.082V171.947H114.88V168.588Z" fill="#CAE7EF"/>
<path d="M140.83 168.588H118.066V171.947H140.83V168.588Z" fill="#CAE7EF"/>
<path d="M71.576 161.361H49.082V164.72H71.576V161.361Z" fill="#CAE7EF"/>
<path d="M140.827 161.361H75.0371V164.72H140.827V161.361Z" fill="#CAE7EF"/>
<path d="M139.34 181.432C139.283 181.432 139.227 181.41 139.184 181.368C139.097 181.282 139.095 181.141 139.182 181.053L140.759 179.454L139.182 177.855C139.095 177.767 139.097 177.626 139.184 177.54C139.272 177.454 139.413 177.454 139.499 177.542L141.23 179.298C141.316 179.385 141.316 179.524 141.23 179.611L139.499 181.367C139.454 181.41 139.397 181.432 139.34 181.432Z" fill="white"/>
<path d="M144.201 181.432C144.144 181.432 144.088 181.41 144.044 181.368C143.957 181.282 143.955 181.141 144.042 181.053L145.619 179.454L144.042 177.855C143.955 177.767 143.957 177.626 144.044 177.54C144.132 177.454 144.273 177.454 144.359 177.542L146.091 179.298C146.177 179.385 146.177 179.524 146.091 179.611L144.359 181.367C144.316 181.41 144.259 181.432 144.201 181.432Z" fill="white"/>
<path d="M45.9787 78.5255C45.9787 79.2295 45.4077 79.8005 44.7037 79.8005C43.9997 79.8005 43.4287 79.2295 43.4287 78.5255C43.4287 77.8215 43.9997 77.2505 44.7037 77.2505C45.4077 77.2495 45.9787 77.8205 45.9787 78.5255Z" fill="white"/>
<path d="M53.9157 78.5255C53.9157 79.2295 53.3447 79.8005 52.6407 79.8005C51.9367 79.8005 51.3657 79.2295 51.3657 78.5255C51.3657 77.8215 51.9367 77.2505 52.6407 77.2505C53.3447 77.2495 53.9157 77.8205 53.9157 78.5255Z" fill="white"/>
<path d="M61.8537 78.5255C61.8537 79.2295 61.2827 79.8005 60.5787 79.8005C59.8747 79.8005 59.3037 79.2295 59.3037 78.5255C59.3037 77.8215 59.8747 77.2505 60.5787 77.2505C61.2827 77.2495 61.8537 77.8205 61.8537 78.5255Z" fill="white"/>
<path d="M145.425 78.5253L146.625 77.3584C146.702 77.2834 146.71 77.1533 146.641 77.0683C146.573 76.9833 146.453 76.9763 146.376 77.0513L145.143 78.2504L143.91 77.0513C143.832 76.9763 143.714 76.9833 143.645 77.0683C143.576 77.1533 143.583 77.2824 143.661 77.3584L144.861 78.5253L143.661 79.6924C143.584 79.7674 143.576 79.8973 143.645 79.9823C143.682 80.0283 143.734 80.0513 143.785 80.0513C143.829 80.0513 143.874 80.0343 143.909 79.9993L145.142 78.8004L146.375 79.9993C146.411 80.0343 146.455 80.0513 146.5 80.0513C146.552 80.0513 146.603 80.0283 146.64 79.9823C146.709 79.8973 146.701 79.7674 146.624 79.6924L145.425 78.5253Z" fill="white"/>
<path d="M45.9787 78.5255C45.9787 79.2295 45.4077 79.8005 44.7037 79.8005C43.9997 79.8005 43.4287 79.2295 43.4287 78.5255C43.4287 77.8215 43.9997 77.2505 44.7037 77.2505C45.4077 77.2495 45.9787 77.8205 45.9787 78.5255Z" fill="white"/>
<path d="M53.9157 78.5255C53.9157 79.2295 53.3447 79.8005 52.6407 79.8005C51.9367 79.8005 51.3657 79.2295 51.3657 78.5255C51.3657 77.8215 51.9367 77.2505 52.6407 77.2505C53.3447 77.2495 53.9157 77.8205 53.9157 78.5255Z" fill="white"/>
<path d="M61.8537 78.5255C61.8537 79.2295 61.2827 79.8005 60.5787 79.8005C59.8747 79.8005 59.3037 79.2295 59.3037 78.5255C59.3037 77.8215 59.8747 77.2505 60.5787 77.2505C61.2827 77.2495 61.8537 77.8205 61.8537 78.5255Z" fill="white"/>
<path d="M145.425 78.5253L146.625 77.3584C146.702 77.2834 146.71 77.1533 146.641 77.0683C146.573 76.9833 146.453 76.9763 146.376 77.0513L145.143 78.2504L143.91 77.0513C143.832 76.9763 143.714 76.9833 143.645 77.0683C143.576 77.1533 143.583 77.2824 143.661 77.3584L144.861 78.5253L143.661 79.6924C143.584 79.7674 143.576 79.8973 143.645 79.9823C143.682 80.0283 143.734 80.0513 143.785 80.0513C143.829 80.0513 143.874 80.0343 143.909 79.9993L145.142 78.8004L146.375 79.9993C146.411 80.0343 146.455 80.0513 146.5 80.0513C146.552 80.0513 146.603 80.0283 146.64 79.9823C146.709 79.8973 146.701 79.7674 146.624 79.6924L145.425 78.5253Z" fill="white"/>
<g opacity="0.4">
<path d="M436.041 234.738V339.038C436.041 342.746 433.033 345.754 429.317 345.754H325.789C322.073 345.754 319.065 342.746 319.065 339.038V234.738C319.065 231.022 322.073 228.014 325.789 228.014H429.317C433.033 228.014 436.041 231.022 436.041 234.738Z" fill="#4E94A6"/>
<path d="M436.041 237.636V340.583C436.041 343.439 433.726 345.755 430.869 345.755H324.244C321.384 345.755 319.065 343.436 319.065 340.576V237.636H436.041Z" fill="#215468"/>
</g>
<path d="M380.407 306.418H331.679V309.777H380.407V306.418Z" fill="#A1C4CD"/>
<path d="M423.427 306.418H383.706V309.777H423.427V306.418Z" fill="#A1C4CD"/>
<path d="M423.424 314.441H331.679V317.8H423.424V314.441Z" fill="#A1C4CD"/>
<path d="M397.477 329.691H331.679V333.05H397.477V329.691Z" fill="#A1C4CD"/>
<path d="M423.427 329.691H400.663V333.05H423.427V329.691Z" fill="#A1C4CD"/>
<path d="M354.173 322.464H331.679V325.823H354.173V322.464Z" fill="#A1C4CD"/>
<path d="M423.423 322.464H357.633V325.823H423.423V322.464Z" fill="#A1C4CD"/>
<path d="M328.473 233.431C328.473 234.135 327.902 234.706 327.198 234.706C326.494 234.706 325.923 234.135 325.923 233.431C325.923 232.727 326.494 232.156 327.198 232.156C327.902 232.156 328.473 232.727 328.473 233.431Z" fill="white"/>
<path d="M336.411 233.431C336.411 234.135 335.84 234.706 335.136 234.706C334.432 234.706 333.861 234.135 333.861 233.431C333.861 232.727 334.432 232.156 335.136 232.156C335.84 232.156 336.411 232.727 336.411 233.431Z" fill="white"/>
<path d="M344.348 233.431C344.348 234.135 343.777 234.706 343.073 234.706C342.369 234.706 341.798 234.135 341.798 233.431C341.798 232.727 342.369 232.156 343.073 232.156C343.778 232.156 344.348 232.727 344.348 233.431Z" fill="white"/>
<path d="M427.92 233.431L429.12 232.264C429.197 232.189 429.205 232.059 429.136 231.974C429.067 231.889 428.948 231.882 428.871 231.957L427.638 233.156L426.405 231.957C426.327 231.882 426.209 231.889 426.14 231.974C426.071 232.059 426.079 232.189 426.156 232.264L427.356 233.431L426.156 234.598C426.079 234.673 426.071 234.803 426.14 234.888C426.177 234.934 426.229 234.957 426.28 234.957C426.324 234.957 426.369 234.94 426.404 234.905L427.637 233.706L428.87 234.905C428.906 234.94 428.95 234.957 428.995 234.957C429.047 234.957 429.098 234.934 429.135 234.888C429.204 234.803 429.196 234.673 429.119 234.598L427.92 233.431Z" fill="white"/>
<path d="M421.835 341.153C421.779 341.153 421.722 341.131 421.679 341.089C421.592 341.003 421.59 340.862 421.677 340.774L423.253 339.175L421.677 337.576C421.59 337.488 421.592 337.347 421.679 337.261C421.767 337.175 421.907 337.175 421.994 337.263L423.725 339.019C423.811 339.106 423.811 339.245 423.725 339.332L421.994 341.088C421.949 341.131 421.892 341.153 421.835 341.153Z" fill="white"/>
<path d="M426.696 341.153C426.64 341.153 426.583 341.131 426.54 341.089C426.453 341.003 426.451 340.862 426.538 340.774L428.115 339.175L426.538 337.576C426.451 337.488 426.453 337.347 426.54 337.261C426.628 337.175 426.769 337.175 426.855 337.263L428.587 339.019C428.673 339.106 428.673 339.245 428.587 339.332L426.855 341.088C426.811 341.131 426.753 341.153 426.696 341.153Z" fill="white"/>
<path d="M328.473 233.431C328.473 234.135 327.902 234.706 327.198 234.706C326.494 234.706 325.923 234.135 325.923 233.431C325.923 232.727 326.494 232.156 327.198 232.156C327.902 232.156 328.473 232.727 328.473 233.431Z" fill="white"/>
<path d="M336.411 233.431C336.411 234.135 335.84 234.706 335.136 234.706C334.432 234.706 333.861 234.135 333.861 233.431C333.861 232.727 334.432 232.156 335.136 232.156C335.84 232.156 336.411 232.727 336.411 233.431Z" fill="white"/>
<path d="M344.348 233.431C344.348 234.135 343.777 234.706 343.073 234.706C342.369 234.706 341.798 234.135 341.798 233.431C341.798 232.727 342.369 232.156 343.073 232.156C343.778 232.156 344.348 232.727 344.348 233.431Z" fill="white"/>
<path d="M427.92 233.431L429.12 232.264C429.197 232.189 429.205 232.059 429.136 231.974C429.067 231.889 428.948 231.882 428.871 231.957L427.638 233.156L426.405 231.957C426.327 231.882 426.209 231.889 426.14 231.974C426.071 232.059 426.079 232.189 426.156 232.264L427.356 233.431L426.156 234.598C426.079 234.673 426.071 234.803 426.14 234.888C426.177 234.934 426.229 234.957 426.28 234.957C426.324 234.957 426.369 234.94 426.404 234.905L427.637 233.706L428.87 234.905C428.906 234.94 428.95 234.957 428.995 234.957C429.047 234.957 429.098 234.934 429.135 234.888C429.204 234.803 429.196 234.673 429.119 234.598L427.92 233.431Z" fill="white"/>
<path d="M350.514 278.131H344.51V298.422H350.514V278.131Z" fill="#FFC655"/>
<path d="M387.31 272.918H381.306V298.423H387.31V272.918Z" fill="#FFC655"/>
<path d="M362.396 284.183H356.392V298.422H362.396V284.183Z" fill="#01354B"/>
<path d="M339.368 284.183H334.268V298.422H339.368V284.183Z" fill="#A1C4CD"/>
<path d="M374.821 271.89H368.817V298.422H374.821V271.89Z" fill="#A1C4CD"/>
<path d="M399.799 263.316H393.795V298.422H399.799V263.316Z" fill="#01354B"/>
<path d="M411.348 255.625H405.344V298.422H411.348V255.625Z" fill="#A1C4CD"/>
<path d="M331.353 280.512C331.204 280.512 331.057 280.457 330.955 280.353C330.775 280.166 330.806 279.891 331.026 279.737L350.874 265.894C351.076 265.755 351.373 265.764 351.559 265.918L359.773 272.679L374.353 261.529C374.542 261.383 374.828 261.378 375.025 261.517L383.515 267.453L409.342 245.483C409.543 245.312 409.869 245.311 410.07 245.482C410.271 245.653 410.272 245.93 410.071 246.1L383.912 268.351C383.724 268.512 383.424 268.524 383.22 268.38L374.711 262.431L360.103 273.602C359.902 273.757 359.594 273.751 359.4 273.592L351.172 266.819L331.68 280.414C331.584 280.479 331.469 280.512 331.353 280.512Z" fill="black"/>
<path d="M424.268 251.218H419.415V256.071H424.268V251.218Z" fill="#A1C4CD"/>
<path d="M424.268 261.806H419.415V266.659H424.268V261.806Z" fill="#FFC655"/>
<path d="M424.268 272.395H419.415V277.248H424.268V272.395Z" fill="#01354B"/>
<path d="M424.268 282.982H419.415V287.835H424.268V282.982Z" fill="#A1C4CD"/>
<path d="M424.268 293.57H419.415V298.423H424.268V293.57Z" fill="#FFC655"/>
<path d="M131.867 59.6133H52.0678L51.9308 59.3273C51.3448 58.1113 51.0488 56.8043 51.0488 55.4443C51.0488 50.4983 55.0728 46.4743 60.0178 46.4743C60.2738 46.4743 60.5388 46.4873 60.8148 46.5143C60.6918 45.7233 60.6298 44.9223 60.6298 44.1233C60.6298 35.5823 67.5778 28.6333 76.1198 28.6333C78.9958 28.6333 81.7858 29.4243 84.2238 30.9253C87.6378 24.7813 94.0558 20.9873 101.106 20.9873C111.34 20.9873 119.727 28.8873 120.376 39.0483C127.624 40.4793 132.843 46.8003 132.843 54.2263C132.843 55.9263 132.555 57.6243 131.986 59.2723L131.867 59.6133ZM52.7098 58.6043H131.143C131.6 57.1703 131.832 55.6993 131.832 54.2273C131.832 47.1583 126.774 41.1623 119.806 39.9713L119.404 39.9023L119.386 39.4953C118.961 29.6833 110.93 21.9983 101.104 21.9983C94.2478 21.9983 88.0218 25.7843 84.8558 31.8783L84.5968 32.3773L84.1288 32.0653C81.7498 30.4813 78.9808 29.6443 76.1188 29.6443C68.1348 29.6443 61.6388 36.1403 61.6388 44.1243C61.6388 45.0913 61.7368 46.0613 61.9278 47.0063L62.0728 47.7243L61.3498 47.6043C60.8638 47.5233 60.4278 47.4843 60.0178 47.4843C55.6288 47.4843 52.0578 51.0553 52.0578 55.4453C52.0578 56.5463 52.2768 57.6083 52.7098 58.6043Z" fill="#215468"/>
<path d="M254.511 323.526H174.712L174.575 323.24C173.989 322.024 173.693 320.717 173.693 319.357C173.693 314.411 177.717 310.387 182.662 310.387C182.919 310.387 183.183 310.401 183.458 310.427C183.335 309.636 183.273 308.835 183.273 308.036C183.273 299.495 190.221 292.546 198.763 292.546C201.639 292.546 204.429 293.337 206.867 294.838C210.28 288.694 216.699 284.9 223.749 284.9C233.983 284.9 242.37 292.8 243.019 302.961C250.267 304.392 255.486 310.713 255.486 318.139C255.486 319.839 255.198 321.537 254.629 323.185L254.511 323.526ZM175.353 322.517H253.786C254.243 321.083 254.475 319.612 254.475 318.14C254.475 311.071 249.417 305.075 242.449 303.884L242.047 303.815L242.029 303.408C241.604 293.596 233.574 285.911 223.747 285.911C216.891 285.911 210.665 289.697 207.498 295.791L207.239 296.29L206.771 295.978C204.392 294.394 201.623 293.557 198.761 293.557C190.777 293.557 184.281 300.053 184.281 308.037C184.281 309.003 184.379 309.974 184.57 310.921L184.716 311.64L183.991 311.518C183.508 311.436 183.073 311.397 182.66 311.397C178.271 311.397 174.7 314.968 174.7 319.358C174.702 320.459 174.92 321.521 175.353 322.517Z" fill="#215468"/>
<path d="M435.268 94.0043H364.376L364.239 93.7183C363.716 92.6313 363.45 91.4633 363.45 90.2473C363.45 85.8263 367.046 82.2303 371.467 82.2303C371.675 82.2303 371.887 82.2403 372.106 82.2603C372.003 81.5773 371.952 80.8873 371.952 80.2013C371.952 72.5903 378.143 66.3993 385.754 66.3993C388.296 66.3993 390.764 67.0933 392.925 68.4103C395.971 62.9703 401.669 59.6133 407.927 59.6133C417.024 59.6133 424.483 66.6253 425.081 75.6513C431.518 76.9433 436.148 82.5643 436.148 89.1673C436.148 90.6803 435.892 92.1933 435.385 93.6643L435.268 94.0043ZM365.019 92.9953H434.543C434.938 91.7383 435.138 90.4523 435.138 89.1683C435.138 82.9233 430.67 77.6263 424.514 76.5733L424.112 76.5043L424.094 76.0973C423.718 67.4203 416.615 60.6233 407.926 60.6233C401.863 60.6233 396.358 63.9713 393.558 69.3603L393.299 69.8593L392.831 69.5483C390.728 68.1483 388.281 67.4093 385.754 67.4093C378.7 67.4093 372.961 73.1483 372.961 80.2013C372.961 81.0523 373.047 81.9093 373.216 82.7493L373.361 83.4693L372.638 83.3473C372.214 83.2753 371.831 83.2413 371.467 83.2413C367.603 83.2413 364.46 86.3843 364.46 90.2483C364.46 91.2053 364.647 92.1273 365.019 92.9953Z" fill="#215468"/>
<path d="M70.896 320.146H36.0439V295.366H70.896V320.146ZM37.0969 319.094H69.8439V296.42H37.0969V319.094Z" fill="#01354B"/>
<path d="M36.9011 295.493L36.2578 296.326L53.1576 309.386L53.8009 308.553L36.9011 295.493Z" fill="#01354B"/>
<path d="M70.0327 295.472L53.1343 308.532L53.7776 309.365L70.676 296.304L70.0327 295.472Z" fill="#01354B"/>
<path d="M58.3125 305.616L57.5354 306.325L69.9975 319.982L70.7746 319.272L58.3125 305.616Z" fill="#01354B"/>
<path d="M48.6505 305.626L36.1865 319.281L36.9635 319.99L49.4275 306.336L48.6505 305.626Z" fill="#01354B"/>
<path d="M279.44 50.9841L279.182 50.8381C261.217 40.7091 266.488 24.7641 266.544 24.6041L266.687 24.1941L267.117 24.2561C272.187 24.9881 279.108 21.0771 279.178 21.0371L279.43 20.8931L279.687 21.0301C279.987 21.2001 286.745 24.9691 291.763 24.2561L292.193 24.1941L292.336 24.6041C292.392 24.7641 297.663 40.7101 279.699 50.8381L279.44 50.9841ZM267.414 25.3511C266.705 27.8481 263.911 40.8581 279.438 49.7741C294.967 40.8581 292.173 27.8481 291.464 25.3511C286.617 25.8241 280.754 22.8091 279.438 22.0951C278.119 22.8031 272.194 25.8091 267.414 25.3511Z" fill="#215468"/>
<path d="M130.494 256.774H55.3387C55.0477 256.774 54.8127 256.539 54.8127 256.248V181.431C54.8127 181.14 55.0477 180.905 55.3387 180.905C55.6297 180.905 55.8647 181.14 55.8647 181.431V255.721H130.493C130.784 255.721 131.019 255.956 131.019 256.247C131.02 256.539 130.785 256.774 130.494 256.774Z" fill="#01354B"/>
<path d="M57.1768 181.314C57.1768 182.327 56.3548 183.149 55.3418 183.149C54.3278 183.149 53.5068 182.327 53.5068 181.314C53.5068 180.3 54.3288 179.479 55.3418 179.479C56.3548 179.479 57.1768 180.3 57.1768 181.314Z" fill="#01354B"/>
<path d="M132.329 256.248C132.329 257.261 131.507 258.083 130.494 258.083C129.481 258.083 128.659 257.261 128.659 256.248C128.659 255.235 129.481 254.413 130.494 254.413C131.507 254.413 132.329 255.234 132.329 256.248Z" fill="#01354B"/>
<path d="M449.03 245.88H425.005C424.714 245.88 424.479 245.645 424.479 245.354C424.479 245.063 424.714 244.828 425.005 244.828H448.504V119.643H364.232C363.941 119.643 363.706 119.408 363.706 119.117C363.706 118.826 363.941 118.591 364.232 118.591H449.03C449.321 118.591 449.556 118.827 449.556 119.117V245.354C449.556 245.644 449.321 245.88 449.03 245.88Z" fill="#01354B"/>
<path d="M422.433 245.354C422.433 244.341 423.255 243.519 424.268 243.519C425.281 243.519 426.103 244.341 426.103 245.354C426.103 246.367 425.281 247.189 424.268 247.189C423.254 247.189 422.433 246.367 422.433 245.354Z" fill="#01354B"/>
<path d="M362.396 119.116C362.396 118.103 363.218 117.281 364.231 117.281C365.244 117.281 366.066 118.103 366.066 119.116C366.066 120.13 365.244 120.951 364.231 120.951C363.218 120.951 362.396 120.13 362.396 119.116Z" fill="#01354B"/>
<path d="M247.535 240.418L242.594 237.193C242.912 236.004 243.124 234.797 243.222 233.588L248.963 232.224C251.073 231.723 252.377 229.606 251.876 227.496L250.764 222.816C250.263 220.706 248.146 219.402 246.036 219.903L240.295 221.267C239.846 220.531 239.346 219.821 238.8 219.141L242.025 214.2C243.21 212.384 242.699 209.951 240.883 208.765L236.855 206.136C235.039 204.951 232.606 205.462 231.42 207.278L228.195 212.219C227.353 211.993 226.502 211.821 225.647 211.706L224.584 205.902C224.194 203.769 222.148 202.356 220.014 202.746L215.283 203.612C213.15 204.003 211.737 206.048 212.127 208.182L213.189 213.986C212.121 214.563 211.102 215.242 210.142 216.012L205.201 212.787C203.385 211.602 200.952 212.113 199.766 213.929L197.137 217.957C195.952 219.773 196.463 222.206 198.279 223.392L203.22 226.617C202.901 227.806 202.69 229.012 202.592 230.222L196.851 231.586C194.741 232.087 193.437 234.204 193.938 236.314L195.05 240.994C195.551 243.104 197.668 244.408 199.778 243.907L205.519 242.543C205.968 243.279 206.468 243.989 207.014 244.669L203.789 249.61C202.604 251.426 203.115 253.859 204.931 255.045L208.959 257.674C210.775 258.859 213.208 258.348 214.394 256.532L217.619 251.591C218.461 251.817 219.312 251.989 220.167 252.104L221.229 257.908C221.619 260.041 223.665 261.454 225.799 261.064L230.53 260.198C232.663 259.808 234.076 257.762 233.685 255.628L232.623 249.824C233.691 249.247 234.71 248.568 235.67 247.798L240.611 251.023C242.427 252.208 244.86 251.697 246.046 249.881L248.675 245.853C249.862 244.036 249.351 241.603 247.535 240.418ZM215.762 242.854C209.724 238.913 208.019 230.796 211.959 224.758C215.9 218.72 224.017 217.015 230.055 220.955C236.093 224.896 237.799 233.013 233.858 239.051C229.917 245.089 221.799 246.795 215.762 242.854Z" fill="#01354B"/>
<path d="M160.638 279.829L160.617 239.882C165.542 237.603 168.91 233.035 168.907 227.762C168.904 222.369 165.374 217.722 160.263 215.504L160.271 230.447L146.79 230.454L146.782 215.511C141.673 217.734 138.148 222.385 138.15 227.778C138.153 233.051 141.525 237.616 146.452 239.89L146.473 279.837C141.548 282.116 138.18 286.684 138.183 291.957C138.186 297.35 141.716 301.997 146.827 304.215L146.819 289.272L160.3 289.265L160.308 304.208C165.417 301.985 168.942 297.334 168.94 291.941C168.938 286.667 165.566 282.102 160.638 279.829Z" fill="#01354B"/>
<path d="M55.2539 277.226C55.2539 279.311 53.5639 281.002 51.4779 281.002C49.3919 281.002 47.7019 279.312 47.7019 277.226C47.7019 275.14 49.3919 273.45 51.4779 273.45C53.5639 273.45 55.2539 275.141 55.2539 277.226Z" fill="#01354B"/>
<path d="M305.817 73.108C305.817 75.193 304.127 76.884 302.041 76.884C299.955 76.884 298.265 75.193 298.265 73.108C298.265 71.023 299.956 69.332 302.041 69.332C304.126 69.332 305.817 71.023 305.817 73.108Z" fill="#01354B"/>
<path d="M149.696 49.5752C147.336 49.5752 145.416 47.6552 145.416 45.2952C145.416 42.9342 147.336 41.0142 149.696 41.0142C152.056 41.0142 153.976 42.9342 153.976 45.2952C153.976 47.6552 152.056 49.5752 149.696 49.5752ZM149.696 42.0232C147.892 42.0232 146.425 43.4912 146.425 45.2952C146.425 47.0992 147.892 48.5662 149.696 48.5662C151.5 48.5662 152.967 47.0992 152.967 45.2952C152.967 43.4912 151.5 42.0232 149.696 42.0232Z" fill="#01354B"/>
<path d="M285.098 324.07C287.183 324.07 288.874 322.379 288.874 320.294C288.874 318.209 287.183 316.518 285.098 316.518C283.012 316.518 281.322 318.209 281.322 320.294C281.322 322.379 283.012 324.07 285.098 324.07Z" fill="#01354B"/>
<path d="M453.675 110.254C451.315 110.254 449.395 108.334 449.395 105.973C449.395 103.613 451.315 101.693 453.675 101.693C456.036 101.693 457.956 103.613 457.956 105.973C457.956 108.333 456.036 110.254 453.675 110.254ZM453.675 102.702C451.871 102.702 450.404 104.169 450.404 105.973C450.404 107.777 451.871 109.245 453.675 109.245C455.479 109.245 456.947 107.777 456.947 105.973C456.947 104.169 455.479 102.702 453.675 102.702Z" fill="#01354B"/>
<path d="M392.778 21.4932H340.202V25.8182H392.778V21.4932Z" fill="#215468"/>
<path d="M403.988 31.5083H340.202V35.8323H403.988V31.5083Z" fill="#215468"/>
<path d="M398.696 41.522H340.202V45.847H398.696V41.522Z" fill="#215468"/>
<path d="M362.991 51.5371H340.202V55.8621H362.991V51.5371Z" fill="#215468"/>
<path d="M118.94 331.984H107.546V336.309H118.94V331.984Z" fill="#01354B"/>
<path d="M168.757 331.984H122.44V336.309H168.757V331.984Z" fill="#01354B"/>
<path d="M145.883 321.97H107.546V326.295H145.883V321.97Z" fill="#01354B"/>
<path d="M158.856 341.43H107.546V345.755H158.856V341.43Z" fill="#01354B"/>
<path d="M130.335 311.955H107.546V316.28H130.335V311.955Z" fill="#01354B"/>
<path d="M252.233 345.701C252.048 345.701 251.864 345.622 251.735 345.469C251.504 345.195 251.539 344.784 251.813 344.553L261.057 336.757C261.332 336.527 261.742 336.561 261.973 336.835C262.205 337.11 262.169 337.52 261.895 337.751L252.651 345.547C252.53 345.65 252.381 345.701 252.233 345.701Z" fill="#01354B"/>
<path d="M260.677 345.701C260.492 345.701 260.308 345.622 260.179 345.469C259.948 345.195 259.983 344.784 260.257 344.553L269.501 336.757C269.775 336.527 270.185 336.561 270.417 336.835C270.648 337.11 270.613 337.52 270.339 337.751L261.095 345.547C260.973 345.65 260.825 345.701 260.677 345.701Z" fill="#01354B"/>
<path d="M269.12 345.701C268.935 345.701 268.751 345.622 268.623 345.469C268.391 345.195 268.427 344.784 268.701 344.553L277.946 336.757C278.221 336.527 278.63 336.561 278.862 336.835C279.094 337.11 279.058 337.52 278.784 337.751L269.539 345.547C269.416 345.65 269.268 345.701 269.12 345.701Z" fill="#01354B"/>
<path d="M277.563 345.701C277.378 345.701 277.194 345.622 277.065 345.469C276.834 345.195 276.869 344.784 277.143 344.553L286.387 336.757C286.662 336.527 287.072 336.561 287.303 336.835C287.535 337.11 287.499 337.52 287.225 337.751L277.981 345.547C277.859 345.65 277.711 345.701 277.563 345.701Z" fill="#01354B"/>
<path d="M286.006 345.701C285.821 345.701 285.637 345.622 285.509 345.469C285.277 345.195 285.313 344.784 285.587 344.553L294.831 336.757C295.106 336.527 295.515 336.561 295.747 336.835C295.978 337.11 295.943 337.52 295.669 337.751L286.425 345.547C286.303 345.65 286.154 345.701 286.006 345.701Z" fill="#01354B"/>
<path d="M295.25 345.701C295.065 345.701 294.881 345.622 294.752 345.469C294.521 345.195 294.556 344.784 294.83 344.553L304.074 336.757C304.349 336.527 304.758 336.561 304.99 336.835C305.222 337.11 305.186 337.52 304.912 337.751L295.668 345.547C295.547 345.65 295.398 345.701 295.25 345.701Z" fill="#01354B"/>
<path d="M160.034 29.938C159.849 29.938 159.665 29.859 159.536 29.707C159.305 29.433 159.34 29.022 159.614 28.791L168.859 20.996C169.133 20.765 169.543 20.8 169.775 21.074C170.006 21.348 169.971 21.759 169.697 21.99L160.452 29.785C160.33 29.888 160.182 29.938 160.034 29.938Z" fill="#4E94A6"/>
<path d="M168.477 29.938C168.292 29.938 168.108 29.859 167.979 29.707C167.748 29.433 167.783 29.022 168.057 28.791L177.301 20.996C177.575 20.765 177.985 20.8 178.217 21.074C178.448 21.348 178.413 21.759 178.139 21.99L168.895 29.785C168.773 29.888 168.625 29.938 168.477 29.938Z" fill="#4E94A6"/>
<path d="M176.92 29.938C176.735 29.938 176.551 29.859 176.423 29.707C176.191 29.433 176.227 29.022 176.501 28.791L185.745 20.996C186.02 20.765 186.429 20.8 186.661 21.074C186.892 21.348 186.857 21.759 186.583 21.99L177.339 29.785C177.217 29.888 177.068 29.938 176.92 29.938Z" fill="#4E94A6"/>
<path d="M185.363 29.938C185.178 29.938 184.994 29.859 184.865 29.707C184.634 29.433 184.669 29.022 184.943 28.791L194.188 20.996C194.463 20.765 194.872 20.8 195.104 21.074C195.335 21.348 195.3 21.759 195.026 21.99L185.781 29.785C185.66 29.888 185.511 29.938 185.363 29.938Z" fill="#4E94A6"/>
<path d="M193.807 29.938C193.622 29.938 193.438 29.859 193.31 29.707C193.078 29.433 193.114 29.022 193.388 28.791L202.632 20.996C202.907 20.765 203.316 20.8 203.548 21.074C203.779 21.348 203.744 21.759 203.47 21.99L194.226 29.785C194.103 29.888 193.955 29.938 193.807 29.938Z" fill="#4E94A6"/>
<path d="M203.051 29.938C202.866 29.938 202.682 29.859 202.553 29.707C202.322 29.433 202.357 29.022 202.631 28.791L211.876 20.996C212.15 20.765 212.56 20.8 212.792 21.074C213.023 21.348 212.988 21.759 212.714 21.99L203.469 29.785C203.347 29.888 203.199 29.938 203.051 29.938Z" fill="#4E94A6"/>
<path d="M310.806 118.481H301.367V109.043C301.367 107.569 300.172 106.375 298.699 106.375H296.89C295.416 106.375 294.222 107.57 294.222 109.043V118.481H284.784C283.31 118.481 282.116 119.676 282.116 121.149V122.958C282.116 124.432 283.311 125.626 284.784 125.626H294.222V135.064C294.222 136.538 295.417 137.732 296.89 137.732H298.699C300.173 137.732 301.367 136.537 301.367 135.064V125.626H310.806C312.28 125.626 313.474 124.431 313.474 122.958V121.149C313.474 119.675 312.279 118.481 310.806 118.481Z" fill="#215468"/>
<path d="M346.285 100.344H336.847V90.9063C336.847 89.4323 335.652 88.2383 334.179 88.2383H332.37C330.896 88.2383 329.702 89.4333 329.702 90.9063V100.344H320.264C318.79 100.344 317.596 101.539 317.596 103.012V104.821C317.596 106.295 318.791 107.489 320.264 107.489H329.702V116.927C329.702 118.401 330.897 119.595 332.37 119.595H334.179C335.653 119.595 336.847 118.4 336.847 116.927V107.489H346.285C347.759 107.489 348.953 106.294 348.953 104.821V103.012C348.953 101.539 347.759 100.344 346.285 100.344Z" fill="#215468"/>
</svg>
