<svg width="112" height="112" viewBox="0 0 112 112" fill="none" xmlns="http://www.w3.org/2000/svg">
<path d="M44.1656 6.70769C51.5066 2.54681 60.4934 2.54682 67.8344 6.7077L80.36 13.8072L92.7711 21.105C100.045 25.382 104.538 33.1648 104.606 41.6028L104.72 56L104.606 70.3972C104.538 78.8352 100.045 86.618 92.7711 90.895L80.36 98.1928L67.8344 105.292C60.4934 109.453 51.5066 109.453 44.1656 105.292L31.64 98.1928L19.2289 90.895C11.9549 86.618 7.46155 78.8352 7.39448 70.3972L7.28003 56L7.39448 41.6028C7.46155 33.1648 11.9549 25.382 19.2289 21.105L31.64 13.8072L44.1656 6.70769Z" fill="#CAE7EF"/>
<path d="M77.6337 30.6669H47.167V68.9456H77.6337V30.6669Z" fill="#004158"/>
<path d="M71.3808 36.9164H40.9141V74.4139H71.3808V36.9164Z" fill="#4F95A6"/>
<path d="M64.428 43.8706H35.416V80.355H64.428V43.8706Z" stroke="white" stroke-width="1.5"/>
<path d="M39.0254 48.1023H60.8197" stroke="white" stroke-width="1.5"/>
<path d="M39.0254 51.2158H60.8197" stroke="white" stroke-width="1.5"/>
<path d="M39.0254 54.3292H60.8197" stroke="white" stroke-width="1.5"/>
<path d="M39.0254 57.4425H49.6112" stroke="white" stroke-width="1.5"/>
</svg>
