<svg width="112" height="112" viewBox="0 0 112 112" fill="none" xmlns="http://www.w3.org/2000/svg">
<path d="M44.1656 6.70769C51.5066 2.54681 60.4934 2.54682 67.8344 6.7077L80.36 13.8072L92.7711 21.105C100.045 25.382 104.538 33.1648 104.606 41.6028L104.72 56L104.606 70.3972C104.538 78.8352 100.045 86.618 92.7711 90.895L80.36 98.1928L67.8344 105.292C60.4934 109.453 51.5066 109.453 44.1656 105.292L31.64 98.1928L19.2289 90.895C11.9549 86.618 7.46155 78.8352 7.39448 70.3972L7.28003 56L7.39448 41.6028C7.46155 33.1648 11.9549 25.382 19.2289 21.105L31.64 13.8072L44.1656 6.70769Z" fill="#4F95A6"/>
<path d="M45.6144 45.9506C37.6424 45.9506 32.3278 54.9053 30.667 59.3827V75.3333H78.0003V30C67.205 31.679 69.6962 40.9136 64.7138 45.9506C59.7313 50.9877 55.5793 45.9506 45.6144 45.9506Z" fill="url(#paint0_linear_1_146)"/>
<path d="M30.667 59.3333C32.3278 54.8635 37.6424 45.9238 45.6144 45.9238C55.5793 45.9238 59.7313 50.9524 64.7138 45.9238C69.6962 40.8952 67.205 31.6762 78.0003 30" stroke="white" stroke-width="1.5" stroke-linecap="round"/>
<path d="M44.0003 49.25C45.4271 49.25 46.5837 48.0934 46.5837 46.6667C46.5837 45.24 45.4271 44.0834 44.0003 44.0834C42.5736 44.0834 41.417 45.24 41.417 46.6667C41.417 48.0934 42.5736 49.25 44.0003 49.25Z" fill="#4F95A6" stroke="white" stroke-width="1.5"/>
<path d="M77.3333 32.5833C78.7601 32.5833 79.9167 31.4267 79.9167 30C79.9167 28.5732 78.7601 27.4166 77.3333 27.4166C75.9066 27.4166 74.75 28.5732 74.75 30C74.75 31.4267 75.9066 32.5833 77.3333 32.5833Z" fill="#4F95A6" stroke="white" stroke-width="1.5"/>
<defs>
<linearGradient id="paint0_linear_1_146" x1="54.1262" y1="-16.5476" x2="54.1262" y2="75.4533" gradientUnits="userSpaceOnUse">
<stop stop-color="white"/>
<stop offset="1" stop-color="white" stop-opacity="0"/>
</linearGradient>
</defs>
</svg>
