<svg width="112" height="112" viewBox="0 0 112 112" fill="none" xmlns="http://www.w3.org/2000/svg">
<path d="M44.1656 6.70769C51.5066 2.54681 60.4934 2.54682 67.8344 6.7077L80.36 13.8072L92.7711 21.105C100.045 25.382 104.538 33.1648 104.606 41.6028L104.72 56L104.606 70.3972C104.538 78.8352 100.045 86.618 92.7711 90.895L80.36 98.1928L67.8344 105.292C60.4934 109.453 51.5066 109.453 44.1656 105.292L31.64 98.1928L19.2289 90.895C11.9549 86.618 7.46155 78.8352 7.39448 70.3972L7.28003 56L7.39448 41.6028C7.46155 33.1648 11.9549 25.382 19.2289 21.105L31.64 13.8072L44.1656 6.70769Z" fill="#004158"/>
<path d="M33.334 58.9505C33.334 58.1404 34.1098 57.5557 34.8886 57.7789C37.0722 58.4047 39.3327 58.7223 41.6042 58.7223H52.0263V60.8056H59.6417V58.7223H70.0637C72.3353 58.7223 74.5957 58.4047 76.7794 57.7789C77.5582 57.5557 78.334 58.1404 78.334 58.9505V66C78.334 70.4183 74.7523 74 70.334 74H41.334C36.9157 74 33.334 70.4183 33.334 66V58.9505Z" fill="#4F95A6"/>
<path d="M47.334 41.5334V40.5334C47.334 38.8766 48.6771 37.5334 50.334 37.5334H62.334C63.9908 37.5334 65.334 38.8766 65.334 40.5334V41.5334" stroke="#CAE7EF" stroke-width="1.5" stroke-linejoin="round"/>
<path d="M34.084 44.5001C34.084 43.2575 35.0913 42.2501 36.334 42.2501H75.334C76.5766 42.2501 77.584 43.2575 77.584 44.5001V47.6668C77.584 51.6708 74.338 54.9168 70.334 54.9168H41.334C37.3299 54.9168 34.084 51.6709 34.084 47.6668V44.5001Z" stroke="#CAE7EF" stroke-width="1.5"/>
</svg>
